<svg width="143" height="47" viewBox="0 0 143 47" fill="none" xmlns="http://www.w3.org/2000/svg">
<path d="M26.6562 9.8442V38.2463C26.6562 41.4243 28.851 43.1951 31.1748 43.1951C33.3265 43.1951 35.6933 41.689 35.6933 38.2463V10.0594C35.6933 7.146 33.5416 5.32568 31.1748 5.32568C28.8079 5.32568 26.6562 7.33319 26.6562 9.8442Z" fill="white"/>
<path d="M14.8223 24.2602V38.2461C14.8223 41.4241 17.017 43.1949 19.3408 43.1949C21.4925 43.1949 23.8593 41.6888 23.8593 38.2461V24.4754C23.8593 21.562 21.7077 19.7417 19.3408 19.7417C16.9739 19.7417 14.8223 21.7492 14.8223 24.2602Z" fill="white"/>
<path d="M7.50682 43.1947C10.0023 43.1947 12.0254 41.1717 12.0254 38.6762C12.0254 36.1807 10.0023 34.1577 7.50682 34.1577C5.0113 34.1577 2.98828 36.1807 2.98828 38.6762C2.98828 41.1717 5.0113 43.1947 7.50682 43.1947Z" fill="white"/>
<path d="M53.7535 27.5282L56.1181 33.7368H51.5364L53.7535 27.5282ZM52.8662 25.4487L47.6934 39.0444H49.6144L50.9442 35.3509H56.7073L58.0372 39.0444H59.9582L54.7853 25.4487H52.8643H52.8662ZM80.7903 39.0563H82.5727V25.4586H80.7903V39.0543V39.0563ZM62.6199 31.0652C63.211 30.178 64.4023 29.4393 65.5757 29.4393C67.9403 29.4393 69.1226 31.0652 69.1226 33.4299V39.1929H67.3402V33.725C67.3402 31.8039 66.3055 31.0642 64.9756 31.0642C63.4972 31.0642 62.4634 32.5426 62.4634 33.8725V39.0454H60.681V29.5997H62.4634L62.6119 31.0781L62.6199 31.0652ZM70.601 36.248C70.601 34.1686 72.522 32.9962 74.7401 32.9962C76.07 32.9962 76.9582 33.2932 77.2523 33.5873V33.2902C77.2523 31.8119 76.07 31.0722 74.8876 31.0722C73.8529 31.0722 72.9666 31.5158 72.6696 32.402L71.0436 31.6633C71.3407 30.7761 72.522 29.4452 74.8857 29.4452C77.1038 29.4452 79.0248 30.7751 79.0248 33.4358V39.0523H77.3988V37.7225H77.2503C76.8067 38.4612 75.7719 39.3484 74.147 39.3484C72.226 39.3484 70.6 38.1661 70.6 36.2451M77.2503 35.0627C77.2503 35.0627 76.5116 34.4716 75.0322 34.4716C73.2498 34.4716 72.52 35.5064 72.52 36.254C72.52 37.2887 73.5548 37.7324 74.4411 37.7324C75.7709 37.7324 77.2493 36.55 77.2493 35.0716" fill="white"/>
<path fill-rule="evenodd" clip-rule="evenodd" d="M85.0848 43.1952L87.1642 38.3184L83.4707 29.7461H85.2531L88.0613 36.2488L90.8696 29.7461H92.652L86.8889 43.1952H85.1065H85.0848ZM111.098 32.8474C110.654 31.6651 109.619 30.9264 108.586 30.9264C107.107 30.9264 105.777 32.2563 105.777 34.1783C105.777 36.1003 107.107 37.4302 108.586 37.4302C109.62 37.4302 110.665 36.6915 111.098 35.6478L112.576 36.535C111.837 38.1609 110.358 39.1957 108.586 39.1957C106.073 39.1957 104.004 36.9776 104.004 34.1704C104.004 31.2146 106.083 29.145 108.586 29.145C110.368 29.145 111.837 30.1798 112.576 31.8057L111.098 32.8405V32.8474Z" fill="white"/>
<path d="M117.452 39.3511C119.817 39.3511 120.999 38.0212 120.999 36.3953C120.999 32.8483 115.826 34.1772 115.826 32.1096C115.826 31.3709 116.417 30.9273 117.452 30.9273C118.487 30.9273 119.531 31.3709 119.964 32.1096L120.999 31.0749C120.408 30.3362 118.781 29.2925 117.305 29.2925C115.087 29.2925 113.906 30.6223 113.906 32.2483C113.906 35.6477 119.227 34.4664 119.227 36.2388C119.227 37.1261 118.635 37.7172 117.444 37.7172C116.253 37.7172 115.662 36.9785 115.079 36.2388L113.766 37.2835C114.654 38.1708 115.985 39.363 117.46 39.363L117.452 39.3511ZM100.604 39.056H102.386V29.5975H100.604V39.056Z" fill="white"/>
<path fill-rule="evenodd" clip-rule="evenodd" d="M101.344 25.0249C102.082 25.0249 102.526 25.6161 102.526 26.2072C102.526 26.9459 101.935 27.3895 101.344 27.3895C100.753 27.3895 100.161 26.7984 100.161 26.2072C100.161 25.6161 100.753 25.0249 101.344 25.0249ZM98.8316 37.5878L99.1286 38.9176H97.3462C95.7203 38.9176 94.9816 37.7353 94.9816 35.9618V31.3623H93.1992V29.5799H94.9816V26.7895H96.764V29.5977H98.8434V31.3801H96.764V36.2569C96.764 37.5868 97.7988 37.5868 98.8434 37.5868L98.8316 37.5878Z" fill="white"/>
<path d="M56.6804 10.427V12.645H61.8532C61.7047 13.8274 61.2621 14.7245 60.6709 15.3058C59.9322 16.0445 58.7499 16.9317 56.6804 16.9317C53.577 16.9317 51.0639 14.4195 51.0639 11.1686C51.0639 8.0653 53.576 5.40558 56.6804 5.40558C58.4627 5.40558 59.6362 6.14428 60.5224 6.88398L62.0008 5.40558C60.6709 4.22327 59.045 3.1875 56.6804 3.1875C52.3947 3.1875 48.6992 6.73445 48.6992 11.0102C48.6992 15.286 52.3927 18.8329 56.6804 18.8329C59.045 18.8329 60.8195 18.0942 62.1483 16.6148C63.6267 15.1364 64.0693 13.2154 64.0693 11.5895C64.0693 11.1459 64.0693 10.5547 63.9208 10.2596H56.6794L56.6804 10.427ZM69.8324 8.64458C67.0242 8.64458 64.8071 10.724 64.8071 13.6699C64.8071 16.6158 67.0251 18.6953 69.8324 18.6953C70.494 18.7012 71.1501 18.5753 71.7625 18.3248C72.3749 18.0744 72.9313 17.7045 73.3991 17.2366C73.8669 16.7688 74.2369 16.2124 74.4873 15.6C74.7378 14.9877 74.8637 14.3315 74.8577 13.6699C74.8577 10.7141 72.6397 8.64458 69.8324 8.64458ZM69.8324 16.7643C68.354 16.7643 67.0242 15.4345 67.0242 13.661C67.0242 11.8875 68.354 10.5676 69.8324 10.5676C71.3108 10.5676 72.6416 11.7558 72.6416 13.667C72.6416 15.5781 71.3118 16.7703 69.8334 16.7703L69.8324 16.7643ZM94.063 9.67836C93.4718 9.0872 92.5846 8.49605 91.2547 8.49605C88.7425 8.49605 86.5255 10.7141 86.5255 13.5214C86.5255 16.3287 88.7435 18.5467 91.2547 18.5467C92.437 18.5467 93.4728 17.9556 93.9154 17.3644H94.064V18.1031C94.064 20.0241 93.0292 21.0589 91.4033 21.0589C90.0734 21.0589 89.1852 20.0241 88.8911 19.2765L86.9701 20.0152C87.5612 21.3451 89.0495 22.971 91.4042 22.971C94.065 22.971 96.2811 21.4926 96.2811 17.6506V8.48812H94.2016V9.67044L94.063 9.67836ZM91.5508 16.7723C90.0724 16.7723 88.8901 15.4424 88.8901 13.6689C88.8901 11.8955 90.0724 10.5656 91.5508 10.5656C93.0292 10.5656 94.2115 11.8955 94.2115 13.6689C94.2115 15.4424 93.0292 16.7723 91.5508 16.7723ZM80.7604 8.6525C77.9522 8.6525 75.7351 10.732 75.7351 13.6778C75.7351 16.6237 77.9532 18.7032 80.7604 18.7032C81.422 18.7091 82.0782 18.5832 82.6905 18.3328C83.3029 18.0823 83.8593 17.7124 84.3271 17.2446C84.795 16.7767 85.1649 16.2204 85.4153 15.608C85.6658 14.9956 85.7917 14.3394 85.7858 13.6778C85.9343 10.7221 83.5677 8.6525 80.7604 8.6525ZM80.7604 16.7723C79.282 16.7723 77.9522 15.4424 77.9522 13.6689C77.9522 11.8955 79.282 10.5656 80.7604 10.5656C82.2388 10.5656 83.5687 11.7479 83.5687 13.6689C83.5687 15.59 82.2388 16.7723 80.7604 16.7723ZM97.9248 3.33306H100.143V18.7032H97.9248V3.33306ZM106.201 16.7822C105.019 16.7822 104.28 16.191 103.689 15.3038L110.488 12.4955L110.191 11.9044C109.747 10.7221 108.408 8.6525 105.905 8.6525C103.244 8.6525 101.176 10.732 101.176 13.6778C101.17 14.3394 101.296 14.9956 101.546 15.608C101.797 16.2204 102.166 16.7767 102.634 17.2446C103.102 17.7124 103.659 18.0823 104.271 18.3328C104.883 18.5832 105.539 18.7091 106.201 18.7032C108.566 18.7032 109.895 17.2248 110.487 16.4851L108.704 15.3028C108.113 16.19 107.374 16.7812 106.192 16.7812L106.201 16.7822ZM106.053 10.5735C106.94 10.5735 107.678 11.0171 107.974 11.7558L103.392 13.6769C103.392 11.4588 104.87 10.5735 106.053 10.5735Z" fill="white"/>
<path d="M126.699 35.6158V33.8771L134.369 21.7408H135.63V24.4339H134.778L128.983 33.6044V33.7408H139.312V35.6158H126.699ZM134.914 39.1953V35.0874V34.2777V21.7408H136.926V39.1953H134.914Z" fill="white"/>
</svg>
