<svg width="117" height="59" viewBox="0 0 117 59" fill="none" xmlns="http://www.w3.org/2000/svg">
<g clip-path="url(#clip0_2167_1851)">
<mask id="mask0_2167_1851" style="mask-type:luminance" maskUnits="userSpaceOnUse" x="10" y="8" width="44" height="55">
<path d="M10.3711 8.75146H53.1322V62.0623H10.3711V8.75146Z" fill="white"/>
</mask>
<g mask="url(#mask0_2167_1851)">
<path d="M25.0101 13.6256C25.4192 12.5518 25.9816 11.5633 26.8167 10.7623C30.1571 7.50708 35.6791 8.32515 37.9458 12.4155C39.6502 15.5173 41.4567 18.551 43.2122 21.6188L52.0064 36.9235C54.4436 41.2013 51.8019 46.604 46.9616 47.3368C43.9961 47.7799 41.2181 46.4165 39.6842 43.7578L31.9467 30.3278C31.8955 30.2255 31.8274 30.1403 31.7592 30.0551C31.4865 29.8335 31.3672 29.5097 31.1968 29.22L25.5044 19.352C24.8397 18.1931 24.5329 16.9319 24.567 15.6026C24.6181 14.9208 24.7034 14.2391 25.0101 13.6256Z" fill="white"/>
<path d="M25.0096 13.6255C24.8562 14.239 24.7199 14.8526 24.6858 15.5002C24.6347 16.9319 24.9926 18.2612 25.7084 19.5054L31.3156 29.2029C31.486 29.4926 31.6223 29.7824 31.7928 30.055L28.708 35.3554L24.3961 42.7862C24.3279 42.7862 24.3108 42.7522 24.2938 42.701C24.2768 42.5647 24.3279 42.4454 24.362 42.309C25.0607 39.7526 24.4813 37.4858 22.7258 35.5429C21.6521 34.3669 20.2887 33.7023 18.7207 33.4807C16.6755 33.191 14.869 33.7193 13.2499 34.9975C12.9601 35.2191 12.7727 35.5429 12.4318 35.7134C12.3636 35.7134 12.3295 35.6793 12.3125 35.6281L14.7497 31.3844L24.8903 13.813C24.9244 13.7448 24.9755 13.6937 25.0096 13.6255Z" fill="#F8F8F8"/>
<path d="M12.3815 35.6793L13.3529 34.8101C17.4944 31.5378 23.7151 33.9068 24.6184 39.0879C24.84 40.332 24.7207 41.525 24.3457 42.7181C24.3287 42.8203 24.3117 42.9055 24.2776 43.0078C24.1242 43.2805 23.9878 43.5702 23.8174 43.8429C22.3006 46.3482 20.0679 47.5924 17.1365 47.4049C13.779 47.1663 11.1373 44.6439 10.6772 41.3035C10.4556 39.6844 10.7794 38.1675 11.6145 36.77C11.785 36.4632 11.9895 36.1906 12.177 35.8838C12.2622 35.8156 12.2281 35.6793 12.3815 35.6793Z" fill="#EAEAEA"/>
<path d="M12.3815 35.6795C12.3134 35.7477 12.3134 35.867 12.1941 35.884C12.177 35.7647 12.2452 35.6965 12.3134 35.6113L12.3815 35.6795Z" fill="white"/>
<path d="M24.2782 43.0075C24.2101 42.8882 24.2782 42.803 24.3464 42.7178L24.4146 42.7859L24.2782 43.0075Z" fill="white"/>
</g>
<mask id="mask1_2167_1851" style="mask-type:luminance" maskUnits="userSpaceOnUse" x="51" y="-89" width="98" height="122">
<path d="M51.6973 -88.6191H148.853V32.5065H51.6973V-88.6191Z" fill="white"/>
</mask>
<g mask="url(#mask1_2167_1851)">
<path d="M59.7129 12.2158C55.3372 12.2158 51.6973 15.7396 51.6973 20.0766C51.6973 24.4136 55.3372 27.8986 59.7129 27.8986C62.075 27.8986 63.8176 27.1242 65.2116 25.6914C66.6444 24.2587 67.0703 22.2838 67.0703 20.6962C67.0703 20.1928 67.0316 19.7281 66.9541 19.3409H59.7129V21.4706H64.8631C64.7082 22.671 64.321 23.5617 63.7014 24.1812C62.9657 24.917 61.7653 25.7689 59.7129 25.7689C56.5376 25.7689 54.0594 23.2132 54.0594 20.0766C54.0594 16.94 56.5376 14.3843 59.7129 14.3843C61.4167 14.3843 62.6946 15.0426 63.5852 15.9332L65.0954 14.423C63.8176 13.1839 62.1138 12.2158 59.7129 12.2158ZM72.84 17.8307C70.0907 17.8307 67.806 19.9604 67.806 22.9421C67.806 25.8851 70.052 28.0535 72.84 28.0535C75.6281 28.0535 77.874 25.8851 77.874 22.9421C77.874 19.9992 75.5894 17.8307 72.84 17.8307ZM72.84 26.0399C71.3298 26.0399 70.0133 24.7621 70.0133 22.9421C70.0133 21.1221 71.3298 19.8443 72.84 19.8443C74.3502 19.8443 75.6668 21.0834 75.6668 22.9421C75.6668 24.7621 74.3502 26.0399 72.84 26.0399ZM83.7599 17.8307C80.9719 17.8307 78.7259 19.9604 78.7259 22.9421C78.7259 25.8851 80.9719 28.0535 83.7599 28.0535C86.5093 28.0535 88.7939 25.8851 88.7939 22.9421C88.7939 19.9992 86.548 17.8307 83.7599 17.8307ZM83.7599 26.0399C82.2497 26.0399 80.9331 24.7621 80.9331 22.9421C80.9331 21.1221 82.2497 19.8443 83.7599 19.8443C85.2701 19.8443 86.5867 21.0834 86.5867 22.9421C86.5867 24.7621 85.3088 26.0399 83.7599 26.0399ZM94.6411 17.8307C92.1241 17.8307 89.8394 20.0379 89.8394 22.9034C89.8394 25.7302 92.1241 27.9374 94.6411 27.9374C95.8415 27.9374 96.7709 27.3952 97.2743 26.7757H97.3517V27.5114C97.3517 29.4476 96.3449 30.4931 94.6798 30.4931C93.3245 30.4931 92.5113 29.525 92.1628 28.7118L90.2267 29.525C90.7688 30.8803 92.2403 32.5067 94.6798 32.5067C97.2743 32.5067 99.4428 30.9578 99.4428 27.2404V18.1792H97.3517V18.9923H97.2743C96.7709 18.3728 95.8415 17.8307 94.6411 17.8307ZM94.8347 25.9625C93.3245 25.9625 92.0467 24.6846 92.0467 22.9034C92.0467 21.1221 93.3245 19.8055 94.8347 19.8055C96.3449 19.8055 97.5066 21.1221 97.5066 22.9034C97.5066 24.6846 96.3449 25.9625 94.8347 25.9625ZM101.069 12.8354H103.276V27.7825H101.069V12.8354ZM109.201 17.8307C106.568 17.8307 104.361 19.883 104.361 22.9421C104.361 25.8076 106.529 28.0535 109.433 28.0535C111.795 28.0535 113.151 26.6208 113.693 25.8076L111.95 24.6459C111.369 25.4978 110.556 26.0399 109.433 26.0399C108.272 26.0399 107.458 25.5365 106.955 24.491L113.809 21.6642L113.577 21.0834C113.151 19.9604 111.834 17.8307 109.201 17.8307ZM106.568 22.7872C106.49 20.8123 108.117 19.8055 109.24 19.8055C110.13 19.8055 110.905 20.2315 111.137 20.8898L106.568 22.7872Z" fill="white"/>
</g>
<path d="M66.2617 45.7392L71.3732 32.1475H73.348L78.4595 45.7392H76.5233L75.2067 42.0606H69.5145L68.1979 45.7392H66.2617ZM70.0953 40.4342H74.6259L72.4187 34.316H72.3412L70.0953 40.4342ZM80.2407 44.6163C79.3888 43.6482 78.9629 42.4865 78.9629 41.0925C78.9629 39.7372 79.3888 38.5755 80.2407 37.5687C81.1314 36.6006 82.1382 36.1359 83.3773 36.1359C84.0743 36.1359 84.6939 36.2908 85.236 36.5619C85.8168 36.8717 86.2428 37.2202 86.5526 37.7236H86.63L86.5526 36.4457V32.1475H88.2951V45.7392H86.63V44.4614H86.5526C86.2428 44.9261 85.8168 45.3133 85.236 45.6231C84.6552 45.9329 84.0356 46.049 83.3773 46.049C82.1382 46.049 81.0926 45.5844 80.2407 44.6163ZM85.7394 43.532C86.3202 42.9125 86.5913 42.0993 86.5913 41.0925C86.5913 40.1244 86.3202 39.3112 85.7394 38.6916C85.1973 38.0721 84.5003 37.7623 83.6484 37.7623C82.7965 37.7623 82.0994 38.0721 81.5573 38.6916C80.9765 39.3112 80.7054 40.1244 80.7054 41.0925C80.7054 42.0606 80.9765 42.8737 81.5573 43.4933C82.1382 44.1129 82.8352 44.4227 83.6484 44.4227C84.5003 44.4614 85.1973 44.1516 85.7394 43.532ZM96.3495 45.1971C95.6525 45.7392 94.7619 46.049 93.6776 46.049C92.7483 46.049 91.9351 45.8167 91.1993 45.3133C90.5023 44.8099 89.9989 44.1903 89.6891 43.3771L91.2381 42.7189C91.4704 43.261 91.7802 43.7256 92.2449 44.0354C92.6708 44.3452 93.1742 44.5001 93.6776 44.5001C94.2197 44.5001 94.6844 44.3839 95.0716 44.1516C95.4589 43.9193 95.6138 43.6095 95.6138 43.2997C95.6138 42.7189 95.1491 42.2542 94.2585 41.9831L92.6708 41.5959C90.8508 41.1312 89.9602 40.2793 89.9602 38.9627C89.9602 38.1108 90.3087 37.4525 91.0057 36.9104C91.7027 36.407 92.5934 36.1359 93.6389 36.1359C94.4254 36.1306 95.1995 36.3309 95.8848 36.7168C96.5431 37.104 97.0078 37.6461 97.2789 38.3044L95.7299 38.9627C95.5363 38.5755 95.2653 38.2657 94.878 38.0334C94.4908 37.801 94.0261 37.6849 93.5227 37.6849C93.0581 37.6849 92.6708 37.801 92.2836 38.0334C91.9351 38.2657 91.7415 38.5368 91.7415 38.8853C91.7415 39.4274 92.2449 39.8146 93.2517 40.0082L94.6457 40.3567C96.5044 40.8214 97.395 41.7508 97.395 43.1448C97.4338 43.958 97.0465 44.655 96.3495 45.1971Z" fill="white"/>
</g>
<defs>
<clipPath id="clip0_2167_1851">
<rect width="116" height="58" fill="white" transform="translate(0.625 0.132324)"/>
</clipPath>
</defs>
</svg>
