<svg width="72" height="44" viewBox="0 0 72 44" fill="none" xmlns="http://www.w3.org/2000/svg">
<path d="M71.5708 7.21524C71.5708 7.21524 71.1517 4.27153 69.8651 2.97496C68.2334 1.27382 66.4042 1.26497 65.5657 1.16554C59.5605 0.733398 50.5531 0.733398 50.5531 0.733398H50.5344C50.5344 0.733398 41.527 0.733398 35.5223 1.16554C34.6833 1.26497 32.8546 1.27382 31.2225 2.97496C29.9357 4.27153 29.5172 7.21524 29.5172 7.21524C29.5172 7.21524 29.0879 10.6718 29.0879 14.1288V17.3698C29.0879 20.8268 29.5172 24.2833 29.5172 24.2833C29.5172 24.2833 29.9357 27.2271 31.2225 28.5236C32.8546 30.2252 34.9992 30.1713 35.954 30.3493C39.3872 30.6775 50.5438 30.7788 50.5438 30.7788C50.5438 30.7788 59.5607 30.7656 65.5658 30.3335C66.4044 30.2336 68.2335 30.2252 69.8652 28.5236C71.152 27.2271 71.5709 24.2833 71.5709 24.2833C71.5709 24.2833 71.9997 20.8268 71.9997 17.3698V14.1288C71.9997 10.6718 71.5708 7.21524 71.5708 7.21524Z" fill="white"/>
<path d="M26.872 25.0479H24.1416V23.4674C23.1066 24.6538 22.229 25.2528 21.2724 25.2528C20.4333 25.2528 19.8503 24.8572 19.5587 24.1419C19.3814 23.7069 19.2559 23.0277 19.2559 22.0302V10.5337H21.9859V21.3117C21.9859 21.9215 21.9859 22.1741 21.9859 22.3177C22.0496 22.7208 22.2211 22.8684 22.568 22.8684C23.0907 22.8684 23.5636 22.4141 24.1416 21.599V10.5337H26.872V25.0479Z" fill="white"/>
<path d="M17.2446 15.276C17.2446 13.7249 16.9329 12.56 16.3821 11.8269C15.6546 10.834 14.5141 10.4277 13.3642 10.4277C12.0629 10.4277 11.0725 10.8342 10.3464 11.8269C9.78666 12.56 9.48666 13.7374 9.48666 15.2886L9.48438 20.4496C9.48438 21.9917 9.75109 23.0573 10.3104 23.7833C11.0369 24.7733 12.2149 25.2973 13.3642 25.2973C14.5141 25.2973 15.7122 24.7733 16.4396 23.7833C16.9905 23.0571 17.2445 21.9917 17.2445 20.4496L17.2446 15.276ZM14.5142 20.737C14.6577 22.1741 14.2119 22.8871 13.3639 22.8871C12.5165 22.8871 12.0712 22.1741 12.2151 20.737V14.9887C12.0712 13.5516 12.5165 12.878 13.3645 12.878C14.2125 12.878 14.6592 13.5516 14.5158 14.9887L14.5142 20.737Z" fill="white"/>
<path d="M6.46699 17.1436V25.0476H3.59257V17.1436C3.59257 17.1436 0.614142 7.4536 0 5.64746H3.01785L5.03442 13.2173L7.0417 5.64746H10.0595L6.46699 17.1436Z" fill="white"/>
<path d="M68.4087 18.2935L68.4083 15.3558C68.4083 13.8211 68.106 12.6979 67.5617 11.9719C66.8328 10.9895 65.7968 10.4692 64.4918 10.4692C63.1634 10.4692 62.1276 10.9895 61.3751 11.9719C60.8224 12.6981 60.5 13.8845 60.5 15.4197V20.4494C60.5 21.9751 60.8544 23.0434 61.407 23.7619C62.1593 24.7431 63.1953 25.2329 64.556 25.2329C65.9154 25.2329 66.9831 24.7192 67.7027 23.6762C68.0191 23.2159 68.2236 22.6942 68.3111 22.1176C68.3346 21.8571 68.4034 21.2636 68.4034 20.4255V20.0181H65.673C65.673 21.0619 65.6781 21.6826 65.6537 21.8242C65.5051 22.5199 65.132 22.8681 64.4917 22.8681C63.5983 22.8681 63.221 22.2001 63.2303 20.8745V18.2937H68.4087V18.2935ZM63.2306 14.5515C63.2306 13.2081 63.5986 12.8419 64.4676 12.8419C65.33 12.8419 65.6731 13.2414 65.6731 14.5694V16.1378L63.2304 16.1407L63.2306 14.5515Z" fill="#76CB2A"/>
<path d="M56.3462 10.4471C55.3891 10.4471 54.438 11.0358 53.5975 12.0699L53.6002 5.7915H51.0137V25.0482H53.6002L53.6041 23.6012C54.4737 24.6769 55.4214 25.2333 56.3462 25.2333C57.3822 25.2333 58.1392 24.6788 58.4865 23.611C58.66 23.0022 58.7739 22.065 58.7739 20.7372V14.9888C58.7739 13.6285 58.5995 12.6985 58.4257 12.1209C58.0787 11.0456 57.3821 10.4471 56.3462 10.4471ZM56.0434 20.8805C56.0434 22.3178 55.7045 22.8685 54.9545 22.8685C54.5261 22.8685 54.0325 22.6482 53.5975 22.2132L53.6002 13.4978C54.0352 13.0683 54.5261 12.8425 54.9545 12.8425C55.7045 12.8425 56.0434 13.2643 56.0434 14.7016V20.8805Z" fill="#76CB2A"/>
<path d="M48.8585 25.0481H46.1285V23.4676C45.0929 24.654 44.2159 25.253 43.2592 25.253C42.4202 25.253 41.8371 24.8574 41.5455 24.1421C41.3678 23.7071 41.2422 23.0279 41.2422 22.0304V10.6779H43.9726V21.3119C43.9726 21.9217 43.9726 22.1743 43.9726 22.3179C44.0365 22.721 44.2075 22.8686 44.5548 22.8686C45.0775 22.8686 45.5505 22.4143 46.1283 21.5991V10.6777H48.8583L48.8585 25.0481Z" fill="#76CB2A"/>
<path d="M38.5128 25.0478H35.6389V8.52158H32.6211V5.7943L41.6745 5.79102V8.52158H38.5128V25.0478Z" fill="#76CB2A"/>
<path d="M70.4703 34.6568C69.6953 34.4612 70.2171 35.3769 69.8279 35.5708C67.8437 34.2584 66.1753 34.2697 64.9324 35.6075C63.9666 36.6471 63.8492 38.3508 64.6664 39.5272C65.1284 40.1964 65.7909 40.5506 66.5576 40.7792C67.798 41.1481 68.8069 40.5881 69.8297 39.9512C69.9496 42.2333 69.357 42.8352 67.2093 42.8128C66.4943 42.8062 65.8646 42.6245 65.2926 42.2265C65.0409 42.0508 64.8572 42.1464 64.7226 42.3379C64.5689 42.5569 64.6289 42.7596 64.8752 42.8971C66.2547 43.6662 67.7117 43.9203 69.1891 43.3061C70.3924 42.8092 70.7283 41.7276 70.7246 40.5031C70.7214 38.9115 70.7539 37.3172 70.7316 35.7228C70.724 35.3585 70.9879 34.7864 70.4703 34.6568ZM67.4216 40.0655C65.945 40.0579 64.9684 39.1305 64.9732 37.7334C64.9752 36.3198 65.9299 35.4145 67.4256 35.4112C68.9816 35.4081 70.002 36.3738 69.956 37.8038C69.913 39.1871 68.9227 40.0732 67.4216 40.0655Z" fill="white"/>
<path d="M16.5211 31.7837C16.1183 31.8187 16.1589 32.1147 16.1558 32.3749C16.1488 33.4022 16.1528 34.4322 16.1512 35.5252C13.9836 34.1523 12.3562 34.2183 11.1926 35.6521C10.1662 36.9163 10.2044 38.9024 11.2794 40.0627C12.5075 41.3904 14.1729 41.4176 16.0158 40.0833C16.3441 40.3906 15.8528 41.0063 16.5183 41.0811C17.0113 41.1339 16.9955 40.7968 16.9959 40.4681C16.9972 37.7753 17.0011 35.0852 17.0078 32.3923C17.0082 32.0583 17.0059 31.7406 16.5211 31.7837ZM13.6733 40.2609C12.2159 40.245 11.2641 39.2356 11.2965 37.7371C11.3288 36.2441 12.2972 35.3114 13.7929 35.3329C15.2776 35.3543 16.1858 36.3226 16.1588 37.8566C16.1319 39.3713 15.1963 40.2767 13.6733 40.2609Z" fill="white"/>
<path d="M6.30016 33.0537C6.14174 32.7029 6.05745 32.2617 5.48216 32.3019C4.98902 32.3367 4.92817 32.7202 4.78531 33.035C3.59531 35.6412 2.41631 38.2529 1.20703 40.9276C1.9736 41.2876 2.27003 40.8086 2.38032 40.3266C2.73046 38.7984 3.72817 38.4603 5.11117 38.6787C5.46717 38.734 5.84802 38.7346 6.20417 38.6776C7.46731 38.4767 8.26116 38.9134 8.59888 40.2014C8.73787 40.7249 8.97516 41.3744 9.81958 40.921C8.64287 38.284 7.47702 35.666 6.30016 33.0537ZM3.46031 38.0079C4.14474 36.4419 4.78517 34.9827 5.53274 33.2826C6.26716 34.9766 6.89788 36.4294 7.58588 38.0139L3.46031 38.0079Z" fill="white"/>
<path d="M31.0458 36.0512C30.7289 35.4618 30.2446 35.0638 29.6478 34.7999C28.2515 34.1815 26.6319 34.6531 25.7945 35.9065C24.8748 37.2858 25.1021 39.1791 26.3141 40.2602C27.4632 41.2809 29.5258 41.3991 30.6201 40.4994C30.8202 40.3354 31.1301 40.1659 30.8868 39.8505C30.6626 39.5598 30.4321 39.7895 30.1799 39.9015C28.0445 40.8379 26.5826 40.2058 26.1609 38.1889C26.2432 38.1589 26.3254 38.1069 26.4076 38.1044C27.5911 38.0979 28.7772 38.1242 29.9608 38.0822C30.4676 38.0638 31.1821 38.3908 31.4432 37.8515C31.7206 37.2739 31.3518 36.6214 31.0458 36.0512ZM26.0694 37.1698C26.4135 35.9759 27.0801 35.3742 28.3046 35.3404C29.5758 35.3067 30.3448 35.8392 30.7099 37.1767L26.0694 37.1698Z" fill="white"/>
<path d="M56.3362 37.8669C56.3384 36.9565 56.3355 36.0459 56.3442 35.1355C56.3462 34.9202 56.3138 34.6676 56.6242 34.6041C56.8359 34.5606 57.0282 34.6529 57.0229 34.8459C56.9935 35.9062 57.4151 35.3641 57.8356 35.1133C60.1121 33.7565 62.1782 34.9142 62.2059 37.5516C62.2155 38.4619 62.2254 39.3732 62.1926 40.2826C62.1816 40.5896 62.4171 41.1102 61.8348 41.1289C61.1444 41.1512 61.3996 40.5656 61.3876 40.218C61.3546 39.2632 61.3892 38.3062 61.3668 37.3508C61.3416 36.2846 60.9556 35.4952 59.7431 35.4038C58.2844 35.2938 57.4158 35.8085 57.2369 37.0892C57.0868 38.1635 57.1471 39.2666 57.0985 40.3562C57.0855 40.6456 57.2241 41.081 56.7619 41.1149C56.1467 41.1599 56.3512 40.636 56.3414 40.3249C56.3149 39.5063 56.3342 38.6863 56.3362 37.8669Z" fill="white"/>
<path d="M48.8941 41.1527C47.9841 41.1266 47.2903 40.9463 46.6232 40.6426C46.3553 40.5206 46.1294 40.3881 46.2733 40.0393C46.4481 39.615 46.7216 39.8596 46.9327 39.974C47.7406 40.4113 48.6111 40.3246 49.471 40.2969C50.0436 40.2784 50.425 39.955 50.49 39.3846C50.5529 38.8324 50.1603 38.5621 49.6926 38.4367C48.9494 38.2374 48.1881 38.1042 47.449 37.8923C46.776 37.6993 46.3463 37.2182 46.3136 36.513C46.2789 35.7659 46.654 35.2074 47.3394 34.8862C48.397 34.3902 49.4654 34.5112 50.5231 34.8779C50.7667 34.9623 51.065 35.1027 50.9551 35.4566C50.8004 35.9547 50.4489 35.7206 50.1924 35.5899C49.54 35.2572 48.85 35.3867 48.1787 35.405C47.6236 35.4202 47.2309 35.7803 47.171 36.335C47.1136 36.8676 47.4834 37.159 47.9687 37.286C48.5359 37.4343 49.1059 37.5729 49.6779 37.7009C50.5761 37.902 51.3684 38.2203 51.3234 39.3409C51.2813 40.3923 50.5703 40.8169 49.6504 41.0086C49.344 41.0729 49.0354 41.1261 48.8941 41.1527Z" fill="white"/>
<path d="M40.8453 40.2898C41.1602 40.3765 41.6806 39.9271 41.7255 40.5491C41.7582 41.003 41.2072 41.0098 40.9045 41.086C39.7537 41.3751 38.72 40.6007 38.6347 39.3655C38.569 38.4135 38.6283 37.4533 38.6163 36.497C38.6095 35.9536 38.8496 35.2264 37.8333 35.3526C37.6328 35.3774 37.5173 35.2353 37.5022 35.0203C37.4883 34.8254 37.5386 34.5636 37.7065 34.5811C38.529 34.6671 38.7199 34.2594 38.6378 33.5457C38.6045 33.2558 38.813 33.1734 39.0782 33.1823C39.3606 33.1917 39.5142 33.343 39.4706 33.6021C39.3047 34.5894 39.9138 34.5863 40.6103 34.5633C40.9162 34.5531 41.4298 34.3581 41.4038 34.9807C41.3788 35.581 40.8657 35.394 40.5747 35.3553C39.6442 35.2314 39.389 35.6254 39.462 36.4967C39.5302 37.3108 39.485 38.1354 39.4708 38.9551C39.454 39.911 39.8276 40.442 40.8453 40.2898Z" fill="white"/>
<path d="M18.3691 34.4595C19.9359 34.7656 19.8134 36.1363 20.297 37.004C20.8213 37.9448 21.2021 38.9653 21.7283 40.1352C22.5054 38.3569 23.1897 36.7808 23.8846 35.2093C24.0457 34.8449 24.2177 34.309 24.7211 34.5648C25.1896 34.8029 24.7093 35.1988 24.5988 35.4635C23.9157 37.101 23.1868 38.72 22.452 40.3355C22.2974 40.6752 22.2556 41.1487 21.6618 41.1037C21.1758 41.0669 21.1046 40.7112 20.9617 40.3843C20.125 38.4707 19.2873 36.5575 18.3691 34.4595Z" fill="white"/>
<path d="M34.4504 35.524C34.9872 35.1153 35.4445 34.7493 36.0345 34.6276C36.3339 34.5659 36.6798 34.3773 36.7579 34.8903C36.8098 35.2307 36.6455 35.3573 36.2995 35.3796C34.8205 35.4748 34.4775 36.5317 34.4027 37.7421C34.3468 38.6458 34.3871 39.5554 34.3761 40.4621C34.3724 40.7771 34.3931 41.1486 33.907 41.0864C33.516 41.0364 33.6 40.6988 33.5991 40.4478C33.5937 38.77 33.5887 37.0919 33.6111 35.4143C33.6152 35.1014 33.4098 34.5724 33.9764 34.569C34.5284 34.5656 34.2108 35.1379 34.4504 35.524Z" fill="white"/>
<path d="M44.5347 37.9022C44.5341 38.8087 44.5358 39.715 44.5297 40.6214C44.5277 40.9267 44.414 41.1487 44.0561 41.119C43.7576 41.0942 43.7148 40.8701 43.7148 40.6362C43.7147 38.7781 43.7174 36.92 43.7228 35.062C43.7236 34.8321 43.746 34.5994 44.05 34.5665C44.405 34.5283 44.5347 34.7367 44.5361 35.0474C44.5403 35.999 44.5353 36.9505 44.5347 37.9022Z" fill="white"/>
<path d="M53.8504 37.8637C53.849 38.7701 53.8497 39.6765 53.8451 40.583C53.8437 40.871 53.7915 41.143 53.4195 41.1375C53.039 41.132 53.0254 40.8428 53.0254 40.5658C53.0261 38.753 53.0291 36.94 53.0331 35.1271C53.0337 34.843 53.0678 34.5647 53.4447 34.5704C53.8221 34.5761 53.8514 34.8641 53.8525 35.1443C53.8563 36.0508 53.8518 36.9572 53.8504 37.8637Z" fill="white"/>
<path d="M44.1023 33.1805C43.7184 33.1054 43.5377 32.8592 43.5371 32.5064C43.5364 32.1552 43.707 31.8548 44.0817 31.8437C44.5324 31.8302 44.7245 32.1522 44.6981 32.5662C44.6757 32.9192 44.4653 33.1455 44.1023 33.1805Z" fill="white"/>
<path d="M53.3616 31.8242C53.821 31.9098 54.019 32.1551 54.0137 32.5046C54.0075 32.9159 53.7874 33.2361 53.3396 33.1728C52.99 33.1234 52.8247 32.8254 52.8478 32.4598C52.8717 32.0837 53.117 31.9191 53.3616 31.8242Z" fill="white"/>
</svg>
