<svg width="148" height="52" viewBox="0 0 148 52" fill="none" xmlns="http://www.w3.org/2000/svg">
<g opacity="0.61">
<path d="M22.6319 47.6123L22.0536 48.9482H21.7482L21.1719 47.6123H21.5059L21.9124 48.5665L22.3246 47.6123H22.6319Z" fill="white"/>
<path d="M23.6449 48.5037H22.8681C22.8967 48.6316 23.0055 48.7098 23.162 48.7098C23.2708 48.7098 23.349 48.6774 23.4196 48.6106L23.578 48.7823C23.4826 48.8911 23.3394 48.9484 23.1543 48.9484C22.7993 48.9484 22.5684 48.7251 22.5684 48.4197C22.5684 48.1125 22.8031 47.8911 23.1161 47.8911C23.4176 47.8911 23.6505 48.0934 23.6505 48.4236C23.6506 48.4465 23.6468 48.4789 23.6449 48.5037ZM22.8643 48.33H23.3701C23.3491 48.2002 23.2517 48.1163 23.1182 48.1163C22.9826 48.1163 22.8854 48.1983 22.8643 48.33Z" fill="white"/>
<path d="M23.7734 48.4197C23.7734 48.1106 24.012 47.8911 24.346 47.8911C24.5617 47.8911 24.7315 47.9846 24.8059 48.1526L24.5751 48.2766C24.5197 48.1793 24.4377 48.1354 24.3441 48.1354C24.1933 48.1354 24.075 48.2403 24.075 48.4197C24.075 48.5991 24.1934 48.7041 24.3441 48.7041C24.4376 48.7041 24.5196 48.6621 24.5751 48.5628L24.8059 48.6888C24.7315 48.8529 24.5617 48.9483 24.346 48.9483C24.012 48.9484 23.7734 48.7289 23.7734 48.4197Z" fill="white"/>
<path d="M25.6535 48.8834C25.5925 48.9273 25.5027 48.9483 25.4111 48.9483C25.1688 48.9483 25.0275 48.8242 25.0275 48.5799V48.1582H24.8691V47.9292H25.0275V47.6792H25.3253V47.9292H25.581V48.1582H25.3253V48.5762C25.3253 48.664 25.3729 48.7117 25.4531 48.7117C25.497 48.7117 25.5409 48.6984 25.5733 48.6735L25.6535 48.8834Z" fill="white"/>
<path d="M27.698 47.9062V48.1811C27.6732 48.1793 27.6541 48.1773 27.6312 48.1773C27.4671 48.1773 27.3583 48.2669 27.3583 48.4636V48.9483H27.0605V47.9215H27.3449V48.057C27.4174 47.9578 27.5396 47.9062 27.698 47.9062Z" fill="white"/>
<path d="M27.7832 48.7936L27.8881 48.5607C28.0008 48.6428 28.1686 48.7 28.329 48.7C28.5122 48.7 28.5866 48.639 28.5866 48.5569C28.5866 48.3069 27.8098 48.4787 27.8098 47.9824C27.8098 47.7553 27.9931 47.5664 28.3728 47.5664C28.5407 47.5664 28.7125 47.6064 28.8365 47.6848L28.741 47.9195C28.617 47.8489 28.4892 47.8145 28.3708 47.8145C28.1877 47.8145 28.117 47.8832 28.117 47.9672C28.117 48.2134 28.8937 48.0436 28.8937 48.534C28.8937 48.7573 28.7086 48.9481 28.3269 48.9481C28.1153 48.9483 27.9016 48.8852 27.7832 48.7936Z" fill="white"/>
<path d="M30.0843 48.5037H29.3075C29.3361 48.6316 29.4449 48.7098 29.6014 48.7098C29.7102 48.7098 29.7884 48.6774 29.8591 48.6106L30.0174 48.7823C29.922 48.8911 29.7789 48.9484 29.5937 48.9484C29.2388 48.9484 29.0078 48.7251 29.0078 48.4197C29.0078 48.1125 29.2425 47.8911 29.5556 47.8911C29.8572 47.8911 30.0899 48.0934 30.0899 48.4236C30.0901 48.4465 30.0863 48.4789 30.0843 48.5037ZM29.3038 48.33H29.8096C29.7885 48.2002 29.6912 48.1163 29.5577 48.1163C29.4222 48.1163 29.3248 48.1983 29.3038 48.33Z" fill="white"/>
<path d="M31.2894 48.5037H30.5126C30.5412 48.6316 30.65 48.7098 30.8065 48.7098C30.9153 48.7098 30.9935 48.6774 31.0641 48.6106L31.2225 48.7823C31.1271 48.8911 30.9839 48.9484 30.7988 48.9484C30.4439 48.9484 30.2129 48.7251 30.2129 48.4197C30.2129 48.1125 30.4476 47.8911 30.7607 47.8911C31.0622 47.8911 31.295 48.0934 31.295 48.4236C31.2951 48.4465 31.2913 48.4789 31.2894 48.5037ZM30.5088 48.33H31.0145C30.9935 48.2002 30.8962 48.1163 30.7626 48.1163C30.6271 48.1163 30.5298 48.1983 30.5088 48.33Z" fill="white"/>
<path d="M31.933 48.5456L31.7898 48.6868V48.9483H31.4922V47.5322H31.7898V48.3338L32.2251 47.9215H32.58L32.1525 48.3566L32.6182 48.9483H32.2574L31.933 48.5456Z" fill="white"/>
<path d="M27.086 49.088L26.7886 48.7905C26.7433 48.8434 26.6895 48.8886 26.629 48.9241C26.6195 48.9312 26.6097 48.9382 26.5996 48.9448L26.9144 49.2596C26.9618 49.307 27.0387 49.307 27.086 49.2596C27.1334 49.2122 27.1334 49.1354 27.086 49.088Z" fill="white"/>
<path d="M26.3979 47.8277C26.4209 47.8097 26.4494 47.7985 26.4808 47.7985C26.4852 47.7985 26.4894 47.7987 26.4937 47.7991C26.4714 47.7829 26.444 47.7732 26.4142 47.7732C26.3732 47.7732 26.3369 47.792 26.3122 47.8209C26.3069 47.8209 26.3018 47.8215 26.2965 47.8217C26.3006 47.8137 26.3032 47.8049 26.3032 47.7952C26.3032 47.7709 26.2883 47.7501 26.2672 47.7412C26.2762 47.7543 26.2815 47.7702 26.2815 47.7875C26.2815 47.8002 26.2783 47.8121 26.2731 47.823C25.9808 47.8439 25.75 48.087 25.75 48.3846C25.75 48.6958 26.0023 48.9482 26.3137 48.9482C26.625 48.9482 26.8774 48.6959 26.8774 48.3846C26.8775 48.1018 26.6693 47.8684 26.3979 47.8277ZM26.1898 47.9746C26.2351 47.9746 26.2776 47.9862 26.3145 48.0067C26.3534 47.9812 26.3998 47.9665 26.4496 47.9665C26.5236 47.9665 26.5898 47.9989 26.6351 48.0503C26.5899 48.0109 26.5307 47.9869 26.4659 47.9869C26.4192 47.9869 26.3755 47.9993 26.3376 48.0211C26.3294 48.0259 26.3214 48.0311 26.3138 48.0367C26.307 48.0317 26.3 48.027 26.2926 48.0227C26.2542 48 26.2094 47.987 26.1615 47.987C26.1303 47.987 26.1004 47.9926 26.0727 48.0028C26.108 47.9848 26.1477 47.9746 26.1898 47.9746ZM26.5839 48.4366C26.5958 48.4683 26.6027 48.5025 26.6027 48.5384C26.6027 48.6979 26.4733 48.8272 26.3138 48.8272C26.1542 48.8272 26.025 48.6979 26.025 48.5384C26.025 48.5025 26.0318 48.4683 26.0438 48.4366C25.9793 48.3968 25.9362 48.3259 25.9362 48.2446C25.9362 48.1201 26.0371 48.0191 26.1616 48.0191C26.2204 48.0191 26.2737 48.0418 26.3138 48.0786C26.3539 48.0418 26.4073 48.0191 26.466 48.0191C26.5905 48.0191 26.6915 48.1201 26.6915 48.2446C26.6915 48.3259 26.6484 48.3968 26.5839 48.4366Z" fill="white"/>
<path d="M26.5741 48.2251C26.5741 48.2767 26.5321 48.3188 26.4804 48.3188C26.4287 48.3188 26.3867 48.2767 26.3867 48.2251C26.3867 48.1734 26.4287 48.1313 26.4804 48.1313C26.4909 48.1313 26.5009 48.1331 26.5103 48.1362C26.5072 48.1427 26.5056 48.15 26.5056 48.1575C26.5056 48.1858 26.5286 48.2088 26.557 48.2088C26.5622 48.2088 26.5673 48.208 26.5722 48.2065C26.5735 48.2126 26.5741 48.2187 26.5741 48.2251Z" fill="white"/>
<path d="M26.2198 48.2246C26.2198 48.2637 26.1881 48.2955 26.1489 48.2955C26.1098 48.2955 26.0781 48.2637 26.0781 48.2246C26.0781 48.1855 26.1098 48.1538 26.1489 48.1538C26.1569 48.1538 26.1644 48.1552 26.1715 48.1574C26.1691 48.1623 26.168 48.1678 26.168 48.1736C26.168 48.195 26.1853 48.2125 26.2069 48.2125C26.2108 48.2125 26.2147 48.2118 26.2183 48.2107C26.2193 48.2152 26.2198 48.2198 26.2198 48.2246Z" fill="white"/>
<path d="M25.7262 48.3052H25.6621V48.3692H25.7262V48.3052Z" fill="white"/>
<path d="M26.9664 48.3052H26.9023V48.3692H26.9664V48.3052Z" fill="white"/>
<path d="M26.9417 48.3312H26.9272C26.9272 47.9934 26.6524 47.7187 26.3146 47.7187C25.9768 47.7187 25.7021 47.9934 25.7021 48.3312H25.6875C25.6875 48.1637 25.7527 48.0062 25.8712 47.8878C25.9896 47.7693 26.1471 47.7041 26.3146 47.7041C26.4822 47.7041 26.6396 47.7693 26.7581 47.8878C26.8765 48.0062 26.9417 48.1637 26.9417 48.3312Z" fill="white"/>
<path d="M26.3453 47.6792H26.2812V47.7433H26.3453V47.6792Z" fill="white"/>
<path d="M26.7538 47.7041H25.875V47.7187H26.7538V47.7041Z" fill="white"/>
<path d="M25.899 47.7146C25.899 47.7261 25.8896 47.7354 25.8782 47.7354C25.8667 47.7354 25.8574 47.7261 25.8574 47.7146C25.8574 47.7032 25.8667 47.6938 25.8782 47.6938C25.8896 47.6938 25.899 47.7032 25.899 47.7146Z" fill="white"/>
<path d="M26.774 47.7146C26.774 47.7261 26.7646 47.7354 26.7532 47.7354C26.7417 47.7354 26.7324 47.7261 26.7324 47.7146C26.7324 47.7032 26.7417 47.6938 26.7532 47.6938C26.7648 47.6938 26.774 47.7032 26.774 47.7146Z" fill="white"/>
<path d="M33.0935 48.8852C33.0935 49.0473 32.8477 49.0473 32.8477 48.8852C32.8478 48.7232 33.0935 48.7232 33.0935 48.8852Z" fill="white"/>
<path d="M17.2218 48.1719L17.4061 48.805L17.599 48.1719H17.8294L17.5358 49.0184H17.2935L17.2064 48.7692L17.1314 48.4876L17.0563 48.7692L16.9692 49.0184H16.7269L16.4316 48.1719H16.6637L16.8566 48.805L17.0392 48.1719H17.2218Z" fill="white"/>
<path d="M18.7785 48.1719L18.9628 48.805L19.1557 48.1719H19.386L19.0924 49.0184H18.8501L18.7631 48.7692L18.688 48.4876L18.6129 48.7692L18.5259 49.0184H18.2835L17.9883 48.1719H18.2203L18.4132 48.805L18.5958 48.1719H18.7785Z" fill="white"/>
<path d="M20.3371 48.1719L20.5214 48.805L20.7143 48.1719H20.9446L20.651 49.0184H20.4087L20.3217 48.7692L20.2466 48.4876L20.1715 48.7692L20.0845 49.0184H19.8421L19.5469 48.1719H19.7789L19.9718 48.805L20.1544 48.1719H20.3371Z" fill="white"/>
<path d="M21.2947 48.8969C21.2947 49.0591 21.0488 49.0591 21.0488 48.8969C21.0489 48.7349 21.2947 48.7349 21.2947 48.8969Z" fill="white"/>
<path d="M33.9628 48.8852C33.8655 48.9808 33.7632 49.0183 33.6386 49.0183C33.3946 49.0183 33.1914 48.8716 33.1914 48.573C33.1914 48.2744 33.3945 48.1274 33.6386 48.1274C33.7581 48.1274 33.8502 48.1617 33.9424 48.2521L33.8109 48.3904C33.7614 48.3458 33.7001 48.3238 33.6421 48.3238C33.5022 48.3238 33.3998 48.4262 33.3998 48.573C33.3998 48.7333 33.509 48.8186 33.6387 48.8186C33.7053 48.8186 33.7718 48.7999 33.823 48.7487L33.9628 48.8852Z" fill="white"/>
<path d="M34.9087 48.5797C34.9087 48.822 34.7432 49.0182 34.4701 49.0182C34.197 49.0182 34.0332 48.822 34.0332 48.5797C34.0332 48.339 34.2005 48.1411 34.4684 48.1411C34.7365 48.1411 34.9087 48.339 34.9087 48.5797ZM34.2414 48.5797C34.2414 48.7077 34.3183 48.8272 34.4701 48.8272C34.6219 48.8272 34.6988 48.7077 34.6988 48.5797C34.6988 48.4533 34.61 48.3305 34.4701 48.3305C34.3199 48.3306 34.2414 48.4534 34.2414 48.5797Z" fill="white"/>
<path d="M35.6126 49.0184V48.5678C35.6126 48.4568 35.5544 48.3562 35.4401 48.3562C35.3276 48.3562 35.261 48.4568 35.261 48.5678V49.0184H35.0527V48.1752H35.2457L35.261 48.2777C35.3053 48.1924 35.4027 48.1616 35.4829 48.1616C35.5837 48.1616 35.6843 48.2026 35.7321 48.3187C35.8073 48.1992 35.9045 48.165 36.0137 48.165C36.2526 48.165 36.3704 48.3118 36.3704 48.5643V49.0183H36.1621V48.5643C36.1621 48.4534 36.1161 48.3594 36.0034 48.3594C35.8909 48.3594 35.8208 48.4567 35.8208 48.5677V49.0183H35.6126V49.0184Z" fill="white"/>
</g>
<g opacity="0.61">
<path d="M36.383 44.5057C36.3824 44.3784 36.2833 44.2852 36.1554 44.2832C36.0593 44.2817 36.0689 44.2957 36.0686 44.193C36.0683 44.0789 36.0679 43.9648 36.069 43.8506C36.0693 43.8112 36.0573 43.7788 36.0313 43.7491C35.7877 43.4717 35.5448 43.1936 35.3013 42.916C35.2889 42.9017 35.2727 42.8906 35.2583 42.8779C34.612 42.8779 33.9659 42.8779 33.3196 42.8779C33.237 42.9084 33.2011 42.9682 33.2013 43.0557C33.2023 43.4455 33.2017 43.8352 33.2017 44.2249C33.2017 44.2828 33.2014 44.2862 33.1445 44.2822C32.9888 44.2716 32.8828 44.3848 32.8848 44.5414C32.8894 44.9029 32.8861 45.2645 32.8862 45.626C32.8864 45.7903 32.9764 45.8801 33.141 45.8807C33.2016 45.8809 33.2016 45.8809 33.2016 45.9431C33.2016 46.1739 33.2015 46.4047 33.2017 46.6355C33.2018 46.7594 33.262 46.8196 33.3855 46.8196C34.2189 46.8197 35.0524 46.8197 35.8857 46.8196C36.0072 46.8196 36.0682 46.759 36.0684 46.6382C36.0686 46.4035 36.0684 46.1689 36.0685 45.9343C36.0685 45.881 36.0688 45.8811 36.1226 45.8807C36.1508 45.8805 36.1789 45.8816 36.2068 45.8747C36.3103 45.8491 36.3825 45.7661 36.3829 45.6595C36.3846 45.275 36.3848 44.8903 36.383 44.5057ZM33.4241 43.0355C33.9792 43.0355 34.5342 43.0355 35.0892 43.0355C35.1462 43.0355 35.1468 43.0362 35.1468 43.0938C35.1469 43.3271 35.1467 43.5604 35.1469 43.7938C35.147 43.8781 35.1728 43.9039 35.2571 43.9039C35.4558 43.904 35.6545 43.9039 35.8532 43.904C35.9008 43.904 35.903 43.9062 35.9032 43.9542C35.9035 44.0465 35.9034 44.1388 35.9032 44.2311C35.9031 44.2807 35.9007 44.2829 35.8508 44.283C35.4457 44.2831 35.0406 44.283 34.6356 44.283C34.2319 44.283 33.8281 44.283 33.4243 44.283C33.3671 44.283 33.3669 44.2829 33.3669 44.2246C33.3668 43.8477 33.3668 43.4709 33.3669 43.094C33.3669 43.0359 33.3674 43.0355 33.4241 43.0355ZM35.8458 46.6149C35.4419 46.615 35.0381 46.6149 34.6342 46.6149C34.2316 46.6149 33.829 46.6149 33.4264 46.6149C33.3669 46.6149 33.3667 46.6146 33.3667 46.5546C33.3666 46.347 33.3666 46.1393 33.3668 45.9316C33.3668 45.8833 33.3692 45.881 33.4165 45.8809C34.2281 45.8808 35.0397 45.8808 35.8512 45.8809C35.9009 45.8809 35.9031 45.883 35.9031 45.9332C35.9033 46.1409 35.9032 46.3486 35.9031 46.5563C35.9033 46.6143 35.9028 46.6149 35.8458 46.6149Z" fill="white"/>
<path d="M34.6359 43.0239H34.4531V43.1335H34.6359V43.0239Z" fill="white"/>
<path d="M34.4523 43.1333H34.2695V43.2429H34.4523V43.1333Z" fill="white"/>
<path d="M34.6359 43.2432H34.4531V43.3528H34.6359V43.2432Z" fill="white"/>
<path d="M34.4523 43.3525H34.2695V43.4622H34.4523V43.3525Z" fill="white"/>
<path d="M34.6359 43.4624H34.4531V43.572H34.6359V43.4624Z" fill="white"/>
<path d="M34.4523 43.5718H34.2695V43.6814H34.4523V43.5718Z" fill="white"/>
<path d="M34.6359 43.6816H34.4531V43.7913H34.6359V43.6816Z" fill="white"/>
<path d="M34.4523 43.7915H34.2695V43.9011H34.4523V43.7915Z" fill="white"/>
<path d="M34.6359 43.9009H34.4531V44.0105H34.6359V43.9009Z" fill="white"/>
<path d="M34.4523 44.0107H34.2695V44.1204H34.4523V44.0107Z" fill="white"/>
<path d="M34.6359 44.1201H34.4531V44.2297H34.6359V44.1201Z" fill="white"/>
<path d="M34.4523 44.23H34.2695V44.3396H34.4523V44.23Z" fill="white"/>
<path d="M19.9143 44.5057C19.9137 44.3784 19.8146 44.2852 19.6866 44.2832C19.5905 44.2817 19.6001 44.2957 19.5999 44.193C19.5996 44.0789 19.5992 43.9648 19.6002 43.8506C19.6005 43.8112 19.5886 43.7788 19.5626 43.7491C19.319 43.4717 19.0761 43.1936 18.8326 42.916C18.8201 42.9017 18.804 42.8906 18.7895 42.8779C18.1433 42.8779 17.4971 42.8779 16.8509 42.8779C16.7683 42.9084 16.7323 42.9682 16.7325 43.0557C16.7336 43.4455 16.7329 43.8352 16.7329 44.2249C16.7329 44.2828 16.7326 44.2862 16.6757 44.2822C16.52 44.2716 16.4141 44.3848 16.416 44.5414C16.4206 44.9029 16.4174 45.2645 16.4175 45.626C16.4176 45.7903 16.5077 45.8801 16.6723 45.8807C16.7328 45.8809 16.7328 45.8809 16.7328 45.9431C16.7328 46.1739 16.7327 46.4047 16.7329 46.6355C16.733 46.7594 16.7933 46.8196 16.9168 46.8196C17.7502 46.8197 18.5836 46.8197 19.417 46.8196C19.5384 46.8196 19.5995 46.759 19.5997 46.6382C19.5999 46.4035 19.5997 46.1689 19.5998 45.9343C19.5998 45.881 19.6 45.8811 19.6539 45.8807C19.6821 45.8805 19.7101 45.8816 19.738 45.8747C19.8416 45.8491 19.9138 45.7661 19.9142 45.6595C19.9159 45.275 19.9162 44.8903 19.9143 44.5057ZM16.9555 43.0355C17.5105 43.0355 18.0656 43.0355 18.6205 43.0355C18.6775 43.0355 18.6781 43.0362 18.6781 43.0938C18.6783 43.3271 18.678 43.5604 18.6783 43.7938C18.6784 43.8781 18.7041 43.9039 18.7885 43.9039C18.9871 43.904 19.1859 43.9039 19.3845 43.904C19.4321 43.904 19.4343 43.9062 19.4345 43.9542C19.4349 44.0465 19.4347 44.1388 19.4345 44.2311C19.4344 44.2807 19.432 44.2829 19.3821 44.283C18.977 44.2831 18.572 44.283 18.167 44.283C17.7633 44.283 17.3594 44.283 16.9557 44.283C16.8985 44.283 16.8983 44.2829 16.8983 44.2246C16.8982 43.8477 16.8982 43.4709 16.8983 43.094C16.8982 43.0359 16.8986 43.0355 16.9555 43.0355ZM19.3771 46.6149C18.9733 46.615 18.5695 46.6149 18.1655 46.6149C17.7629 46.6149 17.3604 46.6149 16.9578 46.6149C16.8983 46.6149 16.8981 46.6146 16.8981 46.5546C16.898 46.347 16.898 46.1393 16.8982 45.9316C16.8982 45.8833 16.9006 45.881 16.9479 45.8809C17.7594 45.8808 18.571 45.8808 19.3825 45.8809C19.4323 45.8809 19.4344 45.883 19.4344 45.9332C19.4346 46.1409 19.4345 46.3486 19.4344 46.5563C19.4345 46.6143 19.434 46.6149 19.3771 46.6149Z" fill="white"/>
<path d="M17.0176 45.4805V44.6592H17.3066C17.3456 44.6592 17.3821 44.6655 17.4161 44.6781C17.4501 44.6907 17.4798 44.7085 17.505 44.7315C17.5302 44.7544 17.5502 44.7817 17.5646 44.8135C17.5792 44.8452 17.5865 44.8803 17.5865 44.9185C17.5865 44.9575 17.5792 44.9928 17.5646 45.0245C17.5501 45.0563 17.5302 45.0836 17.505 45.1066C17.4798 45.1296 17.4501 45.1474 17.4161 45.1599C17.3821 45.1725 17.3456 45.1789 17.3066 45.1789H17.1724V45.4806H17.0176V45.4805ZM17.3089 45.0319C17.3494 45.0319 17.38 45.0204 17.4006 44.9975C17.4213 44.9746 17.4316 44.9482 17.4316 44.9183C17.4316 44.9038 17.4291 44.8896 17.4241 44.8759C17.4191 44.8622 17.4115 44.8501 17.4011 44.8398C17.3908 44.8295 17.3779 44.8213 17.3626 44.8152C17.3474 44.809 17.3294 44.8059 17.3088 44.8059H17.1723V45.0319H17.3089Z" fill="white"/>
<path d="M17.6973 44.6587H17.8773L18.2077 45.2093H18.2168L18.2077 45.051V44.6587H18.3614V45.48H18.1985L17.8498 44.8984H17.8407L17.8498 45.0567V45.48H17.6973V44.6587Z" fill="white"/>
<path d="M18.9048 45.0295H19.3074C19.3097 45.0387 19.3116 45.0498 19.3132 45.0628C19.3146 45.0758 19.3155 45.0888 19.3155 45.1018C19.3155 45.1545 19.3074 45.2042 19.2914 45.2509C19.2754 45.2976 19.2501 45.3392 19.2157 45.3759C19.179 45.4149 19.135 45.4452 19.0838 45.4665C19.0326 45.4879 18.9741 45.4986 18.9083 45.4986C18.8486 45.4986 18.7924 45.4879 18.7396 45.4665C18.6869 45.4451 18.641 45.4153 18.602 45.377C18.563 45.3389 18.532 45.2935 18.509 45.2411C18.4861 45.1887 18.4746 45.1316 18.4746 45.0696C18.4746 45.0077 18.4861 44.9505 18.509 44.8981C18.532 44.8457 18.5629 44.8005 18.602 44.7622C18.641 44.724 18.6869 44.6942 18.7396 44.6728C18.7923 44.6513 18.8486 44.6406 18.9083 44.6406C18.9748 44.6406 19.0342 44.6521 19.0867 44.675C19.1391 44.698 19.1839 44.7298 19.2214 44.7702L19.1148 44.8746C19.088 44.8463 19.0583 44.8247 19.0253 44.8098C18.9924 44.795 18.953 44.7875 18.9071 44.7875C18.8696 44.7875 18.834 44.7942 18.8004 44.8075C18.7667 44.821 18.7373 44.8399 18.712 44.8643C18.6869 44.8888 18.6667 44.9184 18.6518 44.9533C18.637 44.9881 18.6295 45.0269 18.6295 45.0696C18.6295 45.1125 18.637 45.1513 18.6518 45.1861C18.6667 45.2209 18.687 45.2506 18.7126 45.275C18.7381 45.2995 18.7678 45.3185 18.8015 45.3318C18.8351 45.3452 18.8711 45.3519 18.9093 45.3519C18.9529 45.3519 18.9897 45.3455 19.02 45.333C19.0501 45.3204 19.0759 45.304 19.0974 45.2842C19.1128 45.2704 19.126 45.253 19.137 45.232C19.148 45.211 19.1566 45.1875 19.1628 45.1615H18.9047L18.9048 45.0295Z" fill="white"/>
<path d="M23.6975 44.5057C23.6969 44.3784 23.5978 44.2852 23.4698 44.2832C23.3737 44.2817 23.3833 44.2957 23.3831 44.193C23.3828 44.0789 23.3824 43.9648 23.3834 43.8506C23.3837 43.8112 23.3718 43.7788 23.3458 43.7491C23.1022 43.4717 22.8593 43.1936 22.6158 42.916C22.6033 42.9017 22.5872 42.8906 22.5727 42.8779C21.9265 42.8779 21.2803 42.8779 20.6341 42.8779C20.5515 42.9084 20.5155 42.9682 20.5157 43.0557C20.5168 43.4455 20.5161 43.8352 20.5161 44.2249C20.5161 44.2828 20.5158 44.2862 20.4589 44.2822C20.3032 44.2716 20.1973 44.3848 20.1992 44.5414C20.2038 44.9029 20.2006 45.2645 20.2007 45.626C20.2008 45.7903 20.2909 45.8801 20.4555 45.8807C20.516 45.8809 20.516 45.8809 20.516 45.9431C20.516 46.1739 20.5159 46.4047 20.5161 46.6355C20.5162 46.7594 20.5765 46.8196 20.7 46.8196C21.5334 46.8197 22.3668 46.8197 23.2002 46.8196C23.3216 46.8196 23.3827 46.759 23.3829 46.6382C23.3831 46.4035 23.3829 46.1689 23.383 45.9343C23.383 45.881 23.3832 45.8811 23.4371 45.8807C23.4653 45.8805 23.4933 45.8816 23.5212 45.8747C23.6249 45.8491 23.697 45.7661 23.6974 45.6595C23.6991 45.275 23.6993 44.8903 23.6975 44.5057ZM20.7386 43.0355C21.2936 43.0355 21.8487 43.0355 22.4036 43.0355C22.4606 43.0355 22.4612 43.0362 22.4612 43.0938C22.4613 43.3271 22.4611 43.5604 22.4613 43.7938C22.4615 43.8781 22.4872 43.9039 22.5716 43.9039C22.7702 43.904 22.969 43.9039 23.1676 43.904C23.2152 43.904 23.2174 43.9062 23.2176 43.9542C23.2179 44.0465 23.2178 44.1388 23.2176 44.2311C23.2175 44.2807 23.2151 44.2829 23.1652 44.283C22.7601 44.2831 22.3551 44.283 21.9501 44.283C21.5464 44.283 21.1425 44.283 20.7388 44.283C20.6816 44.283 20.6814 44.2829 20.6814 44.2246C20.6813 43.8477 20.6813 43.4709 20.6814 43.094C20.6814 43.0359 20.6818 43.0355 20.7386 43.0355ZM23.1603 46.6149C22.7565 46.615 22.3527 46.6149 21.9487 46.6149C21.5461 46.6149 21.1436 46.6149 20.741 46.6149C20.6815 46.6149 20.6813 46.6146 20.6813 46.5546C20.6812 46.347 20.6812 46.1393 20.6814 45.9316C20.6814 45.8833 20.6838 45.881 20.7311 45.8809C21.5426 45.8808 22.3542 45.8808 23.1657 45.8809C23.2155 45.8809 23.2176 45.883 23.2176 45.9332C23.2178 46.1409 23.2177 46.3486 23.2176 46.5563C23.2177 46.6143 23.2172 46.6149 23.1603 46.6149Z" fill="white"/>
<path d="M21.7324 44.6592H21.9091L22.2177 45.4805H22.0467L21.979 45.2843H21.6624L21.5947 45.4805H21.4238L21.7324 44.6592ZM21.9285 45.1422L21.8551 44.9369L21.8253 44.837H21.8161L21.7863 44.9369L21.7128 45.1422H21.9285Z" fill="white"/>
<path d="M22.3796 44.8426C22.3666 44.8426 22.3541 44.8401 22.3423 44.8351C22.3304 44.8301 22.3201 44.8233 22.3113 44.8144C22.3025 44.8057 22.2956 44.7955 22.2907 44.7841C22.2857 44.7726 22.2832 44.7599 22.2832 44.7462C22.2832 44.7325 22.2857 44.7198 22.2907 44.7083C22.2957 44.6969 22.3025 44.6867 22.3113 44.678C22.32 44.6692 22.3304 44.6623 22.3423 44.6574C22.3541 44.6524 22.3665 44.6499 22.3796 44.6499C22.4063 44.6499 22.4293 44.6593 22.4485 44.678C22.4676 44.6968 22.4772 44.7195 22.4772 44.7462C22.4772 44.7729 22.4676 44.7957 22.4485 44.8144C22.4293 44.8333 22.4064 44.8426 22.3796 44.8426ZM22.3051 45.4804V44.9184H22.4554V45.4804H22.3051Z" fill="white"/>
<path d="M27.5491 44.5057C27.5484 44.3784 27.4493 44.2852 27.3214 44.2832C27.2253 44.2817 27.2349 44.2957 27.2347 44.193C27.2344 44.0789 27.2339 43.9648 27.235 43.8506C27.2353 43.8112 27.2233 43.7788 27.1973 43.7491C26.9538 43.4717 26.7108 43.1936 26.4674 42.916C26.4549 42.9017 26.4388 42.8906 26.4243 42.8779C25.778 42.8779 25.1319 42.8779 24.4856 42.8779C24.4031 42.9084 24.3671 42.9682 24.3673 43.0557C24.3683 43.4455 24.3677 43.8352 24.3677 44.2249C24.3677 44.2828 24.3674 44.2862 24.3105 44.2822C24.1548 44.2716 24.0488 44.3848 24.0508 44.5414C24.0554 44.9029 24.0522 45.2645 24.0523 45.626C24.0524 45.7903 24.1424 45.8801 24.3071 45.8807C24.3676 45.8809 24.3676 45.8809 24.3676 45.9431C24.3676 46.1739 24.3675 46.4047 24.3677 46.6355C24.3678 46.7594 24.428 46.8196 24.5516 46.8196C25.3849 46.8197 26.2184 46.8197 27.0517 46.8196C27.1732 46.8196 27.2343 46.759 27.2345 46.6382C27.2347 46.4035 27.2345 46.1689 27.2346 45.9343C27.2346 45.881 27.2348 45.8811 27.2886 45.8807C27.3168 45.8805 27.3449 45.8816 27.3728 45.8747C27.4764 45.8491 27.5485 45.7661 27.549 45.6595C27.5506 45.275 27.5508 44.8903 27.5491 44.5057ZM24.5902 43.0355C25.1452 43.0355 25.7002 43.0355 26.2552 43.0355C26.3122 43.0355 26.3128 43.0362 26.3128 43.0938C26.3129 43.3271 26.3127 43.5604 26.3129 43.7938C26.313 43.8781 26.3388 43.9039 26.4232 43.9039C26.6218 43.904 26.8205 43.9039 27.0192 43.904C27.0668 43.904 27.069 43.9062 27.0692 43.9542C27.0695 44.0465 27.0694 44.1388 27.0692 44.2311C27.0691 44.2807 27.0667 44.2829 27.0168 44.283C26.6117 44.2831 26.2066 44.283 25.8016 44.283C25.3979 44.283 24.9941 44.283 24.5904 44.283C24.5332 44.283 24.533 44.2829 24.533 44.2246C24.5328 43.8477 24.5328 43.4709 24.533 43.094C24.5328 43.0359 24.5334 43.0355 24.5902 43.0355ZM27.0118 46.6149C26.608 46.615 26.2041 46.6149 25.8002 46.6149C25.3976 46.6149 24.995 46.6149 24.5924 46.6149C24.533 46.6149 24.5327 46.6146 24.5327 46.5546C24.5326 46.347 24.5326 46.1393 24.5328 45.9316C24.5328 45.8833 24.5352 45.881 24.5826 45.8809C25.3941 45.8808 26.2057 45.8808 27.0172 45.8809C27.0669 45.8809 27.0691 45.883 27.0691 45.9332C27.0693 46.1409 27.0692 46.3486 27.0691 46.5563C27.0693 46.6143 27.0688 46.6149 27.0118 46.6149Z" fill="white"/>
<path d="M24.9821 45.4988C24.9469 45.4988 24.9132 45.4938 24.8811 45.4839C24.8489 45.474 24.8195 45.4591 24.7928 45.4392C24.7661 45.4193 24.7428 45.395 24.7228 45.3664C24.7029 45.3377 24.6872 45.3043 24.6758 45.266L24.8215 45.2087C24.8322 45.25 24.8509 45.2843 24.8776 45.3114C24.9044 45.3385 24.9396 45.3522 24.9832 45.3522C24.9992 45.3522 25.0147 45.3501 25.0297 45.3458C25.0446 45.3417 25.058 45.3355 25.0698 45.3275C25.0817 45.3195 25.0911 45.3093 25.0979 45.2971C25.1048 45.2849 25.1082 45.2707 25.1082 45.2547C25.1082 45.2394 25.1055 45.2257 25.1002 45.2134C25.0949 45.2013 25.0859 45.1898 25.0733 45.179C25.0607 45.1683 25.0441 45.158 25.0239 45.148C25.0036 45.1381 24.9786 45.1277 24.9488 45.117L24.8983 45.0987C24.8762 45.0911 24.8537 45.0807 24.8313 45.0677C24.8087 45.0547 24.7883 45.039 24.7699 45.0207C24.7515 45.0024 24.7364 44.9808 24.7246 44.9559C24.7127 44.9311 24.7068 44.903 24.7068 44.8717C24.7068 44.8395 24.713 44.8096 24.7257 44.7816C24.7383 44.7537 24.7563 44.7293 24.7796 44.7082C24.8029 44.6872 24.8307 44.6708 24.8633 44.6589C24.8958 44.647 24.9319 44.6411 24.9717 44.6411C25.0129 44.6411 25.0486 44.6466 25.0789 44.6578C25.1091 44.6689 25.1347 44.683 25.1557 44.7002C25.1767 44.7173 25.1938 44.7364 25.2068 44.757C25.2198 44.7777 25.2294 44.7971 25.2355 44.8155L25.0991 44.8728C25.0914 44.8498 25.0774 44.8293 25.0573 44.8108C25.037 44.7925 25.0092 44.7833 24.9741 44.7833C24.9404 44.7833 24.9125 44.7911 24.8903 44.8068C24.8682 44.8225 24.8571 44.843 24.8571 44.8681C24.8571 44.8926 24.8678 44.9135 24.8892 44.9306C24.9106 44.9478 24.9446 44.9645 24.9913 44.9806L25.043 44.9977C25.0759 45.0093 25.1059 45.0224 25.1331 45.0374C25.1602 45.0522 25.1835 45.07 25.2031 45.0907C25.2225 45.1114 25.2375 45.1349 25.2478 45.1612C25.2582 45.1876 25.2633 45.218 25.2633 45.2524C25.2633 45.2953 25.2546 45.3322 25.2375 45.3631C25.2203 45.3941 25.1983 45.4194 25.1715 45.4394C25.1447 45.4593 25.1146 45.4743 25.0809 45.4841C25.0471 45.4938 25.0142 45.4988 24.9821 45.4988Z" fill="white"/>
<path d="M25.3105 44.6587H25.478L25.6478 45.1531L25.6777 45.2587H25.6868L25.719 45.1531L25.8957 44.6587H26.0631L25.7637 45.48H25.6008L25.3105 44.6587Z" fill="white"/>
<path d="M26.5142 45.0295H26.9168C26.9191 45.0387 26.921 45.0498 26.9225 45.0628C26.9241 45.0758 26.9249 45.0888 26.9249 45.1018C26.9249 45.1545 26.9168 45.2042 26.9008 45.2509C26.8848 45.2976 26.8595 45.3392 26.8251 45.3759C26.7884 45.4149 26.7445 45.4452 26.6932 45.4665C26.6419 45.4879 26.5835 45.4986 26.5177 45.4986C26.458 45.4986 26.4018 45.4879 26.3491 45.4665C26.2964 45.4451 26.2504 45.4153 26.2114 45.377C26.1724 45.3389 26.1414 45.2935 26.1184 45.2411C26.0955 45.1887 26.084 45.1316 26.084 45.0696C26.084 45.0077 26.0954 44.9505 26.1184 44.8981C26.1414 44.8457 26.1723 44.8005 26.2114 44.7622C26.2504 44.724 26.2962 44.6942 26.3491 44.6728C26.4018 44.6513 26.458 44.6406 26.5177 44.6406C26.5842 44.6406 26.6436 44.6521 26.696 44.675C26.7484 44.698 26.7934 44.7298 26.8308 44.7702L26.7241 44.8746C26.6974 44.8463 26.6675 44.8247 26.6346 44.8098C26.6017 44.795 26.5624 44.7875 26.5164 44.7875C26.479 44.7875 26.4434 44.7942 26.4097 44.8075C26.3761 44.821 26.3466 44.8399 26.3214 44.8643C26.2961 44.8888 26.2761 44.9184 26.2612 44.9533C26.2463 44.9881 26.2388 45.0269 26.2388 45.0696C26.2388 45.1125 26.2463 45.1513 26.2612 45.1861C26.2761 45.2209 26.2964 45.2506 26.322 45.275C26.3476 45.2995 26.3773 45.3185 26.4109 45.3318C26.4446 45.3452 26.4804 45.3519 26.5187 45.3519C26.5623 45.3519 26.5992 45.3455 26.6294 45.333C26.6595 45.3204 26.6854 45.304 26.7068 45.2842C26.7221 45.2704 26.7353 45.253 26.7464 45.232C26.7575 45.211 26.766 45.1875 26.7722 45.1615H26.514V45.0295H26.5142Z" fill="white"/>
<path d="M31.3186 44.5057C31.318 44.3784 31.2189 44.2852 31.0909 44.2832C30.9948 44.2817 31.0044 44.2957 31.0042 44.193C31.0039 44.0789 31.0035 43.9648 31.0045 43.8506C31.0048 43.8112 30.9929 43.7788 30.9669 43.7491C30.7233 43.4717 30.4803 43.1936 30.2369 42.916C30.2244 42.9017 30.2083 42.8906 30.1938 42.8779C29.5476 42.8779 28.9014 42.8779 28.2552 42.8779C28.1726 42.9084 28.1366 42.9682 28.1368 43.0557C28.1379 43.4455 28.1372 43.8352 28.1372 44.2249C28.1372 44.2828 28.1369 44.2862 28.08 44.2822C27.9243 44.2716 27.8184 44.3848 27.8203 44.5414C27.8249 44.9029 27.8217 45.2645 27.8218 45.626C27.8219 45.7903 27.912 45.8801 28.0766 45.8807C28.1371 45.8809 28.1371 45.8809 28.1371 45.9431C28.1371 46.1739 28.137 46.4047 28.1372 46.6355C28.1373 46.7594 28.1975 46.8196 28.3211 46.8196C29.1545 46.8197 29.9879 46.8197 30.8213 46.8196C30.9427 46.8196 31.0038 46.759 31.004 46.6382C31.0042 46.4035 31.004 46.1689 31.0041 45.9343C31.0041 45.881 31.0043 45.8811 31.0582 45.8807C31.0864 45.8805 31.1144 45.8816 31.1423 45.8747C31.2459 45.8491 31.3181 45.7661 31.3185 45.6595C31.3201 45.275 31.3205 44.8903 31.3186 44.5057ZM28.3598 43.0355C28.9148 43.0355 29.4699 43.0355 30.0248 43.0355C30.0818 43.0355 30.0824 43.0362 30.0824 43.0938C30.0825 43.3271 30.0823 43.5604 30.0825 43.7938C30.0827 43.8781 30.1084 43.9039 30.1928 43.9039C30.3914 43.904 30.5902 43.9039 30.7888 43.904C30.8364 43.904 30.8386 43.9062 30.8388 43.9542C30.8391 44.0465 30.839 44.1388 30.8388 44.2311C30.8387 44.2807 30.8363 44.2829 30.7864 44.283C30.3813 44.2831 29.9763 44.283 29.5713 44.283C29.1676 44.283 28.7637 44.283 28.36 44.283C28.3028 44.283 28.3026 44.2829 28.3026 44.2246C28.3025 43.8477 28.3025 43.4709 28.3026 43.094C28.3025 43.0359 28.3029 43.0355 28.3598 43.0355ZM30.7814 46.6149C30.3776 46.615 29.9738 46.6149 29.5698 46.6149C29.1672 46.6149 28.7647 46.6149 28.3621 46.6149C28.3026 46.6149 28.3024 46.6146 28.3024 46.5546C28.3023 46.347 28.3023 46.1393 28.3025 45.9316C28.3025 45.8833 28.3049 45.881 28.3522 45.8809C29.1637 45.8808 29.9753 45.8808 30.7868 45.8809C30.8365 45.8809 30.8387 45.883 30.8387 45.9332C30.8388 46.1409 30.8388 46.3486 30.8387 46.5563C30.8388 46.6143 30.8383 46.6149 30.7814 46.6149Z" fill="white"/>
<path d="M28.7877 44.8054V44.9959H29.1168V45.1427H28.7877V45.3331H29.1535V45.48H28.6328V44.6587H29.1535V44.8055L28.7877 44.8054Z" fill="white"/>
<path d="M29.2949 45.48V44.6587H29.5839C29.6229 44.6587 29.6594 44.665 29.6934 44.6776C29.7275 44.6902 29.7571 44.708 29.7824 44.731C29.8076 44.754 29.8275 44.7812 29.8421 44.813C29.8566 44.8447 29.8638 44.8798 29.8638 44.918C29.8638 44.957 29.8565 44.9923 29.8421 45.024C29.8275 45.0558 29.8076 45.0831 29.7824 45.1061C29.7571 45.1291 29.7275 45.1469 29.6934 45.1595C29.6594 45.172 29.6229 45.1784 29.5839 45.1784H29.4498V45.4801H29.2949V45.48ZM29.5862 45.0314C29.6267 45.0314 29.6574 45.0199 29.678 44.997C29.6987 44.9741 29.7089 44.9477 29.7089 44.9179C29.7089 44.9033 29.7064 44.8892 29.7015 44.8754C29.6965 44.8617 29.6889 44.8496 29.6785 44.8393C29.6682 44.829 29.6554 44.8208 29.64 44.8147C29.6247 44.8086 29.6067 44.8054 29.5861 44.8054H29.4497V45.0314H29.5862Z" fill="white"/>
<path d="M30.2262 45.4983C30.1911 45.4983 30.1574 45.4933 30.1252 45.4834C30.0931 45.4736 30.0636 45.4586 30.0369 45.4387C30.0102 45.4189 29.9868 45.3945 29.9669 45.3659C29.9471 45.3372 29.9314 45.3038 29.9199 45.2656L30.0656 45.2083C30.0763 45.2495 30.0951 45.2838 30.1219 45.3109C30.1486 45.338 30.1838 45.3517 30.2274 45.3517C30.2435 45.3517 30.259 45.3496 30.2739 45.3453C30.2888 45.3412 30.3022 45.335 30.3141 45.327C30.3259 45.319 30.3353 45.3088 30.3422 45.2967C30.349 45.2844 30.3526 45.2702 30.3526 45.2542C30.3526 45.2389 30.3499 45.2252 30.3446 45.2129C30.3393 45.2008 30.3302 45.1893 30.3176 45.1785C30.305 45.1678 30.2886 45.1575 30.2683 45.1475C30.248 45.1376 30.223 45.1272 30.1931 45.1165L30.1427 45.0982C30.1205 45.0906 30.0982 45.0802 30.0756 45.0672C30.053 45.0542 30.0326 45.0385 30.0143 45.0202C29.9959 45.0019 29.9808 44.9803 29.9689 44.9554C29.9571 44.9306 29.9511 44.9025 29.9511 44.8712C29.9511 44.8391 29.9575 44.8091 29.9701 44.7811C29.9826 44.7533 30.0006 44.7288 30.0239 44.7077C30.0472 44.6867 30.0752 44.6703 30.1076 44.6584C30.1401 44.6466 30.1763 44.6406 30.216 44.6406C30.2573 44.6406 30.2931 44.6461 30.3232 44.6573C30.3534 44.6684 30.3791 44.6825 30.4001 44.6997C30.4211 44.7169 30.4381 44.7359 30.4512 44.7565C30.4642 44.7772 30.4737 44.7966 30.4799 44.815L30.3434 44.8723C30.3357 44.8494 30.3218 44.8288 30.3015 44.8104C30.2812 44.7921 30.2534 44.7828 30.2184 44.7828C30.1847 44.7828 30.1568 44.7906 30.1347 44.8063C30.1125 44.822 30.1014 44.8425 30.1014 44.8677C30.1014 44.8921 30.1121 44.913 30.1335 44.9302C30.155 44.9473 30.189 44.964 30.2357 44.9801L30.2873 44.9972C30.3201 45.0088 30.3502 45.0219 30.3773 45.0369C30.4045 45.0517 30.4278 45.0695 30.4473 45.0902C30.4668 45.1109 30.4817 45.1344 30.492 45.1607C30.5023 45.1871 30.5075 45.2175 30.5075 45.2519C30.5075 45.2948 30.4989 45.3317 30.4817 45.3626C30.4646 45.3936 30.4425 45.419 30.4158 45.4389C30.389 45.4588 30.3588 45.4738 30.3251 45.4837C30.2912 45.4933 30.2582 45.4983 30.2262 45.4983Z" fill="white"/>
<path d="M33.8242 45.324L34.2406 44.8055H33.8426V44.6587H34.4208V44.8147L34.0089 45.3331H34.4253V45.48H33.8243L33.8242 45.324Z" fill="white"/>
<path d="M34.5547 44.6587H34.7095V45.48H34.5547V44.6587Z" fill="white"/>
<path d="M34.873 45.48V44.6587H35.1621C35.2011 44.6587 35.2376 44.665 35.2716 44.6776C35.3056 44.6902 35.3352 44.708 35.3605 44.731C35.3858 44.754 35.4056 44.7812 35.4202 44.813C35.4348 44.8447 35.4419 44.8798 35.4419 44.918C35.4419 44.957 35.4346 44.9923 35.4202 45.024C35.4056 45.0558 35.3858 45.0831 35.3605 45.1061C35.3352 45.1291 35.3056 45.1469 35.2716 45.1595C35.2376 45.172 35.2011 45.1784 35.1621 45.1784H35.0279V45.4801H34.873V45.48ZM35.1645 45.0314C35.2049 45.0314 35.2356 45.0199 35.2562 44.997C35.2769 44.9741 35.2872 44.9477 35.2872 44.9179C35.2872 44.9033 35.2847 44.8892 35.2797 44.8754C35.2747 44.8617 35.2671 44.8496 35.2567 44.8393C35.2464 44.829 35.2336 44.8208 35.2182 44.8147C35.2029 44.8086 35.1849 44.8054 35.1644 44.8054H35.0279V45.0314H35.1645Z" fill="white"/>
</g>
<g opacity="0.61">
<path d="M31.6133 44.7109H32.5563V44.9441H31.6133V44.7109ZM31.6133 45.113H32.5563V45.3463H31.6133V45.113Z" fill="white"/>
</g>
<g opacity="0.61">
<path d="M16.7031 49.4541H16.8703C17.0016 49.4541 17.0901 49.5385 17.0901 49.6594C17.0901 49.7801 17.0016 49.8646 16.8703 49.8646H16.7031V49.4541ZM16.8679 49.827C16.977 49.827 17.0473 49.7579 17.0473 49.6594C17.0473 49.5609 16.9769 49.4916 16.8679 49.4916H16.7465V49.827H16.8679Z" fill="white"/>
<path d="M17.5742 49.6589C17.5742 49.5393 17.6656 49.4502 17.79 49.4502C17.9132 49.4502 18.0052 49.5387 18.0052 49.6589C18.0052 49.7791 17.9132 49.8677 17.79 49.8677C17.6657 49.8677 17.5742 49.7786 17.5742 49.6589ZM17.9618 49.6589C17.9618 49.561 17.8885 49.4889 17.79 49.4889C17.6909 49.4889 17.6171 49.561 17.6171 49.6589C17.6171 49.7568 17.6909 49.829 17.79 49.829C17.8886 49.829 17.9618 49.7569 17.9618 49.6589Z" fill="white"/>
<path d="M19.0794 49.4536L18.941 49.8641H18.8952L18.775 49.514L18.6543 49.8641H18.6091L18.4707 49.4536H18.5153L18.6338 49.8066L18.7563 49.4536H18.7967L18.9175 49.8084L19.0377 49.4536H19.0794Z" fill="white"/>
<path d="M19.925 49.4536V49.8641H19.8892L19.6254 49.5311V49.8641H19.582V49.4536H19.6178L19.8823 49.7867V49.4536H19.925Z" fill="white"/>
<path d="M20.4824 49.4536H20.5258V49.8266H20.7556V49.8641H20.4824V49.4536Z" fill="white"/>
<path d="M21.207 49.6589C21.207 49.5393 21.2984 49.4502 21.4228 49.4502C21.546 49.4502 21.638 49.5387 21.638 49.6589C21.638 49.7791 21.546 49.8677 21.4228 49.8677C21.2986 49.8677 21.207 49.7786 21.207 49.6589ZM21.5946 49.6589C21.5946 49.561 21.5213 49.4889 21.4228 49.4889C21.3237 49.4889 21.2499 49.561 21.2499 49.6589C21.2499 49.7568 21.3237 49.829 21.4228 49.829C21.5213 49.829 21.5946 49.7569 21.5946 49.6589Z" fill="white"/>
<path d="M22.411 49.7545H22.1823L22.133 49.8641H22.0879L22.2755 49.4536H22.3184L22.506 49.8641H22.4602L22.411 49.7545ZM22.3952 49.7193L22.2967 49.4989L22.1982 49.7193H22.3952Z" fill="white"/>
<path d="M22.998 49.4536H23.1652C23.2965 49.4536 23.385 49.5381 23.385 49.6589C23.385 49.7797 23.2965 49.8641 23.1652 49.8641H22.998V49.4536ZM23.1628 49.8266C23.2719 49.8266 23.3422 49.7574 23.3422 49.6589C23.3422 49.5604 23.2718 49.4912 23.1628 49.4912H23.0414V49.8266H23.1628Z" fill="white"/>
<path d="M24.7411 49.7545H24.5124L24.4631 49.8641H24.418L24.6056 49.4536H24.6484L24.836 49.8641H24.7903L24.7411 49.7545ZM24.7253 49.7193L24.6268 49.4989L24.5283 49.7193H24.7253Z" fill="white"/>
<path d="M25.3281 49.4536H25.3715V49.8266H25.6013V49.8641H25.3281V49.4536Z" fill="white"/>
<path d="M26.0977 49.4536H26.141V49.8266H26.3709V49.8641H26.0977V49.4536Z" fill="white"/>
<path d="M27.4867 49.4911V49.6524H27.699V49.6899H27.4867V49.8641H27.4434V49.4536H27.7248V49.4912L27.4867 49.4911Z" fill="white"/>
<path d="M28.2383 49.4536H28.2816V49.8641H28.2383V49.4536Z" fill="white"/>
<path d="M28.8398 49.4536H28.8832V49.8266H29.1131V49.8641H28.8398V49.4536Z" fill="white"/>
<path d="M29.8996 49.8266V49.8641H29.6094V49.4536H29.8908V49.4912H29.6527V49.6372H29.865V49.6741H29.6527V49.8266H29.8996Z" fill="white"/>
<path d="M31.0473 49.4911V49.6524H31.2595V49.6899H31.0473V49.8641H31.0039V49.4536H31.2853V49.4912L31.0473 49.4911Z" fill="white"/>
<path d="M31.7559 49.6589C31.7559 49.5393 31.8473 49.4502 31.9717 49.4502C32.0948 49.4502 32.1868 49.5387 32.1868 49.6589C32.1868 49.7791 32.0948 49.8677 31.9717 49.8677C31.8473 49.8677 31.7559 49.7786 31.7559 49.6589ZM32.1434 49.6589C32.1434 49.561 32.07 49.4889 31.9716 49.4889C31.8724 49.4889 31.7986 49.561 31.7986 49.6589C31.7986 49.7568 31.8724 49.829 31.9716 49.829C32.0701 49.829 32.1434 49.7569 32.1434 49.6589Z" fill="white"/>
<path d="M32.9893 49.8641L32.8955 49.7321C32.8848 49.7333 32.8743 49.7339 32.8626 49.7339H32.7524V49.8641H32.709V49.4536H32.8626C32.967 49.4536 33.0303 49.5063 33.0303 49.5943C33.0303 49.6588 32.9963 49.7039 32.9365 49.7233L33.0368 49.864H32.9893V49.8641ZM32.9869 49.5943C32.9869 49.5286 32.9435 49.4912 32.8613 49.4912H32.7524V49.697H32.8613C32.9435 49.697 32.9869 49.6588 32.9869 49.5943Z" fill="white"/>
<path d="M33.9829 49.4537V49.8642H33.9413V49.5358L33.78 49.812H33.7595L33.5982 49.5375V49.8641H33.5566V49.4536H33.5924L33.7707 49.7579L33.9472 49.4536L33.9829 49.4537Z" fill="white"/>
<path d="M34.7976 49.7545H34.5689L34.5197 49.8641H34.4746L34.6622 49.4536H34.705L34.8926 49.8641H34.8468L34.7976 49.7545ZM34.7818 49.7193L34.6833 49.4989L34.5848 49.7193H34.7818Z" fill="white"/>
<path d="M35.4431 49.4912H35.2988V49.4536H35.6308V49.4912H35.4865V49.8641H35.4432V49.4912H35.4431Z" fill="white"/>
<path d="M36.0781 49.8143L36.0952 49.7809C36.1245 49.8096 36.1767 49.8307 36.2306 49.8307C36.3074 49.8307 36.3408 49.7985 36.3408 49.758C36.3408 49.6454 36.0881 49.7147 36.0881 49.5628C36.0881 49.5024 36.135 49.4502 36.2394 49.4502C36.2858 49.4502 36.3339 49.4637 36.3667 49.4866L36.3521 49.5212C36.3169 49.4983 36.2758 49.4872 36.2394 49.4872C36.1643 49.4872 36.131 49.5206 36.131 49.5617C36.131 49.6743 36.3837 49.6063 36.3837 49.7557C36.3837 49.8162 36.3356 49.8678 36.2306 49.8678C36.169 49.8675 36.1086 49.8459 36.0781 49.8143Z" fill="white"/>
</g>
<path d="M3 2.25049H49.8V49.0505H3V2.25049Z" fill="white"/>
<path d="M15.3047 41.3601L18.8861 39.1926C19.5771 40.4176 20.2056 41.4542 21.7133 41.4542C23.1585 41.4542 24.0695 40.8888 24.0695 38.69V23.7363H28.4676V38.7523C28.4676 43.3075 25.7975 45.3808 21.9018 45.3808C18.3836 45.3808 16.3414 43.5586 15.3047 41.3598" fill="#78CC25"/>
<path d="M30.8574 40.8888L34.4385 38.8155C35.3811 40.355 36.6063 41.4858 38.7738 41.4858C40.5961 41.4858 41.7582 40.5747 41.7582 39.318C41.7582 37.8101 40.5645 37.276 38.5538 36.3967L37.4547 35.9251C34.2815 34.5746 32.1767 32.8781 32.1767 29.2968C32.1767 25.9982 34.6898 23.4849 38.6169 23.4849C41.4128 23.4849 43.4233 24.4588 44.8683 27.0035L41.444 29.2025C40.69 27.8517 39.8735 27.3178 38.6169 27.3178C37.3288 27.3178 36.512 28.1346 36.512 29.2025C36.512 30.5219 37.3288 31.0562 39.2135 31.873L40.3129 32.3442C44.0513 33.9464 46.1562 35.5799 46.1562 39.2553C46.1562 43.2139 43.0462 45.3813 38.868 45.3813C34.7843 45.3812 32.1454 43.4336 30.8574 40.8888Z" fill="#78CC25"/>
<path d="M60.1353 35.4791V33.1591C60.522 33.1591 60.8486 33.1391 61.1153 33.0991C61.382 33.0457 61.5886 32.9591 61.7353 32.8391C61.882 32.7057 61.9886 32.5191 62.0553 32.2791C62.122 32.0391 62.1553 31.7257 62.1553 31.3391V18.8591H65.4553V31.4791C65.4553 32.3724 65.3486 33.1191 65.1353 33.7191C64.922 34.3057 64.542 34.7457 63.9953 35.0391C63.462 35.3324 62.7086 35.4791 61.7353 35.4791H60.1353ZM70.0927 35.2591C69.5327 35.2591 69.0593 35.1191 68.6727 34.8391C68.286 34.5591 67.9927 34.2057 67.7927 33.7791C67.5927 33.3524 67.4927 32.9124 67.4927 32.4591C67.4927 31.7391 67.6327 31.1324 67.9127 30.6391C68.1927 30.1457 68.5593 29.7324 69.0127 29.3991C69.466 29.0657 69.9727 28.7791 70.5327 28.5391C71.0927 28.2991 71.6527 28.0791 72.2127 27.8791V26.7991C72.2127 26.5457 72.1927 26.3257 72.1527 26.1391C72.1127 25.9524 72.0327 25.8124 71.9127 25.7191C71.806 25.6124 71.646 25.5591 71.4327 25.5591C71.2193 25.5591 71.0527 25.6057 70.9327 25.6991C70.826 25.7791 70.746 25.9057 70.6927 26.0791C70.6393 26.2391 70.6127 26.4191 70.6127 26.6191L70.5327 27.4191L67.6927 27.2991C67.7593 25.9391 68.1127 24.9324 68.7527 24.2791C69.406 23.6257 70.386 23.2991 71.6927 23.2991C72.866 23.2991 73.7327 23.6257 74.2927 24.2791C74.8527 24.9191 75.1327 25.7657 75.1327 26.8191V32.1991C75.1327 32.6524 75.1393 33.0591 75.1527 33.4191C75.1793 33.7657 75.206 34.0791 75.2327 34.3591C75.2727 34.6257 75.306 34.8591 75.3327 35.0591H72.6127C72.5727 34.7657 72.526 34.4457 72.4727 34.0991C72.4193 33.7524 72.3793 33.5191 72.3527 33.3991C72.2193 33.8791 71.966 34.3124 71.5927 34.6991C71.2193 35.0724 70.7193 35.2591 70.0927 35.2591ZM71.1927 33.1191C71.3393 33.1191 71.4727 33.0857 71.5927 33.0191C71.726 32.9524 71.846 32.8657 71.9527 32.7591C72.0593 32.6524 72.146 32.5524 72.2127 32.4591V29.2791C71.9327 29.4524 71.6727 29.6257 71.4327 29.7991C71.1927 29.9591 70.986 30.1391 70.8127 30.3391C70.6393 30.5391 70.506 30.7591 70.4127 30.9991C70.3193 31.2391 70.2727 31.5124 70.2727 31.8191C70.2727 32.2191 70.3527 32.5391 70.5127 32.7791C70.6727 33.0057 70.8993 33.1191 71.1927 33.1191ZM78.9775 35.0591L76.6575 23.4991H79.5775L80.6375 31.2791L81.6375 23.4991H84.5375L82.1975 35.0591H78.9775ZM87.9044 35.2591C87.3444 35.2591 86.871 35.1191 86.4844 34.8391C86.0977 34.5591 85.8044 34.2057 85.6044 33.7791C85.4044 33.3524 85.3044 32.9124 85.3044 32.4591C85.3044 31.7391 85.4444 31.1324 85.7244 30.6391C86.0044 30.1457 86.371 29.7324 86.8244 29.3991C87.2777 29.0657 87.7844 28.7791 88.3444 28.5391C88.9044 28.2991 89.4644 28.0791 90.0244 27.8791V26.7991C90.0244 26.5457 90.0044 26.3257 89.9644 26.1391C89.9244 25.9524 89.8444 25.8124 89.7244 25.7191C89.6177 25.6124 89.4577 25.5591 89.2444 25.5591C89.031 25.5591 88.8644 25.6057 88.7444 25.6991C88.6377 25.7791 88.5577 25.9057 88.5044 26.0791C88.451 26.2391 88.4244 26.4191 88.4244 26.6191L88.3444 27.4191L85.5044 27.2991C85.571 25.9391 85.9244 24.9324 86.5644 24.2791C87.2177 23.6257 88.1977 23.2991 89.5044 23.2991C90.6777 23.2991 91.5444 23.6257 92.1044 24.2791C92.6644 24.9191 92.9444 25.7657 92.9444 26.8191V32.1991C92.9444 32.6524 92.951 33.0591 92.9644 33.4191C92.991 33.7657 93.0177 34.0791 93.0444 34.3591C93.0844 34.6257 93.1177 34.8591 93.1444 35.0591H90.4244C90.3844 34.7657 90.3377 34.4457 90.2844 34.0991C90.231 33.7524 90.191 33.5191 90.1644 33.3991C90.031 33.8791 89.7777 34.3124 89.4044 34.6991C89.031 35.0724 88.531 35.2591 87.9044 35.2591ZM89.0044 33.1191C89.151 33.1191 89.2844 33.0857 89.4044 33.0191C89.5377 32.9524 89.6577 32.8657 89.7644 32.7591C89.871 32.6524 89.9577 32.5524 90.0244 32.4591V29.2791C89.7444 29.4524 89.4844 29.6257 89.2444 29.7991C89.0044 29.9591 88.7977 30.1391 88.6244 30.3391C88.451 30.5391 88.3177 30.7591 88.2244 30.9991C88.131 31.2391 88.0844 31.5124 88.0844 31.8191C88.0844 32.2191 88.1644 32.5391 88.3244 32.7791C88.4844 33.0057 88.711 33.1191 89.0044 33.1191ZM99.6887 35.2791C98.6887 35.2791 97.8554 35.0991 97.1887 34.7391C96.5221 34.3657 96.0154 33.8124 95.6687 33.0791C95.3354 32.3324 95.1421 31.3857 95.0887 30.2391L97.9287 29.7591C97.9554 30.4257 98.0221 30.9857 98.1287 31.4391C98.2487 31.8791 98.4221 32.2124 98.6487 32.4391C98.8887 32.6524 99.1821 32.7591 99.5287 32.7591C99.9554 32.7591 100.242 32.6257 100.389 32.3591C100.549 32.0924 100.629 31.7857 100.629 31.4391C100.629 30.7591 100.462 30.1924 100.129 29.7391C99.8087 29.2724 99.3821 28.8057 98.8487 28.3391L97.1687 26.8791C96.5687 26.3724 96.0754 25.7991 95.6887 25.1591C95.3154 24.5191 95.1287 23.7324 95.1287 22.7991C95.1287 21.4657 95.5154 20.4457 96.2887 19.7391C97.0754 19.0191 98.1487 18.6591 99.5087 18.6591C100.322 18.6591 100.989 18.7924 101.509 19.0591C102.029 19.3257 102.429 19.6857 102.709 20.1391C103.002 20.5791 103.202 21.0657 103.309 21.5991C103.429 22.1191 103.502 22.6391 103.529 23.1591L100.709 23.5791C100.682 23.0857 100.635 22.6524 100.569 22.2791C100.515 21.9057 100.395 21.6124 100.209 21.3991C100.035 21.1857 99.7687 21.0791 99.4087 21.0791C99.0221 21.0791 98.7354 21.2257 98.5487 21.5191C98.3621 21.7991 98.2687 22.1124 98.2687 22.4591C98.2687 23.0324 98.3954 23.5057 98.6487 23.8791C98.9154 24.2391 99.2754 24.6191 99.7287 25.0191L101.369 26.4591C102.049 27.0457 102.629 27.7191 103.109 28.4791C103.602 29.2257 103.849 30.1524 103.849 31.2591C103.849 32.0191 103.675 32.7057 103.329 33.3191C102.982 33.9324 102.495 34.4124 101.869 34.7591C101.255 35.1057 100.529 35.2791 99.6887 35.2791ZM109.426 35.2591C108.573 35.2591 107.86 35.0991 107.286 34.7791C106.713 34.4457 106.28 33.9791 105.986 33.3791C105.706 32.7791 105.566 32.0657 105.566 31.2391V27.3391C105.566 26.4724 105.706 25.7457 105.986 25.1591C106.28 24.5591 106.713 24.0991 107.286 23.7791C107.86 23.4591 108.573 23.2991 109.426 23.2991C110.253 23.2991 110.946 23.4324 111.506 23.6991C112.066 23.9524 112.48 24.3391 112.746 24.8591C113.026 25.3791 113.166 26.0324 113.166 26.8191V27.9191H110.286V26.7391C110.286 26.3924 110.253 26.1257 110.186 25.9391C110.133 25.7391 110.04 25.5991 109.906 25.5191C109.786 25.4391 109.626 25.3991 109.426 25.3991C109.226 25.3991 109.066 25.4524 108.946 25.5591C108.826 25.6524 108.74 25.8191 108.686 26.0591C108.633 26.2857 108.606 26.6057 108.606 27.0191V31.5591C108.606 32.1857 108.673 32.6124 108.806 32.8391C108.953 33.0524 109.166 33.1591 109.446 33.1591C109.66 33.1591 109.826 33.1124 109.946 33.0191C110.066 32.9257 110.153 32.7791 110.206 32.5791C110.26 32.3791 110.286 32.1257 110.286 31.8191V30.4191H113.166V31.6791C113.166 32.4524 113.026 33.1124 112.746 33.6591C112.466 34.1924 112.046 34.5924 111.486 34.8591C110.926 35.1257 110.24 35.2591 109.426 35.2591ZM115.368 35.0591V23.4991H118.388V25.3591C118.774 24.6791 119.154 24.1791 119.528 23.8591C119.914 23.5257 120.368 23.3591 120.888 23.3591C120.981 23.3591 121.061 23.3657 121.128 23.3791C121.208 23.3791 121.281 23.3924 121.348 23.4191V26.4591C121.201 26.3924 121.034 26.3391 120.848 26.2991C120.661 26.2457 120.468 26.2191 120.268 26.2191C119.894 26.2191 119.554 26.3191 119.248 26.5191C118.941 26.7057 118.654 26.9791 118.388 27.3391V35.0591H115.368ZM123.17 35.0591V23.4991H126.19V35.0591H123.17ZM123.15 21.5991V19.3391H126.19V21.5991H123.15ZM128.667 38.8591V23.4991H131.687V24.3591C132.047 24.0257 132.433 23.7657 132.847 23.5791C133.273 23.3924 133.7 23.2991 134.127 23.2991C134.593 23.2991 134.987 23.4057 135.307 23.6191C135.627 23.8191 135.887 24.0924 136.087 24.4391C136.287 24.7857 136.427 25.1724 136.507 25.5991C136.587 26.0257 136.627 26.4591 136.627 26.8991V31.4191C136.627 32.1657 136.533 32.8257 136.347 33.3991C136.16 33.9724 135.873 34.4257 135.487 34.7591C135.113 35.0924 134.627 35.2591 134.027 35.2591C133.613 35.2591 133.207 35.1591 132.807 34.9591C132.42 34.7591 132.047 34.4991 131.687 34.1791V38.8591H128.667ZM132.687 33.2391C132.94 33.2391 133.127 33.1657 133.247 33.0191C133.38 32.8591 133.473 32.6524 133.527 32.3991C133.58 32.1457 133.607 31.8657 133.607 31.5591V26.7191C133.607 26.4391 133.58 26.1857 133.527 25.9591C133.473 25.7324 133.38 25.5524 133.247 25.4191C133.113 25.2724 132.933 25.1991 132.707 25.1991C132.52 25.1991 132.34 25.2457 132.167 25.3391C131.993 25.4191 131.833 25.5257 131.687 25.6591V32.8991C131.847 33.0057 132.007 33.0924 132.167 33.1591C132.327 33.2124 132.5 33.2391 132.687 33.2391ZM142.41 35.1791C141.597 35.1791 140.964 35.0591 140.51 34.8191C140.07 34.5657 139.764 34.2057 139.59 33.7391C139.417 33.2724 139.33 32.7057 139.33 32.0391V25.4791H138.19V23.4991H139.33V19.9991H142.37V23.4991H144.07V25.4791H142.37V31.7591C142.37 32.1191 142.464 32.3791 142.65 32.5391C142.837 32.6857 143.09 32.7591 143.41 32.7591C143.57 32.7591 143.724 32.7524 143.87 32.7391C144.017 32.7124 144.15 32.6924 144.27 32.6791V35.0391C144.07 35.0657 143.797 35.0924 143.45 35.1191C143.117 35.1591 142.77 35.1791 142.41 35.1791Z" fill="white"/>
</svg>
