<svg width="113" height="50" viewBox="0 0 113 50" fill="none" xmlns="http://www.w3.org/2000/svg">
<g clip-path="url(#clip0_2167_1922)">
<path fill-rule="evenodd" clip-rule="evenodd" d="M1.16016 40.5624V10.1439C1.16016 9.29455 1.49756 8.47998 2.09815 7.8794C2.69873 7.27881 3.5133 6.94141 4.36266 6.94141H34.7812L1.16016 40.5624Z" fill="white"/>
<path fill-rule="evenodd" clip-rule="evenodd" d="M1.16016 41.1998V40.5614L34.7812 6.94043H35.4196C36.2689 6.94043 37.0835 7.27783 37.6841 7.87842C38.2846 8.47901 38.6221 9.29357 38.6221 10.1429V10.7729L5.00106 44.3939H4.37316C3.5238 44.3939 2.70923 44.0565 2.10865 43.4559C1.50806 42.8554 1.17066 42.0408 1.17066 41.1914" fill="#7ACD24"/>
<path fill-rule="evenodd" clip-rule="evenodd" d="M5.01367 44.4046L19.9027 29.5156L34.7917 44.4046H5.01367Z" fill="white"/>
<path fill-rule="evenodd" clip-rule="evenodd" d="M34.7913 44.4048L19.9023 29.5032L23.7453 25.6602L38.6448 40.5597V41.1981C38.6448 42.9663 37.2095 44.4006 35.4402 44.4006H34.8018L34.7913 44.4048Z" fill="#7ACD24"/>
<path fill-rule="evenodd" clip-rule="evenodd" d="M38.6444 40.5622L23.7344 25.6732L38.6234 10.7842L38.6444 40.5622Z" fill="white"/>
<path d="M7.85333 11.0819C9.75908 10.2104 12.1447 10.5653 13.6913 11.9933L12.2213 13.4497C10.6736 11.9125 7.76408 12.6412 7.03853 14.675C6.08933 16.6753 7.66643 19.295 9.89768 19.3339C11.3677 19.504 12.8146 18.5254 13.1212 17.0711C12.1027 17.0732 11.0842 17.0638 10.0762 17.0785L10.0573 15.1916L15.1844 15.2609C15.3125 16.5062 15.2243 17.8292 14.5544 18.9223C13.5044 20.8784 11.0233 21.7321 8.92433 21.2386C6.32873 20.701 4.38623 18.0382 4.74113 15.4006C4.92278 13.54 6.17963 11.8537 7.87223 11.083" fill="#7ACD24"/>
<path d="M32.0927 1.66504H33.3107C36.3557 1.83934 39.3136 3.32194 41.1542 5.76004C42.3596 7.30144 43.0316 9.22504 43.1828 11.157V11.8784C43.1125 15.6437 40.7027 18.7349 38.6153 21.6644C36.2738 24.974 34.1087 28.5807 33.5081 32.66C33.3475 33.3509 33.5396 34.319 32.7143 34.6308C32.5201 34.4796 32.2943 34.3547 32.1578 34.1426C31.9132 31.862 31.343 29.6097 30.3707 27.5276C29.2682 25.1126 27.73 22.9076 26.1686 20.7624C25.2184 19.4751 24.3206 18.1437 23.5793 16.7241C22.4243 14.5968 21.9802 12.0831 22.4558 9.69544C22.8464 7.81069 23.8208 6.06454 25.1984 4.71424C27.038 2.91559 29.5244 1.82674 32.0927 1.66609M31.8554 8.29894C30.4169 8.62024 29.2073 9.89494 29.0855 11.3859C28.9343 12.774 29.747 14.1821 30.9902 14.7953C32.3384 15.5093 34.1087 15.2888 35.2354 14.2703C36.2875 13.34 36.6697 11.7335 36.1205 10.4336C35.4695 8.80609 33.5417 7.87999 31.8544 8.31259" fill="#DDFFBB"/>
<path d="M31.8553 8.29806C33.5416 7.87806 35.4715 8.79157 36.1214 10.4191C36.6706 11.719 36.2873 13.3255 35.2363 14.2558C34.1096 15.2869 32.3383 15.5158 30.9911 14.7808C29.7469 14.1676 28.9352 12.7595 29.0864 11.3714C29.2082 9.88041 30.4168 8.60676 31.8563 8.28441" fill="#7ACD25"/>
<path d="M51.6836 42.7644V29.2571H53.4192L58.1169 37.4828H58.1757L62.8871 29.2571H64.6227V42.7644H62.8871V34.7455L62.9564 32.4817H62.8871L58.6619 39.8884H57.635L53.4087 32.4817H53.3352L53.4045 34.7455V42.7633L51.6836 42.7644ZM69.6827 43.0667C68.7009 43.0667 67.8809 42.7896 67.2204 42.2163C66.56 41.643 66.2303 40.9038 66.2303 39.9724C66.2303 38.9665 66.6209 38.1874 67.4063 37.6046C68.1917 37.0219 69.1493 36.7457 70.2938 36.7457C71.3123 36.7457 72.1491 36.9347 72.8033 37.3127V37.0502C72.8033 36.3709 72.5702 35.827 72.105 35.4175C71.6399 35.008 71.0655 34.8053 70.3883 34.8053C69.8843 34.8053 69.4286 34.924 69.0201 35.1623C68.6117 35.4007 68.3313 35.7294 68.1801 36.1441L66.5883 35.4658C66.8015 34.9125 67.2225 34.4 67.8525 33.9286C68.4825 33.4571 69.3099 33.2209 70.341 33.2209C71.5223 33.2209 72.504 33.5674 73.2831 34.2604C74.0622 34.9534 74.4591 35.9278 74.4591 37.1847V42.7685H72.8022V41.4813H72.7329C72.0399 42.5375 71.0298 43.073 69.6963 43.073L69.6827 43.0667ZM69.9662 41.475C70.6833 41.475 71.3343 41.2082 71.9192 40.6738C72.504 40.1394 72.797 39.5083 72.797 38.7785C72.3066 38.3753 71.5706 38.1748 70.592 38.1748C69.7488 38.1748 69.1136 38.3564 68.6862 38.7281C68.2589 39.0998 68.0457 39.5209 68.0457 40.0112C68.0457 40.4627 68.241 40.8229 68.6306 41.0865C69.0201 41.35 69.4664 41.4823 69.9704 41.4823L69.9662 41.475ZM81.2274 43.0667C80.5239 43.0667 79.8918 42.9156 79.3311 42.6152C78.7704 42.3149 78.3546 41.9359 78.0764 41.4813H78.0071L78.0764 42.7644V46.8383H76.3407V33.5212H78.0018V34.8043H78.0711C78.3483 34.3507 78.7662 33.9748 79.3259 33.6724C79.8855 33.37 80.5166 33.2209 81.2222 33.2209C82.4171 33.2209 83.4482 33.6934 84.3165 34.6363C85.1849 35.5792 85.6185 36.7468 85.6185 38.1464C85.6185 39.5461 85.1849 40.7116 84.3165 41.6566C83.4482 42.6016 82.416 43.0709 81.2222 43.0709L81.2274 43.0667ZM80.9502 41.475C81.7545 41.475 82.4454 41.16 83.0261 40.5593C83.6067 39.9587 83.8944 39.1418 83.8944 38.136C83.8944 37.1301 83.6046 36.3226 83.0261 35.721C82.4475 35.1193 81.7661 34.8074 80.9502 34.8074C80.5585 34.8018 80.1701 34.8796 79.8107 35.0357C79.4514 35.1917 79.1293 35.4225 78.866 35.7126C78.2937 36.3163 78.0071 37.1279 78.0071 38.1464C78.0071 39.1649 78.2937 39.9766 78.866 40.5793C79.1285 40.868 79.4495 41.0976 79.8076 41.2527C80.1657 41.4079 80.5527 41.4851 80.9429 41.4791L80.9502 41.475ZM90.5535 43.0667C89.514 43.0667 88.6688 42.8148 87.9968 42.3055C87.3248 41.7963 86.8292 41.1736 86.5163 40.4187L88.064 39.7781C88.5491 40.9331 89.3912 41.5138 90.5735 41.5138C91.1132 41.5138 91.5563 41.3941 91.9028 41.1547C92.2493 40.9153 92.4215 40.6013 92.4215 40.2097C92.4215 39.6059 92.0015 39.1975 91.1573 38.9843L89.2883 38.5328C88.6735 38.3703 88.1009 38.0774 87.6093 37.674C87.0812 37.2519 86.8176 36.6838 86.8176 35.9666C86.8176 35.1497 87.1788 34.4861 87.9023 33.9758C88.6257 33.4655 89.4836 33.2125 90.4779 33.2125C91.2948 33.2125 92.0256 33.3983 92.6672 33.769C93.3087 34.1396 93.7749 34.672 94.0532 35.3629L92.5443 35.9855C92.1978 35.1686 91.5006 34.7602 90.4317 34.7602C89.9172 34.7602 89.4815 34.8673 89.1297 35.0805C88.778 35.2936 88.6005 35.5844 88.6005 35.9478C88.6005 36.4759 89.0163 36.8339 89.8259 37.0229L91.656 37.4566C92.5233 37.6645 93.1649 38.0099 93.5807 38.4961C93.9853 38.9545 94.2069 39.5458 94.2033 40.1572C94.2033 40.9867 93.8568 41.6797 93.1848 42.232C92.5128 42.7843 91.6308 43.0615 90.563 43.0615L90.5535 43.0667ZM66.7773 14.7398H59.6121V16.865H64.6941C64.4421 19.847 61.962 21.1175 59.6226 21.1175C58.8809 21.1207 58.146 20.9761 57.4607 20.6921C56.7755 20.4082 56.1537 19.9906 55.6315 19.4638C55.1094 18.937 54.6974 18.3114 54.4196 17.6237C54.1418 16.9359 54.0038 16.1997 54.0135 15.458C54.0135 12.2408 56.5052 9.7618 59.6289 9.7618C62.0376 9.7618 63.4593 11.299 63.4593 11.299L64.9472 9.7576C64.9472 9.7576 63.0362 7.63135 59.5523 7.63135C55.116 7.63135 51.6836 11.383 51.6836 15.4202C51.6836 19.3829 54.9123 23.248 59.6657 23.248C63.8468 23.248 66.9138 20.3836 66.9138 16.1479C66.9138 15.248 66.7847 14.7388 66.7847 14.7388L66.7773 14.7398ZM72.6447 13.2005C69.7047 13.2005 67.5911 15.5 67.5911 18.1796C67.5911 20.8991 69.6344 23.2333 72.6731 23.2333C75.4241 23.2333 77.6753 21.1312 77.6753 18.2311C77.6753 14.9057 75.0545 13.1942 72.6384 13.1942L72.6447 13.2005ZM72.6741 15.1724C74.12 15.1724 75.4881 16.3411 75.4881 18.2237C75.4881 20.0675 74.1231 21.2687 72.6657 21.2687C71.0634 21.2687 69.7992 19.9856 69.7992 18.209C69.7992 16.4702 71.0487 15.1724 72.672 15.1724H72.6741ZM83.6204 13.2005C80.6804 13.2005 78.5667 15.5 78.5667 18.1796C78.5667 20.8991 80.61 23.2333 83.6487 23.2333C86.3997 23.2333 88.6509 21.1312 88.6509 18.2311C88.6509 14.9057 86.0312 13.1942 83.6141 13.1942L83.6204 13.2005ZM83.6498 15.1724C85.0956 15.1724 86.4638 16.3411 86.4638 18.2237C86.4638 20.0675 85.0988 21.2687 83.6424 21.2687C82.0401 21.2687 80.7759 19.9856 80.7759 18.209C80.7759 16.4702 82.0265 15.1724 83.6498 15.1724ZM94.385 13.2068C91.6865 13.2068 89.5655 15.5693 89.5655 18.2227C89.5655 21.2446 92.0246 23.249 94.3377 23.249C95.7689 23.249 96.5291 22.682 97.0908 22.0289V23.0191C97.0908 24.7516 96.0387 25.7879 94.4522 25.7879C92.9192 25.7879 92.1495 24.6476 91.8828 24.0008L89.954 24.8072C90.6365 26.2615 92.0172 27.763 94.469 27.763C97.1517 27.763 99.1971 26.0725 99.1971 22.5298V13.5103H97.0929V14.3503C96.4461 13.6531 95.5599 13.1984 94.3944 13.1984L94.385 13.2068ZM94.5813 15.1745C95.897 15.1745 97.262 16.3043 97.262 18.2332C97.262 20.1946 95.9075 21.275 94.5509 21.275C93.1124 21.275 91.782 20.1074 91.782 18.251C91.782 16.3243 93.1722 15.1745 94.5887 15.1745H94.5813ZM108.555 13.1942C106.01 13.1942 103.872 15.2186 103.872 18.208C103.872 21.3685 106.253 23.2448 108.798 23.2448C110.924 23.2448 112.226 22.0835 113.004 21.0419L111.269 19.8869C110.817 20.5799 110.066 21.2687 108.81 21.2687C107.399 21.2687 106.752 20.4959 106.349 19.7483L113.069 16.9553L112.719 16.1363C112.068 14.534 110.552 13.1942 108.544 13.1942H108.555ZM108.643 15.1325C109.561 15.1325 110.22 15.6197 110.501 16.2035L106.007 18.083C105.813 16.6288 107.183 15.143 108.638 15.143L108.643 15.1325ZM100.663 22.9466H102.874V8.15215H100.663V22.9466Z" fill="white"/>
</g>
<defs>
<clipPath id="clip0_2167_1922">
<rect width="113" height="49" fill="white" transform="translate(0 0.750488)"/>
</clipPath>
</defs>
</svg>
