<svg width="153" height="36" viewBox="0 0 153 36" fill="none" xmlns="http://www.w3.org/2000/svg">
<g clip-path="url(#clip0_2167_1840)">
<path d="M89.6216 14.0529H83.7168V14.6742C85.5637 14.6742 85.8607 15.0668 85.8607 17.3901V21.5785C85.8607 23.9016 85.564 24.327 83.7168 24.327C82.2988 24.1308 81.3417 23.3779 80.0225 21.9383L78.5049 20.3025C80.5498 19.9422 81.6385 18.6664 81.6385 17.2265C81.6385 15.4274 80.0887 14.0532 77.1853 14.0532H71.3799V14.6742C73.2268 14.6742 73.5238 15.0668 73.5238 17.3901V21.5785C73.5238 23.9016 73.2268 24.327 71.3799 24.327V24.9486H77.9438V24.3267C76.097 24.3267 75.8002 23.9016 75.8002 21.5785V20.4007H76.3606L80.0222 24.9486H89.6216C94.3384 24.9486 96.3836 22.4622 96.3836 19.4842C96.3836 16.5067 94.3387 14.0529 89.6216 14.0529ZM75.8005 19.386V15.0345H77.1525C78.6367 15.0345 79.2968 16.0487 79.2968 17.2268C79.2968 18.3721 78.6367 19.386 77.1525 19.386H75.8005ZM89.7206 23.9344H89.4894C88.3023 23.9344 88.1374 23.64 88.1374 22.1347V15.0345H89.7206C93.1513 15.0345 93.7776 17.5209 93.7776 19.4516C93.7776 21.4475 93.1507 23.9344 89.7206 23.9344ZM53.0072 20.5972L55.2833 13.9218C55.9434 11.9914 55.6463 11.4355 53.5352 11.4355V10.7808H59.7364V11.4355C57.6584 11.4355 57.1639 11.926 56.3392 14.3147L52.5783 25.5048H52.1497L48.7847 15.2629L45.354 25.5048H44.9251L41.2642 14.3147C40.4726 11.926 39.9446 11.4355 38.0312 11.4355V10.7808H45.3543V11.4355C43.4081 11.4355 42.8799 11.8935 43.573 13.9218L45.7829 20.5969L49.1146 10.7808H49.7415L53.0072 20.5972ZM64.2221 25.3737C60.5937 25.3737 57.625 22.7235 57.625 19.4839C57.625 16.2777 60.5939 13.6269 64.2221 13.6269C67.8508 13.6269 70.8191 16.2777 70.8191 19.4839C70.8191 22.7235 67.8508 25.3737 64.2221 25.3737ZM64.2221 14.6419C61.1875 14.6419 60.1319 17.3573 60.1319 19.4842C60.1319 21.6442 61.1875 24.327 64.2221 24.327C67.29 24.327 68.3456 21.6442 68.3456 19.4842C68.3456 17.3573 67.29 14.6419 64.2221 14.6419Z" fill="white"/>
<path d="M104.531 24.2938V24.9482H96.9774V24.2938C99.1878 24.2938 99.5836 23.7376 99.5836 20.4652V15.2306C99.5836 11.9579 99.1878 11.4348 96.9774 11.4348V10.7801H103.806C107.203 10.7801 109.084 12.5144 109.084 14.8377C109.084 17.0957 107.203 18.8622 103.806 18.8622H101.925V20.4649C101.925 23.7376 102.321 24.2938 104.531 24.2938ZM103.806 11.9579H101.925V17.6516H103.806C105.653 17.6516 106.511 16.3756 106.511 14.8377C106.511 13.2673 105.653 11.9579 103.806 11.9579ZM131.745 21.8725L131.58 22.4616C131.283 23.5412 130.92 23.934 128.578 23.934H128.116C126.401 23.934 126.104 23.5412 126.104 21.2184V19.7131C128.677 19.7131 128.875 19.9421 128.875 21.6438H129.502V16.7679H128.875C128.875 18.4693 128.677 18.6983 126.104 18.6983V15.0339H127.918C130.26 15.0339 130.623 15.4268 130.92 16.5064L131.085 17.1277H131.612L131.382 14.0523H121.684V14.6736C123.531 14.6736 123.828 15.0662 123.828 17.3895V21.5779C123.828 23.703 123.576 24.2383 122.119 24.3147C120.735 24.1049 119.785 23.356 118.484 21.9376L116.967 20.3019C119.012 19.9415 120.101 18.6658 120.101 17.2259C120.101 15.4268 118.551 14.0525 115.648 14.0525H109.842V14.6736C111.689 14.6736 111.986 15.0662 111.986 17.3895V21.5779C111.986 23.9009 111.69 24.3264 109.842 24.3264V24.9479H116.407V24.3261C114.56 24.3261 114.263 23.9009 114.263 21.5779V20.4004H114.824L118.485 24.9482H132.042L132.24 21.8728L131.745 21.8725ZM114.263 19.3859V15.0342H115.615C117.099 15.0342 117.759 16.0484 117.759 17.2265C117.759 18.3717 117.099 19.3856 115.615 19.3856L114.263 19.3859ZM138.441 25.3737C137.121 25.3737 135.967 24.6867 135.472 24.261C135.307 24.4249 135.01 24.9157 134.945 25.3737H134.318V20.8584H134.977C135.241 23.0175 136.759 24.2938 138.705 24.2938C139.76 24.2938 140.618 23.7051 140.618 22.7234C140.618 21.8728 139.859 21.2181 138.507 20.5968L136.627 19.7134C135.307 19.0912 134.318 18.0114 134.318 16.572C134.318 15.0016 135.802 13.6602 137.847 13.6602C138.936 13.6602 139.859 14.0528 140.421 14.5108C140.585 14.38 140.75 14.0197 140.849 13.6268H141.476V17.4886H140.783C140.552 15.9504 139.695 14.6744 137.946 14.6744C137.023 14.6744 136.165 15.1981 136.165 16.0164C136.165 16.867 136.858 17.3247 138.441 18.0448L140.255 18.9282C141.839 19.6806 142.465 20.8918 142.465 21.8731C142.465 23.9343 140.651 25.3737 138.441 25.3737ZM148.601 25.3737C147.281 25.3737 146.126 24.6867 145.632 24.261C145.467 24.4249 145.17 24.9157 145.105 25.3737H144.478V20.8584H145.137C145.401 23.0175 146.918 24.2938 148.864 24.2938C149.92 24.2938 150.778 23.7051 150.778 22.7234C150.778 21.8728 150.019 21.2181 148.666 20.5968L146.786 19.7134C145.467 19.0912 144.477 18.0114 144.477 16.572C144.477 15.0016 145.961 13.6602 148.007 13.6602C149.095 13.6602 150.019 14.0528 150.58 14.5108C150.744 14.38 150.909 14.0197 151.008 13.6268H151.635V17.4886H150.942C150.711 15.9504 149.854 14.6744 148.106 14.6744C147.182 14.6744 146.324 15.1981 146.324 16.0164C146.324 16.867 147.017 17.3247 148.601 18.0448L150.415 18.9282C151.998 19.6806 152.624 20.8918 152.624 21.8731C152.624 23.9343 150.81 25.3737 148.601 25.3737ZM5.04375 17.6435C5.04375 23.3752 8.40205 28.3282 13.2715 30.6756L6.30762 11.7504C5.47247 13.6046 5.04178 15.6126 5.04375 17.6435ZM29.4973 16.9132C29.4973 15.1237 28.8492 13.8843 28.2932 12.9195C27.5531 11.7269 26.8597 10.7168 26.8597 9.52415C26.8597 8.19292 27.8774 6.95381 29.3109 6.95381C29.3757 6.95381 29.4369 6.96195 29.5002 6.96543C26.903 4.6052 23.4428 3.16441 19.6421 3.16441C14.5421 3.16441 10.0553 5.75974 7.44492 9.69125C7.7877 9.70113 8.11025 9.70839 8.38447 9.70839C9.91143 9.70839 12.2751 9.52444 12.2751 9.52444C13.062 9.47853 13.1546 10.6249 12.3688 10.7173C12.3688 10.7173 11.5778 10.8098 10.6978 10.8554L16.014 26.5398L19.2085 17.0361L16.9342 10.8551C16.1481 10.8092 15.4034 10.7168 15.4034 10.7168C14.6165 10.6711 14.7091 9.47795 15.4954 9.52415C15.4954 9.52415 17.9065 9.70781 19.3409 9.70781C20.8673 9.70781 23.2315 9.52415 23.2315 9.52415C24.0188 9.47795 24.1113 10.6244 23.325 10.7168C23.325 10.7168 22.5325 10.8092 21.6542 10.8548L26.9297 26.4204L28.3857 21.5936C29.0168 19.5911 29.4973 18.1529 29.4973 16.9132ZM19.8981 18.9102L15.5183 31.5346C16.8573 31.926 18.2461 32.1246 19.6421 32.1246C21.2932 32.125 22.9324 31.8474 24.4898 31.3036C24.4495 31.2403 24.4148 31.1736 24.3861 31.1043L19.8981 18.9102ZM32.4516 10.6964C32.5143 11.1576 32.55 11.6525 32.55 12.1855C32.55 13.6547 32.2731 15.3065 31.4396 17.3718L26.9807 30.1601C31.3207 27.6496 34.2398 22.9858 34.2398 17.644C34.2438 15.2157 33.6286 12.8257 32.4516 10.6964ZM19.6421 0.764648C10.2592 0.764648 2.625 8.33648 2.625 17.6435C2.625 26.9519 10.2592 34.5234 19.6421 34.5234C29.025 34.5234 36.6601 26.9519 36.6601 17.6435C36.6601 8.33648 29.025 0.764648 19.6421 0.764648ZM19.6421 33.7496C10.6896 33.7496 3.40518 26.5244 3.40518 17.6435C3.40518 8.76337 10.6893 1.53851 19.6421 1.53851C28.5949 1.53851 35.8784 8.76337 35.8784 17.6435C35.8784 26.5244 28.5946 33.7496 19.6421 33.7496Z" fill="white"/>
</g>
<defs>
<clipPath id="clip0_2167_1840">
<rect width="153" height="35" fill="white" transform="translate(0 0.632324)"/>
</clipPath>
</defs>
</svg>
