<svg width="131" height="35" viewBox="0 0 131 35" fill="none" xmlns="http://www.w3.org/2000/svg">
<g clip-path="url(#clip0_2167_1949)">
<mask id="mask0_2167_1949" style="mask-type:luminance" maskUnits="userSpaceOnUse" x="1" y="0" width="131" height="35">
<path d="M1.125 0.501465H131.125V34.5015H1.125V0.501465Z" fill="white"/>
</mask>
<g mask="url(#mask0_2167_1949)">
<path d="M3.34543 13.8761H16.1384V17.5305L11.328 17.906C3.55914 18.4961 1.125 20.5894 1.125 26.4459V27.6287C1.125 31.9241 4.08602 34.5016 8.63306 34.5016C12.2271 34.5016 14.2782 33.6406 16.828 30.9971H17.2392V33.7919H22.3669V8.1709H3.34543V13.8747V13.8761ZM16.1384 26.23C14.5699 27.8419 12.1747 28.9161 10.2177 28.9161C8.10349 28.9161 7.20699 28.1101 7.25672 26.3386C7.31048 23.8656 8.19758 23.277 12.2742 22.9001L16.1317 22.5246L16.1384 26.23Z" fill="#EDFFDB"/>
<path d="M123.515 18.4961L119.707 18.1137C117.593 17.9006 117.063 17.3614 117.063 15.6449C117.063 13.7111 117.804 13.2269 120.763 13.2269C123.407 13.2269 124.148 13.6574 124.527 15.4826H130.449C130.289 9.35792 128.438 7.80371 121.09 7.80371C113.055 7.80371 111.054 9.35929 111.054 15.6463C111.054 21.3817 112.533 22.9497 118.509 23.5397L121.629 23.8588C124.43 24.1298 125.117 24.6648 125.117 26.3854C125.117 28.4788 124.27 29.018 120.836 29.018C117.822 29.018 117.028 28.5338 116.872 26.545H110.879C111.036 32.8828 112.939 34.4948 120.554 34.4948C129.021 34.4948 131.126 32.7769 131.126 25.7926C131.126 20.5922 129.593 19.0889 123.515 18.4989V18.4961Z" fill="white"/>
<path d="M91.7927 18.98C91.7927 10.6946 88.989 7.80762 80.954 7.80762C72.9191 7.80762 69.9043 11.5652 69.9043 20.9111C69.9043 31.1083 72.6543 34.5015 81.5374 34.5015C87.9325 34.5015 90.6328 32.5168 91.5266 26.9271H85.4486C84.7618 28.6477 84.0212 29.0246 81.4312 29.0246C77.5199 29.0246 76.5132 27.8968 76.3035 23.1172H91.3573C91.618 21.7528 91.7618 20.3706 91.7927 18.9814V18.98ZM76.3559 18.0654C76.4097 14.4673 77.8357 13.1236 81.2175 13.1236C84.5992 13.1236 85.7645 14.4687 85.872 18.0654H76.3559Z" fill="white"/>
<path d="M43.2087 8.18447H33.3229V0.501465H27.0312V33.8041H33.3229V13.9295H42.3081V33.8041H48.5998V13.3945H43.2087V8.18447Z" fill="white"/>
<path d="M95.3334 9.30955V33.8041H101.625V13.6517H109.183V8.1831H101.625V7.48164C101.679 5.97695 102.048 5.55057 103.265 5.55057H110.136V0.501465H102.734C97.7124 0.501465 95.332 2.0598 95.332 9.30955H95.3334Z" fill="white"/>
<path d="M53.25 33.8041H59.5417V14.1964H68.9005V8.18311H53.25V33.8028V33.8041Z" fill="white"/>
</g>
</g>
<defs>
<clipPath id="clip0_2167_1949">
<rect width="131" height="34" fill="white" transform="translate(0 0.250488)"/>
</clipPath>
</defs>
</svg>
