<svg width="147" height="43" viewBox="0 0 147 43" fill="none" xmlns="http://www.w3.org/2000/svg">
<path d="M0.378386 23.431C0.378708 18.4861 0.374038 13.6205 0.380962 8.75488C0.388046 3.88341 4.28211 0.0608168 9.23402 0.0597061C17.6057 0.0578019 25.9771 0.0608184 34.3488 0.0612944C39.6465 0.0616118 43.4707 3.72473 43.5084 8.96005C43.5651 16.8128 43.5422 24.6662 43.561 32.5192C43.567 35.0578 43.0175 37.4008 41.1821 39.3067C39.5008 41.0527 37.482 42.06 34.9941 42.0589C26.3006 42.0548 17.6069 42.0627 8.91344 42.0568C4.29177 42.0536 0.398995 38.2238 0.381606 33.6646C0.368725 30.2799 0.378708 26.8951 0.378386 23.431ZM6.32197 15.3586C5.09296 18.3041 5.47762 21.0448 7.43504 23.5624C7.74321 23.9588 7.7028 24.3125 7.60764 24.7434C6.38718 30.2671 10.8866 35.222 16.6013 34.6105C17.2437 34.5418 17.6374 34.7046 18.0888 35.1021C22.3626 38.8659 29.0774 37.3996 31.3213 32.2119C31.5385 31.7096 31.8732 31.5034 32.3632 31.3472C37.9873 29.5549 40.0078 23.3464 36.4852 18.673C36.1978 18.2915 36.1266 17.9599 36.2617 17.5088C36.5789 16.4504 36.5794 15.3479 36.3865 14.2844C35.5831 9.85342 31.451 7.03701 27.1915 7.58461C26.6853 7.64967 26.2824 7.55478 25.8778 7.1903C21.5675 3.30709 14.8904 4.70918 12.5238 9.98925C12.3338 10.4132 12.0881 10.656 11.6265 10.789C9.19683 11.4897 7.45291 12.9943 6.32197 15.3586ZM111.368 21.8928C109.548 21.8834 109.721 22.0364 109.719 20.2869C109.718 19.101 109.722 19.0989 110.899 19.0979C112.615 19.0963 114.332 19.1159 116.048 19.0886C116.679 19.0786 116.9 19.3161 116.891 19.9269C116.865 21.5652 116.873 23.2042 116.886 24.8428C116.89 25.2825 116.734 25.6006 116.366 25.8437C113.257 27.9007 109.929 28.5257 106.356 27.2418C104.614 26.616 103.379 25.3909 102.613 23.7246C101.473 21.2444 101.362 18.7046 102.361 16.1757C103.681 12.8348 106.63 11.4328 110.12 11.5621C111.163 11.6008 112.201 11.7254 113.19 12.1135C114.841 12.7614 115.916 13.9269 116.503 15.5664C116.694 16.1019 116.527 16.3645 115.971 16.4385C115.653 16.4807 115.332 16.5273 115.023 16.6111C114.051 16.8753 113.378 16.8955 112.702 15.7952C111.443 13.7488 107.639 13.9984 106.141 16.0675C104.897 17.7864 104.923 21.6248 106.192 23.3231C107.252 24.7433 109.072 25.3566 110.93 24.885C111.419 24.7607 111.898 24.5711 112.357 24.3586C113.432 23.8607 113.602 23.4942 113.421 22.3593C113.369 22.0319 113.214 21.8962 112.895 21.8969C112.413 21.8978 111.93 21.8944 111.368 21.8928ZM132.135 17.3266C131.55 20.306 129.977 21.5878 126.786 21.7106C125.822 21.7477 124.855 21.7507 123.89 21.7236C123.325 21.7077 123.137 21.9232 123.145 22.4662C123.168 23.8929 123.128 25.3209 123.159 26.7476C123.173 27.3942 122.945 27.6216 122.276 27.6274C119.699 27.6503 119.7 27.6698 119.699 25.1711C119.698 21.0478 119.712 16.9245 119.681 12.8014C119.676 12.0465 119.905 11.7719 120.686 11.8012C123.042 11.8894 125.399 11.786 127.76 11.902C130.232 12.0234 132.243 13.8521 132.168 16.9408C132.165 17.0465 132.155 17.1519 132.135 17.3266ZM125.693 18.9166C126.038 18.8729 126.382 18.8298 126.727 18.7857C127.901 18.6357 128.606 17.8463 128.588 16.7036C128.57 15.6081 127.861 14.869 126.693 14.7417C126.215 14.6895 125.735 14.6354 125.255 14.62C123.153 14.5519 123.153 14.557 123.152 16.5992C123.152 18.9661 123.152 18.9661 125.693 18.9166H125.693ZM62.8932 27.1043C58.4734 29.1908 52.3094 27.3245 51.9328 20.5276C51.8058 18.2373 52.1803 16.0481 53.6437 14.1532C56.2402 10.7914 62.4179 10.6327 64.9244 13.8706C65.3517 14.4224 65.6283 15.0507 65.8769 15.6962C66.0229 16.0759 65.9529 16.3023 65.5352 16.3994C64.7527 16.5813 63.9725 16.772 63.1908 16.9567C62.8922 17.0272 62.7016 16.934 62.5424 16.6493C61.5074 14.8007 60.4342 14.1954 58.7286 14.465C57.0422 14.7315 55.9067 15.8931 55.6082 17.839C55.3791 19.3312 55.3519 20.848 55.7731 22.3233C56.3138 24.2171 57.8073 25.2016 59.787 24.9661C61.2802 24.7883 62.0999 23.801 62.5114 22.4843C62.7266 21.796 63.0334 21.6792 63.6675 21.9261C64.2391 22.1486 64.8426 22.2929 65.4351 22.4613C65.9175 22.5984 66.0642 22.8545 65.8904 23.3479C65.3354 24.924 64.4505 26.2344 62.8932 27.1043ZM68.6362 25.4922C68.6365 21.2092 68.6523 17.0051 68.6233 12.8012C68.6181 12.0467 68.851 11.7911 69.6296 11.7984C71.8195 11.819 71.8081 11.7893 71.8261 13.9632C71.8351 15.0413 71.7364 16.1248 71.928 17.3093C72.9506 16.4216 74.0249 15.8744 75.3652 15.897C77.8135 15.9386 79.2739 17.2112 79.3479 19.6208C79.4226 22.051 79.3595 24.4853 79.3753 26.9177C79.3787 27.4259 79.1839 27.629 78.6662 27.6181C75.5223 27.5516 76.1538 28.0706 76.0937 25.2501C76.0588 23.6114 76.0873 21.9716 76.068 20.3325C76.0533 19.0919 75.6625 18.5527 74.7227 18.4032C73.5489 18.2165 72.5581 18.7081 72.1675 19.722C71.8588 20.5234 71.8454 21.3815 71.8287 22.2235C71.7981 23.7563 71.8029 25.2907 71.8263 26.8237C71.8348 27.395 71.6353 27.6736 71.0364 27.6148C70.9301 27.6043 70.8219 27.6144 70.7147 27.6149C68.6379 27.626 68.6379 27.626 68.6362 25.4924V25.4922ZM87.17 18.3834C86.1602 18.3137 85.3219 18.452 84.8896 19.4291C84.8098 19.6097 84.6665 19.752 84.4544 19.7168C83.689 19.5895 82.9197 19.4724 82.1656 19.2945C81.777 19.2028 81.9367 18.8769 82.0259 18.637C82.6089 17.0678 83.7851 16.1882 85.4306 15.9832C86.6249 15.8344 87.8402 15.8071 89.0342 16.054C91.0235 16.4653 91.8777 17.4605 91.9186 19.4702C91.9508 21.0556 91.9617 22.6432 91.9144 24.2279C91.8806 25.352 92.1381 26.4153 92.5272 27.5898C91.5059 27.5898 90.6034 27.6136 89.7031 27.5808C89.1814 27.5617 89.3244 26.9267 88.8875 26.6482C88.0342 27.2358 87.0767 27.7241 85.9639 27.8621C83.5197 28.1652 81.5068 26.6102 81.5337 24.4036C81.5514 22.9412 82.3925 21.8301 83.8672 21.3188C85.1118 20.8872 86.4363 20.7839 87.6949 20.4172C88.1103 20.2963 88.7748 20.3997 88.7428 19.6889C88.7106 18.9726 88.3171 18.5103 87.5607 18.411C87.4544 18.397 87.3468 18.3944 87.17 18.3836M88.5251 22.3915C87.6669 22.4529 86.8388 22.6701 86.0223 22.9135C84.994 23.2203 84.6425 23.7631 84.8695 24.5808C85.0595 25.2644 85.9103 25.7147 86.7519 25.577C88.3097 25.3223 89.0803 24.0425 88.5251 22.3915ZM138.221 23.907C138.22 21.0779 138.195 18.3279 138.236 15.5789C138.248 14.7977 137.972 14.5618 137.213 14.601C136.223 14.6519 135.228 14.5962 134.236 14.6144C133.727 14.624 133.512 14.4354 133.518 13.9204C133.549 11.3558 133.24 11.8377 135.542 11.8155C138.815 11.7839 142.088 11.8272 145.361 11.792C146.132 11.7838 146.386 12.0194 146.375 12.7841C146.347 14.6105 146.381 14.611 144.507 14.6116C143.836 14.6119 143.164 14.6438 142.496 14.6016C141.862 14.5618 141.657 14.795 141.661 15.4186C141.685 19.0937 141.675 22.7687 141.674 26.4437C141.674 27.6113 141.672 27.6113 140.472 27.6155C138.222 27.6235 138.222 27.6235 138.221 25.4142L138.221 23.907ZM94.944 14.1876C95.7772 13.1712 96.9711 12.8366 97.9662 12.1735L98.2061 12.3003C98.2061 13.2111 98.2048 14.1219 98.2064 15.0329C98.2083 16.091 98.2117 16.1368 99.2474 16.0911C100.053 16.0554 100.41 16.3245 100.297 17.1295C100.279 17.2593 100.294 17.3934 100.294 17.5256C100.29 18.6831 100.289 18.7258 99.0871 18.6933C98.3594 18.6735 98.1686 18.9383 98.1884 19.6157C98.2322 21.1206 98.1956 22.6278 98.2085 24.1338C98.2161 25.036 98.498 25.3069 99.3898 25.1232C100.039 24.9894 100.268 25.1044 100.361 25.7906C100.594 27.4864 100.567 27.5648 98.8693 27.8253C98.2484 27.9205 97.6396 27.8928 97.0339 27.7534C95.8339 27.4776 95.2316 26.8553 95.0559 25.6508C94.7685 23.679 94.9564 21.693 94.921 19.7138C94.9097 19.0854 94.8844 18.5925 94.0446 18.6897C93.7789 18.7203 93.5599 18.5829 93.5292 18.2993C93.4632 17.6941 93.4591 17.086 93.5535 16.4827C93.5918 16.2384 93.7841 16.1035 94.0156 16.1281C94.8963 16.2217 94.9701 15.7022 94.914 15.0453C94.8917 14.7838 94.9245 14.5176 94.944 14.1876Z" fill="white"/>
<path d="M30.7332 20.3857C28.2962 19.0076 25.9104 17.659 23.3084 16.1883C24.394 15.5948 25.2671 15.1039 26.1553 14.6412C26.3928 14.5174 26.6183 14.6948 26.8277 14.8126C28.9944 16.0312 31.1988 17.1896 33.3196 18.4812C37.3546 20.9387 37.1042 26.823 32.9105 29.0223C32.6796 29.1434 32.4537 29.3054 32.155 29.2445C31.8723 28.9952 31.9642 28.658 31.963 28.3546C31.9544 26.3711 31.9063 24.386 31.9802 22.4051C32.0171 21.4193 31.702 20.7764 30.7332 20.3857ZM10.11 29.4085C9.50845 28.1689 9.20849 26.945 9.49815 25.6494C9.87524 25.5268 10.0794 25.7418 10.3016 25.8655C12.1685 26.9065 14.048 27.9274 15.8855 29.0169C16.5992 29.4401 17.1839 29.4397 17.8935 29.0285C20.1122 27.7429 22.3588 26.5034 24.5985 25.253C24.8673 25.1029 25.1095 24.8533 25.5779 24.959C25.5779 25.9089 25.5913 26.8765 25.57 27.8433C25.5636 28.1397 25.2826 28.2645 25.0475 28.3971C23.0001 29.552 20.966 30.7308 18.904 31.8597C15.6997 33.6137 12.1181 32.6194 10.11 29.4087V29.4085Z" fill="white"/>
<path d="M10.2046 23.4875C8.07958 21.8736 7.19901 19.3077 7.90617 16.8942C8.49322 14.8907 10.2605 13.0862 11.773 12.9529C11.9809 13.2047 11.8959 13.5075 11.897 13.7877C11.9055 15.8766 11.9295 17.9661 11.889 20.0541C11.874 20.8142 12.1503 21.2744 12.8196 21.6387C15.0498 22.8526 17.2574 24.1073 19.4673 25.3571C19.761 25.523 20.1105 25.6303 20.3604 26.0603C19.5133 26.6394 18.6173 27.1325 17.6828 27.5595C17.4711 27.6563 17.2627 27.5116 17.079 27.4072C14.7852 26.1046 12.4937 24.7981 10.2046 23.4875ZM21.9267 15.4291C20.7162 16.1053 19.5056 16.7812 18.2948 17.4569C18.2948 16.2707 18.283 15.2853 18.3038 14.3006C18.3086 14.0772 18.5376 13.9599 18.7265 13.8544C20.9661 12.6024 23.163 11.2676 25.4553 10.1178C29.6542 8.01162 34.6716 11.2893 34.447 15.9253C34.437 16.1336 34.4504 16.348 34.3037 16.5318C33.9345 16.6521 33.6914 16.3858 33.4278 16.2392C31.6053 15.2258 29.7818 14.2138 27.9811 13.1641C27.2807 12.7558 26.6667 12.7301 25.9577 13.1546C24.6519 13.9366 23.3066 14.6549 21.9267 15.4291ZM27.6983 33.8136C25.0637 35.7077 21.2672 35.6676 19.7798 33.7307C20.1529 33.3064 20.6863 33.0994 21.1613 32.8263C22.806 31.8805 24.4593 30.9485 26.1261 30.0411C26.7113 29.7225 26.962 29.298 26.9569 28.6384C26.9371 26.0472 26.9472 23.4559 26.9556 20.8647C26.9566 20.5871 26.865 20.2842 27.1462 19.9591C28.0708 20.3212 28.8979 20.8975 29.7578 21.4074C29.9924 21.5464 29.9527 21.8256 29.9525 22.0622C29.9512 24.5476 29.9947 27.0341 29.9292 29.518C29.8834 31.2434 29.0629 32.6519 27.6983 33.8136Z" fill="white"/>
<path d="M14.8427 9.89079C17.2257 6.12136 22.3072 6.42253 24.0526 8.43729C23.6731 8.90079 23.1058 9.09326 22.6075 9.37936C21.0106 10.2962 19.4232 11.2312 17.7997 12.1004C17.1457 12.4506 16.8865 12.9008 16.8927 13.6158C16.9146 16.1509 16.9035 18.6861 16.8963 21.2213C16.8953 21.5303 16.9736 21.8548 16.724 22.2643C15.8095 21.8113 14.911 21.3229 14.0667 20.7396C13.8456 20.5869 13.906 20.3053 13.906 20.0718C13.905 17.6424 13.8952 15.2127 13.9169 12.7834C13.9259 11.7573 14.2951 10.8218 14.8427 9.89063V9.89079Z" fill="white"/>
<path d="M22.0941 25.1127C20.7231 24.726 19.6339 23.9012 18.4593 23.2354C18.2237 23.1018 18.2556 22.8214 18.255 22.5845C18.2527 21.6078 18.2704 20.6308 18.2466 19.6548C18.2353 19.1987 18.4181 18.9232 18.8169 18.7105C19.6875 18.2445 20.5482 17.7609 21.3987 17.2601C21.7618 17.0469 22.0803 17.0383 22.4456 17.2506C23.3218 17.76 24.2045 18.2593 25.0994 18.736C25.4853 18.9417 25.6038 19.2301 25.5974 19.6386C25.5821 20.6149 25.5733 21.5922 25.603 22.568C25.6172 23.0354 25.4076 23.292 25.0182 23.5013C24.0551 24.0192 23.1046 24.5607 22.0941 25.1127Z" fill="white"/>
</svg>
