<svg width="76" height="39" viewBox="0 0 76 39" fill="none" xmlns="http://www.w3.org/2000/svg">
<path d="M15.2167 12.7738H10.9399L8.6048 25.3377H12.4018C14.9203 25.3377 16.7969 24.8409 18.0317 23.8472C19.2622 22.8535 20.0928 21.1944 20.5236 18.8698C20.9373 16.6391 20.7496 15.0648 19.9606 14.147C19.1715 13.2293 17.5903 12.7715 15.2167 12.7738ZM23.0538 26.6842C21.8735 27.8699 20.45 28.7609 18.9018 29.2968C17.377 29.8149 15.4364 30.075 13.0799 30.0772H7.72193L6.24088 38.0557H0L5.57233 8.03757H17.5807C21.1932 8.03757 23.8279 9.03126 25.4849 11.0186C27.144 13.0015 27.643 15.7727 26.982 19.3321C26.7296 20.7406 26.263 22.0977 25.6001 23.3515C24.9278 24.5975 24.0661 25.7226 23.0538 26.6842ZM41.2934 30.0772L43.7565 16.7965C44.038 15.2848 43.9346 14.2554 43.4462 13.7083C42.9621 13.1567 41.9247 12.8809 40.3338 12.8809H35.3852L32.196 30.0839H25.9935L31.5659 0.059082H37.7619L36.2809 8.04092H41.7988C45.2749 8.04092 47.6708 8.67509 48.9866 9.94343C50.3023 11.2118 50.7001 13.2661 50.1797 16.1065L47.5887 30.0772H41.2934ZM75.7222 19.3321C75.4727 20.7389 75.0057 22.0954 74.3403 23.3515C73.6681 24.5975 72.8095 25.7226 71.7973 26.6842C70.6137 27.8666 69.1935 28.7609 67.642 29.2968C66.1173 29.8149 64.1745 30.075 61.8138 30.0772H56.4686L54.9843 38.0591H48.7371L54.3126 8.04092H66.3145C69.927 8.04092 72.5618 9.03461 74.2188 11.022C75.8779 13.0004 76.378 15.7693 75.719 19.3287M63.9602 12.7738H59.6866L57.3483 25.3377H61.1452C63.668 25.3377 65.5447 24.8409 66.7752 23.8472C68.0056 22.8535 68.8373 21.1944 69.2702 18.8698C69.6839 16.6391 69.4952 15.0648 68.704 14.147C67.9129 13.2293 66.3316 12.7715 63.9602 12.7738Z" fill="white"/>
</svg>
