<svg width="137" height="28" viewBox="0 0 137 28" fill="none" xmlns="http://www.w3.org/2000/svg">
<path d="M95.2473 0.193359V21.7303C95.2473 25.8655 97.5444 27.6133 101.194 27.6133C101.948 27.6416 102.702 27.5654 103.435 27.387V22.5399C103.159 22.5707 102.882 22.5835 102.604 22.5781C101.642 22.5781 100.856 22.1531 100.856 20.961V0.193359H95.2473ZM106.942 0.193359V21.7303C106.942 25.8655 109.241 27.6133 112.892 27.6133C113.651 27.6428 114.409 27.5667 115.147 27.387V22.5399C114.872 22.5705 114.596 22.5833 114.32 22.5781C113.342 22.5781 112.549 22.1531 112.549 20.961V0.193359H106.942ZM38.8242 2.19086V7.46193H45.0685V27.4614H51.094V7.46193H57.3394V2.19192L38.8242 2.19086ZM82.6938 7.37586C76.696 7.37586 72.8551 11.7236 72.8551 17.8001C72.8551 24.1081 76.1669 27.8545 83.6554 27.8545C85.8768 27.8728 88.0824 27.4786 90.16 26.6921V21.9799C88.2369 22.5962 86.0726 23.2082 83.852 23.2082C80.8706 23.2082 78.7945 22.2286 78.2876 19.3959C79.8475 19.5664 81.4148 19.6583 82.9839 19.6711C87.2498 19.6711 90.8496 18.5279 90.8496 14.3969C90.8496 10.3881 87.1478 7.37586 82.6938 7.37586ZM127.356 7.38436C121.332 7.38436 117.834 11.5419 117.834 17.6184C117.834 23.6555 121.372 27.9246 127.356 27.9246C133.34 27.9246 136.802 23.7076 136.802 17.6184C136.802 11.5292 133.38 7.38436 127.356 7.38436ZM70.2201 7.50443C67.5489 7.52887 65.9988 9.07162 65.0074 11.5589V7.79024H59.4389V27.4614H65.0064V17.153C65.0064 14.0016 66.8339 13.0401 70.7683 13.3461V7.5193C70.5858 7.50761 70.4029 7.50265 70.2201 7.50443ZM82.5791 11.6673C84.1569 11.6673 85.4245 12.7404 85.4245 14.2046C85.4245 16.0884 83.4365 16.6781 81.1458 16.6781C80.1709 16.6728 79.1977 16.5947 78.2345 16.4443C78.3066 15.526 78.5705 14.6331 79.0091 13.8231C79.36 13.1806 79.8756 12.6431 80.5031 12.2659C81.1305 11.8887 81.847 11.6854 82.5791 11.6769V11.6673ZM127.356 12.3707C130.145 12.3707 131.346 14.6593 131.346 17.6184C131.346 20.5774 130.176 22.9245 127.356 22.9245C124.536 22.9245 123.295 20.5774 123.295 17.6184C123.295 14.654 124.567 12.3707 127.356 12.3707Z" fill="white"/>
<path d="M3.46555 0.193373H25.4221C25.7724 0.19225 26.1194 0.260411 26.4432 0.393929C26.767 0.527448 27.0612 0.723688 27.3089 0.971357C27.5566 1.21903 27.7528 1.51323 27.8863 1.83704C28.0198 2.16085 28.088 2.50787 28.0869 2.85813V24.8147C28.088 25.165 28.0198 25.512 27.8863 25.8358C27.7528 26.1596 27.5566 26.4538 27.3089 26.7015C27.0612 26.9491 26.767 27.1454 26.4432 27.2789C26.1194 27.4124 25.7724 27.4806 25.4221 27.4795H3.46555C3.11529 27.4806 2.76827 27.4124 2.44446 27.2789C2.12065 27.1454 1.82645 26.9491 1.57878 26.7015C1.33111 26.4538 1.13487 26.1596 1.00135 25.8358C0.867832 25.512 0.799672 25.165 0.800795 24.8147V2.85813C0.799672 2.50787 0.867832 2.16085 1.00135 1.83704C1.13487 1.51323 1.33111 1.21903 1.57878 0.971357C1.82645 0.723688 2.12065 0.527448 2.44446 0.393929C2.76827 0.260411 3.11529 0.19225 3.46555 0.193373Z" fill="white"/>
<path d="M17.4972 3.73975H23.2612C23.9699 3.73975 24.5405 4.31137 24.5405 5.019V14.3988C24.5411 14.5669 24.5084 14.7335 24.4443 14.889C24.3802 15.0444 24.286 15.1857 24.1671 15.3046C24.0482 15.4235 23.9069 15.5177 23.7515 15.5818C23.596 15.6459 23.4294 15.6786 23.2612 15.678H17.4972C17.329 15.6786 17.1624 15.6459 17.007 15.5818C16.8515 15.5177 16.7103 15.4235 16.5914 15.3046C16.4725 15.1857 16.3782 15.0444 16.3142 14.889C16.2501 14.7335 16.2174 14.5669 16.2179 14.3988V5.019C16.2175 4.85094 16.2503 4.68445 16.3145 4.52912C16.3786 4.37378 16.4728 4.23266 16.5917 4.11387C16.7106 3.99508 16.8518 3.90097 17.0072 3.83694C17.1626 3.77292 17.3291 3.74025 17.4972 3.74081V3.73975ZM5.62691 3.73975H11.391C12.0997 3.73975 12.6702 4.31137 12.6702 5.019V21.22C12.6708 21.3882 12.6381 21.5548 12.574 21.7102C12.5099 21.8657 12.4157 22.0069 12.2968 22.1258C12.1779 22.2447 12.0367 22.3389 11.8812 22.403C11.7257 22.4671 11.5591 22.4998 11.391 22.4993H5.62691C5.45876 22.4998 5.29216 22.4671 5.1367 22.403C4.98124 22.3389 4.84 22.2447 4.7211 22.1258C4.60219 22.0069 4.50799 21.8657 4.4439 21.7102C4.37981 21.5548 4.3471 21.3882 4.34766 21.22V5.019C4.34766 4.31031 4.91823 3.73975 5.62691 3.73975Z" fill="#7ECF1E"/>
</svg>
