<svg width="151" height="31" viewBox="0 0 151 31" fill="none" xmlns="http://www.w3.org/2000/svg">
<g clip-path="url(#clip0_2167_1843)">
<path d="M17.2952 15.945C17.2952 18.1557 16.6379 20.0178 15.3186 21.5253C13.9418 23.1047 12.1528 23.8976 9.96285 23.8976C7.76713 23.8976 5.98391 23.1047 4.6071 21.5253C3.28724 20.0178 2.625 18.1557 2.625 15.945C2.625 13.7281 3.28724 11.8666 4.6071 10.3646C5.99923 8.79992 7.78823 8.018 9.96285 8.018C12.1528 8.018 13.9418 8.79992 15.3186 10.3646C16.6379 11.8666 17.2952 13.7281 17.2952 15.945ZM12.935 15.945C12.935 14.9436 12.6954 14.0984 12.2155 13.4151C11.6787 12.6384 10.9275 12.2525 9.96285 12.2525C8.99796 12.2525 8.24697 12.6384 7.70961 13.4151C7.22485 14.0984 6.98493 14.9436 6.98493 15.945C6.98493 16.9408 7.22485 17.7961 7.70961 18.5C8.24697 19.2767 8.99796 19.6632 9.96285 19.6632C10.9277 19.6632 11.6787 19.2767 12.2155 18.5C12.6954 17.7961 12.935 16.9408 12.935 15.945ZM33.0604 15.945C33.0604 18.01 32.4658 19.8144 31.2714 21.3579C29.9937 23.0475 28.3458 23.8976 26.3431 23.8976C24.9296 23.8976 23.7306 23.4857 22.7501 22.6723C22.7501 22.8596 22.7709 23.3134 22.8128 24.039C22.8545 24.7683 22.875 25.3629 22.875 25.8323C22.875 28.4249 22.1032 29.7179 20.5599 29.7179C19.9286 29.7179 19.4126 29.4936 19.0004 29.0502C18.5937 28.6021 18.3902 28.0639 18.3902 27.4285V10.5681C18.3902 9.9526 18.5988 9.42072 19.016 8.97249C19.4331 8.52906 19.9497 8.30533 20.5651 8.30533C21.493 8.30533 22.1711 8.76841 22.5989 9.69225C23.5116 8.57608 24.7579 8.018 26.3379 8.018C28.3458 8.018 29.9885 8.85195 31.2714 10.5265C32.4606 12.0756 33.0604 13.8799 33.0604 15.945ZM28.7002 15.945C28.7002 14.9436 28.4556 14.0984 27.9758 13.4151C27.4381 12.6384 26.6874 12.2525 25.7225 12.2525C24.7576 12.2525 24.0069 12.6384 23.4696 13.4151C22.9897 14.0984 22.7501 14.9436 22.7501 15.945C22.7501 16.9408 22.9897 17.7961 23.4696 18.5C24.0069 19.2767 24.7579 19.6632 25.7225 19.6632C26.6874 19.6632 27.4381 19.2767 27.9758 18.5C28.4556 17.7961 28.7002 16.9408 28.7002 15.945ZM48.9244 15.4761C48.9244 16.2054 48.7521 16.7061 48.4079 16.9882C48.0639 17.2642 47.5268 17.405 46.8018 17.405H38.9321C38.9321 18.2394 39.3233 18.8807 40.1057 19.3287C40.7367 19.6788 41.5085 19.8566 42.4211 19.8566C43.1307 19.8566 43.9806 19.621 44.9767 19.1576C45.9728 18.6879 46.6139 18.4581 46.8909 18.4581C47.3964 18.4581 47.824 18.6408 48.1786 19.0162C48.5278 19.3868 48.7056 19.8352 48.7056 20.3517C48.7056 21.545 47.8136 22.475 46.0297 23.1417C44.6688 23.6421 43.2868 23.8976 41.8739 23.8976C39.6001 23.8976 37.7643 23.1417 36.3615 21.6349C34.9584 20.1274 34.2548 18.2343 34.2548 15.945C34.2548 13.7646 34.9847 11.903 36.4447 10.3496C37.8996 8.79471 39.7097 8.018 41.8684 8.018C43.8762 8.018 45.5554 8.75338 46.9013 10.2238C48.2463 11.6949 48.9244 13.4469 48.9244 15.4761ZM44.5648 14.3803C44.5437 13.7125 44.2361 13.1078 43.6415 12.5597C43.0469 12.0126 42.4162 11.7417 41.7484 11.7417C41.0602 11.7417 40.4185 12.0126 39.8242 12.5597C39.2298 13.1078 38.9321 13.7125 38.9321 14.3803H44.5648ZM63.5735 21.3209C63.5735 21.9577 63.37 22.4945 62.9636 22.9432C62.5514 23.3869 62.0351 23.6112 61.4041 23.6112C59.8813 23.6112 59.1196 22.4012 59.1196 19.9866C59.1196 19.5224 59.1512 18.7925 59.2136 17.786C59.2815 16.7844 59.313 16.0493 59.313 15.5851C59.313 13.024 58.4837 11.7417 56.8306 11.7417C55.1771 11.7417 54.3533 13.024 54.3533 15.5851C54.3533 16.0493 54.3793 16.7844 54.4261 17.786C54.4785 18.7925 54.5045 19.5224 54.5045 19.9866C54.5045 22.4012 53.7535 23.6112 52.2518 23.6112C51.6205 23.6112 51.1045 23.3869 50.6975 22.9432C50.2856 22.4945 50.0821 21.9577 50.0821 21.3209V10.5635C50.0821 9.93131 50.2856 9.39509 50.6975 8.96208C51.1045 8.52386 51.626 8.30533 52.257 8.30533C53.3 8.30533 54.0246 8.76841 54.4313 9.69225C55.1355 8.57618 56.3816 8.018 58.1655 8.018C59.8186 8.018 61.133 8.45564 62.0976 9.32659C63.0833 10.2608 63.5735 11.5431 63.5735 13.1757V21.3209ZM77.252 20.8576C77.252 21.843 76.612 22.6249 75.3282 23.1993C74.3118 23.6628 73.2071 23.9011 72.0899 23.8976C69.8939 23.8976 68.1106 23.1047 66.7338 21.5253C65.4146 20.0178 64.7523 18.1557 64.7523 15.945C64.7523 13.7281 65.425 11.8565 66.7755 10.323C68.1263 8.78488 69.8939 8.018 72.0899 8.018C73.3571 8.018 74.4472 8.2056 75.3548 8.57618C76.6212 9.07684 77.252 9.85875 77.252 10.9228C77.252 11.4596 77.086 11.9342 76.7516 12.3464C76.4183 12.7531 75.9902 12.9618 75.469 12.9618C75.1138 12.9618 74.603 12.8419 73.9355 12.6077C73.2684 12.3672 72.7368 12.2525 72.3457 12.2525C71.3076 12.2525 70.4992 12.6227 69.9205 13.3631C69.3828 14.0308 69.112 14.8861 69.112 15.945C69.112 16.9408 69.3519 17.786 69.8372 18.4691C70.3737 19.2672 71.1302 19.6632 72.0948 19.6632C72.5229 19.6632 73.1065 19.538 73.852 19.2819C74.5984 19.0324 75.1357 18.9021 75.469 18.9021C75.9546 18.9021 76.3709 19.1102 76.7262 19.5172C77.0756 19.9291 77.252 20.372 77.252 20.8576ZM93.101 21.3209C93.101 21.9577 92.898 22.4945 92.4907 22.9432C92.0791 23.3869 91.5579 23.6112 90.9258 23.6112C89.9768 23.6112 89.2995 23.1467 88.8925 22.2237C87.98 23.3399 86.7337 23.8978 85.1535 23.8976C83.1306 23.8976 81.472 23.0475 80.1882 21.3579C79.0201 19.8144 78.4319 18.01 78.4319 15.945C78.4319 13.8799 79.0201 12.0756 80.1882 10.5265C81.4928 8.85195 83.1456 8.018 85.1535 8.018C86.7337 8.018 87.98 8.57608 88.8925 9.69225C89.2991 8.76802 89.9769 8.30572 90.9258 8.30533C91.5417 8.30533 92.0583 8.52906 92.476 8.97249C92.8923 9.42053 93.101 9.94749 93.101 10.5635V21.3209ZM88.7413 15.945C88.7413 14.9436 88.5017 14.0984 88.0218 13.4151C87.4637 12.6384 86.7127 12.2525 85.7692 12.2525C84.804 12.2525 84.0533 12.6384 83.5156 13.4151C83.0315 14.0984 82.7915 14.9436 82.7915 15.945C82.7915 16.9408 83.0254 17.7961 83.4893 18.5C84.0429 19.2767 84.804 19.6632 85.7692 19.6632C86.7335 19.6632 87.4842 19.2767 88.0218 18.5C88.5017 17.7961 88.7413 16.9408 88.7413 15.945ZM104.225 10.2759C104.225 11.2093 103.771 11.8507 102.864 12.1999C102.024 12.482 101.189 12.7693 100.356 13.0656C99.4421 13.5877 98.9886 14.5575 98.9886 15.9658V21.3209C98.9886 21.9577 98.7799 22.4945 98.374 22.9432C97.9613 23.3869 97.4398 23.6112 96.809 23.6112C96.1734 23.6112 95.6511 23.3869 95.2449 22.9432C94.8322 22.4945 94.6292 21.9577 94.6292 21.3209V10.5635C94.6292 9.93131 94.8321 9.39509 95.2392 8.96208C95.6514 8.52405 96.1731 8.30514 96.8044 8.30533C97.8468 8.30533 98.5712 8.76841 98.9785 9.69225C99.9124 8.57618 100.914 8.018 101.993 8.018C102.608 8.018 103.135 8.24174 103.573 8.68516C104.006 9.13378 104.225 9.66566 104.225 10.2759ZM115.599 10.4742C115.599 11.444 115.218 12.0542 114.463 12.3155C114.092 12.4456 113.314 12.5132 112.131 12.5132V21.3209C112.131 21.9577 111.922 22.4945 111.516 22.9432C111.103 23.3869 110.582 23.6112 109.951 23.6112C109.336 23.6112 108.814 23.3869 108.396 22.9432C107.98 22.4945 107.771 21.9577 107.771 21.3209V12.5132C106.874 12.5132 106.222 12.3985 105.811 12.1747C105.248 11.8617 104.97 11.2931 104.97 10.4742C104.97 9.65583 105.257 9.09765 105.836 8.79992C106.227 8.58081 106.874 8.46663 107.771 8.46663V6.59957C107.771 4.40414 108.496 3.30918 109.951 3.30918C111.401 3.30918 112.131 4.40414 112.131 6.59957V8.46663C113.314 8.46663 114.092 8.53427 114.463 8.66435C115.218 8.92508 115.599 9.53066 115.599 10.4742ZM150.625 7.82606C150.613 6.48742 148.14 5.87981 141.737 5.87981C126.712 5.87981 122.901 5.23809 118.821 0.945801C120.537 3.52308 121.476 8.35707 137.356 8.11657C153.925 7.86133 143.817 12.3886 140.876 17.5036C146.18 12.7699 150.609 9.64976 150.625 7.84543V7.82606ZM129.513 21.5718C129.512 22.1734 129.273 22.7503 128.848 23.1756C128.423 23.601 127.846 23.84 127.244 23.8401C125.987 23.8401 124.971 22.8238 124.971 21.5718C124.97 21.2732 125.029 20.9775 125.143 20.7015C125.257 20.4256 125.425 20.1748 125.636 19.9636C125.847 19.7525 126.098 19.585 126.374 19.4708C126.65 19.3566 126.946 19.2979 127.244 19.2981C128.497 19.2981 129.513 20.3147 129.513 21.5718ZM139.859 21.5718C139.859 22.1734 139.62 22.7503 139.194 23.1756C138.769 23.601 138.192 23.84 137.591 23.8401C136.335 23.8401 135.317 22.8238 135.317 21.5718C135.317 21.2732 135.376 20.9775 135.49 20.7016C135.604 20.4257 135.771 20.1749 135.983 19.9638C136.194 19.7526 136.444 19.5851 136.72 19.4709C136.996 19.3566 137.292 19.2979 137.591 19.2981C138.843 19.2981 139.859 20.3147 139.859 21.5718Z" fill="white"/>
</g>
<defs>
<clipPath id="clip0_2167_1843">
<rect width="151" height="30" fill="white" transform="translate(0 0.132324)"/>
</clipPath>
</defs>
</svg>
