<svg width="203" height="24" viewBox="0 0 203 24" fill="none" xmlns="http://www.w3.org/2000/svg">
<path d="M45.0437 2.25275C43.7925 2.72619 42.8118 3.40251 42.1355 4.28174C41.4592 5.16097 41.121 6.14164 41.121 7.2914C41.121 9.55711 42.5075 11.3832 45.2466 12.6682C46.092 13.074 47.1742 13.4798 48.493 13.9194C49.8119 14.359 50.7587 14.7648 51.266 15.1706C51.807 15.5764 52.0437 16.1513 52.0437 16.8615C52.0437 17.504 51.807 18.0112 51.2998 18.3494C50.8263 18.6875 50.15 18.8904 49.3046 18.8904C47.9858 18.8904 47.0389 18.6199 46.464 18.1127C45.8891 17.6054 45.5848 16.7938 45.5848 15.6779H40.4785C40.4785 17.0305 40.8167 18.2141 41.5268 19.2624C42.237 20.3107 43.2853 21.1223 44.6718 21.6972C46.0582 22.3059 47.6138 22.5764 49.3384 22.5764C51.7732 22.5764 53.7007 22.0692 55.0872 21.0547C56.4737 20.0402 57.1838 18.6199 57.1838 16.8276C57.1838 14.5958 56.0341 12.8373 53.7684 11.5523C52.8215 11.0112 51.6379 10.5378 50.15 10.0644C48.6959 9.59093 47.6814 9.15131 47.0727 8.74552C46.4978 8.3059 46.1935 7.83247 46.1935 7.32522C46.1935 6.71653 46.464 6.2431 46.9713 5.8373C47.5123 5.4315 48.2225 5.26242 49.1355 5.26242C50.0486 5.26242 50.7587 5.49913 51.266 5.93875C51.807 6.41218 52.0437 7.05469 52.0437 7.86629H57.1162C57.1162 6.61508 56.778 5.49914 56.1017 4.51846C55.4254 3.53778 54.4785 2.79382 53.2949 2.28657C52.0776 1.74551 50.7249 1.50879 49.2032 1.50879C47.6814 1.50879 46.2949 1.74551 45.0437 2.25275ZM63.3046 1.50879V22.5764H77.3384V18.6537H68.208V13.6151H75.9182V9.86145H68.208V5.4315H77.3384V1.50879M83.5268 1.50879V22.5764H88.4979V15.1368H91.2032L94.8554 22.5764H100.198V22.3735L95.8699 13.8518C97.1211 13.2431 98.0341 12.4653 98.609 11.5185C99.1839 10.5378 99.4882 9.35421 99.4882 7.86629C99.4882 5.8373 98.8119 4.28175 97.4254 3.1658C96.0389 2.04986 94.1114 1.50879 91.6766 1.50879H83.5268ZM88.4979 5.4315H91.6428C92.5897 5.4315 93.2998 5.70204 93.7732 6.20928C94.2467 6.71653 94.4834 7.42667 94.4834 8.33972C94.4834 9.25276 94.2467 9.9629 93.7732 10.4701C93.2998 10.9774 92.5897 11.2479 91.6428 11.2479H88.4979V5.4315ZM105.474 1.50879V22.5764H110.58V15.4412H113.86C116.43 15.4412 118.459 14.8325 119.947 13.5813C121.435 12.3639 122.179 10.7069 122.179 8.64406C122.179 7.25759 121.841 6.00638 121.165 4.92425C120.488 3.84213 119.508 2.99671 118.256 2.38802C117.005 1.77932 115.585 1.50879 113.962 1.50879H105.474ZM110.58 5.4315H113.995C114.909 5.4315 115.652 5.73585 116.194 6.34455C116.735 6.91943 117.005 7.73102 117.005 8.7117C117.005 9.62474 116.735 10.3011 116.227 10.8083C115.72 11.3156 114.942 11.5523 113.962 11.5523H110.614L110.58 5.4315Z" fill="white"/>
<path d="M130.227 2.25275C128.976 2.72619 127.995 3.40251 127.319 4.28174C126.643 5.16097 126.305 6.14164 126.305 7.2914C126.305 9.55711 127.691 11.3832 130.43 12.6682C131.276 13.074 132.358 13.4798 133.677 13.9194C134.995 14.359 135.942 14.7648 136.45 15.1706C136.991 15.5764 137.227 16.1513 137.227 16.8615C137.227 17.504 136.991 18.0112 136.483 18.3494C135.976 18.6875 135.334 18.8904 134.488 18.8904C133.169 18.8904 132.223 18.6199 131.648 18.1127C131.073 17.6054 130.768 16.7938 130.768 15.6779H125.662C125.662 17.0305 126 18.2141 126.71 19.2624C127.421 20.3107 128.469 21.1223 129.855 21.6972C131.242 22.3059 132.797 22.5764 134.522 22.5764C136.957 22.5764 138.884 22.0692 140.271 21.0547C141.657 20.0402 142.367 18.6199 142.367 16.8276C142.367 14.5958 141.218 12.8035 138.952 11.5523C138.005 11.0112 136.822 10.5378 135.334 10.0644C133.88 9.59093 132.831 9.15131 132.256 8.74552C131.681 8.3059 131.377 7.83247 131.377 7.32522C131.377 6.71653 131.648 6.2431 132.155 5.8373C132.696 5.4315 133.406 5.26242 134.319 5.26242C135.232 5.26242 135.942 5.49913 136.45 5.93875C136.991 6.41218 137.227 7.05469 137.227 7.86629H142.3C142.3 6.61508 141.962 5.49914 141.285 4.51846C140.609 3.53778 139.662 2.79382 138.479 2.28657C137.261 1.74551 135.908 1.50879 134.387 1.50879C132.899 1.50879 131.479 1.74551 130.227 2.25275ZM145.884 1.50879V5.4315H152.073V22.5764H157.145V5.4315H163.469V1.50879M172.024 1.50879L164.314 22.5764H169.725L170.942 18.6537H177.875L179.092 22.5764H184.537L176.759 1.50879H172.024ZM174.392 7.42667L176.657 14.731H172.16L174.392 7.42667ZM185.416 1.50879V5.4315H191.604V22.5764H196.677V5.4315H203V1.50879" fill="white"/>
<path d="M31.9236 0.629395H11.397C11.0589 0.629395 10.7545 0.93374 10.7545 1.2719C10.7545 1.4748 10.8222 1.61007 10.9574 1.74533L15.3874 6.17529C15.6579 6.44582 15.6579 6.85161 15.3874 7.12215L8.08303 14.3927C7.88013 14.5956 7.94776 14.8999 8.18448 15.0352L9.09752 15.5424C9.26661 15.6439 9.53714 15.6101 9.70622 15.5086C9.94294 15.3734 10.1797 15.3057 10.484 15.3057C10.6869 15.3057 10.856 15.3395 11.0251 15.4072C11.1265 15.441 11.228 15.441 11.2956 15.3734L13.0202 13.8178C13.0202 13.784 13.0202 13.7502 13.0202 13.7164C13.0202 12.8709 13.6966 12.1946 14.542 12.1946C15.2521 12.1946 15.827 12.668 15.9961 13.3444L17.6869 14.0545C17.7545 14.0883 17.7884 14.0545 17.856 14.0207C18.0927 13.8516 18.397 13.7502 18.7014 13.7502C18.8367 13.7502 19.0057 13.784 19.141 13.8178C19.2086 13.8178 19.2425 13.8178 19.2763 13.784L22.1845 10.9434C22.2183 10.9096 22.2521 10.842 22.2521 10.7743C22.2183 9.2864 23.3342 9.11732 23.74 9.08351C24.3826 9.04969 24.9574 9.52312 25.1603 10.098C25.1942 10.1656 25.228 10.1994 25.2956 10.2333L27.1217 10.8758C27.1893 10.9096 27.257 10.8758 27.3246 10.842C27.5951 10.6052 27.9333 10.4362 28.3391 10.4362C28.4743 10.4362 28.7111 10.5376 28.8463 10.3685L32.4985 6.64872C32.5661 6.58108 32.6 6.51345 32.6 6.412V1.33953C32.5661 0.933734 32.2618 0.629395 31.9236 0.629395Z" fill="white"/>
<path d="M32.5652 9.65841C32.5652 9.45551 32.3285 9.35406 32.1933 9.48932L29.8261 11.8903C29.7585 11.9579 29.7585 12.0256 29.7585 12.0932C29.8261 12.499 29.7247 12.9386 29.2174 13.412C28.9469 13.6826 28.5749 13.8516 28.2029 13.8516C27.5942 13.8516 27.0532 13.4459 26.8503 12.9048C26.8164 12.8372 26.7826 12.8033 26.715 12.7695L24.7536 12.0932C24.686 12.0594 24.6184 12.0932 24.5507 12.127C24.2802 12.3299 23.942 12.4652 23.6039 12.4652C23.4348 12.4652 23.2995 12.4314 23.1305 12.3975C23.1305 12.3975 20.8986 14.5618 20.1208 15.3396C20.0193 15.441 20.0193 15.441 20.0532 15.6439C20.0532 16.4893 19.3768 17.1657 18.5314 17.1657C17.8213 17.1657 17.2126 16.6584 17.0435 16.0159C17.0097 15.9483 16.9759 15.8806 16.9082 15.8468L15.4541 15.2381C15.3865 15.2043 15.285 15.2381 15.2512 15.2719C14.9807 15.4748 14.6763 15.5763 14.3382 15.5763C14.1691 15.5763 14 15.5425 13.8647 15.5087C13.7633 15.4748 13.6957 15.5087 13.5942 15.5425L11.8358 17.1318C11.7681 17.1995 11.7343 17.2671 11.7343 17.3347C11.6667 18.1125 11.0242 18.7212 10.2126 18.7212C9.60387 18.7212 9.06281 18.3492 8.82609 17.842C8.75846 17.7067 8.65701 17.6053 8.52175 17.5376L6.52657 16.4555C6.35749 16.3879 6.18841 16.3879 6.05315 16.5232L0.202899 22.3396C0.101449 22.4748 0 22.6101 0 22.813C0 23.185 0.304348 23.4893 0.676329 23.4893H19.8841C20.2561 23.4893 20.7633 23.2864 21.0338 23.0159L21.4058 22.6439L25.971 18.1463C26.2416 17.8758 26.6474 17.8758 26.9179 18.1463L31.4155 22.6101C31.5507 22.7454 31.7198 22.813 31.8889 22.813C32.2609 22.813 32.5652 22.5087 32.5652 22.1367V9.65841Z" fill="white"/>
</svg>
