<svg width="124" height="36" viewBox="0 0 124 36" fill="none" xmlns="http://www.w3.org/2000/svg">
<path d="M46.6398 10.5249V20.3627C46.6398 21.238 46.7028 22.0599 45.9133 22.6569C45.1867 23.254 43.9557 23.4428 42.6294 23.4428C40.6085 23.4428 38.4617 22.9716 38.4617 22.9716L37.9883 24.2292C37.9883 24.2292 40.988 24.858 43.1667 24.8894C44.9979 24.9207 46.6084 24.5116 47.4923 23.5064C48.2188 22.6892 48.4396 21.7466 48.4086 20.1434V10.5249H46.6408" fill="white"/>
<path d="M61.3853 15.9624C60.0589 15.2391 58.449 14.8623 56.6178 14.8623C54.8176 14.8623 53.208 15.2401 51.8503 15.9624C50.1454 16.8746 49.293 18.2253 49.293 19.9229C49.293 21.6205 50.1454 22.9717 51.8503 23.8833C53.208 24.6066 54.7866 24.9834 56.6178 24.9834C58.418 24.9834 60.0275 24.6057 61.3538 23.8833C63.0587 22.9712 63.9111 21.6205 63.9111 19.9229C63.9111 18.1944 63.0587 16.8741 61.3853 15.9624ZM60.344 22.8726C59.3028 23.4697 58.0709 23.7479 56.6187 23.7479C55.1346 23.7479 53.8717 23.465 52.861 22.8993C51.63 22.2083 51.0298 21.2335 51.0298 19.9132C51.0298 18.6247 51.6614 17.619 52.861 16.9271C53.8712 16.3614 55.1341 16.0785 56.6187 16.0785C58.0709 16.0785 59.3338 16.3614 60.3764 16.9271C61.5764 17.6181 62.2076 18.6242 62.2076 19.9132C62.1761 21.1709 61.5759 22.1761 60.3449 22.8675L60.344 22.8726Z" fill="white"/>
<path d="M76.9185 15.9624C75.5922 15.2391 73.9822 14.8623 72.151 14.8623C70.3508 14.8623 68.7412 15.2401 67.3835 15.9624C65.6786 16.8746 64.8262 18.2253 64.8262 19.9229C64.8262 21.6205 65.6786 22.9717 67.3835 23.8833C68.7412 24.6066 70.3198 24.9834 72.151 24.9834C73.9512 24.9834 75.5607 24.6057 76.887 23.8833C78.5919 22.9712 79.4443 21.6205 79.4443 19.9229C79.4443 18.1944 78.5919 16.8741 76.9185 15.9624ZM75.8772 22.8726C74.836 23.4697 73.6041 23.7479 72.1519 23.7479C70.6678 23.7479 69.4049 23.465 68.3942 22.8993C67.1632 22.2083 66.563 21.2335 66.563 19.9132C66.563 18.6247 67.1947 17.619 68.3942 16.9271C69.4044 16.3614 70.6673 16.0785 72.1519 16.0785C73.6041 16.0785 74.867 16.3614 75.9096 16.9271C77.1096 17.6181 77.7408 18.6242 77.7408 19.9132C77.7093 21.1709 77.1091 22.1761 75.8781 22.8675L75.8772 22.8726Z" fill="white"/>
<path d="M98.3577 15.7112C97.4104 15.1455 96.179 14.8627 94.7268 14.8627C92.8641 14.8627 91.38 15.4284 90.2434 16.5598C89.1698 15.4284 87.6542 14.8627 85.7915 14.8627C84.276 14.8627 83.0445 15.1769 82.0972 15.7748V14.9889H80.4238V24.7636H82.0972V18.0999C82.2236 17.6286 82.5392 17.1877 83.0445 16.8113C83.7387 16.3401 84.6179 16.0881 85.7286 16.0881C86.7074 16.0881 87.5334 16.2723 88.2276 16.6851C89.0485 17.1564 89.4276 17.7852 89.4276 18.6651V24.8258H91.0695V18.6343C91.0695 17.759 91.449 17.1255 92.2695 16.6542C92.9636 16.2765 93.8165 16.0572 94.7953 16.0572C95.7741 16.0572 96.6265 16.2415 97.3211 16.6542C98.1421 17.1255 98.5211 17.7544 98.5211 18.6343V24.7945H100.194V18.854C100.163 17.471 99.5313 16.4023 98.3633 15.7108M101.484 10.5249V24.7945H103.158V10.5249H101.484ZM121.818 10.5249V21.5573H123.491V10.5249H121.818ZM117.429 14.988V16.6538C116.008 15.4592 114.113 14.8309 111.777 14.8309C109.914 14.8309 108.304 15.1764 106.978 15.8997C105.336 16.8118 104.479 18.1312 104.479 19.8914C104.479 21.6199 105.331 22.9716 107.036 23.8519C108.362 24.5752 109.972 24.9207 111.835 24.9207C112.751 24.9207 113.666 24.8263 114.487 24.6065C115.655 24.2923 116.634 23.8524 117.392 23.2549V24.7636H119.065V14.988H117.423M106.246 19.9228C106.246 18.6343 106.878 17.6286 108.077 16.9366C109.088 16.3709 110.382 16.0881 111.866 16.0881C113.697 16.0881 115.118 16.528 116.124 17.4084C117.003 18.1943 117.45 19.205 117.45 20.4258V21.5886C116.756 22.3745 115.714 22.9716 114.387 23.3852C113.598 23.6368 112.745 23.763 111.861 23.763C110.346 23.763 109.083 23.4801 108.073 22.9458C106.842 22.2225 106.242 21.2486 106.242 19.9283L106.246 19.9228ZM122.675 22.9402C121.507 22.9402 121.349 23.5373 121.349 23.9146C121.349 24.2919 121.534 24.8889 122.675 24.8889C123.843 24.8889 124.001 24.2601 124.001 23.9146C124.001 23.5691 123.816 22.9402 122.675 22.9402Z" fill="white"/>
<path d="M6.20117 18.2475L5.55329 17.6026C3.47081 15.5295 2.8692 12.6272 3.60964 10.0013C1.52715 9.54067 0 7.69795 0 5.48668C0 2.95294 2.08248 0.879883 4.62774 0.879883C6.94161 0.879883 8.83899 2.53833 9.20921 4.7496C11.7082 4.15071 14.4386 4.84173 16.3822 6.77659L16.6599 7.053L13.2353 10.462L12.9577 10.1856C12.4233 9.65506 11.6993 9.35711 10.9446 9.35711C10.1899 9.35711 9.46593 9.65506 8.93154 10.1856C8.39856 10.7176 8.09926 11.4383 8.09926 12.1896C8.09926 12.9409 8.39856 13.6616 8.93154 14.1935L16.6136 21.8408L13.1891 25.2499L9.57942 21.6566L6.20117 18.2475Z" fill="white"/>
<path d="M10.041 14.4698L17.7231 6.82249C19.7593 4.7955 22.721 4.15054 25.3126 4.88763C25.6365 2.6303 27.5802 0.925781 29.894 0.925781C32.4393 0.925781 34.5218 2.99884 34.5218 5.53258C34.5218 7.88205 32.7632 9.81691 30.4956 10.0933C31.2361 12.6731 30.5882 15.5754 28.552 17.6024L28.2743 17.8788L24.9423 14.4698L25.22 14.1934C25.753 13.6614 26.0523 12.9407 26.0523 12.1894C26.0523 11.4381 25.753 10.7174 25.22 10.1855C24.6856 9.65489 23.9617 9.35694 23.2069 9.35694C22.4522 9.35694 21.7283 9.65489 21.1939 10.1855L13.5118 17.8327L10.041 14.4698Z" fill="white"/>
<path d="M25.4519 31.6531C22.8141 32.4362 19.8523 31.8374 17.7699 29.7643L17.4922 29.4879L20.9167 26.0788L21.1944 26.3553C21.7288 26.8858 22.4527 27.1838 23.2075 27.1838C23.9622 27.1838 24.6861 26.8858 25.2205 26.3553C25.7535 25.8233 26.0528 25.1026 26.0528 24.3513C26.0528 23.6 25.7535 22.8793 25.2205 22.3473L17.5385 14.7L20.963 11.291L28.6913 18.9844C30.635 20.9192 31.3291 23.6833 30.7275 26.2171C32.9951 26.5395 34.7074 28.4744 34.7074 30.7778C34.7074 33.3115 32.6249 35.3846 30.0796 35.3846C27.7658 35.3385 25.8684 33.7261 25.4519 31.6531Z" fill="white"/>
<path d="M24.1105 22.0711L16.4285 29.7184C14.4386 31.6994 11.6619 32.3443 9.16293 31.7454C8.70015 33.8185 6.84906 35.3387 4.62774 35.3387C2.08248 35.3387 0 33.2657 0 30.7319C0 28.5667 1.52715 26.724 3.56336 26.2633C2.91548 23.6835 3.56336 20.9194 5.55329 18.9385L5.83095 18.6621L9.25548 22.0711L8.97782 22.3476C8.44485 22.8795 8.14554 23.6002 8.14554 24.3515C8.14554 25.1028 8.44485 25.8235 8.97782 26.3555C9.51221 26.886 10.2361 27.184 10.9909 27.184C11.7456 27.184 12.4696 26.886 13.004 26.3555L20.686 18.7082L24.1105 22.0711Z" fill="white"/>
</svg>
