<svg width="122" height="34" viewBox="0 0 122 34" fill="none" xmlns="http://www.w3.org/2000/svg">
<g clip-path="url(#clip0_2167_1912)">
<path d="M11.8579 0.869143C11.3442 0.869395 10.8402 1.00928 10.3998 1.27384C9.95948 1.5384 9.59933 1.91768 9.35789 2.37112C9.11645 2.82456 9.0028 3.3351 9.02911 3.84814C9.05542 4.36117 9.22068 4.85741 9.50723 5.28378L10.7177 4.07498C10.6335 3.81975 10.6378 3.54358 10.7299 3.2911C10.822 3.03861 10.9966 2.82455 11.2253 2.68349C11.4541 2.54242 11.7237 2.4826 11.9907 2.51367C12.2577 2.54474 12.5063 2.6649 12.6966 2.85473C12.8868 3.04457 13.0075 3.29299 13.0392 3.55988C13.0709 3.82677 13.0116 4.09654 12.8711 4.32561C12.7305 4.55469 12.5168 4.72969 12.2645 4.82235C12.0122 4.91501 11.7361 4.91992 11.4807 4.83629L10.2721 6.04509C10.6389 6.2938 11.059 6.45295 11.4985 6.50974C11.938 6.56653 12.3848 6.51937 12.8027 6.37206C13.2207 6.22476 13.5983 5.98141 13.9051 5.66159C14.2119 5.34178 14.4393 4.95442 14.5692 4.53069C14.699 4.10695 14.7275 3.65866 14.6525 3.22188C14.5775 2.78509 14.4011 2.372 14.1374 2.01584C13.8736 1.65968 13.53 1.37038 13.1341 1.17122C12.7382 0.972056 12.3011 0.86859 11.8579 0.869143Z" fill="white"/>
<path d="M10.7309 9.123C10.7326 8.16634 10.4228 7.23513 9.84827 6.47021L8.27775 8.03906C8.51655 8.47586 8.60387 8.97949 8.52605 9.47119C8.44823 9.96289 8.20967 10.4149 7.84766 10.7567L8.70118 12.8428C9.32351 12.4419 9.83539 11.8913 10.19 11.2415C10.5445 10.5917 10.7305 9.86328 10.7309 9.123Z" fill="white"/>
<path d="M6.34217 11.3746H6.30119C5.94997 11.3747 5.60359 11.2927 5.28968 11.1351C4.97578 10.9776 4.70305 10.7489 4.49325 10.4672C4.28345 10.1855 4.1424 9.85872 4.08135 9.51285C4.0203 9.16698 4.04094 8.81162 4.14162 8.47515C4.2423 8.13867 4.42024 7.83038 4.66124 7.5749C4.90223 7.31941 5.19961 7.12379 5.52964 7.00365C5.85968 6.88351 6.21322 6.84217 6.56206 6.88294C6.91091 6.92372 7.24539 7.04546 7.53882 7.23847L9.09384 5.68321C8.54344 5.237 7.894 4.92938 7.20007 4.78619C6.50614 4.643 5.78797 4.66842 5.1059 4.86031C4.42383 5.05221 3.79776 5.40497 3.28028 5.88898C2.76281 6.37299 2.36903 6.9741 2.13202 7.64184C1.89502 8.30958 1.82171 9.02444 1.91825 9.72639C2.01479 10.4283 2.27836 11.0969 2.68683 11.6758C3.09529 12.2548 3.63673 12.7273 4.26566 13.0536C4.89458 13.38 5.59264 13.5506 6.30119 13.5513C6.60142 13.5513 6.90118 13.5217 7.19569 13.4624L6.34217 11.3746Z" fill="white"/>
<path d="M11.9174 13.1789C10.9344 13.178 9.95656 13.3212 9.01511 13.604L10.2599 16.6445C10.8016 16.5102 11.3576 16.4425 11.9157 16.4429C15.1494 16.4438 17.9323 18.729 18.5626 21.9007C19.1928 25.0725 17.4948 28.2481 14.507 29.4852C11.519 30.7219 8.07343 29.6763 6.27679 26.9873C4.48062 24.2983 4.83376 20.7148 7.1203 18.4282C7.5974 17.9525 8.1422 17.5498 8.73704 17.2333L7.50632 14.2014C2.91821 16.4484 0.74628 21.7797 2.45714 26.5932C4.16847 31.4065 9.21861 34.1705 14.1953 33.0173C19.1719 31.8637 22.4916 27.1603 21.9109 22.0849C21.3302 17.0095 17.0345 13.177 11.926 13.1772L11.9174 13.1789Z" fill="white"/>
<path d="M57.7272 12.7321C59.0025 13.4899 60.0458 14.5827 60.7438 15.8917C61.4704 17.2499 61.8421 18.7697 61.8242 20.3099C61.8419 21.85 61.4702 23.3696 60.7436 24.7276C60.0462 26.0366 59.0035 27.1295 57.7288 27.8877C56.4044 28.649 54.9034 29.0496 53.3758 29.0496C51.8481 29.0496 50.3472 28.649 49.0227 27.8877L49.0211 27.8808C47.7457 27.1237 46.7028 26.0307 46.0063 24.7212C45.279 23.3633 44.9073 21.8433 44.9257 20.303C44.9085 18.7651 45.2802 17.2478 46.0063 15.8919C46.7028 14.5823 47.7456 13.4893 49.0211 12.7321C50.3455 11.9708 51.8465 11.5702 53.3741 11.5702C54.9018 11.5702 56.4027 11.9708 57.7272 12.7321ZM76.0922 12.7321C77.368 13.4893 78.4114 14.5822 79.1086 15.8917C79.8353 17.2499 80.207 18.7697 80.1892 20.3099C80.207 21.85 79.8353 23.3696 79.1086 24.7276C78.4119 26.0371 77.3691 27.1302 76.0939 27.8877C74.7694 28.649 73.2684 29.0497 71.7407 29.0497C70.213 29.0497 68.712 28.649 67.3875 27.8877L67.3859 27.8808C66.1112 27.1228 65.0686 26.03 64.3711 24.7212C63.6444 23.3631 63.2727 21.8433 63.2905 20.303C63.2739 18.7652 63.6456 17.248 64.3711 15.8919C65.0686 14.5831 66.1112 13.4902 67.3859 12.7321C68.7104 11.9708 70.2113 11.5701 71.739 11.5701C73.2667 11.5701 74.7677 11.9708 76.0922 12.7321ZM104.452 11.5609C106.063 11.5609 107.461 11.9211 108.645 12.6415C109.822 13.3542 110.77 14.3899 111.376 15.6255C112.029 16.9857 112.353 18.4804 112.322 19.9889C112.321 20.2696 112.299 20.5498 112.257 20.8272H99.2231C99.2882 22.079 99.5893 23.1328 100.126 23.9887C100.621 24.8073 101.329 25.4759 102.175 25.9229C102.975 26.3464 103.866 26.5679 104.771 26.5681C106.92 26.5681 108.543 25.5791 109.64 23.6011L111.962 24.7296C111.3 26.0128 110.31 27.0977 109.092 27.8739C107.866 28.6491 106.394 29.0367 104.674 29.0367C103.189 29.0615 101.726 28.6725 100.449 27.9132C99.2066 27.166 98.1961 26.0887 97.5299 24.8013C96.8173 23.4202 96.4578 21.8842 96.4834 20.3304C96.4717 18.8188 96.8093 17.325 97.4698 15.9653C98.0932 14.6588 99.0635 13.5486 100.275 12.7559C101.518 11.9524 102.972 11.5365 104.452 11.5609ZM34.5243 5.02465V26.3513H44.9257V29.0367H31.6992V5.02441L34.5243 5.02465ZM85.0423 5.02465V20.2041L93.5437 11.5679H97.1286V11.7011L89.9587 18.9408L96.8043 28.9104V29.0367H93.4174L87.9667 20.8937L85.0423 23.8248V29.0365H82.2186V5.02465H85.0423ZM123.875 11.9298V14.9531C123.131 14.591 122.313 14.4086 121.485 14.4203C120.678 14.4165 119.889 14.6609 119.225 15.1204C118.528 15.5984 117.962 16.2441 117.58 16.998C117.171 17.785 116.96 18.6598 116.965 19.5467V29.0365H114.145V11.5712H116.835V14.8147H116.969C117.301 13.8838 117.943 13.1083 118.896 12.4881C119.778 11.8926 120.817 11.5707 121.882 11.5628C122.564 11.5454 123.243 11.6704 123.875 11.9298ZM53.374 14.0465C52.3606 14.0426 51.3652 14.3134 50.4935 14.8302C49.6218 15.3469 48.9064 16.0902 48.4235 16.9811C47.8795 18.0023 47.6079 19.1463 47.6348 20.303C47.6077 21.4598 47.8793 22.604 48.4235 23.6251C48.7835 24.2857 49.2723 24.8675 49.8609 25.3361C50.4495 25.8046 51.126 26.1506 51.8504 26.3535C52.5749 26.5563 53.3327 26.612 54.079 26.5172C54.8254 26.4224 55.5452 26.1791 56.196 25.8016H56.1907C57.0777 25.2827 57.8048 24.5297 58.2924 23.6251C58.8379 22.6044 59.1102 21.46 59.0827 20.303C59.1097 19.1461 58.8375 18.0019 58.2924 16.9811C57.8063 16.0771 57.081 15.3241 56.196 14.8044C55.3403 14.3033 54.3656 14.0414 53.374 14.0465ZM71.7338 14.0467C70.7371 14.0433 69.7573 14.3049 68.8949 14.8047C68.0031 15.3207 67.272 16.0743 66.7833 16.9814C66.2382 18.0021 65.9659 19.1464 65.9929 20.3032C65.9654 21.4602 66.2377 22.6047 66.7833 23.6254C67.2721 24.5324 68.0031 25.2858 68.8949 25.8018C69.7573 26.3016 70.7371 26.5632 71.7338 26.5598C72.7277 26.5661 73.7048 26.3043 74.5624 25.8021H74.5558C75.4405 25.2819 76.1655 24.529 76.6519 23.6254C77.1967 22.6044 77.4689 21.4602 77.4423 20.3032C77.4686 19.1464 77.1964 18.0024 76.6519 16.9814C76.1655 16.0777 75.4405 15.3248 74.5558 14.8047C73.7001 14.3036 72.7254 14.0416 71.7338 14.0467ZM101.164 15.2879C100.262 16.1163 99.6708 17.2077 99.3909 18.5619H109.42C109.368 17.8419 109.171 17.1399 108.839 16.4984C108.469 15.7827 107.912 15.1809 107.226 14.757C106.496 14.2836 105.572 14.0469 104.454 14.0469C103.238 14.0193 102.059 14.4641 101.164 15.2879Z" fill="white"/>
</g>
<defs>
<clipPath id="clip0_2167_1912">
<rect width="122" height="32.6445" fill="white" transform="translate(0 0.869141)"/>
</clipPath>
</defs>
</svg>
