<svg width="122" height="27" viewBox="0 0 122 27" fill="none" xmlns="http://www.w3.org/2000/svg">
<path d="M44.7862 0.897587H49.41L57.2729 15.9399L65.1297 0.897587H69.6559V25.6081H65.88V6.66548L58.987 19.783H55.449L48.556 6.66548V25.6144H44.7862V0.897587ZM81.8193 26.0527C80.0706 26.0527 78.5355 25.6441 77.2138 24.8267C75.8959 24.0182 74.8222 22.8407 74.115 21.4283C73.3534 19.89 72.9719 18.1784 73.0048 16.448C73.0048 14.5551 73.3667 12.878 74.0906 11.417C74.8104 9.95598 75.8149 8.81257 77.104 7.98677C78.3891 7.1652 79.8653 6.75442 81.5326 6.75442C83.1918 6.75442 84.6192 7.16943 85.8148 7.99947C87.0104 8.8295 87.9315 9.99198 88.5781 11.4869C89.2247 12.9818 89.548 14.735 89.548 16.7466V17.8392H76.738C76.902 19.1982 77.5144 20.4557 78.4704 21.3965C79.3854 22.2646 80.5444 22.6987 81.9474 22.6987C83.0739 22.6987 84.0438 22.5208 84.8571 22.1651C85.6704 21.8136 86.4329 21.2779 87.1446 20.558L89.1454 23.1561C87.1612 25.0823 84.5312 26.1222 81.8193 26.0527ZM84.5704 11.3916C84.1665 10.9653 83.682 10.631 83.1475 10.4101C82.613 10.1892 82.0402 10.0865 81.4655 10.1084C80.8859 10.0939 80.3095 10.2024 79.7715 10.4274C79.2335 10.6524 78.7452 10.9891 78.3362 11.417C77.4557 12.3786 76.8972 13.6108 76.7441 14.9298H85.9246C85.8148 13.4222 85.3634 12.2428 84.5704 11.3916ZM94.123 10.4642H90.6521V7.19908H94.1291V1.79962H97.7647V7.19908H103.041V10.4642H97.7647V18.7412C97.7647 20.1218 97.9884 21.1043 98.4357 21.6887C98.879 22.2816 99.6415 22.578 100.723 22.578C101.199 22.578 101.606 22.5568 101.943 22.5145C102.273 22.4721 102.639 22.415 103.041 22.343V25.5763C102.061 25.8787 101.044 26.0285 100.022 26.021C96.0933 26.021 94.1291 23.749 94.1291 19.2049L94.123 10.4642ZM122 25.6081H118.425V23.0354C117.791 24.0009 116.986 24.7442 116.01 25.265C115.034 25.7902 113.92 26.0527 112.667 26.0527C111.134 26.0527 109.774 25.6377 108.586 24.8077C107.376 23.9458 106.411 22.761 105.792 21.3774C105.098 19.8182 104.749 18.1159 104.774 16.3972C104.774 14.5127 105.119 12.8463 105.811 11.398C106.502 9.94963 107.456 8.81468 108.672 7.99311C109.887 7.17155 111.286 6.75865 112.868 6.75442C114.056 6.75442 115.125 7.00004 116.077 7.49128C117.01 7.96771 117.815 8.67917 118.425 9.56214V7.19908H122V25.6081ZM118.364 13.6403C118.004 12.6327 117.354 11.7658 116.502 11.1584C115.65 10.5511 114.639 10.2332 113.606 10.2482C112.906 10.219 112.209 10.3533 111.565 10.6413C110.921 10.9293 110.347 11.3636 109.885 11.9125C108.958 13.022 108.495 14.5148 108.495 16.3909C108.495 18.2881 108.942 19.7915 109.837 20.901C110.277 21.4475 110.832 21.8808 111.46 22.1673C112.087 22.4538 112.77 22.5856 113.454 22.5526C114.52 22.5685 115.566 22.2498 116.455 21.6379C117.329 21.0458 117.999 20.1775 118.364 19.1605V13.6403ZM26.5533 0.059082C23.5155 0.059082 21.1487 2.47296 19.0015 5.54748C16.0491 1.57093 13.5847 0.059082 10.6323 0.059082C4.6116 0.059082 0 8.34249 0 17.115C0 22.6034 2.5071 26.0591 6.71 26.0591C9.7417 26.0591 11.9133 24.5536 15.7868 17.4009L18.5074 12.319C18.8937 12.9797 19.3024 13.6933 19.7335 14.4598L21.5513 17.6867C25.0832 23.9438 27.0535 26.0591 30.622 26.0591C34.7151 26.0591 36.9965 22.5526 36.9965 16.9499C36.9965 7.77079 32.2812 0.059082 26.5533 0.059082ZM12.8344 15.4634C9.699 20.666 8.6132 21.8284 6.8686 21.8284C5.0691 21.8284 4.0016 20.1578 4.0016 17.1849C4.0016 10.8199 7.0028 4.30877 10.5774 4.30877C12.5172 4.30877 14.1337 5.49031 16.6164 9.24452C14.2618 13.0686 12.8344 15.4634 12.8344 15.4634ZM24.6684 14.8091L22.5029 10.9851C21.9576 10.0417 21.3943 9.10989 20.8132 8.19004C22.7652 5.00118 24.3817 3.4131 26.2971 3.4131C30.2804 3.4131 33.4707 9.61931 33.4707 17.2421C33.4707 20.1451 32.5679 21.8284 30.7074 21.8284C28.9201 21.8284 28.0661 20.5834 24.6684 14.8091Z" fill="white"/>
</svg>
