<svg width="102" height="61" viewBox="0 0 102 61" fill="none" xmlns="http://www.w3.org/2000/svg">
<path d="M8.57861 54.085C12.9254 54.085 16.4541 50.5267 16.4541 46.1433V38.2017H8.57861C4.2318 38.2017 0.703125 41.76 0.703125 46.1433C0.703125 50.5267 4.2318 54.085 8.57861 54.085Z" fill="#D3FFA5"/>
<path d="M0.695312 30.2517C0.695312 25.8684 4.22399 22.3101 8.5708 22.3101H16.4463V38.2017H8.5708C4.22399 38.2017 0.695312 34.6434 0.695312 30.2601V30.2517Z" fill="white"/>
<path d="M0.695312 14.3601C0.695312 9.97679 4.22399 6.41846 8.5708 6.41846H16.4463V22.3101H8.5708C4.22399 22.3101 0.695312 18.7518 0.695312 14.3685V14.3601Z" fill="#D3FFA5"/>
<path d="M16.3809 6.41846H24.2563C28.6032 6.41846 32.1318 9.97679 32.1318 14.3601C32.1318 18.7435 28.6032 22.3018 24.2563 22.3018H16.3809V6.41846Z" fill="white"/>
<path d="M32.2145 30.2517C32.2145 34.6351 28.6858 38.1934 24.339 38.1934C19.9922 38.1934 16.3809 34.6351 16.3809 30.2517C16.3809 25.8684 19.9095 22.3101 24.2563 22.3101C28.6032 22.3101 32.1318 25.8684 32.1318 30.2517H32.2145Z" fill="#D3FFA5"/>
<path d="M40.8242 19.585V36.235H42.948V28.285H48.0551V26.2183H42.948V21.6683H49.5839V19.585H40.8242ZM53.4266 22.9683C54.1952 22.9683 54.815 22.3433 54.815 21.5683C54.815 20.7933 54.1869 20.2516 53.4266 20.2516C52.6664 20.2516 52.0383 20.8766 52.0383 21.6516C52.0383 22.0266 52.1871 22.3766 52.4515 22.6516C52.716 22.9266 53.063 23.0683 53.4432 23.0683L53.4266 22.9683ZM52.3523 25.0683V36.235H54.3935V25.0683H52.2862H52.3523ZM62.3682 24.735C59.5419 24.735 57.5751 27.235 57.5751 30.0016C57.5751 32.7683 59.5585 35.2516 62.3682 35.2516C62.9528 35.2619 63.5332 35.1495 64.0724 34.9214C64.6116 34.6933 65.0978 34.3545 65.5002 33.9266V35.41C65.4943 36.3012 65.1514 37.1566 64.5416 37.8016C64.2335 38.1186 63.8657 38.3703 63.4599 38.542C63.054 38.7137 62.6182 38.802 62.1781 38.8016C61.5023 38.7801 60.8474 38.56 60.2939 38.1683L59.2196 40.0266C60.0446 40.5617 60.9975 40.8624 61.9778 40.8973C62.9581 40.9321 63.9295 40.6997 64.7898 40.2246C65.6502 39.7494 66.3675 39.0491 66.8663 38.1974C67.365 37.3457 67.6268 36.3741 67.624 35.385V25.0516H65.5002V26.0516C65.0978 25.6238 64.6116 25.285 64.0724 25.0569C63.5332 24.8288 62.9528 24.7246 62.3682 24.735ZM59.7072 30.0016C59.6588 29.4598 59.7616 28.9152 60.004 28.4293C60.2464 27.9433 60.6188 27.5354 61.079 27.2516C62.0211 26.6683 63.2028 26.6683 64.1366 27.2516C65.0705 27.835 65.5994 28.9016 65.5085 30.0016C65.5569 30.5434 65.454 31.088 65.2116 31.574C64.9692 32.0599 64.5969 32.4678 64.1366 32.7516C63.1946 33.335 62.0128 33.335 61.079 32.7516C60.1452 32.1683 59.6163 31.1016 59.7072 30.0016Z" fill="white"/>
<path d="M75.2849 26.9183C74.6741 26.9205 74.0889 27.1662 73.657 27.6017C73.2251 28.0373 72.9815 28.6274 72.9793 29.2433V36.31H70.8555V25.1433H72.9793V26.085C73.6239 25.2183 74.6486 24.7183 75.7229 24.735C77.0782 24.7016 78.3425 25.435 79.0119 26.6266C79.8383 25.46 81.0283 24.7516 82.3175 24.735C84.7388 24.735 86.2428 26.7016 86.2511 29.135V36.2433H84.1273V29.16C84.1895 28.7187 84.1251 28.2688 83.9418 27.8632C83.7584 27.4577 83.4637 27.1137 83.0925 26.8717C82.7213 26.6298 82.2892 26.5001 81.8473 26.498C81.4053 26.496 80.972 26.6216 80.5986 26.86C80.2273 27.1041 79.9333 27.4506 79.7516 27.8584C79.57 28.2661 79.5083 28.7179 79.5739 29.16V36.2266H77.5327V29.1683C77.5305 28.5524 77.2869 27.9623 76.855 27.5267C76.4231 27.0912 75.8379 26.8455 75.2271 26.8433L75.2849 26.9183ZM97.5974 26.335C97.114 25.8263 96.5325 25.4227 95.8888 25.149C95.245 24.8753 94.5525 24.7372 93.8539 24.7433C90.6888 24.7433 88.4823 27.4433 88.4823 30.5766C88.4823 33.71 90.7136 36.41 93.8539 36.41C94.5525 36.4161 95.245 36.278 95.8888 36.0043C96.5325 35.7306 97.114 35.327 97.5974 34.8183V36.085H99.7212V24.9183H97.5974V26.335ZM90.5731 30.6683C90.4657 29.335 91.1103 28.0516 92.2424 27.3516C93.3746 26.6516 94.7216 26.6516 95.9281 27.3516C96.4807 27.6975 96.9286 28.1896 97.2229 28.7745C97.5173 29.3593 97.6468 30.0144 97.5974 30.6683C97.7048 32.0016 97.0603 33.285 95.9281 33.985C94.7959 34.685 93.4489 34.685 92.2424 33.985C91.6898 33.6391 91.242 33.147 90.9476 32.5621C90.6533 31.9773 90.5237 31.3223 90.5731 30.6683Z" fill="white"/>
</svg>
