<svg width="176" height="24" viewBox="0 0 176 24" fill="none" xmlns="http://www.w3.org/2000/svg">
<path d="M121.515 9.68693C121.515 6.80405 119.744 4.71387 116.35 4.71387H105.381V19.6531H108.988V14.5519H113.256L117.439 19.6517H121.503V19.3222L117.439 14.466C119.974 13.9433 121.515 12.0809 121.515 9.68693ZM115.946 11.5346H108.988V7.80831H115.946C117.232 7.80831 118.059 8.49364 118.059 9.67672C118.057 10.8788 117.26 11.5346 115.946 11.5346Z" fill="white"/>
<path d="M176 4.71387H172.627V10.3779H163.537V4.71387H159.887V19.6531H163.537V13.7705H172.627V19.6531H176V4.71387Z" fill="white"/>
<path d="M95.7257 4.71387L91.714 17.2841H91.494L87.4604 4.71387H81.0371V19.6531H84.4726V7.38133H84.6867L88.698 19.6531H94.2318L98.2658 7.38133H98.4787V19.6531H102.021V4.71387H95.7257Z" fill="white"/>
<path d="M56.4744 10.8268C55.1998 10.6937 52.8234 10.4769 51.5488 10.3453C50.295 10.2168 49.5699 9.84472 49.5699 9.01611C49.5699 8.22164 50.3393 7.55108 53.444 7.55108C56.1836 7.55108 58.712 8.13751 60.9187 9.20231V5.86007C58.712 4.80689 56.2871 4.29297 53.2578 4.29297C49.0084 4.29297 46.0664 6.06987 46.0664 9.07384C46.0664 11.617 47.793 13.0053 51.2563 13.3834C52.5101 13.5206 54.6415 13.7083 56.1287 13.8308C57.749 13.9652 58.2305 14.4601 58.2305 15.1983C58.2305 16.2113 57.0946 16.8407 54.2177 16.8407C51.289 16.8407 48.3248 15.8836 46.2157 14.5439V17.9837C47.9098 19.1164 50.8431 20.0781 54.11 20.0781C58.7521 20.0781 61.7308 18.2881 61.7308 15.0832C61.7308 12.6716 60.1401 11.208 56.4744 10.8268Z" fill="white"/>
<path d="M64.0938 4.71372V19.653H78.0287V16.6001H67.5293V13.5694H77.8503V10.54H67.5293V7.76486H78.0287V4.71338L64.0938 4.71372Z" fill="white"/>
<path d="M152.432 10.8268C151.157 10.6937 148.781 10.4766 147.507 10.3453C146.253 10.2168 145.527 9.84472 145.527 9.01611C145.527 8.22164 146.297 7.55108 149.402 7.55108C152.141 7.55108 154.67 8.13751 156.876 9.20231V5.86007C154.668 4.80865 152.244 4.29297 149.215 4.29297C144.966 4.29297 142.023 6.06987 142.023 9.07384C142.023 11.617 143.75 13.0053 147.214 13.3837C148.468 13.521 150.599 13.7086 152.086 13.8311C153.706 13.9656 154.188 14.4601 154.188 15.1986C154.188 16.2117 153.052 16.8411 150.175 16.8411C147.246 16.8411 144.282 15.884 142.173 14.5443V17.984C143.867 19.1168 146.8 20.0784 150.067 20.0784C154.709 20.0784 157.688 18.2885 157.688 15.0835C157.688 12.6713 156.1 11.2077 152.432 10.8268Z" fill="white"/>
<path d="M135.962 4.71372V12.3613C135.962 15.2589 134.202 16.8496 131.556 16.8496C128.894 16.8496 127.148 15.2825 127.148 12.3169V4.71372H123.562V11.9773C123.562 17.4019 126.952 20.0796 131.607 20.0796C136.087 20.0796 139.545 17.5068 139.545 12.1543V4.71338L135.962 4.71372Z" fill="white"/>
<path d="M33.7093 12.0969C33.7093 12.8251 33.3446 12.9371 32.4199 12.9371C31.4392 12.9371 31.271 12.7688 31.1587 12.0405C30.9623 10.1633 29.7011 8.56524 27.5725 8.39839C26.9006 8.34242 26.7323 8.08968 26.7323 7.24946C26.7323 6.4652 26.8446 6.10053 27.4602 6.10053C31.1587 6.10018 33.7093 9.07035 33.7093 12.0969ZM39.09 12.0969C39.09 6.4652 35.2796 0.523438 26.4799 0.523438H8.98867C8.63561 0.523438 8.41702 0.708236 8.41702 1.02996C8.41702 1.20561 8.54832 1.36366 8.668 1.45694C9.309 1.96066 10.2425 2.51435 11.4949 3.14056C12.709 3.74741 13.647 4.142 14.5996 4.52885C14.9924 4.6883 15.149 4.86254 15.149 5.09592C15.149 5.40005 14.935 5.59365 14.4918 5.59365H0.608604C0.198172 5.59365 0 5.858 0 6.12517C0 6.35256 0.079899 6.53419 0.273147 6.73519C1.3999 7.91087 3.19158 9.32872 5.81011 10.9666C8.10515 12.402 10.9409 13.9515 13.1905 15.0297C13.5685 15.2114 13.7002 15.4211 13.6914 15.6383C13.6812 15.8893 13.483 16.1019 13.0458 16.1019H6.68167C6.31981 16.1019 6.11882 16.2924 6.11882 16.5849C6.11882 16.7475 6.25011 16.9541 6.42153 17.1107C7.86896 18.4237 10.1834 19.8595 13.2672 21.1725C17.3804 22.924 21.5678 23.9772 26.2701 23.9772C35.1817 23.9772 39.09 17.3089 39.09 12.0969ZM27.4602 20.0827C23.0884 20.0827 19.4466 16.5233 19.4466 12.0969C19.4466 7.72501 23.0887 4.22332 27.4602 4.22332C31.9444 4.22332 35.4461 7.72677 35.4461 12.0969C35.4461 16.5229 31.9444 20.0827 27.4602 20.0827Z" fill="white"/>
</svg>
