<svg width="15" height="14" viewBox="0 0 15 14" fill="none" xmlns="http://www.w3.org/2000/svg">
<path d="M1.93197 4.63091C2.09606 4.46687 2.31858 4.37472 2.55059 4.37472C2.78261 4.37472 3.00513 4.46687 3.16922 4.63091L7.50047 8.96216L11.8317 4.63091C11.9967 4.47152 12.2178 4.38332 12.4472 4.38531C12.6766 4.38731 12.8961 4.47933 13.0583 4.64156C13.2205 4.8038 13.3126 5.02326 13.3146 5.25268C13.3166 5.4821 13.2284 5.70313 13.069 5.86815L8.11909 10.818C7.95501 10.9821 7.73249 11.0742 7.50047 11.0742C7.26845 11.0742 7.04593 10.9821 6.88184 10.818L1.93197 5.86815C1.76793 5.70407 1.67578 5.48155 1.67578 5.24953C1.67578 5.01751 1.76793 4.79499 1.93197 4.63091Z" fill="#6FC733"/>
</svg>
