<svg width="12" height="12" viewBox="0 0 12 12" fill="none" xmlns="http://www.w3.org/2000/svg">
<path d="M10.7726 3.96984C10.632 3.82923 10.4412 3.75025 10.2423 3.75025C10.0435 3.75025 9.85274 3.82923 9.7121 3.96984L5.9996 7.68234L2.2871 3.96983C2.14565 3.83322 1.95619 3.75762 1.75955 3.75933C1.5629 3.76104 1.37479 3.83991 1.23573 3.97897C1.09668 4.11803 1.0178 4.30614 1.01609 4.50278C1.01438 4.69943 1.08998 4.88888 1.2266 5.03033L5.46935 9.27309C5.60999 9.41369 5.80072 9.49268 5.9996 9.49268C6.19847 9.49268 6.3892 9.41369 6.52985 9.27309L10.7726 5.03033C10.9132 4.88969 10.9922 4.69896 10.9922 4.50009C10.9922 4.30121 10.9132 4.11048 10.7726 3.96984Z" fill="#5EBC4D"/>
</svg>
