<svg width="17" height="16" viewBox="0 0 17 16" fill="none" xmlns="http://www.w3.org/2000/svg">
<path d="M14.8635 5.2932C14.6759 5.10572 14.4216 5.00041 14.1565 5.00041C13.8913 5.00041 13.637 5.10572 13.4495 5.2932L8.49946 10.2432L3.54946 5.29319C3.36086 5.11104 3.10826 5.01024 2.84606 5.01252C2.58387 5.0148 2.33305 5.11997 2.14764 5.30538C1.96224 5.49078 1.85707 5.7416 1.85479 6.00379C1.85251 6.26599 1.95331 6.51859 2.13546 6.70719L7.79246 12.3642C7.97999 12.5517 8.2343 12.657 8.49946 12.657C8.76463 12.657 9.01894 12.5517 9.20646 12.3642L14.8635 6.7072C15.0509 6.51967 15.1563 6.26536 15.1563 6.0002C15.1563 5.73503 15.0509 5.48072 14.8635 5.2932Z" fill="white"/>
</svg>
