<svg width="48" height="48" viewBox="0 0 48 48" fill="none" xmlns="http://www.w3.org/2000/svg">
<circle cx="24" cy="24" r="24" fill="white"/>
<path d="M11.6524 26.8544C11.6524 28.0185 11.9164 28.9123 12.2615 29.453C12.7139 30.1612 13.3886 30.4612 14.0765 30.4612C14.9638 30.4612 15.7755 30.248 17.3397 28.1542C18.593 26.4759 20.0696 24.1201 21.0631 22.6432L22.7458 20.1411C23.9146 18.4035 25.2674 16.4718 26.8186 15.1624C28.0847 14.0937 29.4507 13.5 30.8254 13.5C33.1335 13.5 35.332 14.7945 37.0147 17.2224C38.8561 19.8814 39.75 23.2306 39.75 26.6868C39.75 28.7415 39.3316 30.2512 38.6196 31.444C37.9316 32.5976 36.5908 33.75 34.3353 33.75V30.4612C36.2665 30.4612 36.7485 28.7437 36.7485 26.7781C36.7485 23.977 36.0737 20.8684 34.5873 18.6474C33.5323 17.0718 32.1653 16.1092 30.6613 16.1092C29.0346 16.1092 27.7255 17.2965 26.2543 19.4139C25.4723 20.5388 24.6693 21.9096 23.7678 23.4564L22.7753 25.1581C20.7816 28.5793 20.2766 29.3585 19.2798 30.6446C17.5325 32.8966 16.0407 33.75 14.0765 33.75C11.7466 33.75 10.2731 32.7735 9.36074 31.302C8.61582 30.1028 8.25 28.5295 8.25 26.7367L11.6524 26.8544Z" fill="#0081FB"/>
<path d="M10.9375 17.4545C12.4975 15.1275 14.7485 13.5 17.3304 13.5C18.8258 13.5 20.3122 13.9284 21.8644 15.155C23.5622 16.4961 25.3719 18.7045 27.6295 22.3443L28.4392 23.6504C30.3933 26.8014 31.5052 28.4223 32.1558 29.1869C32.9928 30.1686 33.5789 30.4612 34.3402 30.4612C36.2714 30.4612 36.7533 28.7437 36.7533 26.7781L39.7548 26.6868C39.7548 28.7415 39.3365 30.2512 38.6244 31.444C37.9364 32.5976 36.5956 33.75 34.3402 33.75C32.938 33.75 31.6959 33.4553 30.3222 32.201C29.2662 31.2384 28.0317 29.5282 27.0819 27.9909L24.2567 23.4235C22.8393 21.1314 21.539 19.4224 20.7865 18.6483C19.9771 17.8161 18.9364 16.811 17.2758 16.811C15.9317 16.811 14.7902 17.7239 13.835 19.1201L10.9375 17.4545Z" fill="url(#paint0_linear_2525_3456)"/>
<path d="M17.2708 16.811C15.9268 16.811 14.7853 17.7239 13.8301 19.1201C12.4795 21.0932 11.6524 24.0321 11.6524 26.8544C11.6524 28.0185 11.9164 28.9123 12.2615 29.453L9.36074 31.302C8.61582 30.1028 8.25 28.5295 8.25 26.7367C8.25 23.4765 9.17457 20.0786 10.9327 17.4545C12.4927 15.1275 14.7437 13.5 17.3256 13.5L17.2708 16.811Z" fill="url(#paint1_linear_2525_3456)"/>
<defs>
<linearGradient id="paint0_linear_2525_3456" x1="410.864" y1="1146.16" x2="2576.85" y2="1259.19" gradientUnits="userSpaceOnUse">
<stop stop-color="#0064E1"/>
<stop offset="0.4" stop-color="#0064E1"/>
<stop offset="0.83" stop-color="#0073EE"/>
<stop offset="1" stop-color="#0082FB"/>
</linearGradient>
<linearGradient id="paint1_linear_2525_3456" x1="501.189" y1="1487.18" x2="501.189" y2="713.242" gradientUnits="userSpaceOnUse">
<stop stop-color="#0082FB"/>
<stop offset="1" stop-color="#0064E0"/>
</linearGradient>
</defs>
</svg>
