<svg width="64" height="64" viewBox="0 0 64 64" fill="none" xmlns="http://www.w3.org/2000/svg">
<circle cx="32" cy="32" r="32" fill="white"/>
<path d="M15.5365 35.8059C15.5365 37.358 15.8886 38.5497 16.3486 39.2706C16.9519 40.2149 17.8514 40.6149 18.7687 40.6149C19.9517 40.6149 21.0341 40.3307 23.1196 37.5389C24.7906 35.3012 26.7595 32.1601 28.0842 30.191L30.3277 26.8548C31.8861 24.5379 33.6898 21.9624 35.7582 20.2165C37.4462 18.7916 39.2676 18 41.1005 18C44.178 18 47.1093 19.726 49.3529 22.9632C51.8081 26.5085 53 30.9741 53 35.5824C53 38.322 52.4422 40.335 51.4928 41.9254C50.5755 43.4634 48.7877 45 45.7804 45V40.6149C48.3554 40.6149 48.998 38.3249 48.998 35.7041C48.998 31.9694 48.0983 27.8245 46.1164 24.8631C44.7098 22.7624 42.887 21.4789 40.8817 21.4789C38.7128 21.4789 36.9673 23.062 35.0058 25.8853C33.963 27.385 32.8923 29.2128 31.6904 31.2752L30.3671 33.5441C27.7088 38.1057 27.0355 39.1447 25.7064 40.8594C23.3767 43.8621 21.3876 45 18.7687 45C15.6622 45 13.6975 43.6979 12.481 41.736C11.4878 40.1371 11 38.0394 11 35.649L15.5365 35.8059Z" fill="#0081FB"/>
<path d="M14.5781 23.2727C16.6581 20.17 19.6595 18 23.102 18C25.0958 18 27.0777 18.5712 29.1474 20.2067C31.4111 21.9948 33.824 24.9394 36.8342 29.7924L37.9137 31.5338C40.5192 35.7352 42.0017 37.8965 42.8692 38.9159C43.9852 40.2248 44.7666 40.6149 45.7817 40.6149C48.3566 40.6149 48.9993 38.3249 48.9993 35.7041L53.0012 35.5824C53.0012 38.322 52.4434 40.335 51.494 41.9254C50.5767 43.4634 48.7889 45 45.7817 45C43.9122 45 42.256 44.607 40.4244 42.9346C39.0164 41.6512 37.3703 39.371 36.1039 37.3212L32.3371 31.2313C30.4472 28.1751 28.7134 25.8965 27.7102 24.8644C26.631 23.7548 25.2433 22.4146 23.0291 22.4146C21.2371 22.4146 19.7151 23.6319 18.4415 25.4935L14.5781 23.2727Z" fill="url(#paint0_linear_2504_1521)"/>
<path d="M23.0277 22.4146C21.2357 22.4146 19.7137 23.6319 18.4401 25.4935C16.6393 28.1243 15.5365 32.0427 15.5365 35.8059C15.5365 37.358 15.8886 38.5497 16.3486 39.2706L12.481 41.736C11.4878 40.1371 11 38.0394 11 35.649C11 31.302 12.2328 26.7715 14.5769 23.2727C16.6569 20.17 19.6582 18 23.1008 18L23.0277 22.4146Z" fill="url(#paint1_linear_2504_1521)"/>
<defs>
<linearGradient id="paint0_linear_2504_1521" x1="547.814" y1="1528.22" x2="3435.79" y2="1678.92" gradientUnits="userSpaceOnUse">
<stop stop-color="#0064E1"/>
<stop offset="0.4" stop-color="#0064E1"/>
<stop offset="0.83" stop-color="#0073EE"/>
<stop offset="1" stop-color="#0082FB"/>
</linearGradient>
<linearGradient id="paint1_linear_2504_1521" x1="668.253" y1="1982.91" x2="668.253" y2="950.989" gradientUnits="userSpaceOnUse">
<stop stop-color="#0082FB"/>
<stop offset="1" stop-color="#0064E0"/>
</linearGradient>
</defs>
</svg>
