<svg width="13" height="10" viewBox="0 0 13 10" fill="none" xmlns="http://www.w3.org/2000/svg">
<path d="M10.456 0.454034C10.6673 0.252867 10.9485 0.141654 11.2402 0.143862C11.5319 0.146069 11.8114 0.261525 12.0196 0.465865C12.2279 0.670206 12.3486 0.94745 12.3563 1.23909C12.364 1.53074 12.2581 1.81397 12.061 2.02903L6.07597 9.51404C5.97306 9.62488 5.84885 9.71384 5.71077 9.77558C5.57269 9.83733 5.42358 9.8706 5.27235 9.8734C5.12112 9.8762 4.97087 9.84847 4.8306 9.79188C4.69033 9.73529 4.56292 9.651 4.45597 9.54403L0.486969 5.57503C0.376439 5.47204 0.287785 5.34784 0.226297 5.20984C0.16481 5.07184 0.131747 4.92287 0.129081 4.77182C0.126416 4.62076 0.154203 4.47072 0.210785 4.33064C0.267367 4.19056 0.351583 4.0633 0.458412 3.95648C0.56524 3.84965 0.69249 3.76543 0.832573 3.70885C0.972655 3.65227 1.1227 3.62448 1.27375 3.62715C1.42481 3.62981 1.57378 3.66287 1.71178 3.72436C1.84978 3.78585 1.97398 3.8745 2.07697 3.98503L5.21797 7.12453L10.4275 0.487034L10.456 0.454034Z" fill="url(#paint0_linear_2410_1038)"/>
<defs>
<linearGradient id="paint0_linear_2410_1038" x1="0.128906" y1="5.00871" x2="12.3567" y2="5.00871" gradientUnits="userSpaceOnUse">
<stop stop-color="#5EBC4D"/>
<stop offset="1" stop-color="#7FD01B"/>
</linearGradient>
</defs>
</svg>
