<svg width="24" height="24" viewBox="0 0 24 24" fill="none" xmlns="http://www.w3.org/2000/svg">
<path fill-rule="evenodd" clip-rule="evenodd" d="M0.743214 0.741261C1.20812 0.276351 1.96189 0.276351 2.4268 0.741261L12.0017 10.3161L21.5765 0.741261C22.0415 0.276351 22.7952 0.276351 23.2601 0.741261C23.725 1.20617 23.725 1.95994 23.2601 2.42485L13.6853 11.9997L23.2601 21.5746C23.725 22.0395 23.725 22.7933 23.2601 23.2582C22.7952 23.7231 22.0415 23.7231 21.5765 23.2582L12.0017 13.6833L2.4268 23.2582C1.96189 23.7231 1.20812 23.7231 0.743214 23.2582C0.278304 22.7933 0.278304 22.0395 0.743214 21.5746L10.3181 11.9997L0.743214 2.42485C0.278304 1.95994 0.278304 1.20617 0.743214 0.741261Z" fill="#9DA6B2"/>
</svg>
