<svg width="347" height="380" viewBox="0 0 347 380" fill="none" xmlns="http://www.w3.org/2000/svg">
<path d="M325.341 124.854C325.341 124.854 274.28 169.673 333.074 265.646C385.29 350.88 267.927 387.827 217.353 377.934C151.838 365.118 114.223 282.311 64.1214 308.549C14.0201 334.787 -35.6135 215.891 37.2635 172.141C127.919 117.717 69.7377 86.0909 77.8799 46.186C83.7238 17.5467 166.883 -26.7327 211.722 23.7766C249.455 66.2795 267.958 51.0738 285.204 45.3997C310.077 37.2162 364.369 79.7834 325.341 124.854Z" fill="#E8ECF3"/>
<path d="M180.77 175.36L164.041 243.979C163.42 246.524 163.307 249.166 163.707 251.755C164.107 254.343 165.014 256.827 166.375 259.066C167.735 261.304 169.524 263.252 171.638 264.799C173.752 266.345 176.15 267.461 178.695 268.08L261.895 288.364C264.034 311.852 283.472 313.588 291.141 314.393C291.217 314.397 291.291 314.376 291.354 314.334C291.416 314.291 291.463 314.229 291.486 314.157C291.51 314.085 291.508 314.007 291.483 313.936C291.458 313.865 291.409 313.804 291.346 313.763C285.839 310.406 284.195 301.203 283.827 293.711L290.004 295.216C292.549 295.838 295.191 295.951 297.779 295.551C300.368 295.15 302.852 294.244 305.09 292.883C307.329 291.522 309.277 289.734 310.823 287.62C312.37 285.506 313.485 283.108 314.105 280.563L330.834 211.944C331.455 209.399 331.568 206.757 331.168 204.169C330.768 201.58 329.861 199.096 328.5 196.858C327.14 194.619 325.351 192.671 323.237 191.125C321.124 189.578 318.726 188.463 316.181 187.843L204.871 160.707C202.327 160.086 199.684 159.972 197.096 160.372C194.507 160.773 192.023 161.679 189.785 163.04C187.547 164.401 185.598 166.189 184.052 168.303C182.505 170.417 181.39 172.815 180.77 175.36Z" fill="#292E37"/>
<path d="M318.781 209.211L272.258 197.869C271.951 197.795 271.643 197.983 271.568 198.289L269.181 208.079C269.106 208.385 269.294 208.694 269.601 208.769L316.124 220.111C316.431 220.186 316.74 219.998 316.814 219.691L319.201 209.901C319.276 209.595 319.088 209.286 318.781 209.211Z" fill="white"/>
<path d="M312.139 236.461L186.086 205.73C185.78 205.655 185.471 205.843 185.396 206.149L183.009 215.939C182.935 216.246 183.122 216.555 183.429 216.629L309.482 247.36C309.788 247.435 310.097 247.247 310.172 246.941L312.558 237.151C312.633 236.844 312.445 236.535 312.139 236.461Z" fill="white" fill-opacity="0.6"/>
<path d="M305.494 263.71L179.441 232.979C179.135 232.904 178.826 233.092 178.751 233.399L176.365 243.189C176.29 243.495 176.478 243.804 176.784 243.879L302.837 274.609C303.143 274.684 303.452 274.496 303.527 274.19L305.914 264.4C305.988 264.093 305.8 263.784 305.494 263.71Z" fill="white" fill-opacity="0.6"/>
<path d="M227.614 93.0456L254.97 180.894C255.985 184.152 256.349 187.577 256.04 190.976C255.731 194.374 254.755 197.678 253.169 200.699C251.583 203.72 249.416 206.399 246.794 208.583C244.172 210.766 241.146 212.412 237.888 213.425L131.374 246.593C130.512 277.305 105.382 281.151 95.4768 282.823C95.3785 282.836 95.2787 282.816 95.1933 282.766C95.1078 282.715 95.0415 282.638 95.005 282.546C94.9685 282.454 94.9638 282.352 94.9917 282.257C95.0197 282.162 95.0785 282.079 95.1591 282.021C102.044 277.206 103.43 265.108 103.296 255.336L95.3875 257.798C92.13 258.814 88.7043 259.177 85.3063 258.868C81.9082 258.559 78.6044 257.584 75.5835 255.997C72.5625 254.411 69.8838 252.245 67.7001 249.623C65.5165 247.002 63.8708 243.975 62.857 240.717L35.501 152.869C34.4856 149.611 34.1219 146.186 34.4309 142.787C34.7399 139.389 35.7154 136.085 37.3017 133.064C38.888 130.043 41.0541 127.364 43.676 125.18C46.298 122.996 49.3245 121.351 52.5827 120.337L195.082 75.9639C198.339 74.9485 201.765 74.5848 205.163 74.8938C208.562 75.2028 211.866 76.1783 214.887 77.7646C217.908 79.3509 220.587 81.5169 222.771 84.1389C224.954 86.7609 226.6 89.7874 227.614 93.0456Z" fill="url(#paint0_linear_2407_1026)"/>
<path d="M126.975 124.509L50.6664 148.24C50.3652 148.334 50.197 148.654 50.2907 148.955L54.2921 161.822C54.3857 162.123 54.7058 162.291 55.007 162.198L131.315 138.466C131.617 138.372 131.785 138.052 131.691 137.751L127.69 124.885C127.596 124.584 127.276 124.415 126.975 124.509Z" fill="white"/>
<path d="M223.272 132.664L61.5686 183.019C61.2675 183.113 61.0994 183.433 61.1932 183.734L65.199 196.598C65.2928 196.899 65.6129 197.067 65.9139 196.973L227.618 146.617C227.919 146.524 228.087 146.204 227.993 145.902L223.987 133.039C223.894 132.738 223.573 132.57 223.272 132.664Z" fill="white" fill-opacity="0.5"/>
<path d="M234.119 167.727L72.3773 218.028C72.0762 218.122 71.908 218.442 72.0016 218.743L76.003 231.609C76.0967 231.91 76.4168 232.079 76.7179 231.985L238.46 181.684C238.761 181.591 238.929 181.271 238.835 180.969L234.834 168.103C234.74 167.802 234.42 167.634 234.119 167.727Z" fill="white" fill-opacity="0.5"/>
<defs>
<linearGradient id="paint0_linear_2407_1026" x1="34.3242" y1="178.807" x2="256.146" y2="178.807" gradientUnits="userSpaceOnUse">
<stop stop-color="#5EBC4D"/>
<stop offset="1" stop-color="#7FD01B"/>
</linearGradient>
</defs>
</svg>
