<svg width="26" height="26" viewBox="0 0 26 26" fill="none" xmlns="http://www.w3.org/2000/svg">
<path d="M7.75 0.498535H18.25C22.25 0.498535 25.5 3.74853 25.5 7.74853V18.2485C25.5 20.1714 24.7362 22.0154 23.3765 23.3751C22.0169 24.7347 20.1728 25.4985 18.25 25.4985H7.75C3.75 25.4985 0.5 22.2485 0.5 18.2485V7.74853C0.5 5.82572 1.26384 3.98165 2.62348 2.62201C3.98311 1.26237 5.82718 0.498535 7.75 0.498535ZM7.5 2.99853C6.30653 2.99853 5.16193 3.47264 4.31802 4.31655C3.47411 5.16047 3 6.30506 3 7.49853V18.4985C3 20.986 5.0125 22.9985 7.5 22.9985H18.5C19.6935 22.9985 20.8381 22.5244 21.682 21.6805C22.5259 20.8366 23 19.692 23 18.4985V7.49853C23 5.01103 20.9875 2.99853 18.5 2.99853H7.5ZM19.5625 4.87353C19.9769 4.87353 20.3743 5.03815 20.6674 5.33118C20.9604 5.62421 21.125 6.02163 21.125 6.43603C21.125 6.85044 20.9604 7.24786 20.6674 7.54089C20.3743 7.83391 19.9769 7.99853 19.5625 7.99853C19.1481 7.99853 18.7507 7.83391 18.4576 7.54089C18.1646 7.24786 18 6.85044 18 6.43603C18 6.02163 18.1646 5.62421 18.4576 5.33118C18.7507 5.03815 19.1481 4.87353 19.5625 4.87353ZM13 6.74853C14.6576 6.74853 16.2473 7.40701 17.4194 8.57912C18.5915 9.75122 19.25 11.3409 19.25 12.9985C19.25 14.6561 18.5915 16.2458 17.4194 17.418C16.2473 18.5901 14.6576 19.2485 13 19.2485C11.3424 19.2485 9.75268 18.5901 8.58058 17.418C7.40848 16.2458 6.75 14.6561 6.75 12.9985C6.75 11.3409 7.40848 9.75122 8.58058 8.57912C9.75268 7.40701 11.3424 6.74853 13 6.74853ZM13 9.24853C12.0054 9.24853 11.0516 9.64362 10.3483 10.3469C9.64509 11.0501 9.25 12.004 9.25 12.9985C9.25 13.9931 9.64509 14.9469 10.3483 15.6502C11.0516 16.3534 12.0054 16.7485 13 16.7485C13.9946 16.7485 14.9484 16.3534 15.6516 15.6502C16.3549 14.9469 16.75 13.9931 16.75 12.9985C16.75 12.004 16.3549 11.0501 15.6516 10.3469C14.9484 9.64362 13.9946 9.24853 13 9.24853Z" fill="#9EABC3"/>
</svg>
