<svg width="23" height="21" viewBox="0 0 23 21" fill="none" xmlns="http://www.w3.org/2000/svg">
<path d="M21.4282 0.941672L0.598866 9.002C0.586473 9.00678 0.57446 9.01249 0.562928 9.01907C0.394022 9.11476 -0.784728 9.83575 0.877381 10.4822L0.894452 10.4885L5.85428 12.0908C5.89212 12.1031 5.93219 12.107 5.97168 12.1022C6.01118 12.0974 6.04914 12.084 6.08293 12.063L18.3848 4.38763C18.4149 4.3688 18.4485 4.35613 18.4836 4.35034C18.6548 4.32204 19.1476 4.26903 18.8358 4.6648C18.4832 5.11402 10.0805 12.6438 9.14795 13.4789C9.09417 13.5272 9.0609 13.5942 9.05496 13.6662L8.64797 18.5178C8.64791 18.5672 8.65938 18.616 8.68144 18.6602C8.70351 18.7044 8.73558 18.7428 8.7751 18.7725C8.83117 18.8078 8.89712 18.8242 8.9632 18.8192C9.02928 18.8142 9.092 18.788 9.14211 18.7447L12.089 16.1109C12.1355 16.0693 12.1949 16.0449 12.2573 16.0417C12.3196 16.0385 12.3812 16.0567 12.4317 16.0934L17.573 19.8264L17.5897 19.8376C17.7141 19.9144 19.0582 20.6965 19.4463 18.95L22.9951 2.07505C23.0001 2.02159 23.0481 1.43402 22.6281 1.08677C22.187 0.7238 21.5626 0.907082 21.4687 0.926847C21.4548 0.930702 21.4413 0.93566 21.4282 0.941672Z" fill="#009EEB"/>
</svg>
