<svg width="30" height="30" viewBox="0 0 30 30" fill="none" xmlns="http://www.w3.org/2000/svg">
<g clip-path="url(#clip0_2410_1327)">
<path fill-rule="evenodd" clip-rule="evenodd" d="M10.808 7.61783C10.5171 6.92127 10.2966 6.89478 9.85594 6.87697C9.70594 6.8683 9.53883 6.85963 9.35344 6.85963C8.78016 6.85963 8.18086 7.02721 7.81922 7.39752C7.37859 7.84729 6.28523 8.89658 6.28523 11.0481C6.28523 13.1999 7.85438 15.281 8.06602 15.5723C8.28656 15.8629 11.1253 20.3428 15.5332 22.1685C18.9802 23.5971 20.003 23.4646 20.7874 23.2973C21.9335 23.0505 23.3705 22.2035 23.7321 21.1809C24.0935 20.1578 24.0935 19.2848 23.9876 19.0996C23.8819 18.9145 23.5908 18.809 23.1502 18.5882C22.7095 18.3677 20.5671 17.3095 20.1616 17.1684C19.7648 17.0186 19.3859 17.0716 19.0863 17.4949C18.663 18.0857 18.2489 18.6855 17.9137 19.0469C17.6494 19.3291 17.2172 19.3645 16.8558 19.2145C16.3709 19.012 15.0134 18.5353 13.3383 17.0451C12.0422 15.8901 11.1607 14.4529 10.9052 14.0207C10.6495 13.5799 10.8787 13.3239 11.0815 13.086C11.302 12.8125 11.5134 12.6187 11.7337 12.3628C11.9543 12.1071 12.0776 11.9749 12.2187 11.6749C12.3687 11.384 12.2627 11.084 12.157 10.8635C12.0511 10.6424 11.1696 8.49064 10.808 7.61783ZM14.9955 -0.00146484C6.72633 -0.00146484 0 6.72674 0 14.9983C0 18.2786 1.05797 21.321 2.85633 23.7902L0.987188 29.3634L6.75281 27.5207C9.12422 29.0903 11.9541 29.9985 15.0045 29.9985C23.2737 29.9985 30 23.2699 30 14.9988C30 6.72721 23.2737 -0.000996094 15.0045 -0.000996094H14.9958L14.9955 -0.00146484Z" fill="#67C15E"/>
</g>
<defs>
<clipPath id="clip0_2410_1327">
<rect width="30" height="30" fill="white" transform="translate(0 -0.00146484)"/>
</clipPath>
</defs>
</svg>
