<svg width="210" height="59" viewBox="0 0 210 59" fill="none" xmlns="http://www.w3.org/2000/svg">
<path d="M4.04335 52.0986C5.07436 52.0986 5.86744 52.4158 6.42259 52.971C6.97775 53.5262 7.29498 54.3985 7.29498 55.4295C7.29498 56.5399 6.97775 57.3329 6.42259 57.9674C5.86744 58.6019 5.07436 58.8398 4.04335 58.8398H1.26758V52.0986H4.04335ZM3.01235 57.4916H3.80543C4.91574 57.4916 5.5502 56.7778 5.5502 55.4295C5.5502 54.7951 5.39159 54.3192 5.07436 54.002C4.75713 53.6848 4.36058 53.5262 3.80543 53.5262H3.01235V57.4916Z" fill="#45AC34"/>
<path d="M11.0234 58.8398V52.0986H12.7682V58.8398H11.0234Z" fill="#45AC34"/>
<path d="M22.8427 55.9844C22.8427 56.9361 22.6048 57.6498 22.0496 58.1257C21.4944 58.6808 20.7807 58.9187 19.829 58.9187C18.798 58.9187 18.0049 58.6015 17.3704 57.9671C16.8153 57.3326 16.498 56.4602 16.498 55.3499C16.498 54.2396 16.8153 53.3672 17.3704 52.8121C17.9256 52.1776 18.7187 51.8604 19.7497 51.8604C20.5428 51.8604 21.2565 52.0983 21.8117 52.4948C22.3668 52.9707 22.6841 53.5258 22.7634 54.1603H21.0979C21.0186 53.843 20.86 53.6051 20.6221 53.4465C20.3841 53.2879 20.0669 53.2086 19.7497 53.2086C19.2738 53.2086 18.8773 53.3672 18.6394 53.7637C18.4014 54.1603 18.2428 54.6361 18.2428 55.2706C18.2428 55.9051 18.4014 56.4602 18.7187 56.8568C19.0359 57.2533 19.4324 57.4119 19.9083 57.4119C20.3048 57.4119 20.6221 57.3326 20.86 57.0947C21.0979 56.8568 21.2565 56.6188 21.2565 56.3016V56.2223H19.9876V55.0327H22.8427V55.9844Z" fill="#45AC34"/>
<path d="M26.5645 58.8398V52.0986H28.3092V58.8398H26.5645Z" fill="#45AC34"/>
<path d="M33.7823 58.8398V53.4469H31.8789V52.0986H37.3511V53.4469H35.4478V58.8398H33.7823Z" fill="#45AC34"/>
<path d="M44.0944 57.4135H41.8737L41.4772 58.9204H39.7324L42.0323 52.1792H44.0944L46.3943 58.9204H44.5702L44.0944 57.4135ZM42.2703 56.1446H43.7771L43.0634 53.5274L42.2703 56.1446Z" fill="#45AC34"/>
<path d="M54.4014 58.8398H49.8809V52.0986H51.6256V57.4916H54.4014V58.8398Z" fill="#45AC34"/>
<path d="M70.3452 58.8398H68.8383V54.6365L67.1728 58.7605H66.2211L64.5557 54.6365V58.8398H63.0488V52.0986H65.0315L66.697 56.4606L68.3625 52.0986H70.3452V58.8398Z" fill="#45AC34"/>
<path d="M78.2772 57.4135H76.0566L75.66 58.9204H73.8359L76.1359 52.1792H78.1979L80.4978 58.9204H78.6737L78.2772 57.4135ZM76.3738 56.1446H77.8806L77.1669 53.5274L76.3738 56.1446Z" fill="#45AC34"/>
<path d="M85.7292 58.8398H83.9844V52.0986H86.9188C87.7912 52.0986 88.4256 52.2572 88.8222 52.6538C89.298 53.0503 89.4566 53.6055 89.4566 54.3192C89.4566 54.7158 89.3773 55.1123 89.1394 55.4295C88.9015 55.7468 88.6636 56.064 88.267 56.2226L89.6152 58.8398H87.7119L86.5222 56.4606H85.7292V58.8398ZM85.7292 55.3502H86.7602C87.0774 55.3502 87.3153 55.2709 87.4739 55.1123C87.6326 54.9537 87.7119 54.7158 87.7119 54.3986C87.7119 54.0813 87.6326 53.8434 87.4739 53.6848C87.3153 53.5262 87.0774 53.4469 86.7602 53.4469H85.7292V55.3502Z" fill="#45AC34"/>
<path d="M93.2676 58.8398V52.0986H95.0124V55.033L97.3123 52.0986H99.1364L96.7571 55.1123L99.2157 58.8398H97.233L95.4882 56.2226L94.933 56.9364V58.8398H93.2676Z" fill="#45AC34"/>
<path d="M107.383 58.8398H102.783V52.0986H107.383V53.4469H104.449V54.7951H107.145V56.064H104.449V57.4122H107.383V58.8398Z" fill="#45AC34"/>
<path d="M112.776 58.8398V53.4469H110.873V52.0986H116.345V53.4469H114.442V58.8398H112.776Z" fill="#45AC34"/>
<path d="M119.994 58.8398V52.0986H121.739V58.8398H119.994Z" fill="#45AC34"/>
<path d="M125.623 58.8398V52.0986H126.971L129.826 55.9847V52.0986H131.492V58.8398H130.144L127.289 54.8744V58.8398H125.623Z" fill="#45AC34"/>
<path d="M141.64 55.9844C141.64 56.9361 141.402 57.6498 140.846 58.1257C140.291 58.6808 139.578 58.9187 138.626 58.9187C137.595 58.9187 136.802 58.6015 136.167 57.9671C135.612 57.3326 135.295 56.4602 135.295 55.3499C135.295 54.2396 135.612 53.3672 136.167 52.8121C136.722 52.1776 137.516 51.8604 138.547 51.8604C139.34 51.8604 140.053 52.0983 140.609 52.4948C141.164 52.9707 141.481 53.5258 141.56 54.1603H139.895C139.815 53.843 139.657 53.6051 139.419 53.4465C139.181 53.2879 138.864 53.2086 138.547 53.2086C138.071 53.2086 137.674 53.3672 137.436 53.7637C137.198 54.1603 137.04 54.6361 137.04 55.2706C137.04 55.9051 137.198 56.4602 137.516 56.8568C137.833 57.2533 138.229 57.4119 138.705 57.4119C139.102 57.4119 139.419 57.3326 139.657 57.0947C139.895 56.8568 140.053 56.6188 140.053 56.3016V56.2223H138.784V55.0327H141.64V55.9844Z" fill="#45AC34"/>
<path d="M154.255 57.4135H152.034L151.637 58.9204H149.893L152.193 52.1792H154.255L156.554 58.9204H154.73L154.255 57.4135ZM152.351 56.1446H153.858L153.144 53.5274L152.351 56.1446Z" fill="#45AC34"/>
<path d="M165.831 55.9844C165.831 56.9361 165.593 57.6498 165.038 58.1257C164.483 58.6808 163.769 58.9187 162.817 58.9187C161.786 58.9187 160.993 58.6015 160.359 57.9671C159.804 57.3326 159.486 56.4602 159.486 55.3499C159.486 54.2396 159.804 53.3672 160.359 52.8121C160.914 52.1776 161.707 51.8604 162.738 51.8604C163.531 51.8604 164.245 52.0983 164.8 52.4948C165.355 52.9707 165.672 53.5258 165.752 54.1603H164.086C164.007 53.843 163.848 53.6051 163.61 53.4465C163.372 53.2879 163.055 53.2086 162.738 53.2086C162.262 53.2086 161.866 53.3672 161.628 53.7637C161.39 54.1603 161.231 54.6361 161.231 55.2706C161.231 55.9051 161.39 56.4602 161.707 56.8568C162.024 57.2533 162.421 57.4119 162.897 57.4119C163.293 57.4119 163.61 57.3326 163.848 57.0947C164.086 56.8568 164.245 56.6188 164.245 56.3016V56.2223H162.976V55.0327H165.831V55.9844Z" fill="#45AC34"/>
<path d="M174.16 58.8398H169.561V52.0986H174.16V53.4469H171.226V54.7951H173.922V56.064H171.226V57.4122H174.16V58.8398Z" fill="#45AC34"/>
<path d="M178.045 58.8398V52.0986H179.393L182.248 55.9847V52.0986H183.914V58.8398H182.565L179.71 54.8744V58.8398H178.045Z" fill="#45AC34"/>
<path d="M188.593 58.0469C188.038 57.4125 187.721 56.5401 187.721 55.5091C187.721 54.3988 188.038 53.5264 188.593 52.9712C189.148 52.3367 189.941 52.0195 190.972 52.0195C191.845 52.0195 192.558 52.2575 193.114 52.7333C193.669 53.2091 193.986 53.9229 193.986 54.716H192.321C192.241 54.3195 192.162 54.0022 191.845 53.7643C191.607 53.5264 191.29 53.3678 190.893 53.3678C190.417 53.3678 190.021 53.5264 189.783 53.9229C189.545 54.3195 189.386 54.7953 189.386 55.5091C189.386 56.1435 189.545 56.6987 189.783 57.0952C190.021 57.4918 190.417 57.6504 190.893 57.6504C191.29 57.6504 191.607 57.5711 191.845 57.3331C192.083 57.0952 192.241 56.778 192.321 56.3815H193.986C193.907 57.1745 193.669 57.809 193.114 58.2849C192.558 58.7607 191.845 58.9986 190.972 58.9986C189.941 58.9986 189.148 58.6814 188.593 58.0469Z" fill="#45AC34"/>
<path d="M199.3 58.8398V56.5399L197 52.0986H198.824L200.172 54.8744L201.521 52.0986H203.345L201.045 56.5399V58.8398H199.3Z" fill="#45AC34"/>
<path fill-rule="evenodd" clip-rule="evenodd" d="M146.008 2.21387V9.90673H163.059H166.231H167.342L171.386 2.21387H163.059H146.008Z" fill="white"/>
<path fill-rule="evenodd" clip-rule="evenodd" d="M146.008 42.0258H153.78V26.0056H163.456V18.2334H146.008V42.0258Z" fill="white"/>
<path fill-rule="evenodd" clip-rule="evenodd" d="M31.4059 2.21387H21.3338L7.77218 19.0271V2.21387H0V30.5268V42.0264H0.951704H7.77218V37.4266V30.5268V21.4064L11.2617 25.7683L23.7924 42.0264H33.5472L16.8133 20.2168L31.4059 2.21387Z" fill="white"/>
<path fill-rule="evenodd" clip-rule="evenodd" d="M201.284 2.21387H181.299V9.90673H191.688V42.0264H199.381V9.90673H201.284H208.026H209.77V7.28957V2.21387H201.284Z" fill="white"/>
<path fill-rule="evenodd" clip-rule="evenodd" d="M68.3652 30.9233L65.7481 27.6717C70.9031 25.8476 74.472 20.8512 74.472 15.2997C74.472 8.08264 68.6032 2.21387 61.3862 2.21387H45.8418L50.9968 9.98604H61.3862C64.3205 9.98604 66.7791 12.4446 66.7791 15.379C66.7791 18.3134 64.3205 20.7719 61.3862 20.7719H59.4828H53.614H50.9968H49.8865H45.8418V26.0855V42.0264H53.614V32.0336V28.3855H56.3104L67.4929 42.0264H77.4063L68.3652 30.9233Z" fill="white"/>
<path fill-rule="evenodd" clip-rule="evenodd" d="M109.919 0.786133L87.9512 42.0262H96.675L109.919 17.0443L123.243 42.0262H131.888L109.919 0.786133Z" fill="white"/>
<path fill-rule="evenodd" clip-rule="evenodd" d="M118.883 42.0265L109.922 25.2925L101.039 42.0265L109.922 39.1714L118.883 42.0265Z" fill="#45AC34"/>
</svg>
