<svg width="22" height="18" viewBox="0 0 22 18" fill="none" xmlns="http://www.w3.org/2000/svg">
<path d="M11.0013 -0.00494385C11.9276 -0.00494385 12.8776 0.0188896 13.7985 0.0578896L14.8861 0.109889L15.9272 0.17164L16.9022 0.237723L17.7927 0.307056C18.7593 0.380605 19.6688 0.79286 20.3613 1.47121C21.0537 2.14956 21.4845 3.05048 21.5779 4.01531L21.6212 4.47572L21.7025 5.46156C21.7783 6.48314 21.8346 7.59681 21.8346 8.66172C21.8346 9.72664 21.7783 10.8403 21.7025 11.8619L21.6212 12.8477L21.5779 13.3081C21.4845 14.2731 21.0535 15.1742 20.3608 15.8526C19.6682 16.5309 18.7584 16.9431 17.7916 17.0164L16.9033 17.0846L15.9283 17.1518L14.8861 17.2136L13.7985 17.2656C12.8666 17.3059 11.934 17.3269 11.0013 17.3284C10.0686 17.3269 9.13599 17.3059 8.20414 17.2656L7.11647 17.2136L6.07539 17.1518L5.10039 17.0846L4.20989 17.0164C3.24335 16.9428 2.33377 16.5306 1.64135 15.8522C0.948931 15.1739 0.518092 14.273 0.424719 13.3081L0.381385 12.8477L0.300135 11.8619C0.217621 10.7971 0.173537 9.72969 0.167969 8.66172C0.167969 7.59681 0.224302 6.48314 0.300135 5.46156L0.381385 4.47572L0.424719 4.01531C0.518056 3.05066 0.94874 2.14986 1.64094 1.47154C2.33313 0.793211 3.24246 0.380849 4.2088 0.307056L5.09822 0.237723L6.07322 0.17164L7.11539 0.109889L8.20305 0.0578896C9.13526 0.0175106 10.0682 -0.00343847 11.0013 -0.00494385ZM11.0013 2.16172C10.1076 2.16172 9.1878 2.18556 8.29297 2.22239L7.23347 2.27331L6.21622 2.33289L5.26072 2.39789L4.38539 2.46614C3.92518 2.49836 3.4913 2.69269 3.16085 3.01461C2.8304 3.33653 2.62479 3.76518 2.58055 4.22439C2.4538 5.53414 2.33464 7.16456 2.33464 8.66172C2.33464 10.1589 2.4538 11.7893 2.58055 13.0991C2.67264 14.0437 3.4223 14.7782 4.38539 14.8573L5.26072 14.9245L6.21622 14.9895L7.23347 15.0501L8.29297 15.1011C9.1878 15.1379 10.1076 15.1617 11.0013 15.1617C11.8951 15.1617 12.8148 15.1379 13.7096 15.1011L14.7691 15.0501L15.7864 14.9906L16.7419 14.9256L17.6172 14.8573C18.0774 14.8251 18.5113 14.6308 18.8418 14.3088C19.1722 13.9869 19.3778 13.5583 19.4221 13.0991C19.5488 11.7893 19.668 10.1589 19.668 8.66172C19.668 7.16456 19.5488 5.53414 19.4221 4.22439C19.3778 3.76518 19.1722 3.33653 18.8418 3.01461C18.5113 2.69269 18.0774 2.49836 17.6172 2.46614L16.7419 2.39897L15.7864 2.33397L14.7691 2.27331L13.7096 2.22239C12.8074 2.18366 11.9044 2.16344 11.0013 2.16172ZM8.83464 6.03464C8.83457 5.92876 8.86036 5.82446 8.90978 5.73082C8.9592 5.63718 9.03075 5.55703 9.1182 5.49734C9.20566 5.43765 9.30637 5.40023 9.41158 5.38833C9.51679 5.37643 9.62331 5.39041 9.72189 5.42906L9.80964 5.47239L14.3596 8.09839C14.4502 8.15067 14.5269 8.22404 14.5831 8.31228C14.6393 8.40052 14.6733 8.50101 14.6824 8.60522C14.6914 8.70944 14.6751 8.8143 14.635 8.91089C14.5948 9.00748 14.532 9.09296 14.4517 9.16006L14.3596 9.22506L9.80964 11.8521C9.71795 11.9052 9.61467 11.9351 9.50879 11.9392C9.40291 11.9432 9.29765 11.9213 9.20216 11.8754C9.10668 11.8295 9.02387 11.7609 8.96095 11.6757C8.89802 11.5904 8.85689 11.4911 8.84114 11.3863L8.83464 11.2888V6.03464Z" fill="#9EABC3"/>
</svg>
