<svg width="18" height="18" viewBox="0 0 18 18" fill="none" xmlns="http://www.w3.org/2000/svg">
<path d="M9.80597 2.62733C12.721 2.99399 15.0035 5.27649 15.3701 8.19149C15.4251 8.65899 15.8193 8.99816 16.2776 8.99816C16.3143 8.99816 16.351 8.99816 16.3876 8.98899C16.8918 8.92483 17.2493 8.46649 17.1851 7.96233C16.96 6.14196 16.1334 4.44893 14.8364 3.15193C13.5394 1.85493 11.8463 1.02827 10.026 0.80316C9.5218 0.74816 9.06347 1.10566 9.00847 1.60983C8.9443 2.11399 9.3018 2.57233 9.80597 2.62733ZM10.1543 4.56149C9.66847 4.43316 9.1643 4.72649 9.03597 5.22149C8.90764 5.71649 9.20097 6.21149 9.69597 6.33983C10.1703 6.46295 10.6031 6.71057 10.9496 7.05707C11.2961 7.40356 11.5437 7.83636 11.6668 8.31066C11.7279 8.54631 11.8799 8.74813 12.0895 8.87185C12.2992 8.99557 12.5493 9.03111 12.7851 8.97066C13.271 8.84233 13.5643 8.33816 13.4451 7.85233C13.2386 7.06081 12.8248 6.33865 12.2464 5.76022C11.668 5.1818 10.9458 4.76801 10.1543 4.56149ZM15.6268 11.9865L13.2985 11.7207C13.0247 11.6885 12.7472 11.7188 12.4868 11.8093C12.2264 11.8998 11.99 12.0481 11.7951 12.2432L10.1085 13.9298C7.50641 12.6061 5.39136 10.491 4.06764 7.88899L5.76347 6.19316C6.15764 5.79899 6.35014 5.24899 6.28597 4.68983L6.02014 2.37983C5.96836 1.93257 5.75381 1.52001 5.41739 1.22079C5.08098 0.92156 4.64621 0.756591 4.19597 0.757327H2.61014C1.5743 0.757327 0.712638 1.61899 0.776805 2.65483C1.26264 10.4832 7.52347 16.7348 15.3426 17.2207C16.3785 17.2848 17.2401 16.4232 17.2401 15.3873V13.8015C17.2493 12.8757 16.5526 12.0965 15.6268 11.9865Z" fill="url(#paint0_linear_2410_1341)"/>
<defs>
<linearGradient id="paint0_linear_2410_1341" x1="0.773438" y1="8.99067" x2="17.2402" y2="8.99067" gradientUnits="userSpaceOnUse">
<stop stop-color="#5FBD4C"/>
<stop offset="1" stop-color="#7ECF1D"/>
</linearGradient>
</defs>
</svg>
