<svg width="20" height="20" viewBox="0 0 20 20" fill="none" xmlns="http://www.w3.org/2000/svg">
<path fill-rule="evenodd" clip-rule="evenodd" d="M10.6367 5.99353V8.11479C11.0809 7.43813 11.6932 6.88841 12.4137 6.51942C13.1341 6.15043 13.938 5.97483 14.7467 6.00979C19.0655 6.00979 19.9992 8.70979 19.9992 12.2223V19.3735H15.9992V13.0335C15.9992 11.521 15.6942 9.57603 13.3392 9.57603C11.0555 9.57603 10.6655 11.2223 10.6655 12.921V19.3735H6.67798V5.99353H10.6367ZM3.99923 2.63104C3.99874 3.02729 3.88128 3.41458 3.66158 3.74435C3.44188 4.07412 3.12972 4.3317 2.76423 4.48479C2.39889 4.63664 1.99663 4.67636 1.60865 4.5989C1.22066 4.52143 0.864496 4.33029 0.585478 4.04979C0.305935 3.76911 0.115621 3.41204 0.038468 3.02349C-0.038685 2.63494 0.000768378 2.23226 0.151866 1.86607C0.302963 1.49988 0.558959 1.18654 0.887661 0.965459C1.21636 0.744374 1.6031 0.625413 1.99923 0.623535C2.2625 0.623533 2.52319 0.675512 2.76633 0.77649C3.00947 0.877468 3.23028 1.02546 3.4161 1.21197C3.60192 1.39848 3.74908 1.61985 3.84915 1.86336C3.94921 2.10688 4.00022 2.36776 3.99923 2.63104Z" fill="#9EABC3"/>
<path d="M4 6.01025H0V19.374H4V6.01025Z" fill="#9EABC3"/>
</svg>
