<svg width="28" height="28" viewBox="0 0 28 28" fill="none" xmlns="http://www.w3.org/2000/svg">
<path d="M26.0866 2.39784L0.729054 12.2104C0.713967 12.2162 0.699342 12.2232 0.685304 12.2312C0.479679 12.3477 -0.955321 13.2254 1.06812 14.0124L1.0889 14.02L7.12694 15.9707C7.17301 15.9857 7.22179 15.9904 7.26987 15.9846C7.31795 15.9787 7.36418 15.9624 7.4053 15.9368L22.3815 6.59291C22.4182 6.57 22.4591 6.55457 22.5018 6.54752C22.7101 6.51307 23.3101 6.44854 22.9305 6.93034C22.5012 7.47721 12.2719 16.6439 11.1366 17.6606C11.0712 17.7193 11.0307 17.8009 11.0234 17.8886L10.528 23.7949C10.5279 23.855 10.5419 23.9144 10.5687 23.9682C10.5956 24.022 10.6346 24.0688 10.6827 24.1049C10.751 24.1479 10.8313 24.1679 10.9117 24.1618C10.9922 24.1556 11.0685 24.1238 11.1295 24.071L14.717 20.8647C14.7737 20.8141 14.846 20.7844 14.9219 20.7805C14.9978 20.7766 15.0727 20.7988 15.1343 20.8434L21.3933 25.3879L21.4135 25.4016C21.565 25.4951 23.2012 26.4472 23.6737 24.321L27.9941 3.7776C28.0001 3.71252 28.0586 2.99721 27.5473 2.57448C27.0102 2.1326 26.2501 2.35573 26.1358 2.37979C26.1189 2.38448 26.1024 2.39052 26.0866 2.39784Z" fill="#009EEB"/>
</svg>
