<svg width="36" height="36" viewBox="0 0 36 36" fill="none" xmlns="http://www.w3.org/2000/svg">
<path fill-rule="evenodd" clip-rule="evenodd" d="M25.0126 3.94109C20.2934 2.88617 15.3994 2.88617 10.6801 3.94109L10.1716 4.05359C8.84379 4.34959 7.62416 5.00831 6.64852 5.9564C5.67288 6.9045 4.97952 8.10477 4.64562 9.42359C3.45146 14.1376 3.45146 19.075 4.64562 23.7891C4.96408 25.0468 5.60979 26.1978 6.51714 27.1252C7.42448 28.0526 8.56114 28.7233 9.81162 29.0691L10.5091 33.2331C10.5314 33.3653 10.5887 33.4891 10.6751 33.5917C10.7615 33.6943 10.8737 33.7718 11.0003 33.8162C11.1268 33.8606 11.2629 33.8703 11.3944 33.8443C11.5259 33.8182 11.6481 33.7574 11.7481 33.6681L15.8446 30.0036C18.9197 30.1892 22.0057 29.9433 25.0126 29.2731L25.5226 29.1606C26.8505 28.8646 28.0701 28.2059 29.0457 27.2578C30.0214 26.3097 30.7147 25.1094 31.0486 23.7906C32.2428 19.0765 32.2428 14.1391 31.0486 9.42509C30.7146 8.10608 30.021 6.90568 29.0451 5.95756C28.0692 5.00945 26.8492 4.35084 25.5211 4.05509L25.0126 3.94109ZM11.9461 9.30209C11.6673 9.26127 11.383 9.3174 11.1406 9.46109H11.1196C10.5571 9.79109 10.0501 10.2066 9.61812 10.6956C9.25812 11.1111 9.06312 11.5311 9.01212 11.9361C8.98212 12.1761 9.00312 12.4191 9.07362 12.6486L9.10062 12.6636C9.50562 13.8531 10.0336 14.9976 10.6786 16.0746C11.5107 17.5871 12.5341 18.9861 13.7236 20.2371L13.7596 20.2881L13.8166 20.3301L13.8511 20.3706L13.8931 20.4066C15.1486 21.5996 16.5509 22.6279 18.0661 23.4666C19.7986 24.4101 20.8501 24.8556 21.4816 25.0416V25.0506C21.6661 25.1076 21.8341 25.1331 22.0036 25.1331C22.5417 25.0945 23.0511 24.8757 23.4496 24.5121C23.9371 24.0801 24.3496 23.5716 24.6706 23.0061V22.9956C24.9721 22.4256 24.8701 21.8886 24.4351 21.5241C23.5621 20.7597 22.6172 20.0816 21.6136 19.4991C20.9416 19.1346 20.2591 19.3551 19.9831 19.7241L19.3936 20.4681C19.0906 20.8371 18.5416 20.7861 18.5416 20.7861L18.5266 20.7951C14.4301 19.7496 13.3366 15.6021 13.3366 15.6021C13.3366 15.6021 13.2856 15.0381 13.6651 14.7501L14.4031 14.1561C14.7571 13.8681 15.0031 13.1871 14.6236 12.5151C14.0425 11.5122 13.3658 10.5678 12.6031 9.69509C12.4363 9.49016 12.2026 9.35049 11.9431 9.30059M18.8671 7.49909C18.6682 7.49909 18.4774 7.57811 18.3368 7.71876C18.1961 7.85941 18.1171 8.05018 18.1171 8.24909C18.1171 8.448 18.1961 8.63877 18.3368 8.77942C18.4774 8.92007 18.6682 8.99909 18.8671 8.99909C20.7646 8.99909 22.3396 9.61859 23.5861 10.8066C24.2266 11.4561 24.7261 12.2256 25.0531 13.0686C25.3816 13.9131 25.5316 14.8146 25.4926 15.7176C25.4885 15.8161 25.5038 15.9144 25.5377 16.007C25.5715 16.0996 25.6233 16.1846 25.69 16.2571C25.8248 16.4037 26.0122 16.4907 26.2111 16.4991C26.41 16.5074 26.6041 16.4364 26.7507 16.3017C26.8972 16.1669 26.9843 15.9795 26.9926 15.7806C27.0374 14.6699 26.8531 13.5619 26.4511 12.5256C26.0473 11.484 25.4325 10.5371 24.6451 9.74459L24.6301 9.72959C23.0836 8.25209 21.1261 7.49909 18.8671 7.49909ZM18.8161 9.96509C18.6172 9.96509 18.4264 10.0441 18.2858 10.1848C18.1451 10.3254 18.0661 10.5162 18.0661 10.7151C18.0661 10.914 18.1451 11.1048 18.2858 11.2454C18.4264 11.3861 18.6172 11.4651 18.8161 11.4651H18.8416C20.2096 11.5626 21.2056 12.0186 21.9031 12.7671C22.6186 13.5381 22.9891 14.4966 22.9606 15.6816C22.956 15.8805 23.0307 16.0731 23.1681 16.217C23.3055 16.3609 23.4945 16.4443 23.6934 16.4488C23.8923 16.4534 24.0849 16.3788 24.2288 16.2414C24.3726 16.1039 24.456 15.915 24.4606 15.7161C24.4966 14.1606 23.9956 12.8181 23.0026 11.7471V11.7441C21.9871 10.6551 20.5936 10.0791 18.9166 9.96659L18.8911 9.96359L18.8161 9.96509ZM18.7876 12.4776C18.6873 12.4687 18.5861 12.4802 18.4903 12.5113C18.3944 12.5424 18.3058 12.5925 18.2298 12.6585C18.1537 12.7246 18.0918 12.8054 18.0476 12.8959C18.0034 12.9865 17.978 13.085 17.9727 13.1857C17.9675 13.2863 17.9826 13.3869 18.0171 13.4816C18.0516 13.5763 18.1048 13.663 18.1736 13.7366C18.2424 13.8103 18.3253 13.8693 18.4174 13.9102C18.5095 13.9511 18.6089 13.973 18.7096 13.9746C19.3366 14.0076 19.7371 14.1966 19.9891 14.4501C20.2426 14.7051 20.4316 15.1146 20.4661 15.7551C20.468 15.8557 20.4901 15.955 20.5312 16.0469C20.5722 16.1388 20.6313 16.2215 20.705 16.2901C20.7787 16.3587 20.8654 16.4118 20.96 16.4461C21.0547 16.4805 21.1552 16.4954 21.2558 16.4901C21.3563 16.4847 21.4547 16.4592 21.5452 16.415C21.6356 16.3709 21.7163 16.3089 21.7823 16.2329C21.8483 16.1569 21.8983 16.0684 21.9294 15.9726C21.9604 15.8769 21.9719 15.7759 21.9631 15.6756C21.9151 14.7756 21.6331 13.9806 21.0556 13.3956C20.4751 12.8106 19.6846 12.5256 18.7876 12.4776Z" fill="#6042C1"/>
</svg>
