<svg width="22" height="23" viewBox="0 0 22 23" fill="none" xmlns="http://www.w3.org/2000/svg">
<path d="M6.4513 0.829041H15.5513C19.018 0.829041 21.8346 3.64571 21.8346 7.11237V16.2124C21.8346 17.8788 21.1726 19.477 19.9943 20.6554C18.8159 21.8337 17.2177 22.4957 15.5513 22.4957H6.4513C2.98464 22.4957 0.167969 19.679 0.167969 16.2124V7.11237C0.167969 5.44593 0.829961 3.84774 2.00831 2.66939C3.18667 1.49103 4.78486 0.829041 6.4513 0.829041ZM6.23463 2.99571C5.20029 2.99571 4.20831 3.4066 3.47692 4.13799C2.74553 4.86938 2.33464 5.86136 2.33464 6.89571V16.429C2.33464 18.5849 4.0788 20.329 6.23463 20.329H15.768C16.8023 20.329 17.7943 19.9181 18.5257 19.1868C19.2571 18.4554 19.668 17.4634 19.668 16.429V6.89571C19.668 4.73987 17.9238 2.99571 15.768 2.99571H6.23463ZM16.6888 4.62071C17.0479 4.62071 17.3924 4.76338 17.6463 5.01733C17.9003 5.27129 18.043 5.61573 18.043 5.97487C18.043 6.33402 17.9003 6.67846 17.6463 6.93241C17.3924 7.18637 17.0479 7.32904 16.6888 7.32904C16.3297 7.32904 15.9852 7.18637 15.7313 6.93241C15.4773 6.67846 15.3346 6.33402 15.3346 5.97487C15.3346 5.61573 15.4773 5.27129 15.7313 5.01733C15.9852 4.76338 16.3297 4.62071 16.6888 4.62071ZM11.0013 6.24571C12.4379 6.24571 13.8156 6.81639 14.8315 7.83221C15.8473 8.84803 16.418 10.2258 16.418 11.6624C16.418 13.099 15.8473 14.4767 14.8315 15.4925C13.8156 16.5084 12.4379 17.079 11.0013 17.079C9.56471 17.079 8.18696 16.5084 7.17114 15.4925C6.15532 14.4767 5.58463 13.099 5.58463 11.6624C5.58463 10.2258 6.15532 8.84803 7.17114 7.83221C8.18696 6.81639 9.56471 6.24571 11.0013 6.24571ZM11.0013 8.41237C10.1393 8.41237 9.3127 8.75478 8.7032 9.36427C8.09371 9.97377 7.7513 10.8004 7.7513 11.6624C7.7513 12.5243 8.09371 13.351 8.7032 13.9605C9.3127 14.57 10.1393 14.9124 11.0013 14.9124C11.8633 14.9124 12.6899 14.57 13.2994 13.9605C13.9089 13.351 14.2513 12.5243 14.2513 11.6624C14.2513 10.8004 13.9089 9.97377 13.2994 9.36427C12.6899 8.75478 11.8633 8.41237 11.0013 8.41237Z" fill="#9EABC3"/>
</svg>
