<svg width="18" height="17" viewBox="0 0 18 17" fill="none" xmlns="http://www.w3.org/2000/svg">
<path fill-rule="evenodd" clip-rule="evenodd" d="M9.55053 5.19105V7.02947C9.93552 6.44303 10.4662 5.9666 11.0906 5.64682C11.715 5.32703 12.4117 5.17483 13.1125 5.20513C16.8554 5.20513 17.6647 7.54513 17.6647 10.5893V16.787H14.198V11.2924C14.198 9.98155 13.9337 8.29588 11.8927 8.29588C9.91345 8.29588 9.57545 9.72263 9.57545 11.1949V16.787H6.11961V5.19105H9.55053ZM3.79803 2.27688C3.7976 2.6203 3.69581 2.95595 3.5054 3.24176C3.31499 3.52756 3.04445 3.75079 2.7277 3.88347C2.41107 4.01507 2.06244 4.0495 1.72619 3.98236C1.38994 3.91523 1.08126 3.74957 0.839445 3.50647C0.597175 3.26321 0.432236 2.95376 0.36537 2.61701C0.298504 2.28027 0.332697 1.93127 0.463648 1.61391C0.594599 1.29655 0.816462 1.02499 1.10134 0.833382C1.38621 0.641776 1.72138 0.538676 2.0647 0.537048C2.29287 0.537047 2.5188 0.582095 2.72952 0.669609C2.94024 0.757124 3.13161 0.885382 3.29265 1.04703C3.45369 1.20867 3.58123 1.40052 3.66796 1.61157C3.75468 1.82262 3.79888 2.04871 3.79803 2.27688Z" fill="#9EABC3"/>
<path d="M3.7987 5.20599H0.332031V16.7879H3.7987V5.20599Z" fill="#9EABC3"/>
</svg>
