<svg width="16" height="19" viewBox="0 0 16 19" fill="none" xmlns="http://www.w3.org/2000/svg">
<path d="M12.6002 3.48205C11.9167 2.70158 11.5401 1.69945 11.5402 0.662048H8.45016V13.062C8.42682 13.7332 8.14368 14.3691 7.66046 14.8355C7.17725 15.302 6.53175 15.5625 5.86016 15.562C4.44016 15.562 3.26016 14.402 3.26016 12.962C3.26016 11.242 4.92016 9.95205 6.63016 10.482V7.32205C3.18016 6.86205 0.160156 9.54205 0.160156 12.962C0.160156 16.292 2.92016 18.662 5.85016 18.662C8.99016 18.662 11.5402 16.112 11.5402 12.962V6.67205C12.7932 7.5719 14.2975 8.0547 15.8402 8.05205V4.96205C15.8402 4.96205 13.9602 5.05205 12.6002 3.48205Z" fill="#9EABC3"/>
</svg>
