<svg width="18" height="18" viewBox="0 0 18 18" fill="none" xmlns="http://www.w3.org/2000/svg">
<path d="M9.88102 2.04977C13.061 2.44977 15.551 4.93977 15.951 8.11977C16.011 8.62977 16.441 8.99977 16.941 8.99977C16.981 8.99977 17.021 8.99977 17.061 8.98977C17.611 8.91977 18.001 8.41977 17.931 7.86977C17.6854 5.88391 16.7836 4.03697 15.3687 2.62206C13.9538 1.20715 12.1069 0.305348 10.121 0.0597683C9.57102 -0.000231749 9.07102 0.389768 9.01102 0.939769C8.94102 1.48977 9.33102 1.98977 9.88102 2.04977ZM10.261 4.15977C9.73102 4.01977 9.18102 4.33977 9.04102 4.87977C8.90102 5.41977 9.22102 5.95977 9.76102 6.09977C10.2784 6.23408 10.7506 6.50421 11.1286 6.88221C11.5066 7.26021 11.7767 7.73235 11.911 8.24977C11.9776 8.50684 12.1435 8.72701 12.3722 8.86198C12.6009 8.99695 12.8738 9.03572 13.131 8.96977C13.661 8.82977 13.981 8.27977 13.851 7.74977C13.6257 6.8863 13.1743 6.09848 12.5433 5.46747C11.9123 4.83646 11.1245 4.38507 10.261 4.15977ZM16.231 12.2598L13.691 11.9698C13.3924 11.9347 13.0896 11.9678 12.8056 12.0665C12.5215 12.1652 12.2635 12.327 12.051 12.5398L10.211 14.3798C7.37241 12.9357 5.06508 10.6284 3.62102 7.78977L5.47102 5.93977C5.90102 5.50977 6.11102 4.90977 6.04102 4.29977L5.75102 1.77977C5.69453 1.29186 5.46048 0.841791 5.09348 0.515361C4.72648 0.188932 4.25219 0.00896555 3.76102 0.0097683H2.03102C0.901018 0.0097683 -0.0389828 0.949768 0.0310172 2.07977C0.561017 10.6198 7.39102 17.4398 15.921 17.9698C17.051 18.0398 17.991 17.0998 17.991 15.9698V14.2398C18.001 13.2298 17.241 12.3798 16.231 12.2598Z" fill="url(#paint0_linear_2352_733)"/>
<defs>
<linearGradient id="paint0_linear_2352_733" x1="0.0273438" y1="8.9916" x2="17.9911" y2="8.9916" gradientUnits="userSpaceOnUse">
<stop stop-color="#5FBD4C"/>
<stop offset="1" stop-color="#7ECF1D"/>
</linearGradient>
</defs>
</svg>
