<svg width="20" height="22" viewBox="0 0 20 22" fill="none" xmlns="http://www.w3.org/2000/svg">
<path d="M15.3649 3.78854C14.5676 2.87798 14.1281 1.70883 14.1282 0.498535H10.5232V14.9652C10.496 15.7483 10.1657 16.4901 9.60192 17.0343C9.03817 17.5784 8.28509 17.8823 7.50156 17.8819C5.8449 17.8819 4.46823 16.5285 4.46823 14.8485C4.46823 12.8419 6.4049 11.3369 8.3999 11.9552V8.26853C4.3749 7.73187 0.851562 10.8585 0.851562 14.8485C0.851562 18.7335 4.07156 21.4985 7.4899 21.4985C11.1532 21.4985 14.1282 18.5235 14.1282 14.8485V7.5102C15.5901 8.56003 17.3452 9.12329 19.1449 9.1202V5.5152C19.1449 5.5152 16.9516 5.6202 15.3649 3.78854Z" fill="#9EABC3"/>
</svg>
