<svg width="26" height="26" viewBox="0 0 26 26" fill="none" xmlns="http://www.w3.org/2000/svg">
<path d="M14.2484 3.15416C18.7534 3.72083 22.2809 7.24833 22.8476 11.7533C22.9326 12.4758 23.5418 13 24.2501 13C24.3068 13 24.3634 13 24.4201 12.9858C25.1993 12.8867 25.7518 12.1783 25.6526 11.3992C25.3047 8.58587 24.0271 5.96937 22.0227 3.96491C20.0182 1.96046 17.4017 0.682902 14.5884 0.334997C13.8093 0.249997 13.1009 0.802498 13.0159 1.58166C12.9168 2.36083 13.4693 3.06916 14.2484 3.15416ZM14.7868 6.14333C14.0359 5.945 13.2568 6.39833 13.0584 7.16333C12.8601 7.92833 13.3134 8.69333 14.0784 8.89167C14.8115 9.08194 15.4803 9.46463 16.0158 10.0001C16.5513 10.5356 16.934 11.2045 17.1243 11.9375C17.2186 12.3017 17.4536 12.6136 17.7776 12.8048C18.1016 12.996 18.4882 13.0509 18.8526 12.9575C19.6034 12.7592 20.0568 11.98 19.8726 11.2292C19.5534 10.0059 18.9139 8.88984 18.02 7.99591C17.1261 7.10198 16.01 6.4625 14.7868 6.14333ZM23.2443 17.6183L19.6459 17.2075C19.2228 17.1578 18.794 17.2046 18.3916 17.3445C17.9892 17.4844 17.6237 17.7136 17.3226 18.015L14.7159 20.6217C10.6946 18.5759 7.42586 15.3072 5.3801 11.2858L8.00093 8.665C8.6101 8.05583 8.9076 7.20583 8.80843 6.34167L8.3976 2.77166C8.31758 2.08046 7.98601 1.44286 7.46609 0.980421C6.94617 0.517979 6.27426 0.263027 5.57843 0.264164H3.1276C1.52677 0.264164 0.1951 1.59583 0.294267 3.19666C1.0451 15.295 10.7209 24.9567 22.8051 25.7075C24.4059 25.8067 25.7376 24.475 25.7376 22.8742V20.4233C25.7518 18.9925 24.6751 17.7883 23.2443 17.6183Z" fill="url(#paint0_linear_2340_8233)"/>
<defs>
<linearGradient id="paint0_linear_2340_8233" x1="0.289062" y1="12.9884" x2="25.7377" y2="12.9884" gradientUnits="userSpaceOnUse">
<stop stop-color="#5FBD4C"/>
<stop offset="1" stop-color="#7ECF1D"/>
</linearGradient>
</defs>
</svg>
