<svg width="26" height="20" viewBox="0 0 26 20" fill="none" xmlns="http://www.w3.org/2000/svg">
<path d="M13 -0.00146484C14.0688 -0.00146484 15.165 0.0260353 16.2275 0.0710353L17.4825 0.131035L18.6838 0.202285L19.8088 0.278535L20.8363 0.358535C21.9515 0.443399 23.001 0.919078 23.7999 1.70179C24.5989 2.4845 25.096 3.52403 25.2038 4.63728L25.2538 5.16853L25.3475 6.30603C25.435 7.48478 25.5 8.76978 25.5 9.99853C25.5 11.2273 25.435 12.5123 25.3475 13.691L25.2538 14.8285L25.2038 15.3598C25.096 16.4732 24.5987 17.5129 23.7995 18.2957C23.0003 19.0784 21.9505 19.5539 20.835 19.6385L19.81 19.7173L18.685 19.7948L17.4825 19.866L16.2275 19.926C15.1523 19.9726 14.0762 19.9968 13 19.9985C11.9238 19.9968 10.8477 19.9726 9.7725 19.926L8.5175 19.866L7.31625 19.7948L6.19125 19.7173L5.16375 19.6385C4.04852 19.5537 2.999 19.078 2.20006 18.2953C1.40111 17.5126 0.903989 16.473 0.79625 15.3598L0.74625 14.8285L0.6525 13.691C0.557291 12.4624 0.506425 11.2308 0.5 9.99853C0.5 8.76978 0.565 7.48478 0.6525 6.30603L0.74625 5.16853L0.79625 4.63728C0.903947 3.52423 1.40089 2.48485 2.19958 1.70217C2.99827 0.919483 4.04749 0.44368 5.1625 0.358535L6.18875 0.278535L7.31375 0.202285L8.51625 0.131035L9.77125 0.0710353C10.8469 0.0244441 11.9234 0.000272132 13 -0.00146484ZM13 2.49853C11.9688 2.49853 10.9075 2.52604 9.875 2.56853L8.6525 2.62728L7.47875 2.69603L6.37625 2.77103L5.36625 2.84978C4.83524 2.88696 4.33461 3.11119 3.95333 3.48264C3.57204 3.85408 3.33479 4.34868 3.28375 4.87853C3.1375 6.38978 3 8.27103 3 9.99853C3 11.726 3.1375 13.6073 3.28375 15.1185C3.39 16.2085 4.255 17.056 5.36625 17.1473L6.37625 17.2248L7.47875 17.2998L8.6525 17.3698L9.875 17.4285C10.9075 17.471 11.9688 17.4985 13 17.4985C14.0313 17.4985 15.0925 17.471 16.125 17.4285L17.3475 17.3698L18.5213 17.301L19.6238 17.226L20.6338 17.1473C21.1648 17.1101 21.6654 16.8859 22.0467 16.5144C22.428 16.143 22.6652 15.6484 22.7163 15.1185C22.8625 13.6073 23 11.726 23 9.99853C23 8.27103 22.8625 6.38978 22.7163 4.87853C22.6652 4.34868 22.428 3.85408 22.0467 3.48264C21.6654 3.11119 21.1648 2.88696 20.6338 2.84978L19.6238 2.77228L18.5213 2.69728L17.3475 2.62728L16.125 2.56853C15.0839 2.52385 14.042 2.50051 13 2.49853ZM10.5 6.96728C10.4999 6.84511 10.5297 6.72477 10.5867 6.61673C10.6437 6.50868 10.7263 6.4162 10.8272 6.34733C10.9281 6.27845 11.0443 6.23527 11.1657 6.22154C11.2871 6.20781 11.41 6.22394 11.5238 6.26853L11.625 6.31853L16.875 9.34853C16.9795 9.40885 17.068 9.49352 17.1328 9.59533C17.1976 9.69714 17.2369 9.8131 17.2474 9.93334C17.2578 10.0536 17.2391 10.1746 17.1927 10.286C17.1464 10.3975 17.0739 10.4961 16.9813 10.5735L16.875 10.6485L11.625 13.6798C11.5192 13.741 11.4 13.7755 11.2779 13.7802C11.1557 13.7849 11.0342 13.7596 10.9241 13.7066C10.8139 13.6536 10.7184 13.5745 10.6457 13.4762C10.5731 13.3778 10.5257 13.2632 10.5075 13.1423L10.5 13.0298V6.96728Z" fill="#9EABC3"/>
</svg>
