<svg width="24" height="26" viewBox="0 0 24 26" fill="none" xmlns="http://www.w3.org/2000/svg">
<path fill-rule="evenodd" clip-rule="evenodd" d="M17.8439 0.947509C13.9111 0.0684104 9.83282 0.0684104 5.9001 0.947509L5.47635 1.04126C4.36982 1.28792 3.35346 1.83685 2.54043 2.62694C1.7274 3.41702 1.1496 4.41724 0.871354 5.51626C-0.123785 9.44463 -0.123785 13.5591 0.871354 17.4875C1.13673 18.5356 1.67482 19.4948 2.43095 20.2676C3.18707 21.0404 4.13429 21.5993 5.17635 21.8875L5.7576 25.3575C5.77616 25.4677 5.82391 25.5709 5.8959 25.6564C5.96788 25.7418 6.06146 25.8064 6.16688 25.8434C6.27231 25.8805 6.38574 25.8885 6.49535 25.8668C6.60496 25.8451 6.70674 25.7944 6.7901 25.72L10.2039 22.6663C12.7665 22.821 15.3381 22.616 17.8439 22.0575L18.2689 21.9638C19.3754 21.7171 20.3917 21.1682 21.2048 20.3781C22.0178 19.588 22.5956 18.5878 22.8739 17.4888C23.869 13.5604 23.869 9.44588 22.8739 5.51751C22.5955 4.41833 22.0175 3.418 21.2043 2.6279C20.391 1.83781 19.3744 1.28897 18.2676 1.04251L17.8439 0.947509ZM6.9551 5.41501C6.72278 5.38099 6.48582 5.42776 6.28385 5.54751H6.26635C5.7976 5.82251 5.3751 6.16876 5.0151 6.57626C4.7151 6.92251 4.5526 7.27251 4.5101 7.61001C4.4851 7.81001 4.5026 8.01251 4.56135 8.20376L4.58385 8.21626C4.92135 9.20751 5.36135 10.1613 5.89885 11.0588C6.59222 12.3192 7.44507 13.485 8.43635 14.5275L8.46635 14.57L8.51385 14.605L8.5426 14.6388L8.5776 14.6688C9.62383 15.6629 10.7924 16.5198 12.0551 17.2188C13.4989 18.005 14.3751 18.3763 14.9014 18.5313V18.5388C15.0551 18.5863 15.1951 18.6075 15.3364 18.6075C15.7848 18.5753 16.2093 18.393 16.5414 18.09C16.9476 17.73 17.2914 17.3063 17.5589 16.835V16.8263C17.8101 16.3513 17.7251 15.9038 17.3626 15.6C16.6351 14.963 15.8477 14.3979 15.0114 13.9125C14.4514 13.6088 13.8826 13.7925 13.6526 14.1L13.1614 14.72C12.9089 15.0275 12.4514 14.985 12.4514 14.985L12.4389 14.9925C9.0251 14.1213 8.11385 10.665 8.11385 10.665C8.11385 10.665 8.07135 10.195 8.3876 9.95501L9.0026 9.46001C9.2976 9.22001 9.5026 8.65251 9.18635 8.09251C8.70207 7.25679 8.13821 6.46981 7.5026 5.74251C7.36357 5.57173 7.16886 5.45534 6.9526 5.41376M12.7226 3.91251C12.5568 3.91251 12.3979 3.97836 12.2807 4.09557C12.1635 4.21278 12.0976 4.37175 12.0976 4.53751C12.0976 4.70327 12.1635 4.86224 12.2807 4.97945C12.3979 5.09666 12.5568 5.16251 12.7226 5.16251C14.3039 5.16251 15.6164 5.67876 16.6551 6.66876C17.1889 7.21001 17.6051 7.85126 17.8776 8.55376C18.1514 9.25751 18.2764 10.0088 18.2439 10.7613C18.2404 10.8433 18.2532 10.9253 18.2814 11.0024C18.3096 11.0796 18.3528 11.1504 18.4083 11.2109C18.5206 11.333 18.6768 11.4055 18.8426 11.4125C19.0084 11.4195 19.1701 11.3603 19.2922 11.248C19.4144 11.1357 19.4869 10.9795 19.4939 10.8138C19.5311 9.88821 19.3775 8.96489 19.0426 8.10126C18.7061 7.23324 18.1937 6.44421 17.5376 5.78376L17.5251 5.77126C16.2364 4.54001 14.6051 3.91251 12.7226 3.91251ZM12.6801 5.96751C12.5143 5.96751 12.3554 6.03336 12.2382 6.15057C12.121 6.26778 12.0551 6.42675 12.0551 6.59251C12.0551 6.75827 12.121 6.91724 12.2382 7.03445C12.3554 7.15166 12.5143 7.21751 12.6801 7.21751H12.7014C13.8414 7.29876 14.6714 7.67876 15.2526 8.30251C15.8489 8.94501 16.1576 9.74376 16.1339 10.7313C16.13 10.897 16.1922 11.0575 16.3067 11.1774C16.4213 11.2973 16.5787 11.3668 16.7445 11.3706C16.9102 11.3744 17.0707 11.3123 17.1906 11.1977C17.3105 11.0832 17.38 10.9258 17.3839 10.76C17.4139 9.46376 16.9964 8.34501 16.1689 7.45251V7.45001C15.3226 6.54251 14.1614 6.06251 12.7639 5.96876L12.7426 5.96626L12.6801 5.96751ZM12.6564 8.06126C12.5727 8.05388 12.4884 8.06343 12.4086 8.08934C12.3287 8.11525 12.2549 8.15698 12.1915 8.21206C12.1281 8.26713 12.0765 8.33441 12.0397 8.40988C12.0029 8.48535 11.9816 8.56747 11.9773 8.65132C11.9729 8.73517 11.9855 8.81905 12.0142 8.89793C12.043 8.97682 12.0874 9.0491 12.1447 9.11047C12.202 9.17183 12.2711 9.22101 12.3478 9.25508C12.4246 9.28915 12.5074 9.30741 12.5914 9.30876C13.1139 9.33626 13.4476 9.49376 13.6576 9.70501C13.8689 9.91751 14.0264 10.2588 14.0551 10.7925C14.0567 10.8764 14.0751 10.9591 14.1093 11.0357C14.1435 11.1123 14.1928 11.1812 14.2542 11.2384C14.3156 11.2955 14.3879 11.3397 14.4667 11.3684C14.5456 11.397 14.6294 11.4095 14.7131 11.405C14.7969 11.4006 14.8789 11.3793 14.9543 11.3425C15.0297 11.3057 15.0969 11.254 15.1519 11.1907C15.2069 11.1274 15.2486 11.0536 15.2745 10.9738C15.3004 10.894 15.3099 10.8098 15.3026 10.7263C15.2626 9.97626 15.0276 9.31376 14.5464 8.82626C14.0626 8.33876 13.4039 8.10126 12.6564 8.06126Z" fill="#6042C1"/>
</svg>
