<svg width="24" height="25" viewBox="0 0 24 25" fill="none" xmlns="http://www.w3.org/2000/svg">
<g clip-path="url(#clip0_2340_9280)">
<path fill-rule="evenodd" clip-rule="evenodd" d="M8.64637 6.75749C8.41369 6.20024 8.23725 6.17905 7.88475 6.1648C7.76475 6.15786 7.63106 6.15092 7.48275 6.15092C7.02413 6.15092 6.54469 6.28499 6.25537 6.58124C5.90287 6.94105 5.02819 7.78049 5.02819 9.50174C5.02819 11.2232 6.2835 12.888 6.45281 13.121C6.62925 13.3535 8.90025 16.9374 12.4266 18.398C15.1841 19.5409 16.0024 19.4349 16.6299 19.301C17.5468 19.1036 18.6964 18.426 18.9857 17.6079C19.2748 16.7895 19.2748 16.091 19.1901 15.9429C19.1055 15.7948 18.8726 15.7104 18.5201 15.5338C18.1676 15.3574 16.4537 14.5108 16.1293 14.3979C15.8119 14.2781 15.5087 14.3205 15.2691 14.6591C14.9304 15.1318 14.5991 15.6116 14.331 15.9007C14.1195 16.1265 13.7738 16.1548 13.4846 16.0348C13.0967 15.8728 12.0107 15.4914 10.6706 14.2993C9.63375 13.3753 8.92856 12.2255 8.72419 11.8798C8.51962 11.5271 8.703 11.3224 8.86519 11.132C9.04163 10.9132 9.21075 10.7582 9.387 10.5534C9.56344 10.3489 9.66206 10.2431 9.77494 10.0031C9.89494 9.77042 9.81019 9.53042 9.72563 9.35399C9.64087 9.17717 8.93569 7.45574 8.64637 6.75749ZM11.9964 0.662048C5.38106 0.662048 0 6.04461 0 12.6619C0 15.2861 0.846375 17.72 2.28506 19.6954L0.78975 24.1539L5.40225 22.6798C7.29938 23.9355 9.56325 24.662 12.0036 24.662C18.6189 24.662 24 19.2791 24 12.6622C24 6.04499 18.6189 0.662423 12.0036 0.662423H11.9966L11.9964 0.662048Z" fill="#67C15E"/>
</g>
<defs>
<clipPath id="clip0_2340_9280">
<rect width="24" height="24" fill="white" transform="translate(0 0.662048)"/>
</clipPath>
</defs>
</svg>
