<svg width="41" height="40" viewBox="0 0 41 40" fill="none" xmlns="http://www.w3.org/2000/svg">
<path d="M32.2513 8.18407C30.7231 6.64092 28.903 5.41735 26.8972 4.58468C24.8913 3.75201 22.7398 3.32688 20.568 3.33407C11.468 3.33407 4.0513 10.7507 4.0513 19.8507C4.0513 22.7674 4.81797 25.6007 6.2513 28.1007L3.91797 36.6674L12.668 34.3674C15.0846 35.6841 17.8013 36.3841 20.568 36.3841C29.668 36.3841 37.0846 28.9674 37.0846 19.8674C37.0846 15.4507 35.368 11.3007 32.2513 8.18407ZM20.568 33.5841C18.1013 33.5841 15.6846 32.9174 13.568 31.6674L13.068 31.3674L7.86797 32.7341L9.2513 27.6674L8.91797 27.1507C7.54721 24.9625 6.81951 22.4329 6.81797 19.8507C6.81797 12.2841 12.9846 6.11741 20.5513 6.11741C24.218 6.11741 27.668 7.55074 30.2513 10.1507C31.5307 11.4238 32.5445 12.9383 33.234 14.6063C33.9235 16.2743 34.275 18.0625 34.268 19.8674C34.3013 27.4341 28.1346 33.5841 20.568 33.5841ZM28.1013 23.3174C27.6846 23.1174 25.6513 22.1174 25.2846 21.9674C24.9013 21.8341 24.6346 21.7674 24.3513 22.1674C24.068 22.5841 23.2846 23.5174 23.0513 23.7841C22.818 24.0674 22.568 24.1007 22.1513 23.8841C21.7346 23.6841 20.4013 23.2341 18.8346 21.8341C17.6013 20.7341 16.7846 19.3841 16.5346 18.9674C16.3013 18.5507 16.5013 18.3341 16.718 18.1174C16.9013 17.9341 17.1346 17.6341 17.3346 17.4007C17.5346 17.1674 17.618 16.9841 17.7513 16.7174C17.8846 16.4341 17.818 16.2007 17.718 16.0007C17.618 15.8007 16.7846 13.7674 16.4513 12.9341C16.118 12.1341 15.768 12.2341 15.518 12.2174H14.718C14.4346 12.2174 14.0013 12.3174 13.618 12.7341C13.2513 13.1507 12.1846 14.1507 12.1846 16.1841C12.1846 18.2174 13.668 20.1841 13.868 20.4507C14.068 20.7341 16.7846 24.9007 20.918 26.6841C21.9013 27.1174 22.668 27.3674 23.268 27.5507C24.2513 27.8674 25.1513 27.8174 25.868 27.7174C26.668 27.6007 28.318 26.7174 28.6513 25.7507C29.0013 24.7841 29.0013 23.9674 28.8846 23.7841C28.768 23.6007 28.518 23.5174 28.1013 23.3174Z" fill="#67C15E"/>
</svg>
