<svg width="45" height="44" viewBox="0 0 45 44" fill="none" xmlns="http://www.w3.org/2000/svg">
<path d="M15.1022 11.3707C14.7615 11.3208 14.4139 11.3894 14.1177 11.565H14.0921C13.4046 11.9683 12.7849 12.4762 12.2569 13.0738C11.8169 13.5817 11.5786 14.095 11.5162 14.59C11.4796 14.8833 11.5052 15.1803 11.5914 15.4608L11.6244 15.4792C12.1194 16.933 12.7647 18.3318 13.5531 19.6482C14.57 21.4968 15.8208 23.2067 17.2747 24.7357L17.3187 24.798L17.3884 24.8493L17.4306 24.8988L17.4819 24.9428C19.0164 26.4009 20.7302 27.6577 22.5822 28.6828C24.6997 29.836 25.9849 30.3805 26.7567 30.6078V30.6188C26.9822 30.6885 27.1876 30.7197 27.3947 30.7197C28.0524 30.6725 28.675 30.4051 29.1621 29.9607C29.7579 29.4327 30.2621 28.8112 30.6544 28.12V28.1072C31.0229 27.4105 30.8982 26.7542 30.3666 26.3087C29.2995 25.3744 28.1446 24.5456 26.9181 23.8337C26.0967 23.3882 25.2626 23.6577 24.9252 24.1087L24.2047 25.018C23.8344 25.469 23.1634 25.4067 23.1634 25.4067L23.1451 25.4177C18.1382 24.1398 16.8017 19.0707 16.8017 19.0707C16.8017 19.0707 16.7394 18.3813 17.2032 18.0293L18.1052 17.3033C18.5379 16.9513 18.8386 16.119 18.3747 15.2977C17.6644 14.0719 16.8374 12.9177 15.9052 11.851C15.7013 11.6005 15.4157 11.4298 15.0986 11.3688M23.5631 9.16699C23.3199 9.16699 23.0868 9.26357 22.9149 9.43548C22.743 9.60739 22.6464 9.84054 22.6464 10.0837C22.6464 10.3268 22.743 10.5599 22.9149 10.7318C23.0868 10.9037 23.3199 11.0003 23.5631 11.0003C25.8804 11.0003 27.8054 11.7575 29.3289 13.2095C30.1117 14.0033 30.7222 14.9438 31.1219 15.9742C31.5234 17.0063 31.7067 18.1082 31.6591 19.2118C31.6488 19.4549 31.7356 19.6922 31.9003 19.8713C32.065 20.0504 32.2941 20.1568 32.5372 20.167C32.7803 20.1772 33.0176 20.0904 33.1967 19.9257C33.3758 19.761 33.4822 19.5319 33.4924 19.2888C33.5471 17.9314 33.3218 16.5771 32.8306 15.3105C32.337 14.0374 31.5855 12.8802 30.6232 11.9115L30.6049 11.8932C28.7147 10.0873 26.3241 9.16699 23.5631 9.16699Z" fill="#8622F8"/>
<path d="M23.5026 12.1805C23.2595 12.1805 23.0263 12.2771 22.8544 12.449C22.6825 12.6209 22.5859 12.8541 22.5859 13.0972C22.5859 13.3403 22.6825 13.5735 22.8544 13.7454C23.0263 13.9173 23.2595 14.0139 23.5026 14.0139H23.5338C25.2058 14.133 26.4231 14.6904 27.2756 15.6052C28.1501 16.5475 28.6029 17.719 28.5681 19.1674C28.5625 19.4105 28.6537 19.6459 28.8217 19.8217C28.9896 19.9976 29.2206 20.0995 29.4637 20.1051C29.7068 20.1107 29.9422 20.0195 30.118 19.8516C30.2939 19.6836 30.3958 19.4527 30.4014 19.2095C30.4454 17.3084 29.8331 15.6675 28.6194 14.3585V14.3549C27.3783 13.0239 25.6751 12.3199 23.6254 12.1824L23.5943 12.1787L23.5026 12.1805Z" fill="#8622F8"/>
<path d="M23.466 15.2521C23.3433 15.2413 23.2197 15.2553 23.1026 15.2933C22.9854 15.3313 22.8771 15.3925 22.7842 15.4733C22.6912 15.554 22.6155 15.6527 22.5615 15.7634C22.5075 15.8741 22.4764 15.9945 22.47 16.1175C22.4636 16.2405 22.482 16.3635 22.5242 16.4792C22.5664 16.5949 22.6315 16.7009 22.7155 16.7909C22.7996 16.8809 22.9009 16.9531 23.0135 17.003C23.126 17.053 23.2475 17.0798 23.3707 17.0818C24.137 17.1221 24.6265 17.3531 24.9345 17.6629C25.2443 17.9746 25.4753 18.4751 25.5175 19.2579C25.5198 19.3809 25.5468 19.5022 25.597 19.6146C25.6471 19.7269 25.7194 19.828 25.8094 19.9119C25.8995 19.9957 26.0055 20.0605 26.1212 20.1025C26.2368 20.1445 26.3597 20.1628 26.4826 20.1562C26.6055 20.1497 26.7258 20.1185 26.8363 20.0645C26.9469 20.0105 27.0454 19.9348 27.1261 19.8419C27.2068 19.749 27.2679 19.6409 27.3059 19.5238C27.3439 19.4068 27.3579 19.2833 27.3472 19.1608C27.2885 18.0608 26.9438 17.0891 26.238 16.3741C25.5285 15.6591 24.5623 15.3107 23.466 15.2521Z" fill="#8622F8"/>
<path fill-rule="evenodd" clip-rule="evenodd" d="M13.4568 4.3711C19.2906 3.06706 25.3403 3.06706 31.1741 4.3711L31.7956 4.5086C33.5005 4.89081 35.0663 5.73773 36.3193 6.95545C37.5723 8.17317 38.4636 9.71412 38.8943 11.4074C40.3765 17.2426 40.3765 23.3556 38.8943 29.1908C38.4636 30.8841 37.5723 32.425 36.3193 33.6428C35.0663 34.8605 33.5005 35.7074 31.7956 36.0896L31.1723 36.2271C27.5183 37.043 23.7693 37.3509 20.0311 37.1419L15.1673 41.4943C14.9839 41.6585 14.7599 41.7704 14.5185 41.8184C14.2771 41.8665 14.0272 41.8488 13.795 41.7674C13.5627 41.6859 13.3566 41.5436 13.1981 41.3552C13.0396 41.1669 12.9346 40.9395 12.894 40.6968L12.0891 35.8898C10.5462 35.4088 9.15227 34.5405 8.04022 33.3678C6.92816 32.1951 6.13509 30.757 5.73664 29.1908C4.25445 23.3556 4.25445 17.2426 5.73664 11.4074C6.16736 9.71412 7.05863 8.17317 8.31163 6.95545C9.56462 5.73773 11.1304 4.89081 12.8353 4.5086L13.4568 4.3711ZM30.5746 7.05327C25.1356 5.83741 19.4953 5.83741 14.0563 7.05327L13.433 7.1926C12.2247 7.46427 11.1152 8.06501 10.2273 8.92831C9.33946 9.79162 8.70779 10.8838 8.4023 12.0839C7.0328 17.4751 7.0328 23.1231 8.4023 28.5143C8.70794 29.7146 9.33987 30.807 10.2281 31.6703C11.1164 32.5336 12.2262 33.1342 13.4348 33.4056L13.5998 33.4423C13.8667 33.502 14.1098 33.6399 14.2979 33.8385C14.486 34.037 14.6106 34.2872 14.6558 34.5569L15.1948 37.7799L18.6268 34.7091C18.7639 34.5861 18.9242 34.4919 19.0984 34.4321C19.2725 34.3722 19.4569 34.348 19.6406 34.3608C23.3056 34.6195 26.9887 34.3447 30.5746 33.5449L31.1961 33.4056C32.4047 33.1342 33.5146 32.5336 34.4028 31.6703C35.2911 30.807 35.923 29.7146 36.2286 28.5143C37.5963 23.1243 37.5963 17.4758 36.2286 12.0839C35.923 10.8836 35.2911 9.79122 34.4028 8.9279C33.5146 8.06458 32.4047 7.46397 31.1961 7.1926L30.5746 7.05327Z" fill="#8622F8"/>
</svg>
