<svg width="39" height="52" viewBox="0 0 39 52" fill="none" xmlns="http://www.w3.org/2000/svg">
<path d="M1.08763 0.565717C0.847784 0.428868 0.54241 0.512365 0.405561 0.752212C0.268712 0.99206 0.352209 1.29743 0.592056 1.43428L1.08763 0.565717ZM30.1675 30.6463L30.6077 30.4093L30.1675 30.6463ZM36.2246 51.9207L38.2695 46.5215L32.5712 47.4502L36.2246 51.9207ZM2.8545 2.76973C3.09018 2.91364 3.39789 2.83925 3.5418 2.60357C3.68571 2.36789 3.61132 2.06017 3.37564 1.91626L2.8545 2.76973ZM7.82307 4.82613C7.59694 4.66762 7.28514 4.72244 7.12664 4.94856C6.96813 5.17468 7.02295 5.48648 7.24907 5.64498L7.82307 4.82613ZM11.4439 8.80036C11.6588 8.97381 11.9736 8.94023 12.147 8.72536C12.3205 8.51049 12.2869 8.19569 12.072 8.02224L11.4439 8.80036ZM16.0896 11.5075C15.8876 11.3191 15.5713 11.3302 15.3829 11.5321C15.1946 11.7341 15.2057 12.0505 15.4076 12.2388L16.0896 11.5075ZM19.1105 15.9549C19.2981 16.1575 19.6144 16.1698 19.8171 15.9822C20.0197 15.7947 20.032 15.4783 19.8444 15.2756L19.1105 15.9549ZM23.3101 19.3117C23.1381 19.0957 22.8236 19.0599 22.6075 19.2319C22.3915 19.4039 22.3558 19.7185 22.5278 19.9345L23.3101 19.3117ZM25.6419 24.1564C25.7975 24.3844 26.1086 24.4431 26.3367 24.2874C26.5648 24.1317 26.6235 23.8206 26.4678 23.5926L25.6419 24.1564ZM29.3075 28.0895C29.1684 27.851 28.8623 27.7704 28.6237 27.9095C28.3852 28.0487 28.3046 28.3548 28.4437 28.5934L29.3075 28.0895ZM30.9349 33.3441C31.0475 33.5963 31.3431 33.7094 31.5953 33.5968C31.8474 33.4842 31.9605 33.1885 31.8479 32.9363L30.9349 33.3441ZM33.8085 38.1971C33.727 37.9332 33.447 37.7854 33.1832 37.8669C32.9193 37.9484 32.7715 38.2284 32.853 38.4922L33.8085 38.1971ZM34.2435 43.8281C34.3028 44.0978 34.5695 44.2684 34.8392 44.2091C35.1089 44.1499 35.2795 43.8832 35.2202 43.6135L34.2435 43.8281ZM36.2706 49.0947C36.2244 48.8224 35.9663 48.6391 35.694 48.6853C35.4218 48.7315 35.2385 48.9896 35.2847 49.2619L36.2706 49.0947ZM0.839844 1L0.592056 1.43428C1.35627 1.87032 2.11043 2.31539 2.8545 2.76973L3.11507 2.343L3.37564 1.91626C2.62298 1.45667 1.86029 1.00657 1.08763 0.565717L0.839844 1ZM7.53607 5.23556L7.24907 5.64498C8.69022 6.6552 10.0886 7.70633 11.4439 8.80036L11.758 8.4113L12.072 8.02224C10.6987 6.91367 9.28223 5.84897 7.82307 4.82613L7.53607 5.23556ZM15.7486 11.8731L15.4076 12.2388C16.6862 13.4311 17.9206 14.6691 19.1105 15.9549L19.4775 15.6152L19.8444 15.2756C18.6377 13.9716 17.3859 12.7163 16.0896 11.5075L15.7486 11.8731ZM22.9189 19.6231L22.5278 19.9345C23.6092 21.2929 24.6474 22.6995 25.6419 24.1564L26.0548 23.8745L26.4678 23.5926C25.4595 22.1156 24.4068 20.6893 23.3101 19.3117L22.9189 19.6231ZM28.8756 28.3414L28.4437 28.5934C28.8818 29.3444 29.3097 30.1077 29.7272 30.8833L30.1675 30.6463L30.6077 30.4093C30.1848 29.6237 29.7514 28.8505 29.3075 28.0895L28.8756 28.3414ZM30.1675 30.6463L29.7272 30.8833C30.161 31.6891 30.5624 32.5101 30.9349 33.3441L31.3914 33.1402L31.8479 32.9363C31.466 32.0812 31.0539 31.238 30.6077 30.4093L30.1675 30.6463ZM33.3307 38.3446L32.853 38.4922C33.3938 40.2428 33.8477 42.0271 34.2435 43.8281L34.7319 43.7208L35.2202 43.6135C34.8198 41.7915 34.3591 39.9796 33.8085 38.1971L33.3307 38.3446Z" fill="url(#paint0_linear_2440_2093)"/>
<defs>
<linearGradient id="paint0_linear_2440_2093" x1="-4.8453" y1="19.1295" x2="41.9098" y2="33.7912" gradientUnits="userSpaceOnUse">
<stop stop-color="#5EBC4D"/>
<stop offset="1" stop-color="#7FD01B"/>
</linearGradient>
</defs>
</svg>
