<svg width="55" height="47" viewBox="0 0 55 47" fill="none" xmlns="http://www.w3.org/2000/svg">
<path d="M15.5055 18.179C14.6783 18.2252 13.8507 18.0966 13.0773 17.8018C13.0255 17.7771 12.9791 17.7424 12.941 17.6997C12.9028 17.657 12.8736 17.6071 12.8551 17.5531C12.8366 17.4991 12.8291 17.442 12.8331 17.385C12.8371 17.3281 12.8525 17.2726 12.8784 17.2216C12.9301 17.1189 13.0201 17.0402 13.1294 17.0023C13.2386 16.9644 13.3585 16.9702 13.4635 17.0185C13.5103 17.0185 16.1374 18.179 22.6789 15.742C23.4973 15.4136 24.403 15.3666 25.2515 15.6085C26.0999 15.8504 26.8422 16.3673 27.3598 17.0765C27.3959 17.1211 27.4228 17.1723 27.439 17.2272C27.4551 17.2821 27.4602 17.3396 27.454 17.3964C27.4477 17.4533 27.4302 17.5084 27.4025 17.5585C27.3748 17.6086 27.3374 17.6529 27.2925 17.6887C27.2475 17.7245 27.1959 17.7512 27.1406 17.7672C27.0852 17.7833 27.0272 17.7883 26.9699 17.7821C26.9126 17.7759 26.8571 17.7586 26.8065 17.7311C26.7559 17.7036 26.7113 17.6665 26.6752 17.622C26.2734 17.0549 25.6886 16.6406 25.0174 16.4475C24.3461 16.2545 23.6286 16.2942 22.9832 16.5601C19.5018 17.8483 17.0677 18.179 15.5055 18.179Z" fill="url(#paint0_linear_2440_2058)"/>
<path d="M20.9542 29.076C20.4491 29.0706 19.9507 28.9599 19.4915 28.7511C19.0626 28.5573 18.7213 28.2129 18.5333 27.7844C18.3453 27.3558 18.324 26.8734 18.4734 26.4301L20.1878 21.2659C20.2174 21.177 20.2748 21.0998 20.3516 21.0454C21.0537 20.558 27.2383 16.2816 28.9585 16.1017C29.6372 16.0263 30.6495 16.3512 32.0596 16.798C34.4526 17.5581 37.7351 18.5968 40.9298 18.1152C41.0446 18.0985 41.1613 18.1277 41.2545 18.1962C41.3477 18.2647 41.4098 18.367 41.4271 18.4807C41.4363 18.5375 41.4339 18.5956 41.4203 18.6515C41.4067 18.7074 41.3821 18.7601 41.3478 18.8065C41.3135 18.8529 41.2703 18.8921 41.2206 18.9218C41.171 18.9516 41.1159 18.9713 41.0585 18.9797C37.659 19.4846 34.2713 18.3995 31.7904 17.6278C30.9139 17.2795 29.9919 17.0568 29.0521 16.9663C27.9346 17.0823 23.6633 19.8153 20.9776 21.6721L19.3101 26.6912C19.2319 26.9292 19.2441 27.1873 19.3443 27.417C19.4445 27.6468 19.6258 27.8323 19.8542 27.9388C20.8255 28.3739 22.2649 28.4552 23.6048 26.3547C24.0551 25.6791 24.4466 24.9667 24.775 24.2252C24.8157 24.1239 24.8929 24.0413 24.9915 23.9931L29.1048 22.0493C29.2095 21.9994 29.33 21.9927 29.4397 22.0308C29.5494 22.0689 29.6393 22.1486 29.6899 22.2523C29.7156 22.3036 29.7307 22.3595 29.7343 22.4167C29.7379 22.4739 29.7299 22.5312 29.7108 22.5853C29.6917 22.6393 29.6619 22.6891 29.6232 22.7316C29.5844 22.774 29.5374 22.8084 29.4851 22.8326L25.5005 24.7474C25.1651 25.4799 24.7739 26.1859 24.3303 26.8595C23.2186 28.6177 21.9431 29.076 20.9542 29.076Z" fill="url(#paint1_linear_2440_2058)"/>
<path d="M13.7856 34.6349C13.7061 34.6345 13.6281 34.6128 13.5601 34.5719C13.4921 34.531 13.4366 34.4726 13.3994 34.4028C12.0888 31.8961 8.42019 31.4377 8.38508 31.4319C8.26948 31.4188 8.16387 31.3607 8.09145 31.2704C8.01903 31.1801 7.98575 31.065 7.99891 30.9503C8.00538 30.8932 8.02334 30.838 8.05174 30.7879C8.08013 30.7378 8.11838 30.6938 8.16421 30.6586C8.21005 30.6235 8.26254 30.5978 8.31857 30.5831C8.3746 30.5684 8.43303 30.565 8.4904 30.5732C8.66008 30.5732 12.6564 31.0896 14.1776 34.0024C14.2277 34.1045 14.2362 34.2217 14.2013 34.3298C14.1664 34.4378 14.0909 34.5284 13.9904 34.5827C13.9267 34.6144 13.8569 34.6322 13.7856 34.6349Z" fill="url(#paint2_linear_2440_2058)"/>
<path d="M15.6906 39.1549C15.0406 39.1537 14.4055 38.9612 13.866 38.6017C13.3264 38.2422 12.9066 37.732 12.6598 37.1356C12.4712 36.7262 12.326 36.2983 12.2268 35.8591C12.1783 35.7704 12.1637 35.6674 12.1859 35.5689C12.1986 35.4661 12.2485 35.3713 12.3263 35.302C13.1986 34.0104 14.36 32.9361 15.7199 32.1629C16.1356 31.9077 16.6226 31.7909 17.1099 31.8295C17.5973 31.8681 18.0594 32.0602 18.4289 32.3776C19.2773 33.0681 19.8215 34.391 19.5992 35.1512C19.2319 35.8594 18.7245 36.487 18.1071 36.9964C17.4959 37.514 16.9792 38.1323 16.58 38.8241C16.5561 38.8953 16.5138 38.9589 16.4573 39.0088C16.4008 39.0587 16.3322 39.0931 16.2582 39.1085C16.0715 39.1459 15.881 39.1615 15.6906 39.1549ZM13.0928 35.7256C13.1822 36.0826 13.3056 36.4304 13.4614 36.7643C13.6413 37.2372 13.9687 37.6408 14.396 37.9163C14.8232 38.1919 15.3281 38.3249 15.8369 38.2961C16.2839 37.589 16.8296 36.9483 17.4577 36.3929C17.9587 35.961 18.3907 35.4562 18.739 34.8959C18.742 34.5472 18.6657 34.2023 18.5158 33.8869C18.3658 33.5714 18.1462 33.2936 17.8731 33.0739C17.6369 32.8612 17.3358 32.733 17.0176 32.7099C16.6995 32.6868 16.3827 32.77 16.1178 32.9462C14.9165 33.6421 13.8839 34.5908 13.0928 35.7256Z" fill="url(#paint3_linear_2440_2058)"/>
<path d="M12.212 36.1147C11.8517 36.1271 11.4919 36.08 11.1471 35.9754C10.7272 35.8661 10.339 35.6606 10.0138 35.3754C9.68864 35.0902 9.43549 34.7332 9.27478 34.3333C8.76574 32.9117 9.74872 31.3218 9.79552 31.2522C9.8576 31.1545 9.95627 31.0852 10.0698 31.0596C10.1834 31.0341 10.3026 31.0543 10.4011 31.1158C10.4996 31.1774 10.5695 31.2752 10.5953 31.3879C10.6211 31.5005 10.6007 31.6187 10.5386 31.7164C10.5386 31.7164 9.73116 33.0219 10.1056 34.0374C10.2247 34.306 10.4042 34.5439 10.6303 34.733C10.8565 34.9221 11.1234 35.0573 11.4104 35.1282C11.7889 35.2438 12.1879 35.2774 12.5806 35.2269C12.6926 35.2221 12.8021 35.26 12.8868 35.3327C12.9714 35.4054 13.0249 35.5075 13.0361 35.6181C13.0473 35.7286 13.0155 35.8392 12.9471 35.9272C12.8788 36.0153 12.779 36.074 12.6684 36.0915C12.5168 36.1079 12.3645 36.1157 12.212 36.1147Z" fill="url(#paint4_linear_2440_2058)"/>
<path d="M19.2257 42.2477C18.6923 42.225 18.1741 42.065 17.722 41.7835C16.3411 41.0002 15.7385 38.8823 15.7151 38.7953C15.684 38.6837 15.699 38.5645 15.7566 38.4638C15.8142 38.3632 15.9097 38.2893 16.0222 38.2585C16.1348 38.2278 16.255 38.2426 16.3565 38.2997C16.458 38.3568 16.5324 38.4516 16.5635 38.5632C16.5635 38.5632 17.0901 40.42 18.1608 41.0292C18.5219 41.2952 18.9722 41.4136 19.4188 41.36C19.7757 40.8493 21.4257 38.5051 22.2917 37.5593C22.6135 37.217 22.5725 36.2596 22.0459 35.5923C21.5193 34.925 20.5071 34.78 19.3661 35.395C19.2639 35.4451 19.1462 35.4544 19.0374 35.4209C18.9285 35.3875 18.8367 35.3138 18.781 35.2151C18.727 35.1151 18.7151 34.9978 18.748 34.8891C18.7809 34.7803 18.8559 34.689 18.9566 34.6349C20.4778 33.8167 21.8821 33.9792 22.7539 35.0643C23.5028 36.0159 23.5906 37.4607 22.9528 38.157C22.0342 39.1492 20.1092 41.9228 20.0917 41.9518C20.0635 41.9874 20.0322 42.0204 19.998 42.0504C19.7674 42.1938 19.4975 42.2627 19.2257 42.2477Z" fill="url(#paint5_linear_2440_2058)"/>
<path d="M23.1114 44.2492C22.3104 44.2559 21.5245 44.0341 20.8471 43.6102C20.1697 43.1864 19.6294 42.5784 19.2906 41.8586C19.253 41.7528 19.258 41.6368 19.3045 41.5346C19.3511 41.4324 19.4356 41.352 19.5405 41.3101C19.6453 41.2682 19.7625 41.2681 19.8674 41.3097C19.9724 41.3514 20.0571 41.4316 20.1039 41.5336C20.1507 41.6381 21.1279 43.8546 24.1061 43.2744C23.7316 42.6941 23.8077 41.7715 24.3284 40.5762C24.473 40.3321 24.5564 40.0572 24.5717 39.7745C24.587 39.4918 24.5336 39.2096 24.4162 38.9515C23.9715 38.2146 22.7311 38.0928 22.7194 38.0928C22.6034 38.0824 22.4962 38.0274 22.4207 37.9395C22.3452 37.8517 22.3075 37.7379 22.3156 37.6228C22.3275 37.5084 22.3834 37.4029 22.4717 37.3284C22.5599 37.2538 22.6738 37.2158 22.7896 37.2224C22.8598 37.2224 24.4864 37.3791 25.1651 38.5048C25.3614 38.8783 25.4614 39.2942 25.4563 39.7153C25.4512 40.1365 25.3411 40.5498 25.1358 40.9186C24.5976 42.1603 24.7555 42.6593 24.8433 42.8044C24.8793 42.8608 24.9273 42.9087 24.9839 42.9447C25.0404 42.9808 25.1043 43.0042 25.171 43.0133C25.2717 43.0204 25.367 43.0619 25.4405 43.1306C25.5141 43.1993 25.5615 43.2911 25.5747 43.3904C25.5899 43.4882 25.5701 43.5881 25.5188 43.6728C25.4675 43.7576 25.3879 43.8219 25.2938 43.8546C24.5945 44.1093 23.8563 44.2428 23.1114 44.2492Z" fill="url(#paint6_linear_2440_2058)"/>
<path d="M26.9994 44.2438C26.2975 44.2468 25.6032 44.1004 24.9633 43.8144C24.9119 43.7891 24.8661 43.754 24.8286 43.7111C24.791 43.6681 24.7624 43.6182 24.7445 43.5643C24.7265 43.5103 24.7195 43.4533 24.7239 43.3966C24.7284 43.34 24.7441 43.2847 24.7702 43.2341C24.8228 43.1324 24.9137 43.0553 25.0231 43.0194C25.1326 42.9836 25.2519 42.9919 25.3553 43.0426C26.0424 43.3622 26.8111 43.4678 27.56 43.3455C28.3088 43.2233 29.0028 42.879 29.5505 42.358C29.6052 42.3091 29.671 42.274 29.7423 42.2558C29.8137 42.2377 29.8884 42.2369 29.9601 42.2535C30.251 42.3341 30.5554 42.3554 30.8549 42.3161C31.1544 42.2767 31.4427 42.1776 31.7025 42.0247C31.9623 41.8717 32.1881 41.6682 32.3663 41.4263C32.5445 41.1843 32.6714 40.9091 32.7393 40.6172C32.7704 40.516 32.8372 40.4293 32.9274 40.3728C33.0176 40.3164 33.1253 40.294 33.2308 40.3097C33.2308 40.3097 34.9861 40.5766 35.9282 39.7759C36.15 39.5741 36.3231 39.3253 36.4345 39.048C36.5459 38.7708 36.5929 38.4721 36.5718 38.1744C36.5709 38.1168 36.5819 38.0596 36.6041 38.0064C36.6263 37.9531 36.6593 37.9049 36.7009 37.8647C36.7425 37.8245 36.792 37.7932 36.8462 37.7726C36.9005 37.752 36.9584 37.7426 37.0165 37.745C37.1018 37.7463 37.1848 37.7723 37.2555 37.8197C37.3261 37.8671 37.3813 37.9339 37.4143 38.0119C37.7594 38.0657 38.1108 38.0657 38.4558 38.0119C38.6686 37.9948 38.8755 37.9344 39.0637 37.8346C39.2519 37.7348 39.4175 37.5976 39.55 37.4317C39.6676 37.2821 39.7533 37.1102 39.8016 36.9266C39.8499 36.743 39.8598 36.5515 39.8308 36.364C39.7021 35.4588 39.0468 34.6233 38.3329 33.7819C35.1968 30.1031 31.7037 26.3199 27.3915 23.5812C27.3 23.5186 27.2354 23.4244 27.2105 23.317C27.1856 23.2096 27.2021 23.0968 27.2569 23.0009C27.3199 22.9101 27.4154 22.8464 27.524 22.8227C27.6327 22.799 27.7463 22.8171 27.842 22.8733C32.2478 25.6701 35.7994 29.5113 38.959 33.2423C39.7606 34.1881 40.4978 35.1281 40.6617 36.2654C40.7085 36.5714 40.6916 36.8838 40.6121 37.1831C40.5326 37.4825 40.3922 37.7626 40.1994 38.0061C39.9969 38.2517 39.7473 38.455 39.4651 38.6044C39.183 38.7538 38.8737 38.8462 38.5553 38.8765C38.1667 38.9241 37.7737 38.9241 37.3851 38.8765C37.2734 39.4787 36.955 40.024 36.484 40.4199C35.6076 41.037 34.5333 41.3137 33.4649 41.1975C33.214 41.8862 32.7204 42.4617 32.0752 42.8179C31.43 43.1741 30.6767 43.2869 29.9542 43.1355C29.139 43.8506 28.0878 44.2449 26.9994 44.2438Z" fill="url(#paint7_linear_2440_2058)"/>
<path d="M29.8367 43.1009C29.7417 43.1013 29.6491 43.0707 29.5734 43.0138C28.4132 42.1556 27.309 41.2254 26.2675 40.2287C26.2261 40.1887 26.1932 40.1408 26.1708 40.088C26.1483 40.0352 26.1367 39.9785 26.1367 39.9211C26.1367 39.8638 26.1483 39.8071 26.1708 39.7542C26.1932 39.7014 26.2261 39.6536 26.2675 39.6136C26.3498 39.5321 26.4613 39.4863 26.5776 39.4863C26.6939 39.4863 26.8055 39.5321 26.8877 39.6136C27.9015 40.5794 28.9743 41.4825 30.1 42.3176C30.1737 42.3724 30.2281 42.4488 30.2555 42.5359C30.283 42.6231 30.2821 42.7167 30.253 42.8033C30.2239 42.89 30.168 42.9653 30.0933 43.0187C30.0185 43.0721 29.9288 43.1009 29.8367 43.1009Z" fill="url(#paint8_linear_2440_2058)"/>
<path d="M33.1575 41.1628C33.0458 41.1625 32.9387 41.1187 32.8591 41.041L28.0671 36.5151C28.0136 36.4806 27.9683 36.435 27.9344 36.3815C27.9005 36.3279 27.8787 36.2676 27.8707 36.2049C27.8626 36.1421 27.8685 36.0784 27.8878 36.0181C27.9072 35.9578 27.9395 35.9024 27.9827 35.8558C28.0258 35.8092 28.0786 35.7725 28.1375 35.7482C28.1964 35.7239 28.26 35.7126 28.3237 35.7152C28.3874 35.7177 28.4498 35.734 28.5066 35.763C28.5633 35.7919 28.613 35.8327 28.6522 35.8826L33.4442 40.4143C33.5264 40.4959 33.5726 40.6065 33.5726 40.7219C33.5726 40.8372 33.5264 40.9478 33.4442 41.0294C33.3678 41.1064 33.2661 41.1537 33.1575 41.1628Z" fill="url(#paint9_linear_2440_2058)"/>
<path d="M37.0194 38.6153C36.9088 38.6148 36.8024 38.5734 36.721 38.4993C36.721 38.4993 34.4332 36.364 33.2864 35.1803L32.7832 34.6639C31.7593 33.6252 30.8758 32.7258 30.5832 32.0063C30.5584 31.9532 30.5447 31.8957 30.5431 31.8372C30.5415 31.7787 30.552 31.7205 30.5739 31.6661C30.5959 31.6118 30.6287 31.5625 30.6706 31.5212C30.7124 31.4799 30.7623 31.4475 30.8172 31.4261C30.8709 31.4023 30.9288 31.3894 30.9876 31.3883C31.0464 31.3871 31.1048 31.3977 31.1593 31.4193C31.2139 31.441 31.2635 31.4733 31.3053 31.5143C31.347 31.5553 31.38 31.6043 31.4023 31.6582C31.6364 32.2384 32.5023 33.103 33.421 34.0372L33.93 34.5594C35.0651 35.7199 37.3119 37.8262 37.3295 37.8436C37.3942 37.9031 37.4393 37.9805 37.4589 38.0658C37.4786 38.1511 37.4719 38.2403 37.4396 38.3217C37.4074 38.4031 37.3512 38.473 37.2783 38.5223C37.2055 38.5716 37.1193 38.5979 37.0311 38.5979L37.0194 38.6153Z" fill="url(#paint10_linear_2440_2058)"/>
<path d="M40.0788 36.051C40.0016 36.0502 39.9259 36.0294 39.8592 35.9907C39.7925 35.9521 39.7371 35.8969 39.6985 35.8305C39.6435 35.7318 39.6299 35.6157 39.6606 35.5071C39.6912 35.3985 39.7637 35.3063 39.8623 35.2503L46.4331 31.5077C46.5332 31.4561 46.6494 31.4442 46.758 31.4743C46.8666 31.5045 46.9597 31.5745 47.0182 31.6701C47.0717 31.7691 47.0845 31.8848 47.0539 31.9929C47.0234 32.1011 46.9519 32.1933 46.8544 32.2504L40.3012 35.9756C40.2362 36.022 40.1589 36.0483 40.0788 36.051Z" fill="url(#paint11_linear_2440_2058)"/>
<path d="M6.33806 35.4529C5.80561 35.4529 4.02689 35.215 0.609864 32.5981C0.525565 32.5289 0.470852 32.4305 0.456739 32.3228C0.442626 32.2152 0.470161 32.1062 0.5338 32.0179C0.567057 31.9708 0.609386 31.9307 0.658342 31.9C0.707299 31.8692 0.761913 31.8484 0.819033 31.8387C0.876152 31.829 0.934646 31.8306 0.991136 31.8434C1.04763 31.8562 1.101 31.88 1.14816 31.9134C4.03859 34.13 5.64178 34.5129 6.18008 34.5768C7.09869 32.836 12.7391 21.8868 13.1428 14.7207C10.0136 13.2991 6.78521 12.1026 3.48274 11.1406C3.42698 11.1253 3.37489 11.099 3.32954 11.0634C3.28418 11.0278 3.24648 10.9836 3.21866 10.9333C3.19085 10.883 3.17348 10.8276 3.16758 10.7706C3.16168 10.7135 3.16738 10.6558 3.18433 10.601C3.21815 10.4912 3.29429 10.3992 3.3962 10.3449C3.49811 10.2905 3.61753 10.2783 3.72848 10.3108C7.17423 11.3026 10.5386 12.5538 13.7923 14.0534C13.8675 14.0915 13.9305 14.1498 13.9739 14.2216C14.0174 14.2934 14.0396 14.3759 14.0381 14.4596C13.7514 22.4148 7.1104 34.6986 6.82369 35.2208C6.7909 35.2798 6.74477 35.3304 6.68893 35.3686C6.63309 35.4069 6.56907 35.4318 6.50188 35.4413C6.44783 35.4508 6.39292 35.4547 6.33806 35.4529Z" fill="url(#paint12_linear_2440_2058)"/>
<path d="M45.8448 38.2269C45.6906 38.2248 45.5372 38.2034 45.3884 38.1631C44.2182 37.8381 43.048 36.4223 42.1996 34.3102C42.1569 34.2025 42.1592 34.0824 42.2058 33.9763C42.2524 33.8702 42.3397 33.7868 42.4483 33.7445C42.5569 33.7022 42.678 33.7044 42.785 33.7506C42.892 33.7969 42.9761 33.8834 43.0188 33.9911C43.8789 36.1554 44.9613 37.136 45.6225 37.3217C45.6886 37.3515 45.7605 37.367 45.8331 37.367C45.9058 37.367 45.9776 37.3515 46.0438 37.3217C48.7002 35.7666 43.7033 24.359 39.9119 17.5353C39.8875 17.4794 39.875 17.4192 39.875 17.3583C39.875 17.2975 39.8875 17.2372 39.9119 17.1813C39.9306 17.124 39.9617 17.0714 40.0032 17.0273C40.0446 16.9831 40.0954 16.9486 40.1517 16.926L51.731 11.9475C51.7843 11.9236 51.8419 11.9104 51.9004 11.9088C51.9589 11.9073 52.0171 11.9173 52.0716 11.9384C52.1261 11.9595 52.1759 11.9912 52.2178 12.0316C52.2598 12.0721 52.2932 12.1204 52.3161 12.1738C52.3633 12.2808 52.3657 12.4019 52.323 12.5107C52.2802 12.6195 52.1957 12.707 52.0879 12.7541L40.9709 17.5411C42.7262 20.7266 50.5725 35.7202 46.5879 38.047C46.3708 38.1952 46.1064 38.2592 45.8448 38.2269Z" fill="url(#paint13_linear_2440_2058)"/>
<path d="M46.3055 38.0758C46.2086 38.0766 46.1141 38.0455 46.0369 37.9874C45.9597 37.9293 45.904 37.8474 45.8786 37.7547C45.8532 37.6619 45.8595 37.5634 45.8965 37.4745C45.9335 37.3857 45.9992 37.3115 46.0832 37.2635L53.3151 33.0335C53.4146 32.9814 53.5302 32.9686 53.6388 32.9977C53.7473 33.0267 53.8408 33.0955 53.9002 33.1902C53.9542 33.2885 53.9679 33.4036 53.9385 33.5117C53.909 33.6197 53.8388 33.7124 53.7422 33.7704L46.5162 38.012C46.4525 38.0505 46.38 38.0724 46.3055 38.0758Z" fill="url(#paint14_linear_2440_2058)"/>
<defs>
<linearGradient id="paint0_linear_2440_2058" x1="12.832" y1="16.8221" x2="27.4566" y2="16.8221" gradientUnits="userSpaceOnUse">
<stop stop-color="#5EBC4D"/>
<stop offset="1" stop-color="#7FD01B"/>
</linearGradient>
<linearGradient id="paint1_linear_2440_2058" x1="18.375" y1="22.5834" x2="41.4326" y2="22.5834" gradientUnits="userSpaceOnUse">
<stop stop-color="#5EBC4D"/>
<stop offset="1" stop-color="#7FD01B"/>
</linearGradient>
<linearGradient id="paint2_linear_2440_2058" x1="7.99609" y1="32.6019" x2="14.2225" y2="32.6019" gradientUnits="userSpaceOnUse">
<stop stop-color="#5EBC4D"/>
<stop offset="1" stop-color="#7FD01B"/>
</linearGradient>
<linearGradient id="paint3_linear_2440_2058" x1="12.1758" y1="35.4893" x2="19.649" y2="35.4893" gradientUnits="userSpaceOnUse">
<stop stop-color="#5EBC4D"/>
<stop offset="1" stop-color="#7FD01B"/>
</linearGradient>
<linearGradient id="paint4_linear_2440_2058" x1="9.12891" y1="33.5827" x2="13.0383" y2="33.5827" gradientUnits="userSpaceOnUse">
<stop stop-color="#5EBC4D"/>
<stop offset="1" stop-color="#7FD01B"/>
</linearGradient>
<linearGradient id="paint5_linear_2440_2058" x1="15.6992" y1="38.1842" x2="23.3789" y2="38.1842" gradientUnits="userSpaceOnUse">
<stop stop-color="#5EBC4D"/>
<stop offset="1" stop-color="#7FD01B"/>
</linearGradient>
<linearGradient id="paint6_linear_2440_2058" x1="19.2656" y1="40.7355" x2="25.5797" y2="40.7355" gradientUnits="userSpaceOnUse">
<stop stop-color="#5EBC4D"/>
<stop offset="1" stop-color="#7FD01B"/>
</linearGradient>
<linearGradient id="paint7_linear_2440_2058" x1="24.7227" y1="33.5282" x2="40.6875" y2="33.5282" gradientUnits="userSpaceOnUse">
<stop stop-color="#5EBC4D"/>
<stop offset="1" stop-color="#7FD01B"/>
</linearGradient>
<linearGradient id="paint8_linear_2440_2058" x1="26.1367" y1="41.2936" x2="30.2755" y2="41.2936" gradientUnits="userSpaceOnUse">
<stop stop-color="#5EBC4D"/>
<stop offset="1" stop-color="#7FD01B"/>
</linearGradient>
<linearGradient id="paint9_linear_2440_2058" x1="27.8672" y1="38.4388" x2="33.5726" y2="38.4388" gradientUnits="userSpaceOnUse">
<stop stop-color="#5EBC4D"/>
<stop offset="1" stop-color="#7FD01B"/>
</linearGradient>
<linearGradient id="paint10_linear_2440_2058" x1="30.543" y1="35.0018" x2="37.47" y2="35.0018" gradientUnits="userSpaceOnUse">
<stop stop-color="#5EBC4D"/>
<stop offset="1" stop-color="#7FD01B"/>
</linearGradient>
<linearGradient id="paint11_linear_2440_2058" x1="39.6445" y1="33.7545" x2="47.0702" y2="33.7545" gradientUnits="userSpaceOnUse">
<stop stop-color="#5EBC4D"/>
<stop offset="1" stop-color="#7FD01B"/>
</linearGradient>
<linearGradient id="paint12_linear_2440_2058" x1="0.453125" y1="22.8732" x2="14.0381" y2="22.8732" gradientUnits="userSpaceOnUse">
<stop stop-color="#5EBC4D"/>
<stop offset="1" stop-color="#7FD01B"/>
</linearGradient>
<linearGradient id="paint13_linear_2440_2058" x1="39.875" y1="25.0719" x2="52.3534" y2="25.0719" gradientUnits="userSpaceOnUse">
<stop stop-color="#5EBC4D"/>
<stop offset="1" stop-color="#7FD01B"/>
</linearGradient>
<linearGradient id="paint14_linear_2440_2058" x1="45.8633" y1="35.5291" x2="53.9536" y2="35.5291" gradientUnits="userSpaceOnUse">
<stop stop-color="#5EBC4D"/>
<stop offset="1" stop-color="#7FD01B"/>
</linearGradient>
</defs>
</svg>
