<svg width="93" height="71" viewBox="0 0 93 71" fill="none" xmlns="http://www.w3.org/2000/svg">
<path d="M1.10567 70.4887C0.835761 70.5471 0.569651 70.3756 0.511293 70.1057C0.452935 69.8358 0.624428 69.5697 0.894334 69.5113L1.10567 70.4887ZM69.4444 34.0556L69.7922 34.4149L69.4444 34.0556ZM92 0L92.3283 5.76416L87.1722 3.1664L92 0ZM3.61704 68.8989C3.88593 68.8361 4.15487 69.0031 4.21771 69.272C4.28056 69.5409 4.11352 69.8098 3.84463 69.8727L3.61704 68.8989ZM9.28911 68.5013C9.02255 68.5734 8.74801 68.4157 8.6759 68.1492C8.60379 67.8826 8.76142 67.6081 9.02798 67.536L9.28911 68.5013ZM14.3857 65.9827C14.6495 65.901 14.9296 66.0486 15.0113 66.3124C15.093 66.5762 14.9454 66.8562 14.6816 66.9379L14.3857 65.9827ZM20.0129 65.1763C19.7524 65.2679 19.4669 65.1309 19.3753 64.8704C19.2837 64.6099 19.4206 64.3245 19.6811 64.2329L20.0129 65.1763ZM24.9057 62.2807C25.1624 62.179 25.453 62.3047 25.5547 62.5614C25.6564 62.8181 25.5308 63.1087 25.274 63.2104L24.9057 62.2807ZM30.4532 61.0372C30.2008 61.1492 29.9054 61.0353 29.7934 60.7829C29.6814 60.5305 29.7953 60.2351 30.0477 60.1231L30.4532 61.0372ZM35.0969 57.7579C35.3445 57.6356 35.6444 57.7372 35.7667 57.9848C35.8889 58.2324 35.7873 58.5322 35.5398 58.6545L35.0969 57.7579ZM40.5232 56.0623C40.281 56.1949 39.9771 56.1059 39.8446 55.8637C39.712 55.6214 39.801 55.3176 40.0432 55.185L40.5232 56.0623ZM44.8765 52.4064C45.113 52.2637 45.4203 52.3398 45.563 52.5762C45.7056 52.8126 45.6296 53.1199 45.3932 53.2626L44.8765 52.4064ZM50.1407 50.259C49.9105 50.4115 49.6003 50.3486 49.4477 50.1184C49.2952 49.8882 49.3581 49.578 49.5883 49.4254L50.1407 50.259ZM54.1698 46.2482C54.3933 46.0861 54.7059 46.1359 54.868 46.3595C55.0302 46.583 54.9803 46.8957 54.7568 47.0578L54.1698 46.2482ZM59.2341 43.6666C59.0174 43.8379 58.703 43.8011 58.5317 43.5845C58.3605 43.3678 58.3972 43.0534 58.6139 42.8821L59.2341 43.6666ZM62.9164 39.3351C63.1258 39.1551 63.4415 39.1791 63.6215 39.3885C63.8014 39.598 63.7775 39.9136 63.5681 40.0936L62.9164 39.3351ZM67.7548 36.3486C67.5527 36.5367 67.2363 36.5254 67.0482 36.3232C66.86 36.1211 66.8714 35.8047 67.0735 35.6166L67.7548 36.3486ZM71.4762 31.2737C71.6647 31.072 71.9811 31.0613 72.1829 31.2499C72.3846 31.4384 72.3953 31.7548 72.2067 31.9566L71.4762 31.2737ZM76.6731 26.7184C76.5031 26.9361 76.1889 26.9747 75.9713 26.8047C75.7537 26.6347 75.715 26.3205 75.885 26.1029L76.6731 26.7184ZM79.8696 20.5874C80.0234 20.358 80.3341 20.2969 80.5634 20.4507C80.7927 20.6046 80.8539 20.9152 80.7 21.1445L79.8696 20.5874ZM84.3588 15.3312C84.218 15.5688 83.9113 15.6471 83.6737 15.5063C83.4362 15.3655 83.3578 15.0587 83.4987 14.8212L84.3588 15.3312ZM86.8521 8.88102C86.9833 8.63805 87.2867 8.54747 87.5296 8.6787C87.7726 8.80993 87.8632 9.11327 87.732 9.35624L86.8521 8.88102ZM90.9066 3.28147C90.7814 3.52762 90.4804 3.6257 90.2343 3.50054C89.9881 3.37539 89.89 3.07438 90.0152 2.82823L90.9066 3.28147ZM1 70L0.894334 69.5113C1.80603 69.3142 2.71359 69.1101 3.61704 68.8989L3.73083 69.3858L3.84463 69.8727C2.93572 70.0851 2.02273 70.2904 1.10567 70.4887L1 70ZM9.15855 68.0186L9.02798 67.536C10.8308 67.0483 12.6167 66.5307 14.3857 65.9827L14.5337 66.4603L14.6816 66.9379C12.9009 67.4896 11.1034 68.0105 9.28911 68.5013L9.15855 68.0186ZM19.847 64.7046L19.6811 64.2329C21.4399 63.6144 23.1814 62.9639 24.9057 62.2807L25.0899 62.7456L25.274 63.2104C23.5375 63.8985 21.7837 64.5535 20.0129 65.1763L19.847 64.7046ZM30.2505 60.5801L30.0477 60.1231C31.7481 59.3688 33.4311 58.5806 35.0969 57.7579L35.3183 58.2062L35.5398 58.6545C33.8615 59.4834 32.166 60.2774 30.4532 61.0372L30.2505 60.5801ZM40.2832 55.6237L40.0432 55.185C41.6714 54.2942 43.2825 53.3682 44.8765 52.4064L45.1349 52.8345L45.3932 53.2626C43.787 54.2318 42.1637 55.1648 40.5232 56.0623L40.2832 55.6237ZM49.8645 49.8422L49.5883 49.4254C51.132 48.4024 52.6591 47.3436 54.1698 46.2482L54.4633 46.653L54.7568 47.0578C53.2348 48.1614 51.6961 49.2282 50.1407 50.259L49.8645 49.8422ZM58.924 43.2744L58.6139 42.8821C60.0638 41.7359 61.498 40.5537 62.9164 39.3351L63.2422 39.7143L63.5681 40.0936C62.1394 41.321 60.6947 42.5118 59.2341 43.6666L58.924 43.2744ZM67.4142 35.9826L67.0735 35.6166C67.7516 34.9854 68.4261 34.3453 69.0967 33.6963L69.4444 34.0556L69.7922 34.4149C69.1168 35.0684 68.4377 35.7129 67.7548 36.3486L67.4142 35.9826ZM69.4444 34.0556L69.0967 33.6963C69.9114 32.9079 70.7041 32.0998 71.4762 31.2737L71.8415 31.6151L72.2067 31.9566C71.4236 32.7944 70.6193 33.6144 69.7922 34.4149L69.4444 34.0556ZM76.2791 26.4106L75.885 26.1029C77.2793 24.3177 78.6034 22.4745 79.8696 20.5874L80.2848 20.8659L80.7 21.1445C79.422 23.0493 78.0839 24.9122 76.6731 26.7184L76.2791 26.4106ZM83.9287 15.0762L83.4987 14.8212C84.6581 12.8659 85.7718 10.8812 86.8521 8.88102L87.292 9.11863L87.732 9.35624C86.6466 11.3658 85.5263 13.3624 84.3588 15.3312L83.9287 15.0762Z" fill="url(#paint0_linear_2387_1411)"/>
<defs>
<linearGradient id="paint0_linear_2387_1411" x1="1" y1="35" x2="92" y2="35" gradientUnits="userSpaceOnUse">
<stop stop-color="#5EBC4D"/>
<stop offset="1" stop-color="#7FD01B"/>
</linearGradient>
</defs>
</svg>
