<svg width="83" height="83" viewBox="0 0 83 83" fill="none" xmlns="http://www.w3.org/2000/svg">
<path d="M43.6716 71.7244H39.2567C39.0817 71.7221 38.9146 71.6516 38.7909 71.5279C38.6672 71.4042 38.5967 71.2371 38.5944 71.0622V67.7245C36.8573 67.2899 35.2636 66.4098 33.9706 65.171C32.6776 63.9322 31.7301 62.3776 31.2216 60.6607C31.1553 60.4994 31.1553 60.3186 31.2216 60.1574C31.2627 60.0802 31.3192 60.0122 31.3875 59.9576C31.4558 59.9029 31.5346 59.8627 31.6189 59.8395L35.813 58.568C35.9805 58.5185 36.1607 58.5371 36.3145 58.6198C36.4683 58.7024 36.5832 58.8425 36.6342 59.0095C36.8235 59.6367 37.1454 60.216 37.578 60.7081C38.0107 61.2001 38.544 61.5935 39.1419 61.8615C39.9169 62.2022 40.7543 62.3782 41.601 62.3782C42.4476 62.3782 43.285 62.2022 44.0601 61.8615C44.8599 61.5905 45.5242 61.0211 45.9143 60.2722C46.0135 60.0781 46.0653 59.8632 46.0653 59.6452C46.0653 59.4273 46.0135 59.2124 45.9143 59.0183C45.3051 57.9941 42.921 57.685 41.6319 57.5173L41.1992 57.4554C34.7535 56.5725 31.4864 53.7999 31.4864 49.3232C31.4864 45.6147 34.3208 42.5331 38.5503 41.5088V37.712C38.5526 37.5371 38.6231 37.37 38.7468 37.2463C38.8705 37.1226 39.0376 37.0521 39.2125 37.0498H43.6274C43.8023 37.0521 43.9694 37.1226 44.0931 37.2463C44.2168 37.37 44.2873 37.5371 44.2896 37.712V41.4206C45.8254 41.7019 47.2671 42.3609 48.4848 43.3381C49.7025 44.3154 50.658 45.5802 51.2652 47.0186C51.3411 47.1767 51.3512 47.3585 51.2932 47.524C51.2353 47.6896 51.1141 47.8254 50.9561 47.9016L47.0445 49.8C46.8864 49.8759 46.7047 49.886 46.5391 49.8281C46.3736 49.7701 46.2378 49.6489 46.1616 49.491C45.2786 47.6279 43.9541 46.842 41.6319 46.842C40.2986 46.842 38.4443 47.3188 37.6408 48.2107C37.4846 48.3736 37.3658 48.5685 37.2926 48.782C37.2194 48.9955 37.1936 49.2224 37.217 49.4468C37.2672 49.7075 37.3718 49.9547 37.5239 50.1722C37.6761 50.3898 37.8723 50.5729 38.1 50.7095C39.2251 51.3169 40.4701 51.6696 41.7467 51.7426H42.0292C47.8569 52.5637 51.742 54.2591 51.742 59.8748C51.742 63.6363 48.731 66.815 44.3426 67.7598V71.0003C44.3499 71.0928 44.338 71.1858 44.3076 71.2734C44.2772 71.3611 44.2289 71.4415 44.1658 71.5095C44.1028 71.5775 44.0263 71.6317 43.9412 71.6687C43.8561 71.7057 43.7643 71.7247 43.6716 71.7244ZM39.9454 70.3999H43.0093V67.2742C43.0072 67.1178 43.0614 66.9658 43.1618 66.8459C43.2623 66.726 43.4024 66.6461 43.5568 66.6208C47.592 65.9409 50.4087 63.1948 50.4087 59.9366C50.4087 55.2392 47.2741 53.8794 41.8438 53.12H41.5612C40.0874 53.0321 38.653 52.6093 37.3671 51.8838C36.9733 51.6425 36.6377 51.3171 36.3843 50.9309C36.1309 50.5447 35.966 50.1073 35.9013 49.6499C35.8596 49.2415 35.9049 48.8289 36.0343 48.4392C36.1637 48.0496 36.3741 47.6918 36.6519 47.3895C37.9498 45.9591 40.4752 45.6235 41.6319 45.6235C44.219 45.6235 45.9231 46.5065 47.0445 48.4049L49.8083 47.0804C49.2045 45.897 48.3196 44.8796 47.2313 44.1176C46.1429 43.3556 44.8842 42.8722 43.5656 42.7097C43.4104 42.6845 43.2692 42.605 43.1673 42.4853C43.0654 42.3656 43.0094 42.2135 43.0093 42.0563V38.3743H39.9454V42.0475C39.946 42.2021 39.8925 42.3522 39.7942 42.4715C39.6958 42.5909 39.5587 42.672 39.4068 42.7009C35.4863 43.4514 32.8462 46.118 32.8462 49.3232C32.8462 54.3474 37.7379 55.6188 41.42 56.1486L41.8438 56.2016C43.5568 56.4224 46.1527 56.7667 47.0887 58.3384C47.2932 58.7045 47.4078 59.114 47.4231 59.5331C47.4385 59.9521 47.3541 60.3689 47.177 60.749C46.9351 61.2929 46.5872 61.7831 46.1536 62.1909C45.72 62.5988 45.2094 62.916 44.6517 63.1242C43.7073 63.5414 42.6863 63.7569 41.6539 63.7569C40.6216 63.7569 39.6005 63.5414 38.6562 63.1242C37.3096 62.5055 36.2422 61.4066 35.6629 60.0426L32.7314 60.9256C33.2769 62.3547 34.1778 63.6212 35.3489 64.6054C36.52 65.5895 37.9227 66.2589 39.4244 66.5501C39.5716 66.5823 39.7035 66.6637 39.7982 66.7808C39.8929 66.898 39.9448 67.044 39.9454 67.1947V70.3999Z" fill="url(#paint0_linear_2387_1397)"/>
<path d="M50.4709 24.5733H32.4404C31.8222 24.5733 31.2293 24.3277 30.7921 23.8905C30.355 23.4533 30.1094 22.8604 30.1094 22.2422V22.1362C30.1094 21.518 30.355 20.9251 30.7921 20.4879C31.2293 20.0508 31.8222 19.8052 32.4404 19.8052H50.4709C51.0891 19.8052 51.682 20.0508 52.1192 20.4879C52.5563 20.9251 52.8019 21.518 52.8019 22.1362V22.2422C52.8019 22.8604 52.5563 23.4533 52.1192 23.8905C51.682 24.3277 51.0891 24.5733 50.4709 24.5733ZM32.4404 21.1296C32.3083 21.1296 32.1774 21.1557 32.0552 21.2063C31.9331 21.2569 31.8221 21.331 31.7287 21.4245C31.6352 21.5179 31.5611 21.6289 31.5105 21.751C31.4599 21.8732 31.4338 22.0041 31.4338 22.1362V22.2422C31.4338 22.5092 31.5399 22.7652 31.7287 22.954C31.9174 23.1427 32.1735 23.2488 32.4404 23.2488H50.4709C50.7378 23.2488 50.9939 23.1427 51.1826 22.954C51.3714 22.7652 51.4775 22.5092 51.4775 22.2422V22.1362C51.4775 22.0041 51.4514 21.8732 51.4008 21.751C51.3503 21.6289 51.2761 21.5179 51.1826 21.4245C51.0892 21.331 50.9782 21.2569 50.8561 21.2063C50.7339 21.1557 50.6031 21.1296 50.4709 21.1296H32.4404Z" fill="url(#paint1_linear_2387_1397)"/>
<path d="M58.3844 81.8966H24.531C21.2204 81.9148 18.023 80.6926 15.5688 78.4706C8.43432 71.9542 7.0657 61.1377 11.9133 49.5442C14.73 42.8071 19.3391 37.9684 23.7893 33.3062C26.8266 30.273 29.6196 27.0047 32.1423 23.5317C32.1922 23.4598 32.2557 23.3984 32.3293 23.3511C32.4028 23.3037 32.485 23.2713 32.5711 23.2558C32.6572 23.2402 32.7455 23.2417 32.831 23.2603C32.9165 23.2788 32.9975 23.314 33.0694 23.3639C33.1413 23.4138 33.2027 23.4773 33.25 23.5509C33.2974 23.6244 33.3297 23.7066 33.3453 23.7927C33.3609 23.8788 33.3594 23.9671 33.3408 24.0526C33.3223 24.1381 33.2871 24.2191 33.2372 24.291C30.665 27.8205 27.8189 31.1419 24.7253 34.2245C20.1779 39.0191 15.8955 43.54 13.1406 50.0563C8.52262 61.1112 9.75879 71.3714 16.4606 77.4993C18.6726 79.4955 21.5515 80.5917 24.531 80.5721H58.3844C61.3639 80.5917 64.2429 79.4955 66.4549 77.4993C71.4525 72.9255 73.5187 66.2678 72.2913 58.7537C70.6667 48.7849 64.5829 41.9241 58.1637 34.6572C55.1365 31.3741 52.3089 27.9125 49.6959 24.291C49.5952 24.1458 49.5563 23.9666 49.5878 23.7927C49.6192 23.6188 49.7185 23.4646 49.8637 23.3639C50.0089 23.2632 50.1881 23.2243 50.362 23.2558C50.5359 23.2872 50.6901 23.3865 50.7908 23.5317C53.3694 27.1163 56.1648 30.5398 59.1614 33.783C65.4394 40.8469 71.9293 48.1933 73.6158 58.5065C74.9226 66.4533 72.7328 73.5171 67.3643 78.4441C64.9096 80.6798 61.7047 81.912 58.3844 81.8966Z" fill="url(#paint2_linear_2387_1397)"/>
<path d="M72.6408 48.2724C72.4914 48.2723 72.3463 48.2216 72.2293 48.1287C72.1123 48.0357 72.0301 47.9058 71.9963 47.7603C65.4357 19.1959 49.6039 21.0855 49.445 21.112C49.2708 21.1347 49.0947 21.0883 48.9543 20.9827C48.814 20.877 48.7207 20.7205 48.6945 20.5469C48.6692 20.3736 48.7135 20.1974 48.8177 20.0568C48.9219 19.9161 49.0776 19.8225 49.2507 19.7963C49.9571 19.6992 66.4423 17.6595 73.2854 47.46C73.3076 47.5448 73.3123 47.6332 73.2991 47.7198C73.286 47.8064 73.2554 47.8894 73.2091 47.9637C73.1628 48.0381 73.1019 48.1023 73.03 48.1523C72.9581 48.2023 72.8768 48.2372 72.791 48.2547L72.6408 48.2724Z" fill="url(#paint3_linear_2387_1397)"/>
<path d="M57.8708 36.7585H57.7383C57.6525 36.7417 57.5708 36.7079 57.4983 36.659C57.4258 36.6101 57.3638 36.5472 57.316 36.4739C57.2682 36.4006 57.2357 36.3185 57.2203 36.2324C57.2048 36.1463 57.2069 36.0579 57.2262 35.9726C57.2262 35.902 58.7538 28.4496 55.8488 24.0789C55.3381 23.3024 54.6733 22.6391 53.8956 22.1302C53.1179 21.6214 52.2439 21.2778 51.3279 21.1209C51.2422 21.1051 51.1605 21.0723 51.0876 21.0244C51.0147 20.9766 50.9522 20.9146 50.9037 20.8422C50.8551 20.7698 50.8215 20.6884 50.8049 20.6028C50.7883 20.5172 50.789 20.4292 50.807 20.3439C50.8411 20.1719 50.9421 20.0204 51.0877 19.9227C51.2334 19.8251 51.4119 19.7892 51.584 19.8229C52.6737 20.014 53.7129 20.4258 54.6376 21.0332C55.5624 21.6406 56.3531 22.4306 56.9613 23.3548C60.1577 28.1936 58.586 35.9285 58.5242 36.2552C58.4868 36.3998 58.4023 36.5279 58.2839 36.619C58.1656 36.7102 58.0202 36.7593 57.8708 36.7585Z" fill="url(#paint4_linear_2387_1397)"/>
<path d="M43.929 21.1119C43.7549 21.105 43.5905 21.0297 43.4715 20.9025C43.3525 20.7752 43.2884 20.6062 43.2932 20.432C43.2932 20.3084 43.4345 17.3945 47.2666 13.0944C47.3837 12.9633 47.5481 12.884 47.7236 12.8741C47.8992 12.8642 48.0714 12.9244 48.2026 13.0415C48.3337 13.1586 48.413 13.3229 48.4229 13.4985C48.4329 13.674 48.3727 13.8463 48.2556 13.9774C44.7855 17.8625 44.6177 20.4585 44.6177 20.4761C44.6143 20.5631 44.5938 20.6486 44.5573 20.7276C44.5208 20.8067 44.4691 20.8778 44.4051 20.9368C44.3412 20.9959 44.2662 21.0417 44.1845 21.0718C44.1028 21.1018 44.0159 21.1154 43.929 21.1119Z" fill="url(#paint5_linear_2387_1397)"/>
<path d="M41.6427 21.13C41.4678 21.1277 41.3007 21.0572 41.177 20.9335C41.0533 20.8098 40.9828 20.6427 40.9805 20.4678V10.755C40.9805 10.5794 41.0502 10.4109 41.1744 10.2867C41.2986 10.1625 41.4671 10.0928 41.6427 10.0928C41.8183 10.0928 41.9868 10.1625 42.111 10.2867C42.2352 10.4109 42.3049 10.5794 42.3049 10.755V20.4678C42.3049 20.6434 42.2352 20.8119 42.111 20.936C41.9868 21.0602 41.8183 21.13 41.6427 21.13Z" fill="url(#paint6_linear_2387_1397)"/>
<path d="M40.0177 21.1294C39.8662 21.1269 39.7201 21.0731 39.603 20.9769C39.486 20.8807 39.405 20.7478 39.3731 20.5997C38.7787 18.314 37.5297 16.2517 35.7794 14.666C35.6471 14.549 35.5667 14.3841 35.5559 14.2077C35.5452 14.0314 35.6049 13.858 35.722 13.7257C35.8391 13.5934 36.0039 13.513 36.1803 13.5022C36.3566 13.4915 36.53 13.5512 36.6624 13.6683C38.6313 15.432 40.0274 17.7445 40.6711 20.3083C40.689 20.3936 40.6897 20.4816 40.6731 20.5672C40.6565 20.6528 40.6229 20.7342 40.5744 20.8066C40.5258 20.879 40.4633 20.941 40.3904 20.9888C40.3176 21.0367 40.2359 21.0695 40.1501 21.0853L40.0177 21.1294Z" fill="url(#paint7_linear_2387_1397)"/>
<path d="M33.3596 21.094H33.3155C33.2288 21.0895 33.1439 21.0678 33.0658 21.0302C32.9876 20.9926 32.9177 20.9397 32.8602 20.8748C32.8027 20.8099 32.7586 20.7341 32.7307 20.652C32.7027 20.5699 32.6914 20.483 32.6974 20.3965C32.6974 20.1492 32.8828 14.6041 24.4592 11.7698C24.3142 11.72 24.1909 11.6216 24.1104 11.4912C24.0299 11.3607 23.9972 11.2064 24.0177 11.0545C24.0177 10.9133 24.5033 7.6639 26.8874 6.31294C27.5117 5.98797 28.1968 5.79658 28.8992 5.75097C29.6015 5.70536 30.3057 5.80654 30.9667 6.04805C31.0285 4.14082 31.8497 1.58018 34.8783 1.16518C38.5339 0.661881 41.4212 3.53156 42.2777 6.51603C42.3269 6.68464 42.3071 6.86588 42.2226 7.01988C42.1382 7.17388 41.996 7.28802 41.8274 7.3372C41.6589 7.38169 41.4797 7.35978 41.3269 7.27597C41.1741 7.19217 41.0593 7.05289 41.0062 6.88688C40.4499 4.9355 38.3573 2.02167 35.0638 2.47199C31.7702 2.92231 32.3089 6.75443 32.3265 6.88688C32.3448 7.0022 32.3305 7.12035 32.2853 7.22799C32.2401 7.33563 32.1656 7.4285 32.0705 7.49614C31.9792 7.56746 31.8705 7.61323 31.7557 7.62875C31.6409 7.64426 31.524 7.62897 31.4171 7.58443C29.8542 6.91337 28.5562 6.86039 27.5496 7.43433C26.4538 8.20116 25.6975 9.36253 25.4393 10.6749C34.2691 13.9154 34.0307 20.1669 34.013 20.4406C34.013 20.5264 33.9961 20.6114 33.9633 20.6907C33.9304 20.7699 33.8823 20.842 33.8216 20.9026C33.761 20.9633 33.6889 21.0114 33.6097 21.0443C33.5304 21.0771 33.4454 21.094 33.3596 21.094Z" fill="url(#paint8_linear_2387_1397)"/>
<path d="M49.3587 21.1119C49.1846 21.1028 49.0211 21.0253 48.9038 20.8964C48.7864 20.7674 48.7246 20.5974 48.7318 20.4232C48.7318 20.2819 48.9349 16.9796 54.118 13.739C57.1201 11.8671 58.0472 10.472 57.906 9.79211C57.7647 9.11222 56.8376 8.74137 55.257 8.46765C53.5529 8.17626 51.9194 6.96658 50.3388 5.81871C48.4228 4.41477 46.6303 3.0903 44.9792 3.42584C43.9019 3.64658 42.9042 4.55605 41.924 6.22488C41.883 6.30537 41.8259 6.37661 41.7563 6.43421C41.6867 6.49181 41.606 6.53456 41.5193 6.55982C41.4325 6.58509 41.3415 6.59233 41.2519 6.58111C41.1622 6.56989 41.0758 6.54044 40.998 6.49458C40.9201 6.44871 40.8525 6.3874 40.7992 6.31442C40.7459 6.24144 40.7082 6.15833 40.6882 6.07021C40.6683 5.98208 40.6666 5.89081 40.6832 5.802C40.6999 5.7132 40.7345 5.62873 40.785 5.55382C41.9594 3.53179 43.2662 2.42807 44.7143 2.12786C46.9482 1.66871 49.0585 3.23158 51.107 4.77679C52.5639 5.8452 54.0738 6.95775 55.4689 7.19616C57.694 7.58467 58.939 8.38818 59.1774 9.5802C59.4688 11.0989 57.9943 12.8914 54.7626 14.8781C50.2329 17.7036 50.0033 20.4673 50.0033 20.4938C49.9904 20.658 49.9176 20.8117 49.7988 20.9256C49.6799 21.0396 49.5233 21.1059 49.3587 21.1119Z" fill="url(#paint9_linear_2387_1397)"/>
<defs>
<linearGradient id="paint0_linear_2387_1397" x1="31.1719" y1="54.3871" x2="51.742" y2="54.3871" gradientUnits="userSpaceOnUse">
<stop stop-color="#5EBC4D"/>
<stop offset="1" stop-color="#7FD01B"/>
</linearGradient>
<linearGradient id="paint1_linear_2387_1397" x1="30.1094" y1="22.1892" x2="52.8019" y2="22.1892" gradientUnits="userSpaceOnUse">
<stop stop-color="#5EBC4D"/>
<stop offset="1" stop-color="#7FD01B"/>
</linearGradient>
<linearGradient id="paint2_linear_2387_1397" x1="9.05078" y1="52.5709" x2="73.9842" y2="52.5709" gradientUnits="userSpaceOnUse">
<stop stop-color="#5EBC4D"/>
<stop offset="1" stop-color="#7FD01B"/>
</linearGradient>
<linearGradient id="paint3_linear_2387_1397" x1="48.6875" y1="34.0031" x2="73.3064" y2="34.0031" gradientUnits="userSpaceOnUse">
<stop stop-color="#5EBC4D"/>
<stop offset="1" stop-color="#7FD01B"/>
</linearGradient>
<linearGradient id="paint4_linear_2387_1397" x1="50.793" y1="28.2845" x2="58.9646" y2="28.2845" gradientUnits="userSpaceOnUse">
<stop stop-color="#5EBC4D"/>
<stop offset="1" stop-color="#7FD01B"/>
</linearGradient>
<linearGradient id="paint5_linear_2387_1397" x1="43.293" y1="16.9927" x2="48.424" y2="16.9927" gradientUnits="userSpaceOnUse">
<stop stop-color="#5EBC4D"/>
<stop offset="1" stop-color="#7FD01B"/>
</linearGradient>
<linearGradient id="paint6_linear_2387_1397" x1="40.9805" y1="15.6114" x2="42.3049" y2="15.6114" gradientUnits="userSpaceOnUse">
<stop stop-color="#5EBC4D"/>
<stop offset="1" stop-color="#7FD01B"/>
</linearGradient>
<linearGradient id="paint7_linear_2387_1397" x1="35.5547" y1="17.3152" x2="40.6851" y2="17.3152" gradientUnits="userSpaceOnUse">
<stop stop-color="#5EBC4D"/>
<stop offset="1" stop-color="#7FD01B"/>
</linearGradient>
<linearGradient id="paint8_linear_2387_1397" x1="24.0117" y1="11.1007" x2="42.3042" y2="11.1007" gradientUnits="userSpaceOnUse">
<stop stop-color="#5EBC4D"/>
<stop offset="1" stop-color="#7FD01B"/>
</linearGradient>
<linearGradient id="paint9_linear_2387_1397" x1="40.6719" y1="11.5791" x2="59.2135" y2="11.5791" gradientUnits="userSpaceOnUse">
<stop stop-color="#5EBC4D"/>
<stop offset="1" stop-color="#7FD01B"/>
</linearGradient>
</defs>
</svg>
