<svg width="105" height="94" viewBox="0 0 105 94" fill="none" xmlns="http://www.w3.org/2000/svg">
<path d="M46.9437 35.8969C46.5596 35.8962 46.1823 35.7943 45.85 35.6016L38.9594 31.7188C38.8683 31.6704 38.7671 31.6442 38.6641 31.6422H21.3281C20.748 31.6422 20.1916 31.4117 19.7813 31.0015C19.3711 30.5912 19.1406 30.0348 19.1406 29.4547V13.2891C19.1406 12.7089 19.3711 12.1525 19.7813 11.7423C20.1916 11.332 20.748 11.1016 21.3281 11.1016H46.9437C47.5239 11.1016 48.0803 11.332 48.4905 11.7423C48.9008 12.1525 49.1312 12.7089 49.1312 13.2891V33.6656C49.1367 34.0548 49.0382 34.4383 48.8459 34.7767C48.6536 35.1151 48.3746 35.3961 48.0375 35.5906C47.7062 35.7872 47.3289 35.8929 46.9437 35.8969ZM21.3281 12.6984C21.1715 12.6984 21.0213 12.7607 20.9105 12.8714C20.7997 12.9822 20.7375 13.1324 20.7375 13.2891V29.3672C20.7404 29.5219 20.8039 29.6694 20.9143 29.7778C21.0248 29.8862 21.1734 29.9469 21.3281 29.9469H38.6641C39.0478 29.9506 39.4243 30.0522 39.7578 30.2422L46.6375 34.1688C46.7269 34.2217 46.8289 34.2496 46.9328 34.2496C47.0367 34.2496 47.1387 34.2217 47.2281 34.1688C47.317 34.1189 47.3904 34.0456 47.4406 33.9569C47.4907 33.8682 47.5156 33.7675 47.5125 33.6656V13.2891C47.5125 13.1343 47.4518 12.9857 47.3434 12.8752C47.235 12.7648 47.0876 12.7013 46.9328 12.6984H21.3281Z" fill="url(#paint0_linear_2387_1355)"/>
<path d="M31.7206 24.9701C31.6051 24.9703 31.4907 24.946 31.3852 24.8989C31.2796 24.8517 31.1852 24.7828 31.1082 24.6967L28.6691 21.9842C28.5903 21.903 28.5291 21.8063 28.4895 21.7003C28.4498 21.5943 28.4326 21.4813 28.4387 21.3683C28.4449 21.2553 28.4744 21.1448 28.5253 21.0437C28.5762 20.9426 28.6475 20.8532 28.7347 20.7811C28.8135 20.7081 28.9062 20.6517 29.0073 20.6154C29.1083 20.5791 29.2157 20.5635 29.3229 20.5696C29.4301 20.5758 29.535 20.6035 29.6313 20.6511C29.7275 20.6987 29.8132 20.7652 29.8831 20.8467L31.7972 23.0342L37.7035 18.342C37.8766 18.2085 38.0953 18.1485 38.3123 18.1751C38.5293 18.2017 38.7271 18.3128 38.8628 18.4842C38.938 18.5697 38.9945 18.6699 39.0288 18.7784C39.0631 18.887 39.0745 19.0015 39.0621 19.1146C39.0498 19.2278 39.014 19.3372 38.9571 19.4358C38.9002 19.5343 38.8234 19.62 38.7316 19.6873L32.1691 24.8498C32.0346 24.9328 31.8787 24.9747 31.7206 24.9701Z" fill="url(#paint1_linear_2387_1355)"/>
<path d="M29.2695 17.4126H24.5664C24.3488 17.4126 24.1402 17.3262 23.9864 17.1723C23.8325 17.0185 23.7461 16.8098 23.7461 16.5923C23.7461 16.3747 23.8325 16.1661 23.9864 16.0122C24.1402 15.8584 24.3488 15.772 24.5664 15.772H29.2695C29.4871 15.772 29.6957 15.8584 29.8496 16.0122C30.0034 16.1661 30.0898 16.3747 30.0898 16.5923C30.0898 16.8098 30.0034 17.0185 29.8496 17.1723C29.6957 17.3262 29.4871 17.4126 29.2695 17.4126Z" fill="url(#paint2_linear_2387_1355)"/>
<path d="M46.4727 65.8002C46.256 65.7974 46.049 65.71 45.8957 65.5568C45.7425 65.4036 45.6552 65.1966 45.6523 64.9799C45.6579 60.0397 47.1957 55.2228 50.0538 51.1932C52.9119 47.1637 56.9495 44.1199 61.6102 42.4815C61.7121 42.4463 61.82 42.4315 61.9277 42.438C62.0354 42.4445 62.1408 42.4722 62.2378 42.5194C62.3347 42.5667 62.4215 42.6325 62.493 42.7133C62.5646 42.794 62.6195 42.8881 62.6547 42.9901C62.6899 43.092 62.7046 43.1999 62.6981 43.3076C62.6916 43.4153 62.6639 43.5207 62.6167 43.6176C62.5695 43.7146 62.5036 43.8014 62.4229 43.8729C62.3421 43.9445 62.2481 43.9994 62.1461 44.0346C57.8075 45.56 54.049 48.3938 51.3887 52.1452C48.7284 55.8966 47.2974 60.381 47.293 64.9799C47.2901 65.1966 47.2028 65.4036 47.0496 65.5568C46.8963 65.71 46.6893 65.7974 46.4727 65.8002Z" fill="url(#paint3_linear_2387_1355)"/>
<path d="M92.5094 65.8002C92.2927 65.7973 92.0857 65.71 91.9324 65.5568C91.7792 65.4035 91.6919 65.1965 91.689 64.9798C91.687 60.3818 90.2582 55.8978 87.5998 52.1462C84.9413 48.3946 81.1843 45.5604 76.8469 44.0345C76.7394 43.9994 76.6403 43.9425 76.5559 43.8673C76.4715 43.7921 76.4036 43.7003 76.3563 43.5976C76.3091 43.4949 76.2836 43.3835 76.2814 43.2705C76.2792 43.1575 76.3005 43.0452 76.3437 42.9408C76.3771 42.8323 76.4332 42.7322 76.5083 42.6471C76.5834 42.562 76.6758 42.4939 76.7793 42.4473C76.8828 42.4007 76.995 42.3767 77.1085 42.377C77.222 42.3772 77.3342 42.4016 77.4375 42.4486C82.0929 44.0971 86.1219 47.1498 88.9685 51.1856C91.8151 55.2214 93.3389 60.0412 93.3297 64.9798C93.3268 65.1965 93.2395 65.4035 93.0863 65.5568C92.933 65.71 92.726 65.7973 92.5094 65.8002Z" fill="url(#paint4_linear_2387_1355)"/>
<path d="M71.169 56.3059H67.8112C67.6508 56.3079 67.4934 56.2622 67.3591 56.1746C67.2247 56.0869 67.1194 55.9613 67.0565 55.8138L62.244 44.7341C62.157 44.5339 62.1531 44.3074 62.2331 44.1043C62.313 43.9013 62.4704 43.7383 62.6706 43.6513C62.8707 43.5642 63.0973 43.5603 63.3003 43.6403C63.5034 43.7203 63.6664 43.8777 63.7534 44.0778L68.3472 54.6872H70.6331L75.2268 44.0997C75.3139 43.8995 75.4768 43.7421 75.6799 43.6622C75.883 43.5822 76.1095 43.5861 76.3096 43.6731C76.5098 43.7602 76.6672 43.9231 76.7472 44.1262C76.8272 44.3293 76.8232 44.5558 76.7362 44.7559L71.9237 55.7809C71.866 55.9347 71.7629 56.0672 71.6282 56.161C71.4934 56.2548 71.3332 56.3053 71.169 56.3059Z" fill="url(#paint5_linear_2387_1355)"/>
<path d="M75.9953 65.8H63.0015C62.8683 65.7927 62.739 65.753 62.6246 65.6843C62.5103 65.6157 62.4144 65.5203 62.3453 65.4063C62.2752 65.2849 62.2383 65.1472 62.2383 65.007C62.2383 64.8669 62.2752 64.7292 62.3453 64.6078L67.1687 55.1141C67.2313 54.9941 67.3234 54.892 67.4362 54.8174C67.5491 54.7428 67.6791 54.6981 67.814 54.6875H71.1718C71.3235 54.6872 71.4723 54.7289 71.6016 54.8081C71.731 54.8873 71.8359 55.0008 71.9046 55.1359L76.7281 64.6297C76.7981 64.7511 76.835 64.8888 76.835 65.0289C76.835 65.1691 76.7981 65.3067 76.7281 65.4281C76.6486 65.5483 76.5393 65.6458 76.4108 65.711C76.2824 65.7761 76.1392 65.8068 75.9953 65.8ZM64.3359 64.1594H74.6609L70.6687 56.3063H68.3171L64.3359 64.1594Z" fill="url(#paint6_linear_2387_1355)"/>
<path d="M99.5312 74.6264H41.9344C41.7168 74.6264 41.5082 74.5399 41.3543 74.3861C41.2005 74.2323 41.1141 74.0236 41.1141 73.8061C41.1141 73.5885 41.2005 73.3798 41.3543 73.226C41.5082 73.0722 41.7168 72.9857 41.9344 72.9857H99.5312C99.8939 72.9857 100.242 72.8417 100.498 72.5853C100.754 72.3289 100.898 71.9812 100.898 71.6186V67.167C100.898 66.8044 100.754 66.4566 100.498 66.2002C100.242 65.9438 99.8939 65.7998 99.5312 65.7998H31.2812C31.0637 65.7998 30.855 65.7134 30.7012 65.5595C30.5474 65.4057 30.4609 65.1971 30.4609 64.9795C30.4609 64.7619 30.5474 64.5533 30.7012 64.3994C30.855 64.2456 31.0637 64.1592 31.2812 64.1592H99.5312C100.329 64.1592 101.094 64.4761 101.658 65.0401C102.222 65.6042 102.539 66.3693 102.539 67.167V71.6186C102.539 72.0136 102.461 72.4047 102.31 72.7696C102.159 73.1345 101.937 73.4661 101.658 73.7454C101.379 74.0247 101.047 74.2463 100.682 74.3974C100.317 74.5486 99.9262 74.6264 99.5312 74.6264Z" fill="url(#paint7_linear_2387_1355)"/>
<path d="M30.4609 65.5156C30.2822 65.5153 30.1084 65.4567 29.9661 65.3486C29.8237 65.2406 29.7205 65.0889 29.6722 64.9169C29.624 64.7448 29.6332 64.5616 29.6986 64.3952C29.7639 64.2289 29.8819 64.0884 30.0344 63.9952C32.1343 62.7012 33.7546 60.7574 34.6493 58.4588C35.5441 56.1601 35.6643 53.6324 34.9918 51.2592C34.3194 48.886 32.8909 46.7971 30.9233 45.3096C28.9557 43.8221 26.5564 43.0173 24.0898 43.0173C21.6232 43.0173 19.224 43.8221 17.2564 45.3096C15.2888 46.7971 13.8603 48.886 13.1879 51.2592C12.5154 53.6324 12.6356 56.1601 13.5303 58.4588C14.4251 60.7574 16.0454 62.7012 18.1453 63.9952C18.331 64.1098 18.4635 64.2935 18.5138 64.5058C18.564 64.7181 18.5279 64.9416 18.4133 65.1273C18.2987 65.3129 18.1151 65.4455 17.9028 65.4957C17.6905 65.546 17.4669 65.5098 17.2813 65.3953C14.8813 63.9136 13.0302 61.6896 12.0087 59.0606C10.9873 56.4316 10.8513 53.5412 11.6214 50.8279C12.3914 48.1147 14.0255 45.7266 16.2757 44.0262C18.5259 42.3258 21.2694 41.4058 24.0898 41.4058C26.9103 41.4058 29.6537 42.3258 31.9039 44.0262C34.1541 45.7266 35.7883 48.1147 36.5583 50.8279C37.3284 53.5412 37.1924 56.4316 36.1709 59.0606C35.1495 61.6896 33.2984 63.9136 30.8984 65.3953C30.7651 65.4717 30.6146 65.5131 30.4609 65.5156Z" fill="url(#paint8_linear_2387_1355)"/>
<path d="M24.0625 93.942C19.1139 94.0428 14.184 93.3032 9.48281 91.7545C4.9 90.0373 2.46094 87.4998 2.46094 84.5029C2.58805 78.8508 4.92262 73.473 8.96498 69.5205C13.0073 65.5681 18.4363 63.355 24.0898 63.355C29.7434 63.355 35.1723 65.5681 39.2147 69.5205C43.2571 73.473 45.5916 78.8508 45.7188 84.5029C45.7188 91.0217 34.8578 93.942 24.0625 93.942ZM24.0625 64.5311C18.7711 64.5455 13.7007 66.6547 9.96008 70.3973C6.21949 74.14 4.11311 79.2115 4.10156 84.5029C4.10156 89.6217 14.1531 92.3014 24.0844 92.3014C34.0156 92.3014 44.0781 89.6217 44.0781 84.5029C44.0665 79.2021 41.9526 74.1222 38.2002 70.378C34.4478 66.6338 29.3634 64.5311 24.0625 64.5311Z" fill="url(#paint9_linear_2387_1355)"/>
<path d="M46.9437 35.8969C46.5596 35.8962 46.1823 35.7943 45.85 35.6016L38.9594 31.7188C38.8683 31.6704 38.7671 31.6442 38.6641 31.6422H21.3281C20.748 31.6422 20.1916 31.4117 19.7813 31.0015C19.3711 30.5912 19.1406 30.0348 19.1406 29.4547V13.2891C19.1406 12.7089 19.3711 12.1525 19.7813 11.7423C20.1916 11.332 20.748 11.1016 21.3281 11.1016H46.9437C47.5239 11.1016 48.0803 11.332 48.4905 11.7423C48.9008 12.1525 49.1312 12.7089 49.1312 13.2891V33.6656C49.1367 34.0548 49.0382 34.4383 48.8459 34.7767C48.6536 35.1151 48.3746 35.3961 48.0375 35.5906C47.7062 35.7872 47.3289 35.8929 46.9437 35.8969ZM21.3281 12.6984C21.1715 12.6984 21.0213 12.7607 20.9105 12.8714C20.7997 12.9822 20.7375 13.1324 20.7375 13.2891V29.3672C20.7404 29.5219 20.8039 29.6694 20.9143 29.7778C21.0248 29.8862 21.1734 29.9469 21.3281 29.9469H38.6641C39.0478 29.9506 39.4243 30.0522 39.7578 30.2422L46.6375 34.1688C46.7269 34.2217 46.8289 34.2496 46.9328 34.2496C47.0367 34.2496 47.1387 34.2217 47.2281 34.1688C47.317 34.1189 47.3904 34.0456 47.4406 33.9569C47.4907 33.8682 47.5156 33.7675 47.5125 33.6656V13.2891C47.5125 13.1343 47.4518 12.9857 47.3434 12.8752C47.235 12.7648 47.0876 12.7013 46.9328 12.6984H21.3281Z" fill="url(#paint10_linear_2387_1355)"/>
<path d="M31.7206 24.9701C31.6051 24.9703 31.4907 24.946 31.3852 24.8989C31.2796 24.8517 31.1852 24.7828 31.1082 24.6967L28.6691 21.9842C28.5903 21.903 28.5291 21.8063 28.4895 21.7003C28.4498 21.5943 28.4326 21.4813 28.4387 21.3683C28.4449 21.2553 28.4744 21.1448 28.5253 21.0437C28.5762 20.9426 28.6475 20.8532 28.7347 20.7811C28.8135 20.7081 28.9062 20.6517 29.0073 20.6154C29.1083 20.5791 29.2157 20.5635 29.3229 20.5696C29.4301 20.5758 29.535 20.6035 29.6313 20.6511C29.7275 20.6987 29.8132 20.7652 29.8831 20.8467L31.7972 23.0342L37.7035 18.342C37.8766 18.2085 38.0953 18.1485 38.3123 18.1751C38.5293 18.2017 38.7271 18.3128 38.8628 18.4842C38.938 18.5697 38.9945 18.6699 39.0288 18.7784C39.0631 18.887 39.0745 19.0015 39.0621 19.1146C39.0498 19.2278 39.014 19.3372 38.9571 19.4358C38.9002 19.5343 38.8234 19.62 38.7316 19.6873L32.1691 24.8498C32.0346 24.9328 31.8787 24.9747 31.7206 24.9701Z" fill="url(#paint11_linear_2387_1355)"/>
<path d="M29.2695 17.4126H24.5664C24.3488 17.4126 24.1402 17.3262 23.9864 17.1723C23.8325 17.0185 23.7461 16.8098 23.7461 16.5923C23.7461 16.3747 23.8325 16.1661 23.9864 16.0122C24.1402 15.8584 24.3488 15.772 24.5664 15.772H29.2695C29.4871 15.772 29.6957 15.8584 29.8496 16.0122C30.0034 16.1661 30.0898 16.3747 30.0898 16.5923C30.0898 16.8098 30.0034 17.0185 29.8496 17.1723C29.6957 17.3262 29.4871 17.4126 29.2695 17.4126Z" fill="url(#paint12_linear_2387_1355)"/>
<path d="M69.4953 48.4861C63.2391 48.4861 57.8906 40.4689 57.8906 33.9064C57.8906 30.8287 59.1133 27.877 61.2896 25.7007C63.4659 23.5244 66.4176 22.3018 69.4953 22.3018C72.5731 22.3018 75.5248 23.5244 77.7011 25.7007C79.8774 27.877 81.1 30.8287 81.1 33.9064C81.1 40.4689 75.7406 48.4861 69.4953 48.4861ZM69.4953 23.9643C66.8573 23.9671 64.3279 25.0148 62.4606 26.8781C60.5932 28.7414 59.5399 31.2685 59.5312 33.9064C59.5312 39.6049 64.2234 46.8236 69.4953 46.8236C74.7672 46.8236 79.4594 39.6049 79.4594 33.9064C79.4507 31.2685 78.3974 28.7414 76.5301 26.8781C74.6627 25.0148 72.1333 23.9671 69.4953 23.9643Z" fill="url(#paint13_linear_2387_1355)"/>
<defs>
<linearGradient id="paint0_linear_2387_1355" x1="19.1406" y1="23.4992" x2="49.1315" y2="23.4992" gradientUnits="userSpaceOnUse">
<stop stop-color="#5EBC4D"/>
<stop offset="1" stop-color="#7FD01B"/>
</linearGradient>
<linearGradient id="paint1_linear_2387_1355" x1="28.4375" y1="21.5697" x2="39.067" y2="21.5697" gradientUnits="userSpaceOnUse">
<stop stop-color="#5EBC4D"/>
<stop offset="1" stop-color="#7FD01B"/>
</linearGradient>
<linearGradient id="paint2_linear_2387_1355" x1="23.7461" y1="16.5923" x2="30.0898" y2="16.5923" gradientUnits="userSpaceOnUse">
<stop stop-color="#5EBC4D"/>
<stop offset="1" stop-color="#7FD01B"/>
</linearGradient>
<linearGradient id="paint3_linear_2387_1355" x1="45.6523" y1="54.1184" x2="62.6996" y2="54.1184" gradientUnits="userSpaceOnUse">
<stop stop-color="#5EBC4D"/>
<stop offset="1" stop-color="#7FD01B"/>
</linearGradient>
<linearGradient id="paint4_linear_2387_1355" x1="76.2812" y1="54.0886" x2="93.3297" y2="54.0886" gradientUnits="userSpaceOnUse">
<stop stop-color="#5EBC4D"/>
<stop offset="1" stop-color="#7FD01B"/>
</linearGradient>
<linearGradient id="paint5_linear_2387_1355" x1="62.1758" y1="49.9445" x2="76.8045" y2="49.9445" gradientUnits="userSpaceOnUse">
<stop stop-color="#5EBC4D"/>
<stop offset="1" stop-color="#7FD01B"/>
</linearGradient>
<linearGradient id="paint6_linear_2387_1355" x1="62.2383" y1="60.2442" x2="76.835" y2="60.2442" gradientUnits="userSpaceOnUse">
<stop stop-color="#5EBC4D"/>
<stop offset="1" stop-color="#7FD01B"/>
</linearGradient>
<linearGradient id="paint7_linear_2387_1355" x1="30.4609" y1="69.3928" x2="102.539" y2="69.3928" gradientUnits="userSpaceOnUse">
<stop stop-color="#5EBC4D"/>
<stop offset="1" stop-color="#7FD01B"/>
</linearGradient>
<linearGradient id="paint8_linear_2387_1355" x1="11.1289" y1="53.4618" x2="37.0508" y2="53.4618" gradientUnits="userSpaceOnUse">
<stop stop-color="#5EBC4D"/>
<stop offset="1" stop-color="#7FD01B"/>
</linearGradient>
<linearGradient id="paint9_linear_2387_1355" x1="2.46094" y1="78.653" x2="45.7188" y2="78.653" gradientUnits="userSpaceOnUse">
<stop stop-color="#5EBC4D"/>
<stop offset="1" stop-color="#7FD01B"/>
</linearGradient>
<linearGradient id="paint10_linear_2387_1355" x1="19.1406" y1="23.4992" x2="49.1315" y2="23.4992" gradientUnits="userSpaceOnUse">
<stop stop-color="#5EBC4D"/>
<stop offset="1" stop-color="#7FD01B"/>
</linearGradient>
<linearGradient id="paint11_linear_2387_1355" x1="28.4375" y1="21.5697" x2="39.067" y2="21.5697" gradientUnits="userSpaceOnUse">
<stop stop-color="#5EBC4D"/>
<stop offset="1" stop-color="#7FD01B"/>
</linearGradient>
<linearGradient id="paint12_linear_2387_1355" x1="23.7461" y1="16.5923" x2="30.0898" y2="16.5923" gradientUnits="userSpaceOnUse">
<stop stop-color="#5EBC4D"/>
<stop offset="1" stop-color="#7FD01B"/>
</linearGradient>
<linearGradient id="paint13_linear_2387_1355" x1="57.8906" y1="35.3939" x2="81.1" y2="35.3939" gradientUnits="userSpaceOnUse">
<stop stop-color="#5EBC4D"/>
<stop offset="1" stop-color="#7FD01B"/>
</linearGradient>
</defs>
</svg>
