<svg width="39" height="52" viewBox="0 0 39 52" fill="none" xmlns="http://www.w3.org/2000/svg">
<path d="M1.10326 0.105268C0.863409 -0.0315811 0.558035 0.0519156 0.421186 0.291763C0.284337 0.531611 0.367834 0.836984 0.607681 0.973833L1.10326 0.105268ZM30.1831 30.1859L30.6234 29.9488L30.1831 30.1859ZM36.2402 51.4603L38.2851 46.061L32.5868 46.9897L36.2402 51.4603ZM2.87012 2.30928C3.1058 2.45319 3.41352 2.3788 3.55743 2.14312C3.70134 1.90744 3.62694 1.59972 3.39127 1.45581L2.87012 2.30928ZM7.83869 4.36568C7.61257 4.20717 7.30077 4.26199 7.14226 4.48811C6.98376 4.71423 7.03857 5.02603 7.26469 5.18454L7.83869 4.36568ZM11.4595 8.33991C11.6744 8.51336 11.9892 8.47978 12.1627 8.26491C12.3361 8.05004 12.3025 7.73524 12.0877 7.56179L11.4595 8.33991ZM16.1052 11.047C15.9033 10.8587 15.5869 10.8697 15.3986 11.0717C15.2102 11.2736 15.2213 11.59 15.4232 11.7784L16.1052 11.047ZM19.1261 15.4944C19.3137 15.6971 19.63 15.7093 19.8327 15.5218C20.0354 15.3342 20.0476 15.0179 19.8601 14.8152L19.1261 15.4944ZM23.3258 18.8512C23.1538 18.6352 22.8392 18.5995 22.6232 18.7715C22.4071 18.9435 22.3714 19.258 22.5434 19.4741L23.3258 18.8512ZM25.6575 23.6959C25.8132 23.924 26.1243 23.9827 26.3523 23.827C26.5804 23.6713 26.6391 23.3602 26.4834 23.1321L25.6575 23.6959ZM29.3232 27.6291C29.184 27.3905 28.8779 27.31 28.6393 27.4491C28.4008 27.5882 28.3202 27.8944 28.4594 28.1329L29.3232 27.6291ZM30.9505 32.8837C31.0631 33.1358 31.3588 33.2489 31.6109 33.1363C31.8631 33.0237 31.9762 32.728 31.8636 32.4759L30.9505 32.8837ZM33.8241 37.7366C33.7426 37.4728 33.4626 37.325 33.1988 37.4065C32.9349 37.488 32.7871 37.7679 32.8686 38.0318L33.8241 37.7366ZM34.2591 43.3676C34.3184 43.6374 34.5851 43.8079 34.8548 43.7487C35.1245 43.6894 35.2951 43.4227 35.2358 43.153L34.2591 43.3676ZM36.2862 48.6342C36.2401 48.3619 35.9819 48.1787 35.7097 48.2249C35.4374 48.271 35.2541 48.5292 35.3003 48.8014L36.2862 48.6342ZM0.855469 0.539551L0.607681 0.973833C1.37189 1.40987 2.12605 1.85494 2.87012 2.30928L3.13069 1.88255L3.39127 1.45581C2.6386 0.996223 1.87591 0.54612 1.10326 0.105268L0.855469 0.539551ZM7.55169 4.77511L7.26469 5.18454C8.70584 6.19475 10.1043 7.24588 11.4595 8.33991L11.7736 7.95085L12.0877 7.56179C10.7144 6.45322 9.29786 5.38852 7.83869 4.36568L7.55169 4.77511ZM15.7642 11.4127L15.4232 11.7784C16.7018 12.9706 17.9362 14.2086 19.1261 15.4944L19.4931 15.1548L19.8601 14.8152C18.6533 13.5112 17.4015 12.2558 16.1052 11.047L15.7642 11.4127ZM22.9346 19.1627L22.5434 19.4741C23.6248 20.8325 24.663 22.2391 25.6575 23.6959L26.0704 23.414L26.4834 23.1321C25.4752 21.6552 24.4225 20.2288 23.3258 18.8512L22.9346 19.1627ZM28.8913 27.881L28.4594 28.1329C28.8975 28.884 29.3253 29.6472 29.7429 30.4229L30.1831 30.1859L30.6234 29.9488C30.2005 29.1633 29.767 28.3901 29.3232 27.6291L28.8913 27.881ZM30.1831 30.1859L29.7429 30.4229C30.1767 31.2287 30.578 32.0496 30.9505 32.8837L31.407 32.6798L31.8636 32.4759C31.4817 31.6207 31.0695 30.7776 30.6234 29.9488L30.1831 30.1859ZM33.3464 37.8842L32.8686 38.0318C33.4094 39.7823 33.8634 41.5666 34.2591 43.3676L34.7475 43.2603L35.2358 43.153C34.8355 41.3311 34.3747 39.5191 33.8241 37.7366L33.3464 37.8842Z" fill="url(#paint0_linear_2440_2092)"/>
<defs>
<linearGradient id="paint0_linear_2440_2092" x1="-4.82967" y1="18.6691" x2="41.9254" y2="33.3307" gradientUnits="userSpaceOnUse">
<stop stop-color="#5EBC4D"/>
<stop offset="1" stop-color="#7FD01B"/>
</linearGradient>
</defs>
</svg>
