<svg width="95" height="81" viewBox="0 0 95 81" fill="none" xmlns="http://www.w3.org/2000/svg">
<path d="M26.9989 31.33C25.5852 31.4096 24.1706 31.188 22.8489 30.68C22.7603 30.6373 22.6811 30.5775 22.6158 30.5039C22.5506 30.4303 22.5007 30.3444 22.4691 30.2513C22.4374 30.1582 22.4246 30.0597 22.4315 29.9616C22.4383 29.8635 22.4646 29.7678 22.5089 29.68C22.5973 29.5029 22.7511 29.3673 22.9379 29.302C23.1246 29.2366 23.3295 29.2467 23.5089 29.33C23.5889 29.33 28.0789 31.33 39.2589 27.13C40.6576 26.5641 42.2056 26.4831 43.6557 26.9C45.1058 27.3169 46.3743 28.2076 47.2589 29.43C47.3206 29.5068 47.3666 29.595 47.3942 29.6896C47.4219 29.7842 47.4306 29.8833 47.4199 29.9813C47.4092 30.0792 47.3794 30.1741 47.332 30.2606C47.2847 30.347 47.2207 30.4232 47.1439 30.485C47.0671 30.5467 46.9789 30.5927 46.8843 30.6203C46.7897 30.6479 46.6906 30.6566 46.5926 30.646C46.4946 30.6353 46.3997 30.6054 46.3133 30.5581C46.2269 30.5107 46.1506 30.4468 46.0889 30.37C45.4022 29.3926 44.4028 28.6786 43.2556 28.3459C42.1083 28.0132 40.882 28.0817 39.7789 28.54C33.8289 30.76 29.6689 31.33 26.9989 31.33Z" fill="url(#paint0_linear_2387_1376)"/>
<path d="M36.3105 50.1102C35.4471 50.1008 34.5954 49.91 33.8105 49.5502C33.0776 49.2162 32.4942 48.6227 32.1729 47.8841C31.8516 47.1455 31.8152 46.3141 32.0705 45.5502L35.0005 36.6502C35.0511 36.4971 35.1492 36.364 35.2805 36.2702C36.4805 35.4302 47.0505 28.0602 49.9905 27.7502C51.1505 27.6202 52.8805 28.1802 55.2905 28.9502C59.3805 30.2602 64.9905 32.0502 70.4505 31.2202C70.6467 31.1916 70.8462 31.2418 71.0055 31.3598C71.1648 31.4779 71.2709 31.6542 71.3005 31.8502C71.3161 31.9481 71.3122 32.0482 71.2889 32.1445C71.2656 32.2409 71.2235 32.3317 71.1649 32.4117C71.1063 32.4916 71.0325 32.5592 70.9476 32.6104C70.8627 32.6617 70.7686 32.6956 70.6705 32.7102C64.8605 33.5802 59.0705 31.7102 54.8305 30.3802C53.3325 29.78 51.7567 29.3962 50.1505 29.2402C48.2405 29.4402 40.9405 34.1502 36.3505 37.3502L33.5005 46.0002C33.3669 46.4104 33.3877 46.8552 33.559 47.2511C33.7302 47.647 34.0401 47.9667 34.4305 48.1502C36.0905 48.9002 38.5505 49.0402 40.8405 45.4202C41.6102 44.2559 42.2792 43.0281 42.8405 41.7502C42.9102 41.5758 43.042 41.4333 43.2105 41.3502L50.2405 38.0002C50.4196 37.9143 50.6254 37.9028 50.8129 37.9685C51.0004 38.0341 51.1541 38.1714 51.2405 38.3502C51.2844 38.4387 51.3102 38.535 51.3164 38.6335C51.3225 38.732 51.3089 38.8308 51.2763 38.924C51.2437 39.0172 51.1927 39.1029 51.1265 39.1761C51.0602 39.2493 50.98 39.3085 50.8905 39.3502L44.0805 42.6502C43.5072 43.9126 42.8386 45.1294 42.0805 46.2902C40.1805 49.3202 38.0005 50.1102 36.3105 50.1102Z" fill="url(#paint1_linear_2387_1376)"/>
<path d="M24.0589 59.69C23.9229 59.6894 23.7897 59.6519 23.6735 59.5815C23.5572 59.511 23.4623 59.4103 23.3989 59.2901C21.1589 54.9701 14.8889 54.18 14.8289 54.17C14.6313 54.1475 14.4508 54.0473 14.327 53.8917C14.2033 53.7361 14.1464 53.5376 14.1689 53.3401C14.1799 53.2416 14.2106 53.1464 14.2592 53.0601C14.3077 52.9737 14.3731 52.898 14.4514 52.8374C14.5297 52.7768 14.6194 52.7325 14.7152 52.7072C14.811 52.6819 14.9108 52.676 15.0089 52.69C15.2989 52.69 22.1289 53.58 24.7289 58.6C24.8144 58.7759 24.8289 58.9779 24.7693 59.1642C24.7097 59.3504 24.5806 59.5065 24.4089 59.6C24.3 59.6548 24.1806 59.6855 24.0589 59.69Z" fill="url(#paint2_linear_2387_1376)"/>
<path d="M27.3197 67.4798C26.2087 67.4779 25.1234 67.1461 24.2012 66.5265C23.279 65.907 22.5615 65.0276 22.1397 63.9998C21.8173 63.2942 21.5693 62.5569 21.3997 61.7998C21.3168 61.6471 21.2919 61.4695 21.3297 61.2998C21.3516 61.1225 21.4368 60.9592 21.5697 60.8398C23.0605 58.6138 25.0455 56.7623 27.3697 55.4298C28.0801 54.99 28.9125 54.7887 29.7454 54.8552C30.5783 54.9218 31.3682 55.2527 31.9997 55.7998C33.4497 56.9898 34.3797 59.2698 33.9997 60.5798C33.3721 61.8004 32.5048 62.882 31.4497 63.7598C30.405 64.6518 29.522 65.7175 28.8397 66.9098C28.7988 67.0324 28.7265 67.1421 28.63 67.2281C28.5335 67.3141 28.4162 67.3733 28.2897 67.3998C27.9706 67.4644 27.6451 67.4913 27.3197 67.4798ZM22.8797 61.5698C23.0325 62.1851 23.2435 62.7845 23.5097 63.3598C23.8171 64.1749 24.3767 64.8705 25.107 65.3453C25.8372 65.8202 26.7001 66.0495 27.5697 65.9998C28.3337 64.7813 29.2662 63.677 30.3397 62.7198C31.196 61.9755 31.9344 61.1056 32.5297 60.1398C32.5347 59.5389 32.4043 58.9445 32.1481 58.4009C31.8919 57.8573 31.5164 57.3784 31.0497 56.9998C30.6461 56.6332 30.1314 56.4124 29.5877 56.3725C29.0439 56.3327 28.5025 56.476 28.0497 56.7798C25.9967 57.979 24.2319 59.6142 22.8797 61.5698Z" fill="url(#paint3_linear_2387_1376)"/>
<path d="M21.3709 62.2403C20.7551 62.2616 20.1401 62.1805 19.5509 62.0003C18.8332 61.8119 18.1698 61.4577 17.614 60.9662C17.0582 60.4746 16.6255 59.8595 16.3509 59.1702C15.4809 56.7202 17.1609 53.9803 17.2409 53.8603C17.347 53.6918 17.5156 53.5725 17.7097 53.5284C17.9038 53.4843 18.1075 53.5192 18.2759 53.6253C18.4443 53.7313 18.5637 53.9 18.6077 54.0941C18.6518 54.2882 18.617 54.4918 18.5109 54.6603C18.5109 54.6603 17.1309 56.9103 17.7709 58.6603C17.9743 59.1231 18.2811 59.5332 18.6676 59.8591C19.0542 60.185 19.5103 60.418 20.0009 60.5403C20.6477 60.7393 21.3297 60.7973 22.0009 60.7103C22.1922 60.702 22.3794 60.7673 22.5241 60.8926C22.6688 61.018 22.7601 61.1939 22.7793 61.3844C22.7985 61.5749 22.7441 61.7656 22.6272 61.9172C22.5104 62.0689 22.34 62.1702 22.1509 62.2003C21.8919 62.2287 21.6314 62.242 21.3709 62.2403Z" fill="url(#paint4_linear_2387_1376)"/>
<path d="M33.3591 72.81C32.4476 72.7707 31.5619 72.495 30.7891 72.01C28.4291 70.66 27.3991 67.01 27.3591 66.86C27.3061 66.6677 27.3316 66.4622 27.43 66.2888C27.5285 66.1153 27.6918 65.988 27.8841 65.935C28.0764 65.8819 28.2819 65.9075 28.4553 66.0059C28.6288 66.1044 28.7561 66.2677 28.8091 66.46C28.8091 66.46 29.7091 69.66 31.5391 70.71C32.1563 71.1685 32.9259 71.3725 33.6891 71.28C34.2991 70.4 37.1191 66.36 38.5991 64.73C39.1491 64.14 39.0791 62.49 38.1791 61.34C37.2791 60.19 35.5491 59.94 33.5991 61C33.4245 61.0863 33.2233 61.1023 33.0372 61.0446C32.8511 60.9869 32.6943 60.86 32.5991 60.69C32.5068 60.5175 32.4865 60.3155 32.5427 60.1281C32.5989 59.9407 32.7271 59.7831 32.8991 59.69C35.4991 58.28 37.8991 58.56 39.3891 60.43C40.6691 62.07 40.8191 64.56 39.7291 65.76C38.1591 67.47 34.8691 72.25 34.8391 72.3C34.791 72.3614 34.7375 72.4183 34.6791 72.47C34.2849 72.7171 33.8237 72.8359 33.3591 72.81Z" fill="url(#paint5_linear_2387_1376)"/>
<path d="M39.9985 76.2597C38.6297 76.2712 37.2863 75.889 36.1286 75.1585C34.9708 74.428 34.0475 73.3802 33.4685 72.1397C33.4042 71.9575 33.4127 71.7575 33.4923 71.5814C33.5718 71.4053 33.7163 71.2667 33.8955 71.1944C34.0747 71.1222 34.2749 71.122 34.4544 71.1938C34.6338 71.2655 34.7786 71.4038 34.8585 71.5797C34.9385 71.7597 36.6085 75.5797 41.6985 74.5797C41.0585 73.5797 41.1885 71.9897 42.0785 69.9297C42.3257 69.509 42.4683 69.0352 42.4944 68.548C42.5205 68.0607 42.4293 67.5744 42.2285 67.1297C41.4685 65.8597 39.3485 65.6497 39.3285 65.6497C39.1304 65.6319 38.9471 65.537 38.8181 65.3856C38.6891 65.2341 38.6246 65.0382 38.6385 64.8397C38.6588 64.6425 38.7543 64.4608 38.9052 64.3323C39.056 64.2038 39.2507 64.1384 39.4485 64.1497C39.5685 64.1497 42.3485 64.4197 43.5085 66.3597C43.844 67.0034 44.015 67.7201 44.0063 68.446C43.9975 69.1718 43.8094 69.8842 43.4585 70.5197C42.5385 72.6597 42.8085 73.5197 42.9585 73.7697C43.02 73.8668 43.102 73.9494 43.1988 74.0116C43.2955 74.0737 43.4046 74.1141 43.5185 74.1297C43.6908 74.142 43.8535 74.2134 43.9792 74.3319C44.105 74.4503 44.1859 74.6085 44.2085 74.7797C44.2345 74.9481 44.2007 75.1203 44.113 75.2664C44.0253 75.4125 43.8893 75.5233 43.7285 75.5797C42.5334 76.0186 41.2717 76.2486 39.9985 76.2597Z" fill="url(#paint6_linear_2387_1376)"/>
<path d="M46.6412 76.2501C45.4416 76.2554 44.2549 76.0031 43.1612 75.5101C43.0735 75.4666 42.9952 75.4061 42.931 75.3321C42.8668 75.2581 42.818 75.1721 42.7873 75.0791C42.7566 74.9861 42.7447 74.8879 42.7522 74.7902C42.7597 74.6925 42.7866 74.5974 42.8312 74.5101C42.9211 74.3348 43.0764 74.2019 43.2636 74.1401C43.4507 74.0784 43.6546 74.0928 43.8312 74.1801C45.0056 74.7308 46.3193 74.9128 47.5992 74.7022C48.8791 74.4915 50.0652 73.8981 51.0012 73.0001C51.0947 72.9159 51.2072 72.8555 51.3291 72.8242C51.451 72.7928 51.5787 72.7914 51.7012 72.8201C52.1985 72.9591 52.7188 72.9957 53.2306 72.928C53.7424 72.8602 54.2352 72.6893 54.6792 72.4258C55.1231 72.1622 55.5091 71.8114 55.8136 71.3945C56.1182 70.9775 56.3351 70.5032 56.4512 70.0001C56.5044 69.8257 56.6185 69.6762 56.7727 69.5789C56.9269 69.4816 57.1109 69.443 57.2912 69.4701C57.2912 69.4701 60.2912 69.9301 61.9012 68.5501C62.2803 68.2024 62.5761 67.7737 62.7666 67.2958C62.957 66.818 63.0372 66.3033 63.0012 65.7901C62.9998 65.6909 63.0186 65.5923 63.0565 65.5006C63.0945 65.4088 63.1507 65.3258 63.2219 65.2565C63.293 65.1872 63.3775 65.1332 63.4703 65.0977C63.563 65.0622 63.662 65.0461 63.7612 65.0501C63.907 65.0524 64.049 65.0971 64.1697 65.1788C64.2905 65.2605 64.3849 65.3757 64.4412 65.5101C65.0309 65.6029 65.6315 65.6029 66.2212 65.5101C66.5848 65.4806 66.9385 65.3766 67.2602 65.2046C67.5819 65.0325 67.8647 64.7962 68.0912 64.5101C68.2924 64.2523 68.4387 63.9561 68.5212 63.6397C68.6038 63.3233 68.6208 62.9934 68.5712 62.6701C68.3512 61.1101 67.2312 59.6701 66.0112 58.2201C60.6512 51.8801 54.6812 45.3601 47.3112 40.6401C47.1549 40.5323 47.0445 40.3699 47.002 40.1848C46.9594 39.9997 46.9877 39.8054 47.0812 39.6401C47.189 39.4836 47.3522 39.3738 47.5378 39.3329C47.7235 39.2921 47.9177 39.3233 48.0812 39.4201C55.6112 44.2401 61.6812 50.8601 67.0812 57.2901C68.4512 58.9201 69.7112 60.5401 69.9912 62.5001C70.0712 63.0276 70.0423 63.5659 69.9065 64.0819C69.7706 64.5978 69.5306 65.0804 69.2012 65.5001C68.8551 65.9233 68.4286 66.2738 67.9463 66.5312C67.464 66.7887 66.9354 66.948 66.3912 67.0001C65.7271 67.0823 65.0554 67.0823 64.3912 67.0001C64.2004 68.038 63.6563 68.9779 62.8512 69.6602C61.3534 70.7237 59.5173 71.2005 57.6912 71.0001C57.2624 72.1871 56.4189 73.179 55.3162 73.7928C54.2135 74.4066 52.926 74.601 51.6912 74.3401C50.2979 75.5726 48.5014 76.2521 46.6412 76.2501Z" fill="url(#paint7_linear_2387_1376)"/>
<path d="M51.4915 74.2801C51.3291 74.2809 51.171 74.2281 51.0415 74.1301C49.0587 72.6511 47.1716 71.0479 45.3915 69.3301C45.3208 69.2612 45.2645 69.1788 45.2261 69.0877C45.1877 68.9967 45.168 68.8989 45.168 68.8001C45.168 68.7013 45.1877 68.6035 45.2261 68.5125C45.2645 68.4215 45.3208 68.3391 45.3915 68.2701C45.5322 68.1297 45.7228 68.0508 45.9215 68.0508C46.1203 68.0508 46.3109 68.1297 46.4515 68.2701C48.1842 69.9347 50.0176 71.4909 51.9415 72.9301C52.0675 73.0246 52.1605 73.1562 52.2074 73.3065C52.2544 73.4567 52.2528 73.618 52.203 73.7673C52.1533 73.9166 52.0578 74.0465 51.9301 74.1386C51.8024 74.2306 51.649 74.2801 51.4915 74.2801Z" fill="url(#paint8_linear_2387_1376)"/>
<path d="M57.1706 70.9399C56.9797 70.9393 56.7966 70.8639 56.6606 70.7299L48.4706 62.9299C48.3791 62.8705 48.3017 62.7919 48.2437 62.6996C48.1858 62.6073 48.1486 62.5034 48.1349 62.3953C48.1211 62.2871 48.1312 62.1773 48.1642 62.0734C48.1973 61.9695 48.2526 61.8741 48.3263 61.7938C48.4 61.7134 48.4903 61.6501 48.5909 61.6083C48.6916 61.5664 48.8002 61.547 48.9091 61.5514C49.018 61.5558 49.1247 61.5839 49.2217 61.6337C49.3186 61.6835 49.4036 61.7539 49.4706 61.8399L57.6606 69.6499C57.801 69.7905 57.8799 69.9811 57.8799 70.1799C57.8799 70.3786 57.801 70.5693 57.6606 70.7099C57.5299 70.8426 57.3561 70.9242 57.1706 70.9399Z" fill="url(#paint9_linear_2387_1376)"/>
<path d="M63.7719 66.55C63.5829 66.5491 63.4011 66.4778 63.2619 66.35C63.2619 66.35 59.3519 62.67 57.3919 60.63L56.5319 59.74C54.7819 57.95 53.2719 56.4 52.7719 55.16C52.7294 55.0686 52.7061 54.9693 52.7034 54.8685C52.7007 54.7677 52.7186 54.6674 52.7561 54.5737C52.7935 54.4801 52.8497 54.3951 52.9212 54.3239C52.9927 54.2528 53.078 54.197 53.1719 54.16C53.2636 54.119 53.3626 54.0969 53.463 54.0949C53.5635 54.0929 53.6633 54.1111 53.7566 54.1484C53.8498 54.1857 53.9346 54.2413 54.006 54.3121C54.0773 54.3828 54.1338 54.4671 54.1719 54.56C54.5719 55.56 56.0519 57.05 57.6219 58.66L58.4919 59.56C60.4319 61.56 64.2719 65.19 64.3019 65.22C64.4124 65.3225 64.4895 65.456 64.5231 65.603C64.5567 65.7499 64.5452 65.9036 64.4902 66.044C64.4351 66.1843 64.339 66.3048 64.2145 66.3897C64.0899 66.4747 63.9426 66.5201 63.7919 66.52L63.7719 66.55Z" fill="url(#paint10_linear_2387_1376)"/>
<path d="M69.0001 62.1299C68.8681 62.1285 68.7387 62.0927 68.6247 62.0261C68.5107 61.9595 68.4161 61.8643 68.3501 61.7499C68.2561 61.5799 68.2328 61.3797 68.2852 61.1926C68.3376 61.0055 68.4615 60.8465 68.6301 60.7499L79.8601 54.2999C80.0312 54.211 80.2297 54.1905 80.4154 54.2425C80.601 54.2945 80.76 54.4151 80.8601 54.5799C80.9515 54.7505 80.9733 54.9499 80.9212 55.1362C80.869 55.3226 80.7468 55.4816 80.5801 55.5799L69.3801 61.9999C69.2691 62.08 69.1368 62.1252 69.0001 62.1299Z" fill="url(#paint11_linear_2387_1376)"/>
<path d="M11.3313 61.1001C10.4213 61.1001 7.38132 60.6901 1.54132 56.1801C1.39724 56.0607 1.30373 55.8912 1.27961 55.7056C1.25549 55.5201 1.30255 55.3323 1.41132 55.1801C1.46816 55.0989 1.5405 55.0299 1.62417 54.9769C1.70784 54.9239 1.80118 54.888 1.89881 54.8713C1.99643 54.8545 2.0964 54.8573 2.19295 54.8794C2.2895 54.9015 2.38071 54.9425 2.46132 55.0001C7.40132 58.8201 10.1413 59.4801 11.0613 59.5901C12.6313 56.5901 22.2713 37.7201 22.9613 25.3701C17.6131 22.92 12.0955 20.858 6.45132 19.2001C6.35603 19.1737 6.267 19.1285 6.18948 19.0671C6.11197 19.0057 6.04753 18.9294 5.99999 18.8427C5.95245 18.756 5.92276 18.6607 5.91269 18.5623C5.90261 18.464 5.91235 18.3646 5.94132 18.2701C5.99911 18.081 6.12925 17.9223 6.30342 17.8287C6.47759 17.735 6.68169 17.714 6.87132 17.7701C12.7604 19.4793 18.5105 21.6356 24.0713 24.2201C24.1999 24.2856 24.3075 24.3861 24.3817 24.5098C24.456 24.6336 24.494 24.7757 24.4913 24.9201C24.0013 38.6301 12.6513 59.8001 12.1613 60.7001C12.1053 60.8016 12.0264 60.8888 11.931 60.9547C11.8356 61.0207 11.7261 61.0636 11.6113 61.0801C11.5189 61.0964 11.4251 61.1031 11.3313 61.1001Z" fill="url(#paint12_linear_2387_1376)"/>
<path d="M78.8514 65.8803C78.5878 65.8768 78.3257 65.8398 78.0714 65.7703C76.0714 65.2103 74.0714 62.7703 72.6214 59.1303C72.5485 58.9447 72.5523 58.7377 72.632 58.5548C72.7117 58.372 72.8608 58.2283 73.0464 58.1553C73.2321 58.0824 73.4391 58.0862 73.6219 58.1659C73.8048 58.2456 73.9485 58.3947 74.0214 58.5803C75.4914 62.3103 77.3414 64.0003 78.4714 64.3203C78.5845 64.3717 78.7072 64.3983 78.8314 64.3983C78.9556 64.3983 79.0784 64.3717 79.1914 64.3203C83.7314 61.6403 75.1914 41.9803 68.7114 30.2203C68.6699 30.124 68.6484 30.0202 68.6484 29.9153C68.6484 29.8104 68.6699 29.7067 68.7114 29.6103C68.7434 29.5115 68.7967 29.4208 68.8675 29.3448C68.9384 29.2688 69.025 29.2092 69.1214 29.1703L88.9114 20.5903C89.0025 20.5491 89.1009 20.5264 89.2009 20.5237C89.3009 20.521 89.4004 20.5384 89.4936 20.5747C89.5867 20.611 89.6717 20.6656 89.7435 20.7353C89.8152 20.805 89.8723 20.8883 89.9114 20.9803C89.992 21.1647 89.9962 21.3735 89.9231 21.561C89.85 21.7484 89.7056 21.8992 89.5214 21.9803L70.5214 30.2303C73.5214 35.7203 86.9314 61.5603 80.1214 65.5703C79.7503 65.8256 79.2984 65.9359 78.8514 65.8803Z" fill="url(#paint13_linear_2387_1376)"/>
<path d="M79.6387 65.6198C79.473 65.6211 79.3115 65.5675 79.1795 65.4674C79.0475 65.3672 78.9524 65.2262 78.909 65.0663C78.8656 64.9064 78.8764 64.7366 78.9396 64.5835C79.0029 64.4303 79.1151 64.3025 79.2587 64.2198L91.6187 56.9298C91.7886 56.84 91.9863 56.818 92.1718 56.8681C92.3574 56.9182 92.517 57.0367 92.6187 57.1998C92.7109 57.3692 92.7343 57.5677 92.684 57.7539C92.6338 57.9401 92.5137 58.0998 92.3487 58.1998L79.9987 65.5098C79.8898 65.5761 79.766 65.6139 79.6387 65.6198Z" fill="url(#paint14_linear_2387_1376)"/>
<defs>
<linearGradient id="paint0_linear_2387_1376" x1="22.4297" y1="28.9915" x2="47.4243" y2="28.9915" gradientUnits="userSpaceOnUse">
<stop stop-color="#5EBC4D"/>
<stop offset="1" stop-color="#7FD01B"/>
</linearGradient>
<linearGradient id="paint1_linear_2387_1376" x1="31.9023" y1="38.9208" x2="71.3099" y2="38.9208" gradientUnits="userSpaceOnUse">
<stop stop-color="#5EBC4D"/>
<stop offset="1" stop-color="#7FD01B"/>
</linearGradient>
<linearGradient id="paint2_linear_2387_1376" x1="14.1641" y1="56.1863" x2="24.8055" y2="56.1863" gradientUnits="userSpaceOnUse">
<stop stop-color="#5EBC4D"/>
<stop offset="1" stop-color="#7FD01B"/>
</linearGradient>
<linearGradient id="paint3_linear_2387_1376" x1="21.3125" y1="61.1626" x2="34.085" y2="61.1626" gradientUnits="userSpaceOnUse">
<stop stop-color="#5EBC4D"/>
<stop offset="1" stop-color="#7FD01B"/>
</linearGradient>
<linearGradient id="paint4_linear_2387_1376" x1="16.1016" y1="57.8767" x2="22.7831" y2="57.8767" gradientUnits="userSpaceOnUse">
<stop stop-color="#5EBC4D"/>
<stop offset="1" stop-color="#7FD01B"/>
</linearGradient>
<linearGradient id="paint5_linear_2387_1376" x1="27.332" y1="65.8069" x2="40.4573" y2="65.8069" gradientUnits="userSpaceOnUse">
<stop stop-color="#5EBC4D"/>
<stop offset="1" stop-color="#7FD01B"/>
</linearGradient>
<linearGradient id="paint6_linear_2387_1376" x1="33.4258" y1="70.2042" x2="44.217" y2="70.2042" gradientUnits="userSpaceOnUse">
<stop stop-color="#5EBC4D"/>
<stop offset="1" stop-color="#7FD01B"/>
</linearGradient>
<linearGradient id="paint7_linear_2387_1376" x1="42.75" y1="57.7828" x2="70.0354" y2="57.7828" gradientUnits="userSpaceOnUse">
<stop stop-color="#5EBC4D"/>
<stop offset="1" stop-color="#7FD01B"/>
</linearGradient>
<linearGradient id="paint8_linear_2387_1376" x1="45.168" y1="71.1655" x2="52.2415" y2="71.1655" gradientUnits="userSpaceOnUse">
<stop stop-color="#5EBC4D"/>
<stop offset="1" stop-color="#7FD01B"/>
</linearGradient>
<linearGradient id="paint9_linear_2387_1376" x1="48.1289" y1="66.2453" x2="57.8799" y2="66.2453" gradientUnits="userSpaceOnUse">
<stop stop-color="#5EBC4D"/>
<stop offset="1" stop-color="#7FD01B"/>
</linearGradient>
<linearGradient id="paint10_linear_2387_1376" x1="52.7031" y1="60.3224" x2="64.542" y2="60.3224" gradientUnits="userSpaceOnUse">
<stop stop-color="#5EBC4D"/>
<stop offset="1" stop-color="#7FD01B"/>
</linearGradient>
<linearGradient id="paint11_linear_2387_1376" x1="68.2578" y1="58.1721" x2="80.9489" y2="58.1721" gradientUnits="userSpaceOnUse">
<stop stop-color="#5EBC4D"/>
<stop offset="1" stop-color="#7FD01B"/>
</linearGradient>
<linearGradient id="paint12_linear_2387_1376" x1="1.27344" y1="39.42" x2="24.4914" y2="39.42" gradientUnits="userSpaceOnUse">
<stop stop-color="#5EBC4D"/>
<stop offset="1" stop-color="#7FD01B"/>
</linearGradient>
<linearGradient id="paint13_linear_2387_1376" x1="68.6484" y1="43.2089" x2="89.9751" y2="43.2089" gradientUnits="userSpaceOnUse">
<stop stop-color="#5EBC4D"/>
<stop offset="1" stop-color="#7FD01B"/>
</linearGradient>
<linearGradient id="paint14_linear_2387_1376" x1="78.8828" y1="61.2308" x2="92.71" y2="61.2308" gradientUnits="userSpaceOnUse">
<stop stop-color="#5EBC4D"/>
<stop offset="1" stop-color="#7FD01B"/>
</linearGradient>
</defs>
</svg>
