<svg width="54" height="48" viewBox="0 0 54 48" fill="none" xmlns="http://www.w3.org/2000/svg">
<path d="M24.1941 18.3304C24.0002 18.33 23.8098 18.278 23.642 18.1796L20.1639 16.1969C20.1179 16.1722 20.0669 16.1588 20.0148 16.1578H11.2643C10.9715 16.1578 10.6906 16.0401 10.4836 15.8306C10.2765 15.6211 10.1602 15.337 10.1602 15.0408V6.78597C10.1602 6.48971 10.2765 6.2056 10.4836 5.99611C10.6906 5.78663 10.9715 5.66895 11.2643 5.66895H24.1941C24.487 5.66895 24.7678 5.78663 24.9749 5.99611C25.1819 6.2056 25.2983 6.48971 25.2983 6.78597V17.191C25.301 17.3897 25.2513 17.5856 25.1542 17.7584C25.0572 17.9312 24.9163 18.0747 24.7462 18.174C24.579 18.2744 24.3885 18.3283 24.1941 18.3304ZM11.2643 6.48437C11.1853 6.48437 11.1094 6.51615 11.0535 6.57271C10.9976 6.62927 10.9662 6.70598 10.9662 6.78597V14.9961C10.9676 15.0751 10.9997 15.1504 11.0554 15.2057C11.1112 15.2611 11.1862 15.2921 11.2643 15.2921H20.0148C20.2086 15.294 20.3986 15.3459 20.5669 15.4429L24.0395 17.4479C24.0847 17.475 24.1361 17.4892 24.1886 17.4892C24.241 17.4892 24.2925 17.475 24.3377 17.4479C24.3825 17.4225 24.4196 17.385 24.4449 17.3398C24.4702 17.2945 24.4827 17.243 24.4812 17.191V6.78597C24.4812 6.70694 24.4506 6.63106 24.3958 6.57466C24.3411 6.51825 24.2667 6.48583 24.1886 6.48437H11.2643Z" fill="url(#paint0_linear_2440_2037)"/>
<path d="M16.5127 12.7508C16.4543 12.7508 16.3966 12.7384 16.3433 12.7144C16.2901 12.6903 16.2424 12.6551 16.2035 12.6111L14.9724 11.226C14.9326 11.1846 14.9017 11.1352 14.8817 11.0811C14.8617 11.027 14.853 10.9692 14.8561 10.9115C14.8592 10.8538 14.8741 10.7974 14.8998 10.7458C14.9255 10.6942 14.9615 10.6485 15.0055 10.6117C15.0453 10.5744 15.092 10.5456 15.1431 10.5271C15.1941 10.5085 15.2483 10.5006 15.3024 10.5037C15.3565 10.5068 15.4094 10.521 15.458 10.5453C15.5066 10.5696 15.5499 10.6036 15.5852 10.6452L16.5513 11.7622L19.5326 9.3662C19.62 9.29801 19.7304 9.2674 19.8399 9.28099C19.9494 9.29458 20.0493 9.35128 20.1178 9.4388C20.1557 9.48247 20.1842 9.53364 20.2016 9.58907C20.2189 9.64449 20.2246 9.70296 20.2184 9.76074C20.2121 9.81853 20.1941 9.87437 20.1654 9.92471C20.1366 9.97506 20.0979 10.0188 20.0515 10.0532L16.739 12.6893C16.6711 12.7317 16.5924 12.7531 16.5127 12.7508Z" fill="url(#paint1_linear_2440_2037)"/>
<path d="M15.2724 8.89148H12.8984C12.7886 8.89148 12.6833 8.84734 12.6057 8.76879C12.528 8.69023 12.4844 8.58369 12.4844 8.47259C12.4844 8.3615 12.528 8.25495 12.6057 8.1764C12.6833 8.09784 12.7886 8.05371 12.8984 8.05371H15.2724C15.3822 8.05371 15.4875 8.09784 15.5652 8.1764C15.6428 8.25495 15.6865 8.3615 15.6865 8.47259C15.6865 8.58369 15.6428 8.69023 15.5652 8.76879C15.4875 8.84734 15.3822 8.89148 15.2724 8.89148Z" fill="url(#paint2_linear_2440_2037)"/>
<path d="M23.957 33.6003C23.8477 33.5989 23.7432 33.5543 23.6658 33.476C23.5885 33.3978 23.5444 33.2921 23.543 33.1814C23.5458 30.6588 24.322 28.1991 25.7646 26.1414C27.2073 24.0838 29.2454 22.5295 31.5979 21.6929C31.6493 21.6749 31.7038 21.6674 31.7582 21.6707C31.8125 21.674 31.8657 21.6881 31.9147 21.7123C31.9636 21.7364 32.0074 21.77 32.0435 21.8112C32.0796 21.8525 32.1073 21.9005 32.1251 21.9526C32.1429 22.0046 32.1503 22.0598 32.147 22.1147C32.1437 22.1697 32.1298 22.2235 32.1059 22.273C32.0821 22.3226 32.0489 22.3669 32.0081 22.4034C31.9673 22.4399 31.9199 22.468 31.8684 22.486C29.6784 23.2649 27.7813 24.7119 26.4385 26.6276C25.0957 28.5432 24.3733 30.833 24.3711 33.1814C24.3697 33.2921 24.3256 33.3978 24.2482 33.476C24.1709 33.5543 24.0664 33.5989 23.957 33.6003Z" fill="url(#paint3_linear_2440_2037)"/>
<path d="M47.1952 33.5999C47.0859 33.5985 46.9814 33.5539 46.904 33.4757C46.8267 33.3974 46.7826 33.2917 46.7812 33.1811C46.7801 30.8331 46.0589 28.5434 44.7171 26.6277C43.3752 24.712 41.4788 23.2648 39.2894 22.4856C39.2352 22.4677 39.1852 22.4386 39.1426 22.4002C39.0999 22.3618 39.0656 22.3149 39.0418 22.2625C39.018 22.21 39.0051 22.1532 39.004 22.0954C39.0029 22.0377 39.0136 21.9804 39.0354 21.9271C39.0523 21.8717 39.0806 21.8205 39.1185 21.7771C39.1564 21.7336 39.203 21.6989 39.2553 21.6751C39.3075 21.6513 39.3642 21.639 39.4215 21.6392C39.4788 21.6393 39.5354 21.6517 39.5875 21.6757C41.9374 22.5175 43.9711 24.0764 45.408 26.1372C46.8448 28.198 47.614 30.6592 47.6093 33.1811C47.6079 33.2917 47.5638 33.3974 47.4864 33.4757C47.4091 33.5539 47.3046 33.5985 47.1952 33.5999Z" fill="url(#paint4_linear_2440_2037)"/>
<path d="M36.4223 28.7517H34.7274C34.6464 28.7527 34.567 28.7294 34.4991 28.6846C34.4313 28.6399 34.3782 28.5757 34.3464 28.5004L31.9173 22.8427C31.8733 22.7405 31.8713 22.6248 31.9117 22.5211C31.9521 22.4174 32.0315 22.3342 32.1326 22.2897C32.2336 22.2453 32.3479 22.2433 32.4504 22.2841C32.5529 22.325 32.6352 22.4053 32.6791 22.5076L34.9979 27.9251H36.1517L38.4705 22.5187C38.5144 22.4165 38.5967 22.3361 38.6992 22.2953C38.8017 22.2544 38.916 22.2565 39.0171 22.3009C39.1181 22.3453 39.1975 22.4286 39.2379 22.5323C39.2783 22.6359 39.2763 22.7516 39.2324 22.8538L36.8032 28.4836C36.7741 28.5621 36.722 28.6298 36.654 28.6777C36.586 28.7256 36.5051 28.7514 36.4223 28.7517Z" fill="url(#paint5_linear_2440_2037)"/>
<path d="M38.8581 33.6003H32.2993C32.2321 33.5965 32.1668 33.5762 32.1091 33.5412C32.0514 33.5062 32.003 33.4574 31.9681 33.3992C31.9327 33.3372 31.9141 33.2669 31.9141 33.1953C31.9141 33.1238 31.9327 33.0535 31.9681 32.9915L34.4027 28.1436C34.4343 28.0823 34.4808 28.0302 34.5378 27.9921C34.5948 27.954 34.6604 27.9312 34.7285 27.9258H36.4234C36.4999 27.9256 36.575 27.9469 36.6403 27.9874C36.7056 28.0278 36.7586 28.0857 36.7933 28.1548L39.228 33.0026C39.2633 33.0646 39.2819 33.1349 39.2819 33.2065C39.2819 33.2781 39.2633 33.3484 39.228 33.4104C39.1878 33.4717 39.1327 33.5215 39.0678 33.5548C39.003 33.5881 38.9307 33.6037 38.8581 33.6003ZM32.9728 32.7625H38.1845L36.1694 28.7524H34.9824L32.9728 32.7625Z" fill="url(#paint6_linear_2440_2037)"/>
<path d="M50.7391 38.1072H21.6664C21.5565 38.1072 21.4512 38.063 21.3736 37.9845C21.2959 37.9059 21.2523 37.7994 21.2523 37.6883C21.2523 37.5772 21.2959 37.4706 21.3736 37.3921C21.4512 37.3135 21.5565 37.2694 21.6664 37.2694H50.7391C50.9221 37.2694 51.0976 37.1958 51.227 37.0649C51.3565 36.934 51.4292 36.7564 51.4292 36.5713V34.2981C51.4292 34.113 51.3565 33.9354 51.227 33.8045C51.0976 33.6735 50.9221 33.6 50.7391 33.6H16.2891C16.1792 33.6 16.0739 33.5558 15.9963 33.4773C15.9186 33.3987 15.875 33.2922 15.875 33.1811C15.875 33.07 15.9186 32.9635 15.9963 32.8849C16.0739 32.8063 16.1792 32.7622 16.2891 32.7622H50.7391C51.1417 32.7622 51.5279 32.924 51.8126 33.2121C52.0973 33.5001 52.2573 33.8908 52.2573 34.2981V36.5713C52.2573 36.7729 52.218 36.9727 52.1417 37.159C52.0654 37.3454 51.9536 37.5147 51.8126 37.6573C51.6716 37.7999 51.5043 37.9131 51.3201 37.9902C51.1359 38.0674 50.9384 38.1072 50.7391 38.1072Z" fill="url(#paint7_linear_2440_2037)"/>
<path d="M15.8753 33.4549C15.785 33.4548 15.6973 33.4249 15.6255 33.3697C15.5536 33.3145 15.5015 33.2371 15.4772 33.1492C15.4528 33.0613 15.4575 32.9678 15.4904 32.8829C15.5234 32.7979 15.583 32.7262 15.6599 32.6786C16.7199 32.0178 17.5378 31.0252 17.9894 29.8515C18.441 28.6777 18.5017 27.3869 18.1623 26.1751C17.8228 24.9633 17.1018 23.8966 16.1086 23.137C15.1155 22.3774 13.9044 21.9664 12.6594 21.9664C11.4143 21.9664 10.2033 22.3774 9.21012 23.137C8.21695 23.8966 7.49591 24.9633 7.15647 26.1751C6.81702 27.3869 6.87772 28.6777 7.32934 29.8515C7.78097 31.0252 8.59885 32.0178 9.6588 32.6786C9.75251 32.7371 9.81941 32.8309 9.84478 32.9393C9.87014 33.0477 9.8519 33.1619 9.79406 33.2567C9.73623 33.3515 9.64353 33.4191 9.53637 33.4448C9.42921 33.4705 9.31637 33.452 9.22266 33.3935C8.01126 32.6369 7.07688 31.5013 6.5613 30.1588C6.04571 28.8163 5.97706 27.3404 6.36576 25.9549C6.75446 24.5694 7.5793 23.35 8.71512 22.4817C9.85093 21.6133 11.2357 21.1436 12.6594 21.1436C14.083 21.1436 15.4678 21.6133 16.6036 22.4817C17.7395 23.35 18.5643 24.5694 18.953 25.9549C19.3417 27.3404 19.273 28.8163 18.7575 30.1588C18.2419 31.5013 17.3075 32.6369 16.0961 33.3935C16.0288 33.4326 15.9528 33.4537 15.8753 33.4549Z" fill="url(#paint8_linear_2440_2037)"/>
<path d="M12.6458 47.9705C10.1479 48.022 7.65953 47.6443 5.28656 46.8534C2.97333 45.9766 1.74219 44.6808 1.74219 43.1505C1.80635 40.2643 2.98475 37.5182 5.02518 35.4999C7.06561 33.4816 9.80594 32.3516 12.6596 32.3516C15.5133 32.3516 18.2537 33.4816 20.2941 35.4999C22.3345 37.5182 23.5129 40.2643 23.5771 43.1505C23.5771 46.4792 18.0949 47.9705 12.6458 47.9705ZM12.6458 32.9521C9.97493 32.9595 7.41558 34.0365 5.52747 35.9476C3.63936 37.8588 2.57614 40.4485 2.57031 43.1505C2.57031 45.7644 7.64396 47.1327 12.6569 47.1327C17.6698 47.1327 22.749 45.7644 22.749 43.1505C22.7431 40.4437 21.6761 37.8497 19.782 35.9378C17.888 34.0259 15.3215 32.9521 12.6458 32.9521Z" fill="url(#paint9_linear_2440_2037)"/>
<path d="M24.1941 18.3304C24.0002 18.33 23.8098 18.278 23.642 18.1796L20.1639 16.1969C20.1179 16.1722 20.0669 16.1588 20.0148 16.1578H11.2643C10.9715 16.1578 10.6906 16.0401 10.4836 15.8306C10.2765 15.6211 10.1602 15.337 10.1602 15.0408V6.78597C10.1602 6.48971 10.2765 6.2056 10.4836 5.99611C10.6906 5.78663 10.9715 5.66895 11.2643 5.66895H24.1941C24.487 5.66895 24.7678 5.78663 24.9749 5.99611C25.1819 6.2056 25.2983 6.48971 25.2983 6.78597V17.191C25.301 17.3897 25.2513 17.5856 25.1542 17.7584C25.0572 17.9312 24.9163 18.0747 24.7462 18.174C24.579 18.2744 24.3885 18.3283 24.1941 18.3304ZM11.2643 6.48437C11.1853 6.48437 11.1094 6.51615 11.0535 6.57271C10.9976 6.62927 10.9662 6.70598 10.9662 6.78597V14.9961C10.9676 15.0751 10.9997 15.1504 11.0554 15.2057C11.1112 15.2611 11.1862 15.2921 11.2643 15.2921H20.0148C20.2086 15.294 20.3986 15.3459 20.5669 15.4429L24.0395 17.4479C24.0847 17.475 24.1361 17.4892 24.1886 17.4892C24.241 17.4892 24.2925 17.475 24.3377 17.4479C24.3825 17.4225 24.4196 17.385 24.4449 17.3398C24.4702 17.2945 24.4827 17.243 24.4812 17.191V6.78597C24.4812 6.70694 24.4506 6.63106 24.3958 6.57466C24.3411 6.51825 24.2667 6.48583 24.1886 6.48437H11.2643Z" fill="url(#paint10_linear_2440_2037)"/>
<path d="M16.5127 12.7508C16.4543 12.7508 16.3966 12.7384 16.3433 12.7144C16.2901 12.6903 16.2424 12.6551 16.2035 12.6111L14.9724 11.226C14.9326 11.1846 14.9017 11.1352 14.8817 11.0811C14.8617 11.027 14.853 10.9692 14.8561 10.9115C14.8592 10.8538 14.8741 10.7974 14.8998 10.7458C14.9255 10.6942 14.9615 10.6485 15.0055 10.6117C15.0453 10.5744 15.092 10.5456 15.1431 10.5271C15.1941 10.5085 15.2483 10.5006 15.3024 10.5037C15.3565 10.5068 15.4094 10.521 15.458 10.5453C15.5066 10.5696 15.5499 10.6036 15.5852 10.6452L16.5513 11.7622L19.5326 9.3662C19.62 9.29801 19.7304 9.2674 19.8399 9.28099C19.9494 9.29458 20.0493 9.35128 20.1178 9.4388C20.1557 9.48247 20.1842 9.53364 20.2016 9.58907C20.2189 9.64449 20.2246 9.70296 20.2184 9.76074C20.2121 9.81853 20.1941 9.87437 20.1654 9.92471C20.1366 9.97506 20.0979 10.0188 20.0515 10.0532L16.739 12.6893C16.6711 12.7317 16.5924 12.7531 16.5127 12.7508Z" fill="url(#paint11_linear_2440_2037)"/>
<path d="M15.2724 8.89148H12.8984C12.7886 8.89148 12.6833 8.84734 12.6057 8.76879C12.528 8.69023 12.4844 8.58369 12.4844 8.47259C12.4844 8.3615 12.528 8.25495 12.6057 8.1764C12.6833 8.09784 12.7886 8.05371 12.8984 8.05371H15.2724C15.3822 8.05371 15.4875 8.09784 15.5652 8.1764C15.6428 8.25495 15.6865 8.3615 15.6865 8.47259C15.6865 8.58369 15.6428 8.69023 15.5652 8.76879C15.4875 8.84734 15.3822 8.89148 15.2724 8.89148Z" fill="url(#paint12_linear_2440_2037)"/>
<path d="M35.5803 24.7589C32.4223 24.7589 29.7227 20.665 29.7227 17.314C29.7227 15.7424 30.3398 14.2351 31.4383 13.1238C32.5368 12.0125 34.0267 11.3882 35.5803 11.3882C37.1338 11.3882 38.6237 12.0125 39.7222 13.1238C40.8207 14.2351 41.4379 15.7424 41.4379 17.314C41.4379 20.665 38.7327 24.7589 35.5803 24.7589ZM35.5803 12.2371C34.2487 12.2386 32.972 12.7736 32.0294 13.725C31.0868 14.6765 30.5552 15.9669 30.5508 17.314C30.5508 20.2238 32.9192 23.91 35.5803 23.91C38.2413 23.91 40.6097 20.2238 40.6097 17.314C40.6054 15.9669 40.0737 14.6765 39.1311 13.725C38.1886 12.7736 36.9118 12.2386 35.5803 12.2371Z" fill="url(#paint13_linear_2440_2037)"/>
<defs>
<linearGradient id="paint0_linear_2440_2037" x1="10.1602" y1="11.9997" x2="25.2984" y2="11.9997" gradientUnits="userSpaceOnUse">
<stop stop-color="#5EBC4D"/>
<stop offset="1" stop-color="#7FD01B"/>
</linearGradient>
<linearGradient id="paint1_linear_2440_2037" x1="14.8555" y1="11.0144" x2="20.2208" y2="11.0144" gradientUnits="userSpaceOnUse">
<stop stop-color="#5EBC4D"/>
<stop offset="1" stop-color="#7FD01B"/>
</linearGradient>
<linearGradient id="paint2_linear_2440_2037" x1="12.4844" y1="8.47259" x2="15.6865" y2="8.47259" gradientUnits="userSpaceOnUse">
<stop stop-color="#5EBC4D"/>
<stop offset="1" stop-color="#7FD01B"/>
</linearGradient>
<linearGradient id="paint3_linear_2440_2037" x1="23.543" y1="27.6351" x2="32.1478" y2="27.6351" gradientUnits="userSpaceOnUse">
<stop stop-color="#5EBC4D"/>
<stop offset="1" stop-color="#7FD01B"/>
</linearGradient>
<linearGradient id="paint4_linear_2440_2037" x1="39.0039" y1="27.6196" x2="47.6093" y2="27.6196" gradientUnits="userSpaceOnUse">
<stop stop-color="#5EBC4D"/>
<stop offset="1" stop-color="#7FD01B"/>
</linearGradient>
<linearGradient id="paint5_linear_2440_2037" x1="31.8828" y1="25.5033" x2="39.2668" y2="25.5033" gradientUnits="userSpaceOnUse">
<stop stop-color="#5EBC4D"/>
<stop offset="1" stop-color="#7FD01B"/>
</linearGradient>
<linearGradient id="paint6_linear_2440_2037" x1="31.9141" y1="30.7633" x2="39.2819" y2="30.7633" gradientUnits="userSpaceOnUse">
<stop stop-color="#5EBC4D"/>
<stop offset="1" stop-color="#7FD01B"/>
</linearGradient>
<linearGradient id="paint7_linear_2440_2037" x1="15.875" y1="35.4347" x2="52.2573" y2="35.4347" gradientUnits="userSpaceOnUse">
<stop stop-color="#5EBC4D"/>
<stop offset="1" stop-color="#7FD01B"/>
</linearGradient>
<linearGradient id="paint8_linear_2440_2037" x1="6.11719" y1="27.2998" x2="19.2016" y2="27.2998" gradientUnits="userSpaceOnUse">
<stop stop-color="#5EBC4D"/>
<stop offset="1" stop-color="#7FD01B"/>
</linearGradient>
<linearGradient id="paint9_linear_2440_2037" x1="1.74219" y1="40.1633" x2="23.5771" y2="40.1633" gradientUnits="userSpaceOnUse">
<stop stop-color="#5EBC4D"/>
<stop offset="1" stop-color="#7FD01B"/>
</linearGradient>
<linearGradient id="paint10_linear_2440_2037" x1="10.1602" y1="11.9997" x2="25.2984" y2="11.9997" gradientUnits="userSpaceOnUse">
<stop stop-color="#5EBC4D"/>
<stop offset="1" stop-color="#7FD01B"/>
</linearGradient>
<linearGradient id="paint11_linear_2440_2037" x1="14.8555" y1="11.0144" x2="20.2208" y2="11.0144" gradientUnits="userSpaceOnUse">
<stop stop-color="#5EBC4D"/>
<stop offset="1" stop-color="#7FD01B"/>
</linearGradient>
<linearGradient id="paint12_linear_2440_2037" x1="12.4844" y1="8.47259" x2="15.6865" y2="8.47259" gradientUnits="userSpaceOnUse">
<stop stop-color="#5EBC4D"/>
<stop offset="1" stop-color="#7FD01B"/>
</linearGradient>
<linearGradient id="paint13_linear_2440_2037" x1="29.7227" y1="18.0736" x2="41.4379" y2="18.0736" gradientUnits="userSpaceOnUse">
<stop stop-color="#5EBC4D"/>
<stop offset="1" stop-color="#7FD01B"/>
</linearGradient>
</defs>
</svg>
