<svg width="85" height="84" viewBox="0 0 85 84" fill="none" xmlns="http://www.w3.org/2000/svg">
<path d="M37.1375 70.8194C37.0495 70.8198 36.9622 70.8026 36.8809 70.7689C36.7996 70.7351 36.7258 70.6854 36.6639 70.6228C36.5731 70.5305 36.5105 70.4142 36.4836 70.2875C36.4567 70.1609 36.4665 70.0291 36.512 69.9079L38.2099 65.6007C39.1218 63.2819 40.503 61.1767 42.2669 59.4168L74.9286 26.8087C75.2093 26.5416 75.5821 26.3926 75.9696 26.3926C76.3572 26.3926 76.7299 26.5416 77.0107 26.8087L80.5405 30.3385C80.6767 30.4746 80.7847 30.6362 80.8584 30.8141C80.9321 30.992 80.9701 31.1826 80.9701 31.3751C80.9701 31.5677 80.9321 31.7583 80.8584 31.9362C80.7847 32.114 80.6767 32.2756 80.5405 32.4117L47.8609 65.0287C46.1068 66.7932 44.0037 68.172 41.686 69.0768L37.3788 70.7747C37.3022 70.8056 37.2201 70.8208 37.1375 70.8194ZM75.9652 27.7024C75.9307 27.7052 75.8987 27.7212 75.8758 27.747L43.2231 60.3641C41.5906 61.9909 40.3127 63.9382 39.4699 66.0832L38.335 68.9607L41.2124 67.8347C43.3569 66.9907 45.3039 65.713 46.9316 64.0815L79.5933 31.4198C79.6043 31.391 79.6043 31.3592 79.5933 31.3305C79.6012 31.3012 79.6012 31.2703 79.5933 31.2411L76.0188 27.7113C76.002 27.7038 75.9835 27.7007 75.9652 27.7024Z" fill="url(#paint0_linear_2387_1336)"/>
<path d="M79.3879 30.7583C79.2102 30.7582 79.0398 30.6875 78.9142 30.5617L76.7428 28.3902C76.6795 28.3286 76.6293 28.255 76.595 28.1736C76.5606 28.0923 76.543 28.0049 76.543 27.9166C76.543 27.8283 76.5606 27.7409 76.595 27.6596C76.6293 27.5783 76.6795 27.5046 76.7428 27.443L79.6113 24.5656C80.0278 24.1541 80.5896 23.9233 81.1751 23.9233C81.7606 23.9233 82.3224 24.1541 82.7389 24.5656C82.9444 24.7726 83.1068 25.0182 83.2168 25.2884C83.3268 25.5585 83.3821 25.8478 83.3796 26.1394C83.3771 26.4311 83.3169 26.7194 83.2023 26.9876C83.0877 27.2558 82.9211 27.4987 82.7121 27.7022L79.8615 30.5617C79.7359 30.6875 79.5656 30.7582 79.3879 30.7583ZM78.1636 27.9166L79.3879 29.1409L81.8185 26.737C81.9335 26.6661 82.0309 26.5699 82.1033 26.4559C82.1758 26.3418 82.2215 26.2129 82.2369 26.0786C82.2523 25.9444 82.2371 25.8084 82.1924 25.6809C82.1477 25.5534 82.0746 25.4377 81.9787 25.3425C81.8828 25.2473 81.7666 25.175 81.6387 25.1312C81.5109 25.0875 81.3748 25.0732 81.2407 25.0896C81.1066 25.106 80.9779 25.1526 80.8644 25.2259C80.7509 25.2992 80.6554 25.3973 80.5853 25.5128L78.1636 27.9166Z" fill="url(#paint1_linear_2387_1336)"/>
<path d="M64.6697 47.9693C64.492 47.9692 64.3217 47.8985 64.1961 47.7727L59.5314 43.1081C59.4131 42.981 59.3486 42.813 59.3517 42.6393C59.3547 42.4657 59.4251 42.3001 59.5479 42.1773C59.6707 42.0545 59.8363 41.9841 60.0099 41.9811C60.1836 41.978 60.3516 42.0424 60.4787 42.1608L65.1434 46.8255C65.2689 46.9512 65.3394 47.1215 65.3394 47.2991C65.3394 47.4767 65.2689 47.6471 65.1434 47.7727C65.0157 47.8953 64.8467 47.9655 64.6697 47.9693Z" fill="url(#paint2_linear_2387_1336)"/>
<path d="M67.4157 50.8822C67.3277 50.8826 67.2404 50.8655 67.1591 50.8317C67.0777 50.7979 67.004 50.7483 66.9421 50.6856C66.8166 50.56 66.7461 50.3896 66.7461 50.212C66.7461 50.0344 66.8166 49.864 66.9421 49.7384L79.6136 37.0758C79.744 36.9475 79.8475 36.7945 79.9181 36.6257C79.9887 36.457 80.0249 36.2758 80.0247 36.0929C80.0264 35.9097 79.9909 35.7281 79.9202 35.5591C79.8496 35.3901 79.7452 35.2372 79.6136 35.1099L78.2464 33.7248C78.128 33.5977 78.0635 33.4297 78.0666 33.256C78.0696 33.0824 78.14 32.9168 78.2628 32.794C78.3856 32.6712 78.5512 32.6008 78.7249 32.5978C78.8985 32.5947 79.0665 32.6591 79.1936 32.7775L80.5698 34.1626C80.8263 34.4141 81.0297 34.7145 81.1678 35.0461C81.306 35.3777 81.3761 35.7336 81.374 36.0929C81.3761 36.4521 81.306 36.808 81.1678 37.1396C81.0297 37.4712 80.8263 37.7716 80.5698 38.0231L67.8983 50.6856C67.835 50.7489 67.7598 50.799 67.6769 50.8327C67.594 50.8665 67.5052 50.8833 67.4157 50.8822Z" fill="url(#paint3_linear_2387_1336)"/>
<path d="M33.7441 71.1855C33.6759 71.1948 33.6067 71.1948 33.5385 71.1855C31.7513 70.5957 31.2688 69.5323 31.1794 68.7369C31.1445 68.305 31.1807 67.8703 31.2866 67.4501C31.4189 67.0803 31.4189 66.6761 31.2866 66.3063C31.2646 66.2485 31.2285 66.197 31.1818 66.1565C31.135 66.1159 31.0789 66.0876 31.0185 66.074C30.259 65.8774 28.6147 66.9676 27.9981 67.3786L27.7032 67.5663C23.4585 70.2918 22.2343 70.7923 21.4479 70.1221C20.6615 69.4518 21.2513 67.8612 23.3066 63.411L23.5747 62.8391C23.7432 62.5055 23.8664 62.1508 23.9411 61.7846C23.5211 61.8472 22.5381 62.294 20.3666 63.7952L20.0449 64.0097C19.2407 64.5369 18.4453 65.1446 17.6053 65.7969C14.8798 67.8612 12.056 69.9969 8.5262 70.1042C8.06451 70.1349 7.60273 70.0456 7.18577 69.845C6.95002 69.7249 6.74949 69.5457 6.60381 69.3248C6.45813 69.1039 6.3723 68.849 6.35471 68.585C6.2296 66.6638 9.86662 63.7595 11.4305 62.5978C11.5746 62.4944 11.7534 62.4515 11.9287 62.4782C12.1041 62.5049 12.262 62.5991 12.3688 62.7408C12.463 62.88 12.5006 63.0499 12.4741 63.2159C12.4475 63.3819 12.3587 63.5315 12.2258 63.6344C9.55386 65.5735 7.65045 67.6467 7.65045 68.442C7.65045 68.442 7.65045 68.5403 7.79343 68.6208C8.00035 68.7033 8.22429 68.7339 8.44577 68.7101C11.5377 68.6118 14.1917 66.6101 16.7564 64.671C17.5696 64.0544 18.4185 63.411 19.2585 62.8838L19.5713 62.6693C22.3415 60.8106 24.0394 59.9884 24.933 60.6944C25.6568 61.311 25.2547 62.4816 24.8258 63.3752L24.5577 63.9472C23.7296 65.5667 23.0304 67.2489 22.4666 68.9782C24.0474 68.2545 25.5632 67.3965 26.9973 66.4135L27.2743 66.2348C28.6147 65.3412 30.1428 64.4476 31.376 64.7514C31.6155 64.8112 31.8393 64.922 32.0321 65.0763C32.2248 65.2305 32.3821 65.4245 32.493 65.645C32.7761 66.2809 32.8236 66.9969 32.6271 67.6646C32.5485 67.9556 32.5183 68.2575 32.5377 68.5582C32.5377 68.7816 32.6449 69.4518 33.9853 69.8897C34.0739 69.9174 34.1558 69.9633 34.2257 70.0243C34.2957 70.0853 34.3522 70.1602 34.3917 70.2442C34.4312 70.3283 34.4528 70.4195 34.4551 70.5123C34.4575 70.6051 34.4405 70.6974 34.4053 70.7833C34.3513 70.9113 34.2584 71.0191 34.1397 71.0912C34.021 71.1634 33.8826 71.1964 33.7441 71.1855Z" fill="url(#paint4_linear_2387_1336)"/>
<path d="M30.0596 15.7457H9.84599C9.66824 15.7457 9.49777 15.6751 9.37208 15.5494C9.24639 15.4237 9.17578 15.2532 9.17578 15.0755C9.17578 14.8977 9.24639 14.7273 9.37208 14.6016C9.49777 14.4759 9.66824 14.4053 9.84599 14.4053H30.0596C30.2374 14.4053 30.4078 14.4759 30.5335 14.6016C30.6592 14.7273 30.7298 14.8977 30.7298 15.0755C30.7298 15.2532 30.6592 15.4237 30.5335 15.5494C30.4078 15.6751 30.2374 15.7457 30.0596 15.7457Z" fill="url(#paint5_linear_2387_1336)"/>
<path d="M47.3701 25.6466H9.83818C9.66043 25.6466 9.48996 25.576 9.36427 25.4503C9.23858 25.3246 9.16797 25.1541 9.16797 24.9764C9.16797 24.7986 9.23858 24.6281 9.36427 24.5025C9.48996 24.3768 9.66043 24.3062 9.83818 24.3062H47.3701C47.5478 24.3062 47.7183 24.3768 47.844 24.5025C47.9697 24.6281 48.0403 24.7986 48.0403 24.9764C48.0403 25.1541 47.9697 25.3246 47.844 25.4503C47.7183 25.576 47.5478 25.6466 47.3701 25.6466Z" fill="url(#paint6_linear_2387_1336)"/>
<path d="M47.3701 35.5572H9.83818C9.66043 35.5572 9.48996 35.4866 9.36427 35.3609C9.23858 35.2352 9.16797 35.0648 9.16797 34.887C9.16797 34.7093 9.23858 34.5388 9.36427 34.4131C9.48996 34.2874 9.66043 34.2168 9.83818 34.2168H47.3701C47.5478 34.2168 47.7183 34.2874 47.844 34.4131C47.9697 34.5388 48.0403 34.7093 48.0403 34.887C48.0403 35.0648 47.9697 35.2352 47.844 35.3609C47.7183 35.4866 47.5478 35.5572 47.3701 35.5572Z" fill="url(#paint7_linear_2387_1336)"/>
<path d="M47.3701 45.4581H9.83818C9.66043 45.4581 9.48996 45.3875 9.36427 45.2618C9.23858 45.1361 9.16797 44.9656 9.16797 44.7879C9.16797 44.6101 9.23858 44.4397 9.36427 44.314C9.48996 44.1883 9.66043 44.1177 9.83818 44.1177H47.3701C47.5478 44.1177 47.7183 44.1883 47.844 44.314C47.9697 44.4397 48.0403 44.6101 48.0403 44.7879C48.0403 44.9656 47.9697 45.1361 47.844 45.2618C47.7183 45.3875 47.5478 45.4581 47.3701 45.4581Z" fill="url(#paint8_linear_2387_1336)"/>
<path d="M36.7349 55.4039H9.84599C9.66824 55.4039 9.49777 55.3333 9.37208 55.2076C9.24639 55.0819 9.17578 54.9114 9.17578 54.7337C9.17578 54.5559 9.24639 54.3855 9.37208 54.2598C9.49777 54.1341 9.66824 54.0635 9.84599 54.0635H36.7349C36.9127 54.0635 37.0832 54.1341 37.2088 54.2598C37.3345 54.3855 37.4051 54.5559 37.4051 54.7337C37.4051 54.9114 37.3345 55.0819 37.2088 55.2076C37.0832 55.3333 36.9127 55.4039 36.7349 55.4039Z" fill="url(#paint9_linear_2387_1336)"/>
<path d="M61.0249 81.1138H4.62868C3.82916 81.1114 3.0632 80.7922 2.49869 80.226C1.93418 79.6598 1.61718 78.8929 1.61719 78.0934V5.907C1.61719 5.1083 1.93447 4.34232 2.49923 3.77755C3.064 3.21279 3.82998 2.89551 4.62868 2.89551H49.5597C49.7375 2.89551 49.908 2.96612 50.0337 3.09181C50.1593 3.2175 50.23 3.38797 50.23 3.56572C50.23 3.74347 50.1593 3.91394 50.0337 4.03963C49.908 4.16532 49.7375 4.23593 49.5597 4.23593H4.62868C4.18548 4.23593 3.76044 4.41199 3.44706 4.72538C3.13367 5.03876 2.95761 5.4638 2.95761 5.907V78.0934C2.95761 78.5374 3.13338 78.9634 3.44651 79.2782C3.75964 79.593 4.18466 79.771 4.62868 79.7734H61.0249C61.2466 79.7734 61.4663 79.7297 61.6712 79.6448C61.8761 79.5599 62.0623 79.4355 62.2191 79.2787C62.3759 79.1219 62.5003 78.9357 62.5852 78.7308C62.6701 78.5259 62.7138 78.3062 62.7138 78.0844V48.5951C62.7138 48.4173 62.7844 48.2469 62.9101 48.1212C63.0358 47.9955 63.2062 47.9249 63.384 47.9249C63.5618 47.9249 63.7322 47.9955 63.8579 48.1212C63.9836 48.2469 64.0542 48.4173 64.0542 48.5951V78.0844C64.0542 78.8879 63.735 79.6584 63.1669 80.2265C62.5988 80.7946 61.8283 81.1138 61.0249 81.1138Z" fill="url(#paint10_linear_2387_1336)"/>
<path d="M63.3733 39.9268C63.1956 39.9268 63.0251 39.8562 62.8994 39.7305C62.7737 39.6048 62.7031 39.4343 62.7031 39.2566V17.3719C62.7031 17.1941 62.7737 17.0236 62.8994 16.898C63.0251 16.7723 63.1956 16.7017 63.3733 16.7017C63.5511 16.7017 63.7216 16.7723 63.8472 16.898C63.9729 17.0236 64.0436 17.1941 64.0436 17.3719V39.2566C64.0448 39.3449 64.0282 39.4326 63.995 39.5145C63.9617 39.5963 63.9124 39.6707 63.8499 39.7331C63.7875 39.7956 63.7131 39.8449 63.6312 39.8782C63.5494 39.9115 63.4617 39.928 63.3733 39.9268Z" fill="url(#paint11_linear_2387_1336)"/>
<path d="M63.3762 18.0422H51.9915C51.1698 18.0399 50.3825 17.7124 49.8014 17.1314C49.2204 16.5504 48.893 15.763 48.8906 14.9414V3.57456C48.8909 3.44275 48.9301 3.31395 49.0032 3.20428C49.0763 3.0946 49.1801 3.00893 49.3017 2.95796C49.4246 2.90875 49.5592 2.89607 49.6891 2.92143C49.8191 2.94679 49.939 3.00912 50.0345 3.10094L63.8498 16.8984C63.9434 16.9921 64.0071 17.1115 64.0329 17.2414C64.0587 17.3713 64.0455 17.506 63.9948 17.6284C63.9441 17.7508 63.8583 17.8554 63.7482 17.9291C63.6381 18.0027 63.5086 18.0421 63.3762 18.0422ZM50.2311 5.17413V14.9414C50.2311 15.4154 50.4193 15.87 50.7545 16.2051C51.0897 16.5403 51.5443 16.7286 52.0183 16.7286H61.7587L50.2311 5.17413Z" fill="url(#paint12_linear_2387_1336)"/>
<defs>
<linearGradient id="paint0_linear_2387_1336" x1="36.4688" y1="48.606" x2="80.9701" y2="48.606" gradientUnits="userSpaceOnUse">
<stop stop-color="#5EBC4D"/>
<stop offset="1" stop-color="#7FD01B"/>
</linearGradient>
<linearGradient id="paint1_linear_2387_1336" x1="76.543" y1="27.3408" x2="83.3797" y2="27.3408" gradientUnits="userSpaceOnUse">
<stop stop-color="#5EBC4D"/>
<stop offset="1" stop-color="#7FD01B"/>
</linearGradient>
<linearGradient id="paint2_linear_2387_1336" x1="59.3516" y1="44.9752" x2="65.3394" y2="44.9752" gradientUnits="userSpaceOnUse">
<stop stop-color="#5EBC4D"/>
<stop offset="1" stop-color="#7FD01B"/>
</linearGradient>
<linearGradient id="paint3_linear_2387_1336" x1="66.7461" y1="41.74" x2="81.3741" y2="41.74" gradientUnits="userSpaceOnUse">
<stop stop-color="#5EBC4D"/>
<stop offset="1" stop-color="#7FD01B"/>
</linearGradient>
<linearGradient id="paint4_linear_2387_1336" x1="6.35156" y1="65.8179" x2="34.4553" y2="65.8179" gradientUnits="userSpaceOnUse">
<stop stop-color="#5EBC4D"/>
<stop offset="1" stop-color="#7FD01B"/>
</linearGradient>
<linearGradient id="paint5_linear_2387_1336" x1="9.17578" y1="15.0755" x2="30.7298" y2="15.0755" gradientUnits="userSpaceOnUse">
<stop stop-color="#5EBC4D"/>
<stop offset="1" stop-color="#7FD01B"/>
</linearGradient>
<linearGradient id="paint6_linear_2387_1336" x1="9.16797" y1="24.9764" x2="48.0403" y2="24.9764" gradientUnits="userSpaceOnUse">
<stop stop-color="#5EBC4D"/>
<stop offset="1" stop-color="#7FD01B"/>
</linearGradient>
<linearGradient id="paint7_linear_2387_1336" x1="9.16797" y1="34.887" x2="48.0403" y2="34.887" gradientUnits="userSpaceOnUse">
<stop stop-color="#5EBC4D"/>
<stop offset="1" stop-color="#7FD01B"/>
</linearGradient>
<linearGradient id="paint8_linear_2387_1336" x1="9.16797" y1="44.7879" x2="48.0403" y2="44.7879" gradientUnits="userSpaceOnUse">
<stop stop-color="#5EBC4D"/>
<stop offset="1" stop-color="#7FD01B"/>
</linearGradient>
<linearGradient id="paint9_linear_2387_1336" x1="9.17578" y1="54.7337" x2="37.4051" y2="54.7337" gradientUnits="userSpaceOnUse">
<stop stop-color="#5EBC4D"/>
<stop offset="1" stop-color="#7FD01B"/>
</linearGradient>
<linearGradient id="paint10_linear_2387_1336" x1="1.61719" y1="42.0047" x2="64.0542" y2="42.0047" gradientUnits="userSpaceOnUse">
<stop stop-color="#5EBC4D"/>
<stop offset="1" stop-color="#7FD01B"/>
</linearGradient>
<linearGradient id="paint11_linear_2387_1336" x1="62.7031" y1="28.3142" x2="64.0436" y2="28.3142" gradientUnits="userSpaceOnUse">
<stop stop-color="#5EBC4D"/>
<stop offset="1" stop-color="#7FD01B"/>
</linearGradient>
<linearGradient id="paint12_linear_2387_1336" x1="48.8906" y1="10.4755" x2="64.0458" y2="10.4755" gradientUnits="userSpaceOnUse">
<stop stop-color="#5EBC4D"/>
<stop offset="1" stop-color="#7FD01B"/>
</linearGradient>
</defs>
</svg>
