<svg width="93" height="71" viewBox="0 0 93 71" fill="none" xmlns="http://www.w3.org/2000/svg">
<path d="M1.10567 0.511293C0.835761 0.452935 0.569651 0.624428 0.511293 0.894334C0.452935 1.16424 0.624428 1.43035 0.894334 1.48871L1.10567 0.511293ZM69.4444 36.9444L69.7922 36.5851L69.4444 36.9444ZM92 71L92.3283 65.2358L87.1722 67.8336L92 71ZM3.61704 2.10109C3.88593 2.16393 4.15487 1.9969 4.21771 1.728C4.28056 1.45911 4.11352 1.19017 3.84463 1.12733L3.61704 2.10109ZM9.28911 2.49874C9.02255 2.42663 8.74801 2.58427 8.6759 2.85083C8.60379 3.11739 8.76142 3.39194 9.02798 3.46405L9.28911 2.49874ZM14.3857 5.01727C14.6495 5.09898 14.9296 4.95139 15.0113 4.68762C15.093 4.42384 14.9454 4.14377 14.6816 4.06205L14.3857 5.01727ZM20.0129 5.82375C19.7524 5.73214 19.4669 5.86906 19.3753 6.12957C19.2837 6.39007 19.4206 6.67552 19.6811 6.76712L20.0129 5.82375ZM24.9057 8.71927C25.1624 8.82099 25.453 8.69533 25.5547 8.43861C25.6564 8.18188 25.5308 7.89131 25.274 7.78959L24.9057 8.71927ZM30.4532 9.96282C30.2008 9.85085 29.9054 9.9647 29.7934 10.2171C29.6814 10.4695 29.7953 10.7649 30.0477 10.8769L30.4532 9.96282ZM35.0969 13.2421C35.3445 13.3644 35.6444 13.2628 35.7667 13.0152C35.8889 12.7676 35.7873 12.4678 35.5398 12.3455L35.0969 13.2421ZM40.5232 14.9377C40.281 14.8051 39.9771 14.8941 39.8446 15.1363C39.712 15.3786 39.801 15.6824 40.0432 15.815L40.5232 14.9377ZM44.8765 18.5936C45.113 18.7363 45.4203 18.6602 45.563 18.4238C45.7056 18.1874 45.6296 17.8801 45.3932 17.7374L44.8765 18.5936ZM50.1407 20.741C49.9105 20.5885 49.6003 20.6514 49.4477 20.8816C49.2952 21.1118 49.3581 21.422 49.5883 21.5746L50.1407 20.741ZM54.1698 24.7518C54.3933 24.9139 54.7059 24.8641 54.868 24.6405C55.0302 24.417 54.9803 24.1043 54.7568 23.9422L54.1698 24.7518ZM59.2341 27.3334C59.0174 27.1621 58.703 27.1989 58.5317 27.4155C58.3605 27.6322 58.3972 27.9466 58.6139 28.1179L59.2341 27.3334ZM62.9164 31.6649C63.1258 31.8449 63.4415 31.8209 63.6215 31.6115C63.8014 31.402 63.7775 31.0864 63.5681 30.9064L62.9164 31.6649ZM67.7548 34.6514C67.5527 34.4633 67.2363 34.4746 67.0482 34.6768C66.86 34.8789 66.8714 35.1953 67.0735 35.3834L67.7548 34.6514ZM71.4762 39.7263C71.6647 39.928 71.9811 39.9387 72.1829 39.7501C72.3846 39.5616 72.3953 39.2452 72.2067 39.0434L71.4762 39.7263ZM76.6731 44.2816C76.5031 44.0639 76.1889 44.0253 75.9713 44.1953C75.7537 44.3653 75.715 44.6795 75.885 44.8971L76.6731 44.2816ZM79.8696 50.4126C80.0234 50.642 80.3341 50.7031 80.5634 50.5493C80.7927 50.3954 80.8539 50.0848 80.7 49.8555L79.8696 50.4126ZM84.3588 55.6688C84.218 55.4312 83.9113 55.3529 83.6737 55.4937C83.4362 55.6345 83.3578 55.9413 83.4987 56.1788L84.3588 55.6688ZM86.8521 62.119C86.9833 62.362 87.2867 62.4525 87.5296 62.3213C87.7726 62.1901 87.8632 61.8867 87.732 61.6438L86.8521 62.119ZM90.9066 67.7185C90.7814 67.4724 90.4804 67.3743 90.2343 67.4995C89.9881 67.6246 89.89 67.9256 90.0152 68.1718L90.9066 67.7185ZM1 1L0.894334 1.48871C1.80603 1.68583 2.71359 1.88993 3.61704 2.10109L3.73083 1.61421L3.84463 1.12733C2.93572 0.914895 2.02273 0.709577 1.10567 0.511293L1 1ZM9.15855 2.98139L9.02798 3.46405C10.8308 3.95174 12.6167 4.46926 14.3857 5.01727L14.5337 4.53966L14.6816 4.06205C12.9009 3.51041 11.1034 2.98953 9.28911 2.49874L9.15855 2.98139ZM19.847 6.29543L19.6811 6.76712C21.4399 7.38558 23.1814 8.03606 24.9057 8.71927L25.0899 8.25443L25.274 7.78959C23.5375 7.10151 21.7837 6.44647 20.0129 5.82375L19.847 6.29543ZM30.2505 10.4199L30.0477 10.8769C31.7481 11.6312 33.4311 12.4194 35.0969 13.2421L35.3183 12.7938L35.5398 12.3455C33.8615 11.5166 32.166 10.7226 30.4532 9.96282L30.2505 10.4199ZM40.2832 15.3763L40.0432 15.815C41.6714 16.7058 43.2825 17.6318 44.8765 18.5936L45.1349 18.1655L45.3932 17.7374C43.787 16.7682 42.1637 15.8352 40.5232 14.9377L40.2832 15.3763ZM49.8645 21.1578L49.5883 21.5746C51.132 22.5976 52.6591 23.6564 54.1698 24.7518L54.4633 24.347L54.7568 23.9422C53.2348 22.8386 51.6961 21.7718 50.1407 20.741L49.8645 21.1578ZM58.924 27.7256L58.6139 28.1179C60.0638 29.2641 61.498 30.4463 62.9164 31.6649L63.2422 31.2857L63.5681 30.9064C62.1394 29.679 60.6947 28.4882 59.2341 27.3334L58.924 27.7256ZM67.4142 35.0174L67.0735 35.3834C67.7516 36.0146 68.4261 36.6547 69.0967 37.3037L69.4444 36.9444L69.7922 36.5851C69.1168 35.9316 68.4377 35.2871 67.7548 34.6514L67.4142 35.0174ZM69.4444 36.9444L69.0967 37.3037C69.9114 38.0921 70.7041 38.9002 71.4762 39.7263L71.8415 39.3849L72.2067 39.0434C71.4236 38.2056 70.6193 37.3856 69.7922 36.5851L69.4444 36.9444ZM76.2791 44.5894L75.885 44.8971C77.2793 46.6823 78.6034 48.5255 79.8696 50.4126L80.2848 50.1341L80.7 49.8555C79.422 47.9507 78.0839 46.0878 76.6731 44.2816L76.2791 44.5894ZM83.9287 55.9238L83.4987 56.1788C84.6581 58.1341 85.7718 60.1188 86.8521 62.119L87.292 61.8814L87.732 61.6438C86.6466 59.6342 85.5263 57.6376 84.3588 55.6688L83.9287 55.9238Z" fill="url(#paint0_linear_2387_1412)"/>
<defs>
<linearGradient id="paint0_linear_2387_1412" x1="1" y1="36" x2="92" y2="36" gradientUnits="userSpaceOnUse">
<stop stop-color="#5EBC4D"/>
<stop offset="1" stop-color="#7FD01B"/>
</linearGradient>
</defs>
</svg>
