<svg width="39" height="52" viewBox="0 0 39 52" fill="none" xmlns="http://www.w3.org/2000/svg">
<path d="M37.9827 0.105268C38.2225 -0.0315811 38.5279 0.0519156 38.6648 0.291763C38.8016 0.531611 38.7181 0.836984 38.4783 0.973833L37.9827 0.105268ZM8.90282 30.1859L8.46256 29.9488L8.90282 30.1859ZM2.84569 51.4603L0.800831 46.061L6.49915 46.9897L2.84569 51.4603ZM36.2158 2.30928C35.9801 2.45319 35.6724 2.3788 35.5285 2.14312C35.3846 1.90744 35.459 1.59972 35.6947 1.45581L36.2158 2.30928ZM31.2472 4.36568C31.4734 4.20717 31.7852 4.26199 31.9437 4.48811C32.1022 4.71423 32.0474 5.02603 31.8212 5.18454L31.2472 4.36568ZM27.6264 8.33991C27.4115 8.51336 27.0967 8.47978 26.9233 8.26491C26.7498 8.05004 26.7834 7.73524 26.9983 7.56179L27.6264 8.33991ZM22.9807 11.047C23.1827 10.8587 23.4991 10.8697 23.6874 11.0717C23.8757 11.2736 23.8647 11.59 23.6627 11.7784L22.9807 11.047ZM19.9598 15.4944C19.7723 15.6971 19.4559 15.7093 19.2532 15.5218C19.0506 15.3342 19.0383 15.0179 19.2259 14.8152L19.9598 15.4944ZM15.7602 18.8512C15.9322 18.6352 16.2467 18.5995 16.4628 18.7715C16.6788 18.9435 16.7145 19.258 16.5425 19.4741L15.7602 18.8512ZM13.4285 23.6959C13.2728 23.924 12.9617 23.9827 12.7336 23.827C12.5055 23.6713 12.4469 23.3602 12.6025 23.1321L13.4285 23.6959ZM9.76278 27.6291C9.9019 27.3905 10.2081 27.31 10.4466 27.4491C10.6851 27.5882 10.7657 27.8944 10.6266 28.1329L9.76278 27.6291ZM8.13546 32.8837C8.02285 33.1358 7.72717 33.2489 7.47503 33.1363C7.22289 33.0237 7.10977 32.728 7.22237 32.4759L8.13546 32.8837ZM5.26185 37.7366C5.34336 37.4728 5.62332 37.325 5.88716 37.4065C6.15099 37.488 6.2988 37.7679 6.2173 38.0318L5.26185 37.7366ZM4.82679 43.3676C4.76752 43.6374 4.50084 43.8079 4.23113 43.7487C3.96142 43.6894 3.79083 43.4227 3.8501 43.153L4.82679 43.3676ZM2.7997 48.6342C2.84588 48.3619 3.10401 48.1787 3.37627 48.2249C3.64852 48.271 3.8318 48.5292 3.78562 48.8014L2.7997 48.6342ZM38.2305 0.539551L38.4783 0.973833C37.714 1.40987 36.9599 1.85494 36.2158 2.30928L35.9552 1.88255L35.6947 1.45581C36.4473 0.996223 37.21 0.54612 37.9827 0.105268L38.2305 0.539551ZM31.5342 4.77511L31.8212 5.18454C30.3801 6.19475 28.9817 7.24588 27.6264 8.33991L27.3123 7.95085L26.9983 7.56179C28.3716 6.45322 29.7881 5.38852 31.2472 4.36568L31.5342 4.77511ZM23.3217 11.4127L23.6627 11.7784C22.3841 12.9706 21.1497 14.2086 19.9598 15.4944L19.5928 15.1548L19.2259 14.8152C20.4326 13.5112 21.6844 12.2558 22.9807 11.047L23.3217 11.4127ZM16.1514 19.1627L16.5425 19.4741C15.4611 20.8325 14.4229 22.2391 13.4285 23.6959L13.0155 23.414L12.6025 23.1321C13.6108 21.6552 14.6635 20.2288 15.7602 18.8512L16.1514 19.1627ZM10.1947 27.881L10.6266 28.1329C10.1885 28.884 9.76063 29.6472 9.34308 30.4229L8.90282 30.1859L8.46256 29.9488C8.88548 29.1633 9.3189 28.3901 9.76278 27.6291L10.1947 27.881ZM8.90282 30.1859L9.34308 30.4229C8.90928 31.2287 8.50793 32.0496 8.13546 32.8837L7.67892 32.6798L7.22237 32.4759C7.60428 31.6207 8.01642 30.7776 8.46256 29.9488L8.90282 30.1859ZM5.73958 37.8842L6.2173 38.0318C5.67652 39.7823 5.22257 41.5666 4.82679 43.3676L4.33845 43.2603L3.8501 43.153C4.25048 41.3311 4.7112 39.5191 5.26185 37.7366L5.73958 37.8842Z" fill="url(#paint0_linear_2440_2094)"/>
<defs>
<linearGradient id="paint0_linear_2440_2094" x1="43.9156" y1="18.6691" x2="-2.83945" y2="33.3307" gradientUnits="userSpaceOnUse">
<stop stop-color="#5EBC4D"/>
<stop offset="1" stop-color="#7FD01B"/>
</linearGradient>
</defs>
</svg>
