<svg width="42" height="42" viewBox="0 0 42 42" fill="none" xmlns="http://www.w3.org/2000/svg">
<path d="M22.0986 36.2942H19.8645C19.776 36.2931 19.6915 36.2574 19.6289 36.1948C19.5663 36.1322 19.5306 36.0476 19.5294 35.9591V34.2702C18.6504 34.0503 17.8439 33.6049 17.1897 32.978C16.5354 32.3512 16.0559 31.5645 15.7986 30.6957C15.7651 30.6141 15.7651 30.5226 15.7986 30.441C15.8194 30.402 15.848 30.3676 15.8826 30.3399C15.9171 30.3123 15.957 30.2919 15.9996 30.2802L18.122 29.6368C18.2067 29.6117 18.2979 29.6211 18.3757 29.663C18.4535 29.7048 18.5117 29.7757 18.5375 29.8602C18.6333 30.1776 18.7962 30.4707 19.0151 30.7197C19.234 30.9687 19.5039 31.1677 19.8064 31.3034C20.1986 31.4758 20.6224 31.5648 21.0508 31.5648C21.4792 31.5648 21.903 31.4758 22.2952 31.3034C22.6999 31.1662 23.0361 30.8781 23.2335 30.4991C23.2837 30.4009 23.3098 30.2922 23.3098 30.1819C23.3098 30.0716 23.2837 29.9629 23.2335 29.8646C22.9252 29.3463 21.7188 29.19 21.0664 29.1051L20.8475 29.0738C17.5858 28.627 15.9326 27.224 15.9326 24.9587C15.9326 23.0821 17.3669 21.5227 19.5071 21.0044V19.0832C19.5082 18.9946 19.5439 18.9101 19.6065 18.8475C19.6691 18.7849 19.7537 18.7492 19.8422 18.748H22.0762C22.1648 18.7492 22.2493 18.7849 22.3119 18.8475C22.3745 18.9101 22.4102 18.9946 22.4113 19.0832V20.9597C23.1885 21.1021 23.918 21.4356 24.5342 21.9301C25.1504 22.4246 25.6339 23.0646 25.9411 23.7925C25.9795 23.8725 25.9846 23.9645 25.9553 24.0483C25.926 24.132 25.8647 24.2007 25.7847 24.2393L23.8054 25.2C23.7254 25.2384 23.6334 25.2435 23.5496 25.2142C23.4659 25.1848 23.3972 25.1235 23.3586 25.0436C22.9118 24.1008 22.2416 23.7032 21.0664 23.7032C20.3918 23.7032 19.4535 23.9444 19.0469 24.3957C18.9678 24.4781 18.9077 24.5768 18.8707 24.6848C18.8337 24.7929 18.8206 24.9077 18.8324 25.0212C18.8578 25.1532 18.9107 25.2782 18.9877 25.3883C19.0647 25.4984 19.164 25.591 19.2792 25.6602C19.8486 25.9676 20.4785 26.146 21.1245 26.1829H21.2675C24.2164 26.5985 26.1824 27.4563 26.1824 30.298C26.1824 32.2015 24.6588 33.81 22.4381 34.288V35.9278C22.4419 35.9746 22.4358 36.0217 22.4204 36.066C22.405 36.1104 22.3806 36.151 22.3487 36.1855C22.3168 36.2199 22.2781 36.2473 22.235 36.2661C22.192 36.2848 22.1455 36.2944 22.0986 36.2942ZM20.213 35.624H21.7635V34.0423C21.7624 33.9632 21.7898 33.8863 21.8406 33.8256C21.8915 33.7649 21.9624 33.7245 22.0405 33.7117C24.0824 33.3676 25.5077 31.978 25.5077 30.3293C25.5077 27.9523 23.9216 27.2642 21.1737 26.88H21.0307C20.2849 26.8355 19.5591 26.6215 18.9084 26.2544C18.7091 26.1323 18.5393 25.9676 18.411 25.7722C18.2828 25.5768 18.1994 25.3554 18.1667 25.124C18.1455 24.9173 18.1685 24.7085 18.2339 24.5114C18.2994 24.3142 18.4059 24.1332 18.5464 23.9802C19.2033 23.2563 20.4811 23.0866 21.0664 23.0866C22.3756 23.0866 23.2379 23.5334 23.8054 24.494L25.2039 23.8238C24.8984 23.2249 24.4506 22.7101 23.8999 22.3245C23.3491 21.9389 22.7122 21.6943 22.045 21.6121C21.9664 21.5994 21.895 21.5591 21.8434 21.4985C21.7918 21.438 21.7635 21.361 21.7635 21.2815V19.4183H20.213V21.277C20.2134 21.3552 20.1863 21.4312 20.1365 21.4916C20.0867 21.5519 20.0174 21.593 19.9405 21.6076C17.9567 21.9874 16.6207 23.3368 16.6207 24.9587C16.6207 27.501 19.096 28.1444 20.9592 28.4125L21.1737 28.4393C22.0405 28.551 23.3541 28.7253 23.8277 29.5206C23.9312 29.7059 23.9892 29.9131 23.997 30.1251C24.0047 30.3372 23.962 30.548 23.8724 30.7404C23.75 31.0156 23.574 31.2637 23.3545 31.4701C23.1351 31.6764 22.8767 31.837 22.5945 31.9423C22.1167 32.1534 21.6 32.2625 21.0776 32.2625C20.5552 32.2625 20.0385 32.1534 19.5607 31.9423C18.8793 31.6292 18.3392 31.0732 18.046 30.3829L16.5626 30.8298C16.8386 31.5529 17.2945 32.1938 17.8871 32.6918C18.4797 33.1898 19.1895 33.5285 19.9494 33.6759C20.0239 33.6922 20.0906 33.7334 20.1386 33.7927C20.1865 33.852 20.2128 33.9258 20.213 34.0021V35.624Z" fill="url(#paint0_linear_2440_2079)"/>
<path d="M25.5378 12.4347H16.414C16.1011 12.4347 15.8011 12.3105 15.5799 12.0892C15.3587 11.868 15.2344 11.568 15.2344 11.2552V11.2015C15.2344 10.8887 15.3587 10.5887 15.5799 10.3675C15.8011 10.1462 16.1011 10.022 16.414 10.022H25.5378C25.8506 10.022 26.1507 10.1462 26.3719 10.3675C26.5931 10.5887 26.7174 10.8887 26.7174 11.2015V11.2552C26.7174 11.568 26.5931 11.868 26.3719 12.0892C26.1507 12.3105 25.8506 12.4347 25.5378 12.4347ZM16.414 10.6922C16.3471 10.6922 16.2808 10.7054 16.219 10.731C16.1572 10.7566 16.1011 10.7941 16.0538 10.8414C16.0065 10.8887 15.969 10.9448 15.9434 11.0066C15.9178 11.0684 15.9046 11.1347 15.9046 11.2015V11.2552C15.9046 11.3903 15.9583 11.5198 16.0538 11.6153C16.1493 11.7109 16.2789 11.7645 16.414 11.7645H25.5378C25.6729 11.7645 25.8024 11.7109 25.898 11.6153C25.9935 11.5198 26.0471 11.3903 26.0471 11.2552V11.2015C26.0471 11.1347 26.034 11.0684 26.0084 11.0066C25.9828 10.9448 25.9453 10.8887 25.898 10.8414C25.8507 10.7941 25.7945 10.7566 25.7327 10.731C25.6709 10.7054 25.6047 10.6922 25.5378 10.6922H16.414Z" fill="url(#paint1_linear_2440_2079)"/>
<path d="M29.5421 41.4417H12.4115C10.7363 41.451 9.1183 40.8325 7.87639 39.7081C4.26618 36.4107 3.57363 30.9373 6.02661 25.0707C7.45193 21.6615 9.78427 19.213 12.0362 16.8539C13.5731 15.319 14.9865 13.6651 16.263 11.9077C16.2882 11.8713 16.3204 11.8403 16.3576 11.8163C16.3948 11.7924 16.4364 11.776 16.48 11.7681C16.5235 11.7602 16.5682 11.761 16.6115 11.7704C16.6548 11.7798 16.6958 11.7976 16.7321 11.8228C16.7685 11.848 16.7996 11.8802 16.8235 11.9174C16.8475 11.9546 16.8639 11.9962 16.8717 12.0398C16.8796 12.0834 16.8789 12.128 16.8695 12.1713C16.8601 12.2146 16.8423 12.2556 16.817 12.292C15.5155 14.078 14.0753 15.7587 12.5098 17.3185C10.2087 19.7447 8.04171 22.0324 6.64767 25.3298C4.31086 30.9239 4.93639 36.1158 8.32767 39.2166C9.44699 40.2268 10.9038 40.7814 12.4115 40.7715H29.5421C31.0498 40.7814 32.5066 40.2268 33.626 39.2166C36.1549 36.9022 37.2004 33.5332 36.5794 29.7309C35.7572 24.6864 32.6787 21.2147 29.4304 17.5375C27.8986 15.8762 26.4678 14.1245 25.1455 12.292C25.0946 12.2185 25.0749 12.1278 25.0908 12.0398C25.1067 11.9518 25.157 11.8738 25.2304 11.8228C25.3039 11.7718 25.3946 11.7522 25.4826 11.7681C25.5706 11.784 25.6486 11.8342 25.6996 11.9077C27.0044 13.7216 28.4189 15.454 29.9353 17.0951C33.1121 20.6696 36.3962 24.3871 37.2496 29.6058C37.9109 33.6271 36.8028 37.2015 34.0862 39.6947C32.844 40.826 31.2223 41.4495 29.5421 41.4417Z" fill="url(#paint2_linear_2440_2079)"/>
<path d="M36.7577 24.427C36.6821 24.427 36.6087 24.4013 36.5494 24.3543C36.4902 24.3072 36.4487 24.2415 36.4315 24.1679C33.1117 9.71361 25.1005 10.6698 25.02 10.6832C24.9319 10.6947 24.8428 10.6712 24.7717 10.6177C24.7007 10.5643 24.6535 10.4851 24.6402 10.3972C24.6274 10.3096 24.6499 10.2204 24.7026 10.1492C24.7554 10.0781 24.8341 10.0307 24.9217 10.0174C25.2792 9.96829 33.6211 8.93616 37.0839 24.0159C37.0951 24.0588 37.0974 24.1035 37.0908 24.1474C37.0842 24.1912 37.0687 24.2332 37.0452 24.2708C37.0218 24.3085 36.991 24.3409 36.9546 24.3662C36.9182 24.3916 36.8771 24.4092 36.8336 24.4181L36.7577 24.427Z" fill="url(#paint3_linear_2440_2079)"/>
<path d="M29.2847 18.6005H29.2176C29.1742 18.592 29.1329 18.5749 29.0962 18.5501C29.0595 18.5254 29.0281 18.4936 29.0039 18.4565C28.9798 18.4194 28.9633 18.3778 28.9555 18.3342C28.9477 18.2907 28.9487 18.246 28.9585 18.2028C28.9585 18.1671 29.7315 14.396 28.2615 12.1843C28.0031 11.7914 27.6667 11.4557 27.2731 11.1982C26.8796 10.9408 26.4373 10.7669 25.9738 10.6875C25.9304 10.6795 25.8891 10.6629 25.8522 10.6387C25.8154 10.6144 25.7837 10.5831 25.7591 10.5465C25.7346 10.5098 25.7176 10.4686 25.7092 10.4253C25.7008 10.382 25.7011 10.3375 25.7102 10.2943C25.7275 10.2072 25.7786 10.1306 25.8523 10.0812C25.926 10.0318 26.0163 10.0136 26.1034 10.0307C26.6548 10.1273 27.1807 10.3358 27.6486 10.6431C28.1165 10.9505 28.5167 11.3502 28.8245 11.8179C30.4419 14.2664 29.6466 18.1805 29.6153 18.3458C29.5964 18.419 29.5536 18.4838 29.4937 18.5299C29.4338 18.576 29.3603 18.6009 29.2847 18.6005Z" fill="url(#paint4_linear_2440_2079)"/>
<path d="M22.2281 10.6832C22.14 10.6797 22.0568 10.6416 21.9966 10.5772C21.9364 10.5128 21.904 10.4273 21.9064 10.3392C21.9064 10.2766 21.9779 8.80215 23.917 6.62619C23.9763 6.55983 24.0595 6.51972 24.1483 6.5147C24.2371 6.50967 24.3243 6.54013 24.3906 6.59938C24.457 6.65863 24.4971 6.74182 24.5021 6.83064C24.5072 6.91946 24.4767 7.00664 24.4174 7.073C22.6615 9.03896 22.5766 10.3526 22.5766 10.3615C22.5749 10.4055 22.5645 10.4488 22.546 10.4888C22.5276 10.5288 22.5014 10.5647 22.469 10.5946C22.4367 10.6245 22.3987 10.6477 22.3574 10.6629C22.316 10.6781 22.2721 10.685 22.2281 10.6832Z" fill="url(#paint5_linear_2440_2079)"/>
<path d="M21.0734 10.6925C20.9849 10.6914 20.9003 10.6557 20.8377 10.5931C20.7751 10.5305 20.7394 10.4459 20.7383 10.3574V5.44253C20.7383 5.35365 20.7736 5.26842 20.8364 5.20557C20.8993 5.14273 20.9845 5.10742 21.0734 5.10742C21.1623 5.10742 21.2475 5.14273 21.3103 5.20557C21.3732 5.26842 21.4085 5.35365 21.4085 5.44253V10.3574C21.4085 10.4463 21.3732 10.5315 21.3103 10.5944C21.2475 10.6572 21.1623 10.6925 21.0734 10.6925Z" fill="url(#paint6_linear_2440_2079)"/>
<path d="M20.2506 10.6922C20.1739 10.6909 20.1 10.6637 20.0408 10.615C19.9815 10.5664 19.9405 10.4991 19.9244 10.4241C19.6236 9.26752 18.9916 8.22394 18.1059 7.42158C18.0389 7.36233 17.9983 7.27891 17.9928 7.18967C17.9874 7.10043 18.0176 7.01268 18.0768 6.94573C18.1361 6.87878 18.2195 6.8381 18.3088 6.83266C18.398 6.82721 18.4857 6.85744 18.5527 6.91669C19.549 7.80917 20.2555 8.97936 20.5812 10.2767C20.5903 10.3199 20.5906 10.3644 20.5822 10.4077C20.5738 10.451 20.5568 10.4922 20.5323 10.5288C20.5077 10.5655 20.4761 10.5968 20.4392 10.6211C20.4023 10.6453 20.361 10.6619 20.3176 10.6699L20.2506 10.6922Z" fill="url(#paint7_linear_2440_2079)"/>
<path d="M16.8826 10.6742H16.8603C16.8164 10.672 16.7735 10.661 16.7339 10.642C16.6944 10.6229 16.659 10.5962 16.6299 10.5633C16.6008 10.5305 16.5785 10.4921 16.5643 10.4506C16.5502 10.409 16.5445 10.3651 16.5475 10.3213C16.5475 10.1962 16.6413 7.3902 12.3788 5.95594C12.3054 5.93079 12.243 5.88097 12.2023 5.81497C12.1616 5.74897 12.145 5.67089 12.1554 5.59403C12.1554 5.52254 12.4011 3.87828 13.6075 3.19467C13.9234 3.03022 14.2701 2.93337 14.6255 2.91029C14.9809 2.88722 15.3372 2.93841 15.6718 3.06062C15.703 2.09552 16.1186 0.799773 17.6511 0.589773C19.5009 0.335092 20.962 1.78722 21.3954 3.29743C21.4203 3.38275 21.4102 3.47447 21.3675 3.55239C21.3248 3.63032 21.2528 3.68808 21.1675 3.71296C21.0822 3.73548 20.9916 3.72439 20.9142 3.68198C20.8369 3.63958 20.7788 3.5691 20.752 3.48509C20.4705 2.49765 19.4115 1.02318 17.7449 1.25105C16.0783 1.47892 16.3509 3.41807 16.3598 3.48509C16.3691 3.54345 16.3619 3.60323 16.339 3.6577C16.3161 3.71217 16.2784 3.75917 16.2303 3.79339C16.1841 3.82948 16.1291 3.85264 16.071 3.86049C16.0129 3.86835 15.9537 3.86061 15.8996 3.83807C15.1088 3.4985 14.452 3.47169 13.9426 3.76211C13.3881 4.15015 13.0054 4.73783 12.8747 5.4019C17.3428 7.04169 17.2222 10.2051 17.2132 10.3436C17.2132 10.387 17.2047 10.43 17.1881 10.4701C17.1715 10.5102 17.1471 10.5467 17.1164 10.5774C17.0857 10.6081 17.0492 10.6325 17.0091 10.6491C16.969 10.6657 16.926 10.6742 16.8826 10.6742Z" fill="url(#paint8_linear_2440_2079)"/>
<path d="M24.9778 10.6833C24.8897 10.6786 24.807 10.6394 24.7476 10.5742C24.6882 10.5089 24.6569 10.4229 24.6606 10.3347C24.6606 10.2633 24.7633 8.59219 27.3861 6.9524C28.9052 6.00517 29.3744 5.29921 29.3029 4.95517C29.2314 4.61113 28.7623 4.42347 27.9625 4.28496C27.1001 4.13751 26.2735 3.52538 25.4737 2.94453C24.5042 2.23411 23.5971 1.56389 22.7616 1.73368C22.2165 1.84538 21.7116 2.30559 21.2157 3.15006C21.1949 3.19079 21.166 3.22684 21.1308 3.25599C21.0956 3.28514 21.0547 3.30677 21.0108 3.31955C20.9669 3.33234 20.9209 3.336 20.8755 3.33032C20.8302 3.32465 20.7864 3.30974 20.747 3.28654C20.7076 3.26333 20.6734 3.2323 20.6465 3.19537C20.6195 3.15844 20.6004 3.11639 20.5903 3.07179C20.5802 3.0272 20.5793 2.98102 20.5878 2.93608C20.5962 2.89114 20.6137 2.8484 20.6393 2.81049C21.2335 1.7873 21.8948 1.22879 22.6276 1.07687C23.758 0.844531 24.8259 1.63538 25.8625 2.4173C26.5997 2.95793 27.3637 3.52091 28.0697 3.64155C29.1957 3.83815 29.8257 4.24474 29.9463 4.84793C30.0937 5.61645 29.3476 6.52347 27.7123 7.52879C25.4201 8.95857 25.304 10.3571 25.304 10.3705C25.2974 10.4536 25.2606 10.5313 25.2005 10.589C25.1403 10.6467 25.0611 10.6802 24.9778 10.6833Z" fill="url(#paint9_linear_2440_2079)"/>
<defs>
<linearGradient id="paint0_linear_2440_2079" x1="15.7734" y1="27.5211" x2="26.1824" y2="27.5211" gradientUnits="userSpaceOnUse">
<stop stop-color="#5EBC4D"/>
<stop offset="1" stop-color="#7FD01B"/>
</linearGradient>
<linearGradient id="paint1_linear_2440_2079" x1="15.2344" y1="11.2284" x2="26.7174" y2="11.2284" gradientUnits="userSpaceOnUse">
<stop stop-color="#5EBC4D"/>
<stop offset="1" stop-color="#7FD01B"/>
</linearGradient>
<linearGradient id="paint2_linear_2440_2079" x1="4.57812" y1="26.6023" x2="37.436" y2="26.6023" gradientUnits="userSpaceOnUse">
<stop stop-color="#5EBC4D"/>
<stop offset="1" stop-color="#7FD01B"/>
</linearGradient>
<linearGradient id="paint3_linear_2440_2079" x1="24.6367" y1="17.2064" x2="37.0945" y2="17.2064" gradientUnits="userSpaceOnUse">
<stop stop-color="#5EBC4D"/>
<stop offset="1" stop-color="#7FD01B"/>
</linearGradient>
<linearGradient id="paint4_linear_2440_2079" x1="25.7031" y1="14.3124" x2="29.8382" y2="14.3124" gradientUnits="userSpaceOnUse">
<stop stop-color="#5EBC4D"/>
<stop offset="1" stop-color="#7FD01B"/>
</linearGradient>
<linearGradient id="paint5_linear_2440_2079" x1="21.9062" y1="8.59882" x2="24.5027" y2="8.59882" gradientUnits="userSpaceOnUse">
<stop stop-color="#5EBC4D"/>
<stop offset="1" stop-color="#7FD01B"/>
</linearGradient>
<linearGradient id="paint6_linear_2440_2079" x1="20.7383" y1="7.89998" x2="21.4085" y2="7.89998" gradientUnits="userSpaceOnUse">
<stop stop-color="#5EBC4D"/>
<stop offset="1" stop-color="#7FD01B"/>
</linearGradient>
<linearGradient id="paint7_linear_2440_2079" x1="17.9922" y1="8.76213" x2="20.5883" y2="8.76213" gradientUnits="userSpaceOnUse">
<stop stop-color="#5EBC4D"/>
<stop offset="1" stop-color="#7FD01B"/>
</linearGradient>
<linearGradient id="paint8_linear_2440_2079" x1="12.1523" y1="5.61739" x2="21.4088" y2="5.61739" gradientUnits="userSpaceOnUse">
<stop stop-color="#5EBC4D"/>
<stop offset="1" stop-color="#7FD01B"/>
</linearGradient>
<linearGradient id="paint9_linear_2440_2079" x1="20.582" y1="5.85945" x2="29.9645" y2="5.85945" gradientUnits="userSpaceOnUse">
<stop stop-color="#5EBC4D"/>
<stop offset="1" stop-color="#7FD01B"/>
</linearGradient>
</defs>
</svg>
