<svg width="45" height="45" viewBox="0 0 45 45" fill="none" xmlns="http://www.w3.org/2000/svg">
<path d="M19.6278 37.9387C19.5806 37.939 19.5339 37.9298 19.4903 37.9117C19.4467 37.8936 19.4072 37.867 19.3741 37.8334C19.3254 37.784 19.2919 37.7217 19.2775 37.6538C19.2631 37.586 19.2683 37.5154 19.2927 37.4505L20.2023 35.143C20.6908 33.9008 21.4308 32.773 22.3757 31.8302L39.873 14.3616C40.0234 14.2185 40.2231 14.1387 40.4307 14.1387C40.6384 14.1387 40.838 14.2185 40.9884 14.3616L42.8794 16.2526C42.9524 16.3255 43.0102 16.4121 43.0497 16.5073C43.0892 16.6026 43.1095 16.7048 43.1095 16.8079C43.1095 16.911 43.0892 17.0132 43.0497 17.1085C43.0102 17.2037 42.9524 17.2903 42.8794 17.3632L25.3725 34.8366C24.4328 35.7819 23.3061 36.5205 22.0645 37.0052L19.7571 37.9148C19.716 37.9314 19.6721 37.9395 19.6278 37.9387ZM40.4283 14.8403C40.4099 14.8419 40.3927 14.8504 40.3805 14.8643L22.8879 32.3377C22.0134 33.2092 21.3288 34.2524 20.8773 35.4015L20.2693 36.943L21.8108 36.3398C22.9596 35.8877 24.0026 35.2032 24.8746 34.3292L42.372 16.8318C42.3778 16.8164 42.3778 16.7994 42.372 16.784C42.3762 16.7683 42.3762 16.7518 42.372 16.7361L40.4571 14.8451C40.4481 14.8411 40.4382 14.8394 40.4283 14.8403Z" fill="url(#paint0_linear_2440_2018)"/>
<path d="M42.2623 16.478C42.1671 16.4779 42.0759 16.44 42.0086 16.3727L40.8453 15.2094C40.8114 15.1764 40.7845 15.1369 40.7661 15.0934C40.7478 15.0498 40.7383 15.003 40.7383 14.9557C40.7383 14.9084 40.7478 14.8616 40.7661 14.818C40.7845 14.7744 40.8114 14.7349 40.8453 14.7019L42.382 13.1605C42.6051 12.94 42.9061 12.8164 43.2198 12.8164C43.5334 12.8164 43.8344 12.94 44.0575 13.1605C44.1676 13.2713 44.2546 13.403 44.3136 13.5477C44.3725 13.6924 44.4021 13.8474 44.4008 14.0036C44.3994 14.1599 44.3672 14.3143 44.3058 14.458C44.2444 14.6017 44.1551 14.7318 44.0432 14.8408L42.5161 16.3727C42.4488 16.44 42.3575 16.4779 42.2623 16.478ZM41.6065 14.9557L42.2623 15.6115L43.5645 14.3237C43.6261 14.2857 43.6782 14.2342 43.7171 14.1731C43.7559 14.112 43.7803 14.0429 43.7886 13.971C43.7969 13.8991 43.7887 13.8262 43.7647 13.7579C43.7408 13.6896 43.7017 13.6276 43.6503 13.5766C43.5989 13.5256 43.5366 13.487 43.4682 13.4635C43.3997 13.44 43.3268 13.4324 43.2549 13.4412C43.1831 13.45 43.1141 13.4749 43.0533 13.5142C42.9925 13.5535 42.9414 13.606 42.9038 13.6679L41.6065 14.9557Z" fill="url(#paint1_linear_2440_2018)"/>
<path d="M34.3764 25.6978C34.2812 25.6977 34.1899 25.6598 34.1226 25.5925L31.6237 23.0936C31.5603 23.0255 31.5258 22.9355 31.5274 22.8425C31.529 22.7494 31.5667 22.6607 31.6325 22.5949C31.6983 22.5291 31.787 22.4914 31.8801 22.4898C31.9731 22.4882 32.0631 22.5227 32.1312 22.5861L34.6301 25.085C34.6973 25.1524 34.7351 25.2436 34.7351 25.3388C34.7351 25.4339 34.6973 25.5252 34.6301 25.5925C34.5617 25.6582 34.4712 25.6957 34.3764 25.6978Z" fill="url(#paint2_linear_2440_2018)"/>
<path d="M35.847 27.2582C35.7998 27.2584 35.7531 27.2492 35.7095 27.2311C35.666 27.213 35.6264 27.1864 35.5933 27.1529C35.526 27.0856 35.4883 26.9943 35.4883 26.8991C35.4883 26.804 35.526 26.7127 35.5933 26.6454L42.3816 19.8619C42.4514 19.7932 42.5069 19.7112 42.5447 19.6208C42.5825 19.5304 42.6019 19.4333 42.6018 19.3353C42.6028 19.2372 42.5837 19.1399 42.5459 19.0494C42.508 18.9588 42.4521 18.877 42.3816 18.8087L41.6491 18.0667C41.5857 17.9986 41.5512 17.9086 41.5528 17.8156C41.5545 17.7226 41.5922 17.6338 41.6579 17.5681C41.7237 17.5023 41.8125 17.4646 41.9055 17.4629C41.9985 17.4613 42.0885 17.4958 42.1566 17.5593L42.8938 18.3013C43.0312 18.436 43.1402 18.5969 43.2142 18.7746C43.2882 18.9522 43.3258 19.1429 43.3247 19.3353C43.3258 19.5277 43.2882 19.7184 43.2142 19.8961C43.1402 20.0737 43.0312 20.2347 42.8938 20.3694L36.1055 27.1529C36.0716 27.1868 36.0313 27.2136 35.9869 27.2317C35.9425 27.2498 35.8949 27.2588 35.847 27.2582Z" fill="url(#paint3_linear_2440_2018)"/>
<path d="M17.8113 38.1351C17.7747 38.1401 17.7377 38.1401 17.7012 38.1351C16.7437 37.8191 16.4852 37.2494 16.4373 36.8234C16.4186 36.592 16.438 36.3591 16.4948 36.134C16.5657 35.9359 16.5657 35.7193 16.4948 35.5212C16.483 35.4903 16.4637 35.4627 16.4386 35.441C16.4136 35.4192 16.3835 35.4041 16.3512 35.3968C15.9443 35.2914 15.0634 35.8755 14.7331 36.0957L14.5751 36.1962C12.3012 37.6563 11.6453 37.9244 11.224 37.5654C10.8028 37.2063 11.1187 36.3542 12.2198 33.9702L12.3634 33.6638C12.4537 33.4851 12.5197 33.2951 12.5597 33.0989C12.3347 33.1324 11.8081 33.3718 10.6448 34.176L10.4724 34.2909C10.0416 34.5734 9.61553 34.8989 9.16553 35.2484C7.70543 36.3542 6.19266 37.4984 4.3017 37.5558C4.05437 37.5723 3.80699 37.5245 3.58362 37.417C3.45732 37.3526 3.34989 37.2566 3.27185 37.1383C3.19381 37.02 3.14783 36.8834 3.1384 36.742C3.07138 35.7127 5.01979 34.1569 5.85755 33.5345C5.93475 33.4791 6.03055 33.4561 6.12448 33.4705C6.21842 33.4848 6.30302 33.5353 6.36021 33.6111C6.41069 33.6857 6.43086 33.7767 6.41663 33.8656C6.4024 33.9546 6.35484 34.0347 6.28362 34.0899C4.85223 35.1287 3.83255 36.2393 3.83255 36.6654C3.83255 36.6654 3.83255 36.718 3.90915 36.7611C4.02 36.8053 4.13997 36.8218 4.25862 36.809C5.915 36.7563 7.33681 35.684 8.71075 34.6452C9.14638 34.3149 9.60117 33.9702 10.0512 33.6877L10.2187 33.5728C11.7028 32.5771 12.6123 32.1367 13.0911 32.5149C13.4788 32.8452 13.2634 33.4723 13.0336 33.951L12.89 34.2574C12.4464 35.125 12.0718 36.0262 11.7698 36.9526C12.6166 36.5649 13.4287 36.1053 14.1969 35.5787L14.3453 35.4829C15.0634 35.0042 15.882 34.5255 16.5427 34.6883C16.671 34.7203 16.7909 34.7797 16.8941 34.8623C16.9974 34.9449 17.0816 35.0488 17.1411 35.167C17.2927 35.5077 17.3182 35.8912 17.2129 36.2489C17.1708 36.4048 17.1546 36.5665 17.165 36.7276C17.165 36.8473 17.2224 37.2063 17.9405 37.4409C17.988 37.4558 18.0318 37.4803 18.0693 37.513C18.1068 37.5457 18.1371 37.5858 18.1582 37.6308C18.1794 37.6758 18.1909 37.7248 18.1922 37.7745C18.1935 37.8242 18.1844 37.8736 18.1655 37.9196C18.1366 37.9882 18.0868 38.0459 18.0232 38.0846C17.9596 38.1233 17.8855 38.1409 17.8113 38.1351Z" fill="url(#paint4_linear_2440_2018)"/>
<path d="M15.8362 8.43488H5.00748C4.91226 8.43488 4.82093 8.39705 4.7536 8.32972C4.68627 8.26239 4.64844 8.17106 4.64844 8.07584C4.64844 7.98062 4.68627 7.88929 4.7536 7.82196C4.82093 7.75462 4.91226 7.7168 5.00748 7.7168H15.8362C15.9314 7.7168 16.0228 7.75462 16.0901 7.82196C16.1574 7.88929 16.1952 7.98062 16.1952 8.07584C16.1952 8.17106 16.1574 8.26239 16.0901 8.32972C16.0228 8.39705 15.9314 8.43488 15.8362 8.43488Z" fill="url(#paint5_linear_2440_2018)"/>
<path d="M25.11 13.7396H5.00357C4.90835 13.7396 4.81703 13.7017 4.74969 13.6344C4.68236 13.5671 4.64453 13.4758 4.64453 13.3805C4.64453 13.2853 4.68236 13.194 4.74969 13.1266C4.81703 13.0593 4.90835 13.0215 5.00357 13.0215H25.11C25.2052 13.0215 25.2965 13.0593 25.3638 13.1266C25.4312 13.194 25.469 13.2853 25.469 13.3805C25.469 13.4758 25.4312 13.5671 25.3638 13.6344C25.2965 13.7017 25.2052 13.7396 25.11 13.7396Z" fill="url(#paint6_linear_2440_2018)"/>
<path d="M25.11 19.0482H5.00357C4.90835 19.0482 4.81703 19.0103 4.74969 18.943C4.68236 18.8757 4.64453 18.7843 4.64453 18.6891C4.64453 18.5939 4.68236 18.5026 4.74969 18.4352C4.81703 18.3679 4.90835 18.3301 5.00357 18.3301H25.11C25.2052 18.3301 25.2965 18.3679 25.3638 18.4352C25.4312 18.5026 25.469 18.5939 25.469 18.6891C25.469 18.7843 25.4312 18.8757 25.3638 18.943C25.2965 19.0103 25.2052 19.0482 25.11 19.0482Z" fill="url(#paint7_linear_2440_2018)"/>
<path d="M25.11 24.3529H5.00357C4.90835 24.3529 4.81703 24.315 4.74969 24.2477C4.68236 24.1804 4.64453 24.089 4.64453 23.9938C4.64453 23.8986 4.68236 23.8073 4.74969 23.7399C4.81703 23.6726 4.90835 23.6348 5.00357 23.6348H25.11C25.2052 23.6348 25.2965 23.6726 25.3638 23.7399C25.4312 23.8073 25.469 23.8986 25.469 23.9938C25.469 24.089 25.4312 24.1804 25.3638 24.2477C25.2965 24.315 25.2052 24.3529 25.11 24.3529Z" fill="url(#paint8_linear_2440_2018)"/>
<path d="M19.4123 29.681H5.00748C4.91226 29.681 4.82093 29.6431 4.7536 29.5758C4.68627 29.5085 4.64844 29.4172 4.64844 29.3219C4.64844 29.2267 4.68627 29.1354 4.7536 29.0681C4.82093 29.0007 4.91226 28.9629 5.00748 28.9629H19.4123C19.5075 28.9629 19.5988 29.0007 19.6662 29.0681C19.7335 29.1354 19.7713 29.2267 19.7713 29.3219C19.7713 29.4172 19.7335 29.5085 19.6662 29.5758C19.5988 29.6431 19.5075 29.681 19.4123 29.681Z" fill="url(#paint9_linear_2440_2018)"/>
<path d="M32.4232 43.4534H2.21095C1.78264 43.4522 1.3723 43.2811 1.06989 42.9778C0.767473 42.6745 0.597654 42.2637 0.597656 41.8354V3.16408C0.597656 2.73621 0.767628 2.32586 1.07018 2.02331C1.37273 1.72075 1.78308 1.55078 2.21095 1.55078H26.2812C26.3764 1.55078 26.4677 1.58861 26.535 1.65594C26.6024 1.72328 26.6402 1.8146 26.6402 1.90982C26.6402 2.00505 26.6024 2.09637 26.535 2.16371C26.4677 2.23104 26.3764 2.26887 26.2812 2.26887H2.21095C1.97353 2.26887 1.74583 2.36318 1.57794 2.53107C1.41006 2.69895 1.31574 2.92665 1.31574 3.16408V41.8354C1.31574 42.0732 1.4099 42.3014 1.57765 42.4701C1.7454 42.6387 1.97309 42.7341 2.21095 42.7354H32.4232C32.542 42.7354 32.6597 42.712 32.7694 42.6665C32.8792 42.621 32.979 42.5544 33.063 42.4704C33.147 42.3863 33.2136 42.2866 33.2591 42.1768C33.3046 42.067 33.328 41.9494 33.328 41.8306V26.0327C33.328 25.9375 33.3658 25.8461 33.4331 25.7788C33.5005 25.7115 33.5918 25.6737 33.687 25.6737C33.7822 25.6737 33.8736 25.7115 33.9409 25.7788C34.0082 25.8461 34.0461 25.9375 34.0461 26.0327V41.8306C34.0461 42.261 33.8751 42.6738 33.5707 42.9781C33.2664 43.2825 32.8536 43.4534 32.4232 43.4534Z" fill="url(#paint10_linear_2440_2018)"/>
<path d="M33.6833 21.3893C33.588 21.3893 33.4967 21.3515 33.4294 21.2841C33.362 21.2168 33.3242 21.1255 33.3242 21.0302V9.30631C33.3242 9.21108 33.362 9.11976 33.4294 9.05243C33.4967 8.98509 33.588 8.94727 33.6833 8.94727C33.7785 8.94727 33.8698 8.98509 33.9371 9.05243C34.0045 9.11976 34.0423 9.21108 34.0423 9.30631V21.0302C34.0429 21.0776 34.0341 21.1246 34.0163 21.1684C33.9985 21.2123 33.972 21.2521 33.9386 21.2856C33.9051 21.319 33.8653 21.3455 33.8214 21.3633C33.7776 21.3811 33.7306 21.3899 33.6833 21.3893Z" fill="url(#paint11_linear_2440_2018)"/>
<path d="M33.682 9.66535H27.583C27.1429 9.66409 26.7211 9.48867 26.4098 9.17741C26.0986 8.86615 25.9231 8.44436 25.9219 8.00418V1.91482C25.922 1.84421 25.943 1.77521 25.9822 1.71646C26.0213 1.6577 26.077 1.6118 26.1421 1.5845C26.208 1.55814 26.28 1.55134 26.3497 1.56493C26.4193 1.57852 26.4835 1.61191 26.5346 1.6611L33.9357 9.05258C33.9859 9.1028 34.02 9.16674 34.0338 9.23635C34.0477 9.30595 34.0405 9.3781 34.0134 9.44367C33.9862 9.50923 33.9403 9.56528 33.8813 9.60474C33.8223 9.6442 33.7529 9.66529 33.682 9.66535ZM26.64 2.77173V8.00418C26.64 8.25811 26.7408 8.50164 26.9204 8.6812C27.0999 8.86075 27.3435 8.96163 27.5974 8.96163H32.8155L26.64 2.77173Z" fill="url(#paint12_linear_2440_2018)"/>
<defs>
<linearGradient id="paint0_linear_2440_2018" x1="19.2695" y1="26.0387" x2="43.1095" y2="26.0387" gradientUnits="userSpaceOnUse">
<stop stop-color="#5EBC4D"/>
<stop offset="1" stop-color="#7FD01B"/>
</linearGradient>
<linearGradient id="paint1_linear_2440_2018" x1="40.7383" y1="14.6472" x2="44.4008" y2="14.6472" gradientUnits="userSpaceOnUse">
<stop stop-color="#5EBC4D"/>
<stop offset="1" stop-color="#7FD01B"/>
</linearGradient>
<linearGradient id="paint2_linear_2440_2018" x1="31.5273" y1="24.0938" x2="34.7351" y2="24.0938" gradientUnits="userSpaceOnUse">
<stop stop-color="#5EBC4D"/>
<stop offset="1" stop-color="#7FD01B"/>
</linearGradient>
<linearGradient id="paint3_linear_2440_2018" x1="35.4883" y1="22.3606" x2="43.3247" y2="22.3606" gradientUnits="userSpaceOnUse">
<stop stop-color="#5EBC4D"/>
<stop offset="1" stop-color="#7FD01B"/>
</linearGradient>
<linearGradient id="paint4_linear_2440_2018" x1="3.13672" y1="35.2596" x2="18.1923" y2="35.2596" gradientUnits="userSpaceOnUse">
<stop stop-color="#5EBC4D"/>
<stop offset="1" stop-color="#7FD01B"/>
</linearGradient>
<linearGradient id="paint5_linear_2440_2018" x1="4.64844" y1="8.07584" x2="16.1952" y2="8.07584" gradientUnits="userSpaceOnUse">
<stop stop-color="#5EBC4D"/>
<stop offset="1" stop-color="#7FD01B"/>
</linearGradient>
<linearGradient id="paint6_linear_2440_2018" x1="4.64453" y1="13.3805" x2="25.469" y2="13.3805" gradientUnits="userSpaceOnUse">
<stop stop-color="#5EBC4D"/>
<stop offset="1" stop-color="#7FD01B"/>
</linearGradient>
<linearGradient id="paint7_linear_2440_2018" x1="4.64453" y1="18.6891" x2="25.469" y2="18.6891" gradientUnits="userSpaceOnUse">
<stop stop-color="#5EBC4D"/>
<stop offset="1" stop-color="#7FD01B"/>
</linearGradient>
<linearGradient id="paint8_linear_2440_2018" x1="4.64453" y1="23.9938" x2="25.469" y2="23.9938" gradientUnits="userSpaceOnUse">
<stop stop-color="#5EBC4D"/>
<stop offset="1" stop-color="#7FD01B"/>
</linearGradient>
<linearGradient id="paint9_linear_2440_2018" x1="4.64844" y1="29.3219" x2="19.7713" y2="29.3219" gradientUnits="userSpaceOnUse">
<stop stop-color="#5EBC4D"/>
<stop offset="1" stop-color="#7FD01B"/>
</linearGradient>
<linearGradient id="paint10_linear_2440_2018" x1="0.597656" y1="22.5021" x2="34.0461" y2="22.5021" gradientUnits="userSpaceOnUse">
<stop stop-color="#5EBC4D"/>
<stop offset="1" stop-color="#7FD01B"/>
</linearGradient>
<linearGradient id="paint11_linear_2440_2018" x1="33.3242" y1="15.1683" x2="34.0423" y2="15.1683" gradientUnits="userSpaceOnUse">
<stop stop-color="#5EBC4D"/>
<stop offset="1" stop-color="#7FD01B"/>
</linearGradient>
<linearGradient id="paint12_linear_2440_2018" x1="25.9219" y1="5.61173" x2="34.0407" y2="5.61173" gradientUnits="userSpaceOnUse">
<stop stop-color="#5EBC4D"/>
<stop offset="1" stop-color="#7FD01B"/>
</linearGradient>
</defs>
</svg>
