<svg width="60" height="40" viewBox="0 0 60 40" fill="none" xmlns="http://www.w3.org/2000/svg">
<path d="M6.4807 26.379C6.4807 28.6785 6.98367 30.444 7.64086 31.512C8.50266 32.911 9.78773 33.5036 11.0981 33.5036C12.7882 33.5036 14.3344 33.0825 17.3138 28.9465C19.7009 25.6314 22.5136 20.9779 24.4059 18.0607L27.611 13.1182C29.8373 9.68584 32.4141 5.87022 35.3688 3.28374C37.7803 1.17268 40.3823 0 43.0008 0C47.3972 0 51.5848 2.55708 54.7898 7.35294C58.2973 12.6052 60 19.2209 60 26.0481C60 30.1067 59.2031 33.0888 57.8468 35.445C56.5364 37.7236 53.9824 40 49.6863 40V33.5036C53.3648 33.5036 54.2829 30.1109 54.2829 26.2283C54.2829 20.6954 52.9976 14.5549 50.1663 10.1676C48.1568 7.05536 45.5529 5.15391 42.6881 5.15391C39.5897 5.15391 37.0962 7.49927 34.294 11.6819C32.8043 13.9037 31.2748 16.6116 29.5577 19.6669L27.6673 23.0283C23.8697 29.7863 22.9078 31.3255 21.0091 33.8658C17.681 38.3143 14.8395 40 11.0981 40C6.66023 40 3.85359 38.071 2.1157 35.1644C0.696797 32.7957 0 29.688 0 26.1466L6.4807 26.379Z" fill="#0081FB"/>
<path d="M5.10547 7.81143C8.07688 3.21481 12.3645 0 17.2824 0C20.1308 0 22.962 0.846164 25.9187 3.26915C29.1526 5.91821 32.5995 10.2805 36.8998 17.4702L38.442 20.0501C42.1641 26.2744 44.282 29.4762 45.5213 30.9865C47.1155 32.9256 48.2319 33.5036 49.682 33.5036C53.3605 33.5036 54.2785 30.1109 54.2785 26.2283L59.9956 26.0481C59.9956 30.1067 59.1987 33.0888 57.8424 35.445C56.532 37.7236 53.978 40 49.682 40C47.0112 40 44.6452 39.4178 42.0287 36.9402C40.0173 35.0388 37.6658 31.6607 35.8566 28.624L30.4754 19.602C27.7756 15.0743 25.2987 11.6986 23.8655 10.1695C22.3238 8.52562 20.3415 6.54019 17.1784 6.54019C14.6183 6.54019 12.444 8.34355 10.6245 11.1015L5.10547 7.81143Z" fill="url(#paint0_linear_4003_3159)"/>
<path d="M17.1825 6.54019C14.6224 6.54019 12.4481 8.34355 10.6287 11.1015C8.05617 14.999 6.4807 20.8041 6.4807 26.379C6.4807 28.6785 6.98367 30.444 7.64086 31.512L2.1157 35.1644C0.696797 32.7957 0 29.688 0 26.1466C0 19.7067 1.76109 12.9947 5.10984 7.81143C8.08125 3.21481 12.3689 0 17.2868 0L17.1825 6.54019Z" fill="url(#paint1_linear_4003_3159)"/>
<defs>
<linearGradient id="paint0_linear_4003_3159" x1="766.871" y1="2237.36" x2="4893.34" y2="2445.01" gradientUnits="userSpaceOnUse">
<stop stop-color="#0064E1"/>
<stop offset="0.4" stop-color="#0064E1"/>
<stop offset="0.83" stop-color="#0073EE"/>
<stop offset="1" stop-color="#0082FB"/>
</linearGradient>
<linearGradient id="paint1_linear_4003_3159" x1="938.932" y1="2910.98" x2="938.932" y2="1382.21" gradientUnits="userSpaceOnUse">
<stop stop-color="#0082FB"/>
<stop offset="1" stop-color="#0064E0"/>
</linearGradient>
</defs>
</svg>
