<svg width="67" height="52" viewBox="0 0 67 52" fill="none" xmlns="http://www.w3.org/2000/svg">
<path d="M37.8402 24.414C37.7204 24.8489 37.6103 25.164 37.627 25.8235C37.6628 27.1853 38.1681 28.4183 38.6542 29.2916L46.5279 37.2192H21.0898L28.2497 29.1319C28.3448 29.0246 28.4233 28.9035 28.4834 28.7725C28.848 27.9791 29.1883 26.92 29.2168 25.823C29.2365 25.0773 29.0923 24.7712 28.9559 24.2354L37.8402 24.414Z" fill="#EBB39E"/>
<path d="M54.5994 50.6553H12.0707C12.0656 48.9397 12.0805 40.6188 13.6549 35.5089C14.042 34.2544 14.4894 33.3008 15.0633 32.4276C15.3852 31.9373 16.7967 29.8752 19.5521 28.4648C22.1136 27.1536 24.4857 27.0965 25.6255 27.1433L28.0173 29.2913L28.0672 29.3359L33.3355 34.0646L38.6533 29.2909H38.6537L41.0455 27.1429C42.1848 27.0957 44.5574 27.1532 47.1184 28.4644C49.8743 29.8747 51.2849 31.9368 51.6077 32.4271C52.1812 33.3004 52.6281 34.2539 53.0153 35.5084C54.5896 40.6188 54.6045 48.9397 54.5994 50.6553Z" fill="#5EBC4D"/>
<path d="M21.5686 40.6754V50.6557H18.582V40.6754C18.582 39.8451 19.2506 39.1719 20.0753 39.1719C20.9 39.1714 21.5686 39.8451 21.5686 40.6754Z" fill="#EBCD6D"/>
<path d="M48.0882 40.6754V50.6557H45.1016V40.6754C45.1016 39.8451 45.7702 39.1719 46.5949 39.1719C47.4204 39.1714 48.0882 39.8451 48.0882 40.6754Z" fill="#EBCD6D"/>
<path d="M42.9203 12.1085C45.9129 13.077 44.3676 18.1307 42.0598 18.5218C41.8044 19.7291 41.2206 21.7697 39.796 23.4677C38.9982 24.4183 38.2281 24.9635 38.0358 25.0966C37.6102 25.3912 36.7007 26.0085 35.3515 26.3292C34.9937 26.4143 33.6113 26.7148 31.8749 26.3292C31.5381 26.2545 29.942 25.8772 28.3545 24.5681C27.9494 24.2341 26.4399 22.9281 25.6259 20.6496C25.3624 19.9116 25.2024 19.0323 25.1419 18.5802C22.7813 17.8903 21.2453 14.3698 23.8221 12.1046L24.4187 5.79642L33.7465 3.47803C33.7465 3.47803 38.918 4.79393 39.0114 4.9193C39.1048 5.04466 42.9203 12.1085 42.9203 12.1085Z" fill="#F4BAA6"/>
<path d="M35.8703 6.81977C35.6716 7.14907 35.3292 7.61318 34.7701 7.96437C34.293 8.26405 33.8107 8.38597 33.3429 8.43191C32.8504 8.48043 32.3541 8.43492 31.8701 8.32931C31.3985 8.2267 30.442 8.11206 28.6963 8.23356C27.6819 8.30397 26.5984 8.35979 25.6824 8.85137C24.5145 9.4782 24.1004 10.7795 23.8774 12.0048C23.8685 12.0542 23.8399 12.1182 23.7913 12.1074C23.7708 12.1027 23.7559 12.0851 23.7431 12.0679C23.3888 11.5944 23.3094 10.8272 23.2472 10.2587C23.0493 8.44737 23.0698 7.01211 23.2395 6.60468C23.3423 6.35867 23.8621 5.15568 25.0876 3.96299C27.0691 2.03486 30.3329 1.02507 31.9933 0.678172C33.3378 0.396959 34.7595 0.254421 36.1487 0.351879C36.9231 0.405975 37.7341 0.505581 38.4872 0.697492C39.1059 0.855057 39.7191 1.15387 40.0909 1.67637C40.4913 2.23922 40.5881 2.9502 41.0674 3.46583C41.5906 4.02868 42.304 4.36442 42.8391 4.91397C43.5551 5.64898 44.2676 6.8056 44.3708 7.84244C44.4638 8.77667 44.057 9.65852 43.5888 10.4369C43.5022 10.5807 43.0033 12.198 42.9189 12.1087C42.7253 11.9031 40.2772 11.2406 38.3341 8.84536C37.874 8.27821 37.671 8.03221 37.4979 7.86219C37.3823 7.74842 37.0259 7.40839 36.5005 7.04045C36.3308 6.92066 35.9679 6.65362 35.8703 6.81977Z" fill="#784132"/>
<path d="M45.6625 30.7886H21.0064C20.0645 30.7886 19.3008 31.5575 19.3008 32.5059V48.5758H47.3681V32.5059C47.3681 31.5575 46.6044 30.7886 45.6625 30.7886Z" fill="#33444D"/>
<path d="M46.3123 50.6554H20.3558C18.5388 50.6554 17.0664 49.1725 17.0664 47.3435V46.8584H49.6017V47.3435C49.6017 49.1729 48.1288 50.6554 46.3123 50.6554Z" fill="#465A65"/>
<path d="M30.1894 41.6163C30.0772 41.6163 29.9638 41.5807 29.8674 41.5064L26.9312 39.2485C26.7998 39.1476 26.7227 38.9905 26.7227 38.8239C26.7227 38.6573 26.7998 38.5002 26.9312 38.3993L29.8674 36.1415C30.1003 35.9624 30.4333 36.0071 30.6115 36.2419C30.7894 36.4763 30.745 36.8116 30.5118 36.9911L28.1277 38.8244L30.5118 40.6576C30.7446 40.8366 30.7894 41.1719 30.6115 41.4068C30.5071 41.5442 30.3489 41.6163 30.1894 41.6163Z" fill="#CFD8DD"/>
<path d="M36.4764 41.6161C36.3165 41.6161 36.1588 41.5436 36.0543 41.4062C35.8765 41.1718 35.9208 40.8365 36.1541 40.657L38.5381 38.8237L36.1541 36.9905C35.9212 36.8115 35.8765 36.4761 36.0543 36.2413C36.2321 36.0069 36.5651 35.9618 36.7984 36.1408L39.7346 38.3987C39.866 38.4996 39.9432 38.6567 39.9432 38.8233C39.9432 38.9899 39.866 39.147 39.7346 39.2479L36.7984 41.5058C36.7024 41.5805 36.589 41.6161 36.4764 41.6161Z" fill="#CFD8DD"/>
<path d="M32.3712 42.8152C32.3239 42.8152 32.2757 42.8088 32.228 42.7954C31.9457 42.716 31.7807 42.4211 31.8596 42.1368L33.7784 35.2233C33.8573 34.9391 34.1502 34.7729 34.4325 34.8524C34.7148 34.9318 34.8798 35.2267 34.8009 35.511L32.8821 42.4245C32.8164 42.6606 32.6032 42.8152 32.3712 42.8152Z" fill="#CFD8DD"/>
<path d="M65.0595 51.6858H1.60933C1.04433 51.6858 0.585938 51.2243 0.585938 50.6554C0.585938 50.0865 1.04433 49.625 1.60933 49.625H65.0595C65.6245 49.625 66.0829 50.0865 66.0829 50.6554C66.0829 51.2243 65.6245 51.6858 65.0595 51.6858Z" fill="#2C841C"/>
</svg>
