<svg width="56" height="53" viewBox="0 0 56 53" fill="none" xmlns="http://www.w3.org/2000/svg">
<path d="M28.0026 16.9395H23.3359V28.7929H28.0026V16.9395Z" fill="#7D50F9"/>
<path d="M37.3385 16.9395H32.6719V28.7929H37.3385V16.9395Z" fill="#7D50F9"/>
<path d="M46.6667 24.0515L42 28.7929V16.9395H46.6667V24.0515Z" fill="#7D50F9"/>
<path d="M52.5 9.82749H17.5C16.8 9.82749 16.3333 9.35335 16.3333 8.64214V7.4568V3.90076C16.3333 1.88567 14.8167 0.344727 12.8333 0.344727H0V2.71542H0.116667C0.583333 5.08611 2.45 6.86412 4.78333 7.33826C8.16667 7.38177 11.2 7.4568 14 7.4568V12.1982V38.2758L16.3333 35.3124V11.9611C16.6833 12.0796 17.0333 12.1982 17.5 12.1982H52.5C53.2 12.1982 53.6667 12.6723 53.6667 13.3835V21.6809C53.6667 22.6292 53.0833 24.2887 52.3833 24.9999L45.0333 33.2973C44.45 34.0085 42.9333 34.7197 42 34.7197H17.5C15.5167 34.7197 14 36.2607 14 38.2758V40.765C11.3167 41.3577 9.33333 43.7283 9.33333 46.5732C9.33333 49.8921 11.9 52.4999 15.1667 52.4999C17.9667 52.4999 20.3 50.4848 20.8833 47.7585H30.45C31.0333 50.4848 33.3667 52.4999 36.1667 52.4999C39.4333 52.4999 42 49.8921 42 46.5732C42 43.2542 39.4333 40.6465 36.1667 40.6465C33.3667 40.6465 31.0333 42.6615 30.45 45.3878H20.8833C20.4167 43.0171 18.6667 41.2391 16.3333 40.765V38.2758C16.3333 37.5646 16.8 37.0904 17.5 37.0904H42C43.6333 37.0904 45.6167 36.1421 46.7833 34.9568L54.1333 26.6594C55.1833 25.474 56 23.3404 56 21.6809V13.3835C56 11.3684 54.4833 9.82749 52.5 9.82749ZM2.56667 2.71542H12.8333C13.5333 2.71542 14 3.18955 14 3.90076V5.08611H5.83333C4.31667 5.08611 3.03333 4.13783 2.56667 2.71542ZM36.1667 43.0171C38.15 43.0171 39.6667 44.5581 39.6667 46.5732C39.6667 48.5883 38.15 50.1292 36.1667 50.1292C34.1833 50.1292 32.6667 48.5883 32.6667 46.5732C32.6667 44.5581 34.1833 43.0171 36.1667 43.0171ZM18.6667 46.5732C18.6667 48.5883 17.15 50.1292 15.1667 50.1292C13.1833 50.1292 11.6667 48.5883 11.6667 46.5732C11.6667 44.5581 13.1833 43.0171 15.1667 43.0171C17.15 43.0171 18.6667 44.5581 18.6667 46.5732Z" fill="#303033"/>
<path d="M36.1641 48.351C37.0974 48.351 37.9141 47.5212 37.9141 46.5729C37.9141 45.6247 37.0974 44.7949 36.1641 44.7949C35.2307 44.7949 34.4141 45.6247 34.4141 46.5729C34.4141 47.5212 35.2307 48.351 36.1641 48.351Z" fill="#303033"/>
<path d="M13.4141 46.5729C13.4141 47.5212 14.2307 48.351 15.1641 48.351C16.0974 48.351 16.9141 47.5212 16.9141 46.5729C16.9141 45.6247 16.0974 44.7949 15.1641 44.7949C14.2307 44.7949 13.4141 45.6247 13.4141 46.5729Z" fill="#303033"/>
</svg>
