<svg width="53" height="55" viewBox="0 0 53 55" fill="none" xmlns="http://www.w3.org/2000/svg">
<path d="M38.8066 42.2911C38.5541 42.2926 38.3037 42.2429 38.0699 42.145C37.8361 42.0471 37.6234 41.9028 37.4441 41.7204L33.7402 37.9224C33.3788 37.5519 33.1758 37.0493 33.1758 36.5252C33.1758 36.0012 33.3788 35.4986 33.7402 35.1281C34.1016 34.7575 34.5917 34.5493 35.1028 34.5493C35.6138 34.5493 36.1039 34.7575 36.4653 35.1281L40.1692 38.926C40.3491 39.109 40.4919 39.3266 40.5893 39.5664C40.6867 39.8062 40.7369 40.0634 40.7369 40.3232C40.7369 40.583 40.6867 40.8402 40.5893 41.08C40.4919 41.3198 40.3491 41.5375 40.1692 41.7204C39.9899 41.9028 39.7772 42.0471 39.5434 42.145C39.3096 42.2429 39.0592 42.2926 38.8066 42.2911Z" fill="#0E6AE0"/>
<path d="M21.5361 44.2589C17.3609 44.2589 13.2794 42.9894 9.80783 40.6108C6.33626 38.2323 3.6305 34.8516 2.03272 30.8962C0.434928 26.9408 0.0168738 22.5884 0.831419 18.3893C1.64596 14.1903 3.65653 10.3333 6.60885 7.30596C9.56118 4.27863 13.3227 2.217 17.4177 1.38176C21.5127 0.546525 25.7572 0.9752 29.6146 2.61358C33.472 4.25195 36.769 7.02644 39.0887 10.5862C41.4083 14.146 42.6464 18.3311 42.6464 22.6124C42.6464 28.3534 40.4223 33.8593 36.4633 37.9188C32.5044 41.9783 27.1349 44.2589 21.5361 44.2589ZM21.5361 4.90157C18.12 4.90157 14.7806 5.94029 11.9402 7.88638C9.09987 9.83247 6.88606 12.5985 5.57878 15.8347C4.2715 19.071 3.92946 22.632 4.5959 26.0676C5.26235 29.5032 6.90735 32.6589 9.32289 35.1358C11.7384 37.6127 14.816 39.2995 18.1665 39.9829C21.5169 40.6663 24.9898 40.3155 28.1458 38.975C31.3019 37.6346 33.9994 35.3645 35.8973 32.452C37.7952 29.5395 38.8081 26.1152 38.8081 22.6124C38.8081 17.9152 36.9884 13.4104 33.7493 10.0889C30.5101 6.76752 26.1169 4.90157 21.5361 4.90157Z" fill="#D8E1EF"/>
<path d="M50.728 43.8456L44.0111 36.9581C43.8327 36.7736 43.6204 36.6272 43.3866 36.5273C43.1527 36.4274 42.9019 36.376 42.6485 36.376C42.3952 36.376 42.1443 36.4274 41.9105 36.5273C41.6766 36.6272 41.4644 36.7736 41.286 36.9581L35.5286 42.8617C35.3487 43.0446 35.206 43.2623 35.1085 43.5021C35.0111 43.7419 34.9609 43.9991 34.9609 44.2589C34.9609 44.5186 35.0111 44.7759 35.1085 45.0157C35.206 45.2555 35.3487 45.4731 35.5286 45.656L42.2455 52.5436C43.374 53.69 44.8982 54.3332 46.4868 54.3332C48.0753 54.3332 49.5996 53.69 50.728 52.5436C51.8461 51.3865 52.4733 49.8235 52.4733 48.1946C52.4733 46.5657 51.8461 45.0027 50.728 43.8456Z" fill="#0593FF"/>
</svg>
