<svg width="49" height="42" viewBox="0 0 49 42" fill="none" xmlns="http://www.w3.org/2000/svg">
<path d="M41.5 0H6.5C2.63401 0 -0.5 3.13401 -0.5 7V35C-0.5 38.866 2.63401 42 6.5 42H41.5C45.366 42 48.5 38.866 48.5 35V7C48.5 3.13401 45.366 0 41.5 0Z" fill="#D8E1EF"/>
<path d="M48.5 7V10.5H-0.5V7C-0.5 5.14348 0.237498 3.36301 1.55025 2.05025C2.86301 0.737498 4.64348 0 6.5 0H41.5C43.3565 0 45.137 0.737498 46.4497 2.05025C47.7625 3.36301 48.5 5.14348 48.5 7Z" fill="#0593FF"/>
<path d="M38 21H10C9.53587 21 9.09075 20.8156 8.76256 20.4874C8.43437 20.1592 8.25 19.7141 8.25 19.25C8.25 18.7859 8.43437 18.3408 8.76256 18.0126C9.09075 17.6844 9.53587 17.5 10 17.5H38C38.4641 17.5 38.9093 17.6844 39.2374 18.0126C39.5656 18.3408 39.75 18.7859 39.75 19.25C39.75 19.7141 39.5656 20.1592 39.2374 20.4874C38.9093 20.8156 38.4641 21 38 21Z" fill="#0593FF"/>
<path d="M38 28H10C9.53587 28 9.09075 27.8156 8.76256 27.4874C8.43437 27.1592 8.25 26.7141 8.25 26.25C8.25 25.7859 8.43437 25.3408 8.76256 25.0126C9.09075 24.6844 9.53587 24.5 10 24.5H38C38.4641 24.5 38.9093 24.6844 39.2374 25.0126C39.5656 25.3408 39.75 25.7859 39.75 26.25C39.75 26.7141 39.5656 27.1592 39.2374 27.4874C38.9093 27.8156 38.4641 28 38 28Z" fill="#0593FF"/>
<path d="M22.25 35H10C9.53587 35 9.09075 34.8156 8.76256 34.4874C8.43437 34.1592 8.25 33.7141 8.25 33.25C8.25 32.7859 8.43437 32.3408 8.76256 32.0126C9.09075 31.6844 9.53587 31.5 10 31.5H22.25C22.7141 31.5 23.1592 31.6844 23.4874 32.0126C23.8156 32.3408 24 32.7859 24 33.25C24 33.7141 23.8156 34.1592 23.4874 34.4874C23.1592 34.8156 22.7141 35 22.25 35Z" fill="#0593FF"/>
<path d="M18.75 7C19.7165 7 20.5 6.2165 20.5 5.25C20.5 4.2835 19.7165 3.5 18.75 3.5C17.7835 3.5 17 4.2835 17 5.25C17 6.2165 17.7835 7 18.75 7Z" fill="#0E6AE0"/>
<path d="M13.5 7C14.4665 7 15.25 6.2165 15.25 5.25C15.25 4.2835 14.4665 3.5 13.5 3.5C12.5335 3.5 11.75 4.2835 11.75 5.25C11.75 6.2165 12.5335 7 13.5 7Z" fill="#0E6AE0"/>
<path d="M8.25 7C9.2165 7 10 6.2165 10 5.25C10 4.2835 9.2165 3.5 8.25 3.5C7.2835 3.5 6.5 4.2835 6.5 5.25C6.5 6.2165 7.2835 7 8.25 7Z" fill="#0E6AE0"/>
</svg>
