<svg width="62" height="50" viewBox="0 0 62 50" fill="none" xmlns="http://www.w3.org/2000/svg">
<path d="M58.2262 23.8403H19.4844V31.8394H58.2262V23.8403Z" fill="#E5F1FF"/>
<path d="M32.1764 33.4951H19.793V40.1513H32.1764V33.4951Z" fill="#E5F1FF"/>
<path d="M44.7008 33.541H33.9609V35.9271H44.7008V33.541Z" fill="#E5F1FF"/>
<path d="M58.2518 37.6284H33.8711V40.1839H58.2518V37.6284Z" fill="#E5F1FF"/>
<path d="M21.8681 18.6248C22.6259 18.6248 23.2402 18.0133 23.2402 17.2589C23.2402 16.5046 22.6259 15.8931 21.8681 15.8931C21.1104 15.8931 20.4961 16.5046 20.4961 17.2589C20.4961 18.0133 21.1104 18.6248 21.8681 18.6248Z" fill="#0084FF"/>
<path d="M17.9189 18.6248C18.6767 18.6248 19.2909 18.0133 19.2909 17.2589C19.2909 16.5046 18.6767 15.8931 17.9189 15.8931C17.1612 15.8931 16.5469 16.5046 16.5469 17.2589C16.5469 18.0133 17.1612 18.6248 17.9189 18.6248Z" fill="#55D7FF"/>
<path d="M25.8095 18.6248C26.5673 18.6248 27.1816 18.0133 27.1816 17.2589C27.1816 16.5046 26.5673 15.8931 25.8095 15.8931C25.0518 15.8931 24.4375 16.5046 24.4375 17.2589C24.4375 18.0133 25.0518 18.6248 25.8095 18.6248Z" fill="#0BBC00"/>
<path fill-rule="evenodd" clip-rule="evenodd" d="M55.3222 17.1676C55.3222 16.4751 54.7572 15.9126 54.0615 15.9126H40.8662C40.1703 15.9126 39.6055 16.4751 39.6055 17.1676V17.3696C39.6055 18.0622 40.1703 18.6246 40.8662 18.6246H54.0615C54.7572 18.6246 55.3222 18.0622 55.3222 17.3696V17.1676Z" fill="#E5F1FF"/>
<path fill-rule="evenodd" clip-rule="evenodd" d="M61.1937 9.34352C61.1937 7.74498 59.8899 6.44727 58.2844 6.44727H10.1945C8.58872 6.44727 7.28516 7.74498 7.28516 9.34352V46.265C7.28516 47.8635 8.58872 49.1612 10.1945 49.1612H58.2844C59.8899 49.1612 61.1937 47.8635 61.1937 46.265V9.34352Z" fill="url(#paint0_linear_4003_3161)"/>
<path fill-rule="evenodd" clip-rule="evenodd" d="M9.83984 14.645H58.048V44.8348C58.048 45.7564 57.2974 46.5036 56.3715 46.5036H12.1448C10.8719 46.5036 9.83984 45.4762 9.83984 44.2088V14.645Z" fill="white"/>
<mask id="mask0_4003_3161" style="mask-type:luminance" maskUnits="userSpaceOnUse" x="9" y="14" width="50" height="33">
<path d="M9.83984 14.645H58.048V44.8348C58.048 45.7564 57.2974 46.5036 56.3715 46.5036H12.1448C10.8719 46.5036 9.83984 45.4762 9.83984 44.2088V14.645Z" fill="white"/>
</mask>
<g mask="url(#mask0_4003_3161)">
<path d="M52.57 16.9561H13.8281V24.9551H52.57V16.9561Z" fill="#E5F1FF"/>
<path d="M26.5201 26.6108H14.1367V33.267H26.5201V26.6108Z" fill="#E5F1FF"/>
<path d="M40.2593 35.9658H14.1367V44.0757H40.2593V35.9658Z" fill="#E5F1FF"/>
<path d="M52.4735 35.9663H41.832V44.0762H52.4735V35.9663Z" fill="#E5F1FF"/>
<path d="M39.0445 26.6567H28.3047V29.0429H39.0445V26.6567Z" fill="#E5F1FF"/>
<path d="M52.5955 30.7441H28.2148V33.2996H52.5955V30.7441Z" fill="#E5F1FF"/>
</g>
<path d="M16.208 11.741C16.9657 11.741 17.58 11.1295 17.58 10.3752C17.58 9.6208 16.9657 9.00928 16.208 9.00928C15.4502 9.00928 14.8359 9.6208 14.8359 10.3752C14.8359 11.1295 15.4502 11.741 16.208 11.741Z" fill="#0084FF"/>
<path d="M12.2588 11.741C13.0165 11.741 13.6308 11.1295 13.6308 10.3752C13.6308 9.6208 13.0165 9.00928 12.2588 9.00928C11.501 9.00928 10.8867 9.6208 10.8867 10.3752C10.8867 11.1295 11.501 11.741 12.2588 11.741Z" fill="#55D7FF"/>
<path d="M20.1494 11.741C20.9071 11.741 21.5214 11.1295 21.5214 10.3752C21.5214 9.6208 20.9071 9.00928 20.1494 9.00928C19.3916 9.00928 18.7773 9.6208 18.7773 10.3752C18.7773 11.1295 19.3916 11.741 20.1494 11.741Z" fill="#0BBC00"/>
<path fill-rule="evenodd" clip-rule="evenodd" d="M49.662 10.2839C49.662 9.59126 49.0971 9.02881 48.4013 9.02881H35.206C34.5101 9.02881 33.9453 9.59126 33.9453 10.2839V10.4858C33.9453 11.1786 34.5101 11.7409 35.206 11.7409H48.4013C49.0971 11.7409 49.662 11.1786 49.662 10.4858V10.2839Z" fill="#E5F1FF"/>
<path fill-rule="evenodd" clip-rule="evenodd" d="M58.3909 10.2734C58.3909 9.57578 57.8218 9.00928 57.121 9.00928H55.3712C54.6704 9.00928 54.1016 9.57578 54.1016 10.2734V10.4767C54.1016 11.1745 54.6704 11.7408 55.3712 11.7408H57.121C57.8218 11.7408 58.3909 11.1745 58.3909 10.4767V10.2734Z" fill="#E5F1FF"/>
<path fill-rule="evenodd" clip-rule="evenodd" d="M56.7895 6.08375C56.7895 4.48521 55.4857 3.1875 53.8801 3.1875H5.21401C3.60826 3.1875 2.30469 4.48521 2.30469 6.08375V43.4746C2.30469 45.0731 3.60826 46.3708 5.21401 46.3708H53.8801C55.4857 46.3708 56.7895 45.0731 56.7895 43.4746V6.08375Z" fill="#CCE6FF" fill-opacity="0.160784"/>
<path fill-rule="evenodd" clip-rule="evenodd" d="M54.0687 3.50221C54.0687 1.90367 52.7649 0.605957 51.1594 0.605957H3.06948C1.46373 0.605957 0.160156 1.90367 0.160156 3.50221V40.4237C0.160156 42.0222 1.46373 43.3199 3.06948 43.3199H51.1594C52.7649 43.3199 54.0687 42.0222 54.0687 40.4237V3.50221Z" fill="url(#paint1_linear_4003_3161)"/>
<path fill-rule="evenodd" clip-rule="evenodd" d="M2.71875 8.80371H50.927V38.9933C50.927 39.9151 50.1763 40.6623 49.2504 40.6623H5.02371C3.75078 40.6623 2.71875 39.6349 2.71875 38.3675V8.80371Z" fill="white"/>
<mask id="mask1_4003_3161" style="mask-type:luminance" maskUnits="userSpaceOnUse" x="2" y="8" width="49" height="33">
<path d="M2.71875 8.80371H50.927V38.9933C50.927 39.9151 50.1763 40.6623 49.2504 40.6623H5.02371C3.75078 40.6623 2.71875 39.6349 2.71875 38.3675V8.80371Z" fill="white"/>
</mask>
<g mask="url(#mask1_4003_3161)">
<path d="M49.5396 11.1147H4.89062V19.1138H49.5396V11.1147Z" fill="#A4ABB6"/>
<path d="M19.5179 20.7695H5.24609V27.4257H19.5179V20.7695Z" fill="#A4ABB6"/>
<path d="M35.3517 30.125H5.24609V38.2349H35.3517V30.125Z" fill="#A4ABB6"/>
<path d="M49.4282 30.125H37.1641V38.2349H49.4282V30.125Z" fill="#A4ABB6"/>
<path d="M33.9555 20.8154H21.5781V23.2016H33.9555V20.8154Z" fill="#A4ABB6"/>
<path d="M49.5707 24.9028H21.4727V27.4583H49.5707V24.9028Z" fill="#A4ABB6"/>
</g>
<path d="M9.08297 5.89971C9.84073 5.89971 10.455 5.28819 10.455 4.53384C10.455 3.77949 9.84073 3.16797 9.08297 3.16797C8.32522 3.16797 7.71094 3.77949 7.71094 4.53384C7.71094 5.28819 8.32522 5.89971 9.08297 5.89971Z" fill="#0084FF"/>
<path d="M5.13766 5.89971C5.89541 5.89971 6.5097 5.28819 6.5097 4.53384C6.5097 3.77949 5.89541 3.16797 5.13766 3.16797C4.37991 3.16797 3.76562 3.77949 3.76562 4.53384C3.76562 5.28819 4.37991 5.89971 5.13766 5.89971Z" fill="#55D7FF"/>
<path d="M13.0283 5.89971C13.786 5.89971 14.4003 5.28819 14.4003 4.53384C14.4003 3.77949 13.786 3.16797 13.0283 3.16797C12.2705 3.16797 11.6562 3.77949 11.6562 4.53384C11.6562 5.28819 12.2705 5.89971 13.0283 5.89971Z" fill="#0BBC00"/>
<path fill-rule="evenodd" clip-rule="evenodd" d="M42.537 4.44254C42.537 3.74995 41.972 3.1875 41.2763 3.1875H28.081C27.3851 3.1875 26.8203 3.74995 26.8203 4.44254V4.64451C26.8203 5.3371 27.3851 5.89955 28.081 5.89955H41.2763C41.972 5.89955 42.537 5.3371 42.537 4.64451V4.44254Z" fill="#E5F1FF"/>
<path fill-rule="evenodd" clip-rule="evenodd" d="M51.2659 4.43228C51.2659 3.73448 50.6968 3.16797 49.9957 3.16797H48.2466C47.5456 3.16797 46.9766 3.73448 46.9766 4.43228V4.63502C46.9766 5.33282 47.5456 5.89952 48.2466 5.89952H49.9957C50.6968 5.89952 51.2659 5.33282 51.2659 4.63502V4.43228Z" fill="#E5F1FF"/>
<defs>
<linearGradient id="paint0_linear_4003_3161" x1="60.0387" y1="16.6612" x2="60.0387" y2="66.633" gradientUnits="userSpaceOnUse">
<stop stop-color="#515864"/>
<stop offset="1" stop-color="#748393"/>
</linearGradient>
<linearGradient id="paint1_linear_4003_3161" x1="45.7125" y1="24.6852" x2="45.7125" y2="62.11" gradientUnits="userSpaceOnUse">
<stop stop-color="#4C535F"/>
<stop offset="1" stop-color="#96A4B0"/>
</linearGradient>
</defs>
</svg>
