<svg width="188" height="54" viewBox="0 0 188 54" fill="none" xmlns="http://www.w3.org/2000/svg">
<path d="M3.87715 46.8457C4.79854 46.8457 5.50731 47.1292 6.00344 47.6253C6.49957 48.1215 6.78308 48.9011 6.78308 49.8225C6.78308 50.8148 6.49957 51.5235 6.00344 52.0905C5.50731 52.6576 4.79854 52.8702 3.87715 52.8702H1.39648V46.8457H3.87715ZM2.95576 51.6653H3.66452C4.65679 51.6653 5.2238 51.0274 5.2238 49.8225C5.2238 49.2555 5.08205 48.8302 4.79855 48.5467C4.51504 48.2632 4.16066 48.1215 3.66452 48.1215H2.95576V51.6653Z" fill="#45AC34"/>
<path d="M10.1191 52.8692V46.8447H11.6784V52.8692H10.1191Z" fill="#45AC34"/>
<path d="M20.6779 50.3174C20.6779 51.1679 20.4653 51.8058 19.9691 52.2311C19.473 52.7272 18.8351 52.9398 17.9846 52.9398C17.0632 52.9398 16.3545 52.6563 15.7875 52.0893C15.2913 51.5223 15.0078 50.7427 15.0078 49.7504C15.0078 48.7581 15.2913 47.9785 15.7875 47.4824C16.2836 46.9153 16.9924 46.6318 17.9137 46.6318C18.6225 46.6318 19.2604 46.8445 19.7565 47.1989C20.2527 47.6241 20.5362 48.1202 20.607 48.6872H19.1186C19.0478 48.4037 18.906 48.1911 18.6934 48.0494C18.4807 47.9076 18.1972 47.8367 17.9137 47.8367C17.4885 47.8367 17.1341 47.9785 16.9215 48.3329C16.7088 48.6872 16.5671 49.1125 16.5671 49.6795C16.5671 50.2465 16.7088 50.7427 16.9923 51.0971C17.2759 51.4514 17.6302 51.5932 18.0555 51.5932C18.4099 51.5932 18.6934 51.5223 18.906 51.3097C19.1186 51.097 19.2604 50.8844 19.2604 50.6009V50.53H18.1264V49.4669H20.6779V50.3174Z" fill="#45AC34"/>
<path d="M24.0098 52.8702V46.8457H25.5691V52.8702H24.0098Z" fill="#45AC34"/>
<path d="M30.4549 52.8692V48.0496H28.7539V46.8447H33.6444V48.0496H31.9433V52.8692H30.4549Z" fill="#45AC34"/>
<path d="M39.6697 51.5958H37.6851L37.3308 52.9425H35.7715L37.8269 46.918H39.6697L41.7251 52.9425H40.0949L39.6697 51.5958ZM38.0395 50.4618H39.3862L38.7483 48.1229L38.0395 50.4618Z" fill="#45AC34"/>
<path d="M48.8856 52.8692H44.8457V46.8447H46.405V51.6643H48.8856V52.8692Z" fill="#45AC34"/>
<path d="M63.132 52.8692H61.7853V49.1128L60.2969 52.7983H59.4464L57.958 49.1128V52.8692H56.6113V46.8447H58.3832L59.8716 50.7429L61.36 46.8447H63.132V52.8692Z" fill="#45AC34"/>
<path d="M70.221 51.5958H68.2365L67.8821 52.9425H66.252L68.3074 46.918H70.1501L72.2056 52.9425H70.5754L70.221 51.5958ZM68.52 50.4618H69.8666L69.2288 48.1229L68.52 50.4618Z" fill="#45AC34"/>
<path d="M76.8796 52.8692H75.3203V46.8447H77.9427C78.7224 46.8447 79.2894 46.9865 79.6438 47.3408C80.069 47.6952 80.2108 48.1914 80.2108 48.8293C80.2108 49.1836 80.1399 49.538 79.9273 49.8215C79.7146 50.105 79.502 50.3885 79.1476 50.5303L80.3525 52.8692H78.6515L77.5884 50.7429H76.8796V52.8692ZM76.8796 49.7506H77.801C78.0845 49.7506 78.2971 49.6798 78.4389 49.538C78.5806 49.3963 78.6515 49.1836 78.6515 48.9001C78.6515 48.6166 78.5806 48.404 78.4389 48.2623C78.2971 48.1205 78.0845 48.0496 77.801 48.0496H76.8796V49.7506Z" fill="#45AC34"/>
<path d="M83.6133 52.8702V46.8457H85.1726V49.4681L87.228 46.8457H88.8581L86.7318 49.539L88.929 52.8702H87.1571L85.5978 50.5313L85.1017 51.1691V52.8702H83.6133Z" fill="#45AC34"/>
<path d="M96.23 52.8702H92.1191V46.8457H96.23V48.0506H93.6075V49.2555H96.0173V50.3895H93.6075V51.5944H96.23V52.8702Z" fill="#45AC34"/>
<path d="M101.053 52.8692V48.0496H99.3516V46.8447H104.242V48.0496H102.541V52.8692H101.053Z" fill="#45AC34"/>
<path d="M107.502 52.8692V46.8447H109.061V52.8692H107.502Z" fill="#45AC34"/>
<path d="M112.531 52.8692V46.8447H113.736L116.288 50.3177V46.8447H117.776V52.8692H116.571L114.02 49.3254V52.8692H112.531Z" fill="#45AC34"/>
<path d="M126.848 50.3174C126.848 51.1679 126.635 51.8058 126.139 52.2311C125.643 52.7272 125.005 52.9398 124.155 52.9398C123.233 52.9398 122.524 52.6563 121.957 52.0893C121.461 51.5223 121.178 50.7427 121.178 49.7504C121.178 48.7581 121.461 47.9785 121.957 47.4824C122.454 46.9153 123.162 46.6318 124.084 46.6318C124.792 46.6318 125.43 46.8445 125.926 47.1989C126.423 47.6241 126.706 48.1202 126.777 48.6872H125.289C125.218 48.4037 125.076 48.1911 124.863 48.0494C124.651 47.9076 124.367 47.8367 124.084 47.8367C123.658 47.8367 123.304 47.9785 123.091 48.3329C122.879 48.6872 122.737 49.1125 122.737 49.6795C122.737 50.2465 122.879 50.7427 123.162 51.0971C123.446 51.4514 123.8 51.5932 124.225 51.5932C124.58 51.5932 124.863 51.5223 125.076 51.3097C125.289 51.097 125.43 50.8844 125.43 50.6009V50.53H124.296V49.4669H126.848V50.3174Z" fill="#45AC34"/>
<path d="M138.115 51.5958H136.13L135.776 52.9425H134.217L136.272 46.918H138.115L140.17 52.9425H138.54L138.115 51.5958ZM136.414 50.4618H137.761L137.123 48.1229L136.414 50.4618Z" fill="#45AC34"/>
<path d="M148.467 50.3174C148.467 51.1679 148.254 51.8058 147.758 52.2311C147.262 52.7272 146.624 52.9398 145.774 52.9398C144.852 52.9398 144.144 52.6563 143.577 52.0893C143.08 51.5223 142.797 50.7427 142.797 49.7504C142.797 48.7581 143.08 47.9785 143.577 47.4824C144.073 46.9153 144.781 46.6318 145.703 46.6318C146.412 46.6318 147.049 46.8445 147.546 47.1989C148.042 47.6241 148.325 48.1202 148.396 48.6872H146.908C146.837 48.4037 146.695 48.1911 146.482 48.0494C146.27 47.9076 145.986 47.8367 145.703 47.8367C145.278 47.8367 144.923 47.9785 144.711 48.3329C144.498 48.6872 144.356 49.1125 144.356 49.6795C144.356 50.2465 144.498 50.7427 144.781 51.0971C145.065 51.4514 145.419 51.5932 145.845 51.5932C146.199 51.5932 146.482 51.5223 146.695 51.3097C146.908 51.097 147.049 50.8844 147.049 50.6009V50.53H145.915V49.4669H148.467V50.3174Z" fill="#45AC34"/>
<path d="M155.908 52.8692H151.797V46.8447H155.908V48.0496H153.285V49.2545H155.695V50.3885H153.285V51.5934H155.908V52.8692Z" fill="#45AC34"/>
<path d="M159.381 52.8692V46.8447H160.586L163.137 50.3177V46.8447H164.626V52.8692H163.421L160.869 49.3254V52.8692H159.381Z" fill="#45AC34"/>
<path d="M168.807 52.161C168.311 51.594 168.027 50.8144 168.027 49.893C168.027 48.9007 168.311 48.121 168.807 47.6249C169.303 47.0579 170.012 46.7744 170.933 46.7744C171.713 46.7744 172.351 46.987 172.847 47.4123C173.343 47.8376 173.627 48.4754 173.627 49.1842H172.138C172.067 48.8298 171.996 48.5463 171.713 48.3337C171.5 48.121 171.217 47.9793 170.862 47.9793C170.437 47.9793 170.083 48.1211 169.87 48.4754C169.658 48.8298 169.516 49.2551 169.516 49.893C169.516 50.46 169.658 50.9561 169.87 51.3105C170.083 51.6649 170.437 51.8066 170.862 51.8066C171.217 51.8066 171.5 51.7357 171.713 51.5231C171.926 51.3105 172.067 51.027 172.138 50.6726H173.627C173.556 51.3814 173.343 51.9484 172.847 52.3736C172.351 52.7989 171.713 53.0115 170.933 53.0115C170.012 53.0115 169.303 52.728 168.807 52.161Z" fill="#45AC34"/>
<path d="M178.376 52.8692V50.8138L176.32 46.8447H177.95L179.155 49.3254L180.36 46.8447H181.99L179.935 50.8138V52.8692H178.376Z" fill="#45AC34"/>
<path fill-rule="evenodd" clip-rule="evenodd" d="M130.748 2.26465V9.13964H145.986H148.821H149.814L153.428 2.26465H145.986H130.748Z" fill="black"/>
<path fill-rule="evenodd" clip-rule="evenodd" d="M130.748 37.8439H137.694V23.5269H146.341V16.5811H130.748V37.8439Z" fill="black"/>
<path fill-rule="evenodd" clip-rule="evenodd" d="M28.3326 2.26465H19.3313L7.2115 17.2904V2.26465H0.265625V27.5675V37.8445H1.11615H7.2115V33.7337V27.5675V19.4167L10.3301 23.3149L21.5285 37.8445H30.2463L15.2914 18.3536L28.3326 2.26465Z" fill="black"/>
<path fill-rule="evenodd" clip-rule="evenodd" d="M180.15 2.26465H162.289V9.13964H171.574V37.8445H178.449V9.13964H180.15H186.174H187.734V6.80072V2.26465H180.15Z" fill="black"/>
<path fill-rule="evenodd" clip-rule="evenodd" d="M61.3632 27.9219L59.0243 25.0159C63.6313 23.3858 66.8207 18.9206 66.8207 13.9592C66.8207 7.50948 61.5759 2.26465 55.1261 2.26465H41.2344L45.8413 9.21052H55.1261C57.7485 9.21052 59.9457 11.4077 59.9457 14.0301C59.9457 16.6525 57.7485 18.8497 55.1261 18.8497H53.4251H48.1802H45.8413H44.8491H41.2344V23.5984V37.8445H48.1802V28.9141V25.6538H50.59L60.5836 37.8445H69.4431L61.3632 27.9219Z" fill="black"/>
<path fill-rule="evenodd" clip-rule="evenodd" d="M98.5019 0.989258L78.8691 37.8449H86.6655L98.5019 15.5189L110.409 37.8449H118.135L98.5019 0.989258Z" fill="black"/>
<path fill-rule="evenodd" clip-rule="evenodd" d="M106.51 37.8445L98.5006 22.8896L90.5625 37.8445L98.5006 35.293L106.51 37.8445Z" fill="#45AC34"/>
</svg>
