<svg width="260" height="202" viewBox="0 0 260 202" fill="none" xmlns="http://www.w3.org/2000/svg">
<path d="M32.5484 168.444C43.1012 160.003 53.5515 151.434 64.0696 142.949C75.1152 134.039 86.1676 124.23 98.1617 116.51C105.06 112.07 112.995 107.882 120.971 105.855C129.373 103.72 136.889 102.349 143.644 108.494C148.318 112.747 151.197 118.33 154.073 123.892C156.802 129.172 156.83 136.049 154.449 141.446C151.95 147.115 143.765 150.897 137.867 150.507C129.922 149.981 129.86 139.755 131.012 133.878C135.212 112.44 147.977 94.7076 163.837 80.2701C177.108 68.1885 191.335 56.6055 205.856 46.0629C209.105 43.7037 212.492 41.3719 216.013 39.4228" stroke="#D0D4DC" stroke-linecap="round" stroke-dasharray="8 8"/>
<path fill-rule="evenodd" clip-rule="evenodd" d="M210.288 19.7211L248.762 15.1371L231.749 49.8612L225.792 31.4934L210.288 19.7211Z" fill="#45AC34"/>
<path fill-rule="evenodd" clip-rule="evenodd" d="M37.0363 182.774L9.06981 189.234L18.8157 162.298L24.6753 175.347L37.0363 182.774Z" fill="#45AC34"/>
</svg>
