<svg width="25" height="16" viewBox="0 0 25 16" fill="none" xmlns="http://www.w3.org/2000/svg">
<path d="M19.78 7.36L18.7 7.48C16.54 7.16 15.46 6.16 15.46 4.48C15.46 1.92 16.68 0.639998 19.12 0.639998C20.72 0.639998 21.98 1.36 22.9 2.8C23.66 3.92 24.04 5.28 24.04 6.88C24.04 8.44 23.3 10.18 21.82 12.1C20.34 14.02 18.74 15.32 17.02 16L16.48 14.68C17.52 14.24 18.62 13.32 19.78 11.92C20.94 10.52 21.52 9.4 21.52 8.56C21.52 7.72 21.24 7.3 20.68 7.3C20.36 7.3 20.06 7.32 19.78 7.36ZM8.32 2.8C9.12 3.96 9.52 5.34 9.52 6.94C9.52 8.5 8.74 10.24 7.18 12.16C5.62 14.08 4.04 15.36 2.44 16L1.9 14.68C2.82 14.28 3.92 13.36 5.2 11.92C6.4 10.48 7 9.36 7 8.56C7 7.72 6.72 7.3 6.16 7.3C6.48 7.3 5.82 7.36 4.18 7.48C1.94 7.16 0.82 6.16 0.82 4.48C0.82 1.92 2.06 0.639998 4.54 0.639998C6.18 0.639998 7.44 1.36 8.32 2.8Z" fill="#BBC1CA"/>
</svg>
