<svg width="32" height="33" viewBox="0 0 32 33" fill="none" xmlns="http://www.w3.org/2000/svg">
<path d="M17.1734 7.51981C21.4134 8.05314 24.7334 11.3731 25.2667 15.6131C25.3467 16.2931 25.92 16.7865 26.5867 16.7865C26.64 16.7865 26.6934 16.7865 26.7467 16.7731C27.48 16.6798 28 16.0131 27.9067 15.2798C27.5793 12.632 26.3769 10.1694 24.4903 8.28287C22.6038 6.39632 20.1412 5.19391 17.4934 4.86647C16.7601 4.78647 16.0934 5.30647 16.0134 6.03981C15.9201 6.77314 16.4401 7.43981 17.1734 7.51981ZM17.6801 10.3331C16.9734 10.1465 16.2401 10.5731 16.0534 11.2931C15.8667 12.0131 16.2934 12.7331 17.0134 12.9198C17.7033 13.0989 18.3328 13.4591 18.8368 13.9631C19.3408 14.4671 19.701 15.0966 19.8801 15.7865C19.9689 16.1292 20.19 16.4228 20.4949 16.6028C20.7999 16.7827 21.1637 16.8344 21.5067 16.7465C22.2134 16.5598 22.6401 15.8265 22.4667 15.1198C22.1663 13.9685 21.5645 12.9181 20.7231 12.0767C19.8818 11.2354 18.8314 10.6335 17.6801 10.3331ZM25.64 21.1331L22.2534 20.7465C21.8552 20.6997 21.4515 20.7438 21.0728 20.8754C20.6941 21.0071 20.3501 21.2228 20.0667 21.5065L17.6134 23.9598C13.8286 22.0344 10.7521 18.9579 8.82672 15.1731L11.2934 12.7065C11.8667 12.1331 12.1467 11.3331 12.0534 10.5198L11.6667 7.15981C11.5914 6.50926 11.2793 5.90917 10.79 5.47393C10.3007 5.03869 9.66828 4.79874 9.01339 4.79981H6.70672C5.20005 4.79981 3.94672 6.05314 4.04005 7.55981C4.74672 18.9465 13.8534 28.0398 25.2267 28.7465C26.7334 28.8398 27.9867 27.5865 27.9867 26.0798V23.7731C28 22.4265 26.9867 21.2931 25.64 21.1331Z" fill="url(#paint0_linear_2340_8162)"/>
<defs>
<linearGradient id="paint0_linear_2340_8162" x1="4.03516" y1="16.7756" x2="27.9868" y2="16.7756" gradientUnits="userSpaceOnUse">
<stop stop-color="#5FBD4C"/>
<stop offset="1" stop-color="#7ECF1D"/>
</linearGradient>
</defs>
</svg>
