<svg width="26" height="27" viewBox="0 0 26 27" fill="none" xmlns="http://www.w3.org/2000/svg">
<path fill-rule="evenodd" clip-rule="evenodd" d="M9.07266 9.87758C9.32157 9.50421 9.82603 9.40332 10.1994 9.65223L14.6237 12.6018L19.048 9.65223C19.4214 9.40332 19.9258 9.50421 20.1747 9.87758C20.4237 10.2509 20.3228 10.7554 19.9494 11.0043L15.0744 14.2543C14.8015 14.4363 14.4459 14.4363 14.173 14.2543L9.29801 11.0043C8.92464 10.7554 8.82375 10.2509 9.07266 9.87758ZM0.269531 11.9533C0.269531 11.5045 0.6333 11.1408 1.08203 11.1408H5.41537C5.8641 11.1408 6.22787 11.5045 6.22787 11.9533C6.22787 12.402 5.8641 12.7658 5.41537 12.7658H1.08203C0.6333 12.7658 0.269531 12.402 0.269531 11.9533ZM2.4362 15.2033C2.4362 14.7545 2.79997 14.3908 3.2487 14.3908H5.41537C5.8641 14.3908 6.22787 14.7545 6.22787 15.2033C6.22787 15.652 5.8641 16.0158 5.41537 16.0158H3.2487C2.79997 16.0158 2.4362 15.652 2.4362 15.2033Z" fill="url(#paint0_linear_2340_9166)"/>
<path fill-rule="evenodd" clip-rule="evenodd" d="M7.58073 6.80713C7.22158 6.80713 6.87714 6.9498 6.62319 7.20375C6.36923 7.45771 6.22656 7.80215 6.22656 8.16129V8.70296C6.22656 9.15169 5.86279 9.51546 5.41406 9.51546C4.96533 9.51546 4.60156 9.15169 4.60156 8.70296V8.16129C4.60156 7.37117 4.91544 6.61341 5.47414 6.05471C6.03284 5.496 6.7906 5.18213 7.58073 5.18213H21.6641C22.4542 5.18213 23.2119 5.496 23.7706 6.05471C24.3293 6.61341 24.6432 7.37117 24.6432 8.16129V18.9946C24.6432 19.7847 24.3293 20.5425 23.7706 21.1012C23.2119 21.6599 22.4542 21.9738 21.6641 21.9738H7.58073C6.7906 21.9738 6.03284 21.6599 5.47414 21.1012C4.91544 20.5425 4.60156 19.7847 4.60156 18.9946V18.453C4.60156 18.0042 4.96533 17.6405 5.41406 17.6405C5.86279 17.6405 6.22656 18.0042 6.22656 18.453V18.9946C6.22656 19.3538 6.36923 19.6982 6.62319 19.9522C6.87714 20.2061 7.22158 20.3488 7.58073 20.3488H21.6641C22.0232 20.3488 22.3676 20.2061 22.6216 19.9522C22.8756 19.6982 23.0182 19.3538 23.0182 18.9946V8.16129C23.0182 7.80215 22.8756 7.45771 22.6216 7.20375C22.3676 6.9498 22.0232 6.80713 21.6641 6.80713H7.58073Z" fill="url(#paint1_linear_2340_9166)"/>
<defs>
<linearGradient id="paint0_linear_2340_9166" x1="1.08203" y1="12.7658" x2="19.4987" y2="12.7658" gradientUnits="userSpaceOnUse">
<stop stop-color="#6AC33B"/>
<stop offset="1" stop-color="#79CC24"/>
</linearGradient>
<linearGradient id="paint1_linear_2340_9166" x1="25.9974" y1="10.2031" x2="3.2474" y2="21.5781" gradientUnits="userSpaceOnUse">
<stop stop-color="#7CCE20"/>
<stop offset="1" stop-color="#62BF47"/>
</linearGradient>
</defs>
</svg>
