<svg width="375" height="953" viewBox="0 0 375 953" fill="none" xmlns="http://www.w3.org/2000/svg">
  <!-- Траектория движения -->
  <path id="motionPathMobile" d="M40.4029 19.4604L48.38 55.0317C54.4708 82.1915 55.4132 110.253 51.1582 137.76L51.0124 138.702C48.6024 154.282 44.5254 169.558 38.8515 184.267V184.267C26.854 215.368 6.85095 242.695 -8.69778 272.182C-10.8625 276.287 -12.7075 280.39 -14.0165 284.322C-20.1737 302.818 -21.6847 314.474 -19.9055 333.876C-17.4537 360.613 -11.1572 376.797 5.75527 397.647C18.178 412.962 27.6072 420.337 45.3022 429.064C76.9694 444.681 135.544 435.415 135.544 435.415C135.544 435.415 195.692 464.713 233.723 474.931V474.931C272.812 485.433 311.028 504.408 331.961 539.05C335.14 544.31 337.722 549.373 339.255 553.86C347.985 579.403 353.76 595.001 351.44 621.905C349.276 647.017 341.133 660.119 330.45 682.963C314.022 718.092 283.182 727.14 274.262 764.869C269.558 784.762 271.882 796.722 272.137 817.155C272.415 839.432 273.263 851.97 276.149 874.059C279.463 899.427 289.052 938.283 289.052 938.283" stroke="#D0D4DC" stroke-dasharray="8 8" fill="none"/>

  <!-- Центрированная и повёрнутая стрелка -->
  <defs>
    <g id="movingArrowMobile">
      <g transform="rotate(-70) translate(-5, 0)">
        <path d="M-8.5 0L10.658 18.84L16.0605 -7.426L4.9988 0.1209L-8.5 0Z" fill="#45AC34"/>
      </g>
    </g>
  </defs>

  <!-- Движущиеся стрелки -->
  <g>
    <use href="#movingArrowMobile">
      <animateMotion dur="10s" repeatCount="indefinite" rotate="auto">
        <mpath href="#motionPathMobile"/>
      </animateMotion>
    </use>

    <use href="#movingArrowMobile">
      <animateMotion begin="4s" dur="10s" repeatCount="indefinite" rotate="auto">
        <mpath href="#motionPathMobile"/>
      </animateMotion>
    </use>
  </g>
</svg>
