<svg width="25" height="26" viewBox="0 0 25 26" fill="none" xmlns="http://www.w3.org/2000/svg">
<path d="M13.4166 5.83881C16.7291 6.25548 19.3228 8.84923 19.7395 12.1617C19.802 12.693 20.2499 13.0784 20.7708 13.0784C20.8124 13.0784 20.8541 13.0784 20.8958 13.068C21.4687 12.9951 21.8749 12.4742 21.802 11.9013C21.5462 9.83271 20.6068 7.90881 19.1329 6.43495C17.6591 4.96109 15.7352 4.0217 13.6666 3.76589C13.0937 3.70339 12.5728 4.10964 12.5103 4.68256C12.4374 5.25548 12.8437 5.77631 13.4166 5.83881ZM13.8124 8.03673C13.2603 7.89089 12.6874 8.22423 12.5416 8.78673C12.3958 9.34923 12.7291 9.91173 13.2916 10.0576C13.8306 10.1975 14.3224 10.4789 14.7161 10.8726C15.1099 11.2664 15.3913 11.7582 15.5312 12.2971C15.6006 12.5649 15.7733 12.7943 16.0115 12.9349C16.2498 13.0755 16.534 13.1158 16.802 13.0471C17.3541 12.9013 17.6874 12.3284 17.552 11.7763C17.3173 10.8769 16.8471 10.0562 16.1898 9.39892C15.5325 8.74162 14.7119 8.27141 13.8124 8.03673ZM20.0312 16.4742L17.3853 16.1721C17.0742 16.1356 16.7589 16.17 16.463 16.2729C16.1671 16.3757 15.8984 16.5443 15.677 16.7659L13.7603 18.6826C10.8035 17.1783 8.39998 14.7749 6.89575 11.818L8.82284 9.89089C9.27075 9.44298 9.4895 8.81798 9.41659 8.18256L9.1145 5.55756C9.05567 5.04932 8.81186 4.5805 8.42957 4.24047C8.04727 3.90044 7.55322 3.71297 7.04159 3.71381H5.2395C4.06242 3.71381 3.08325 4.69298 3.15617 5.87006C3.70825 14.7659 10.8228 21.8701 19.7083 22.4221C20.8853 22.4951 21.8645 21.5159 21.8645 20.3388V18.5367C21.8749 17.4846 21.0833 16.5992 20.0312 16.4742Z" fill="url(#paint0_linear_2340_9162)"/>
<defs>
<linearGradient id="paint0_linear_2340_9162" x1="3.15234" y1="13.0699" x2="21.8646" y2="13.0699" gradientUnits="userSpaceOnUse">
<stop stop-color="#5FBD4C"/>
<stop offset="1" stop-color="#7ECF1D"/>
</linearGradient>
</defs>
</svg>
