<svg width="34" height="35" viewBox="0 0 34 35" fill="none" xmlns="http://www.w3.org/2000/svg">
<path fill-rule="evenodd" clip-rule="evenodd" d="M11.8633 12.9469C12.1888 12.4586 12.8485 12.3267 13.3368 12.6522L19.1224 16.5093L24.908 12.6522C25.3963 12.3267 26.056 12.4586 26.3814 12.9469C26.7069 13.4351 26.575 14.0948 26.0868 14.4203L19.7118 18.6703C19.3549 18.9082 18.8899 18.9082 18.533 18.6703L12.158 14.4203C11.6698 14.0948 11.5378 13.4351 11.8633 12.9469ZM0.351562 15.6612C0.351562 15.0744 0.82726 14.5987 1.41406 14.5987H7.08073C7.66753 14.5987 8.14323 15.0744 8.14323 15.6612C8.14323 16.248 7.66753 16.7237 7.08073 16.7237H1.41406C0.82726 16.7237 0.351562 16.248 0.351562 15.6612ZM3.1849 19.9112C3.1849 19.3244 3.66059 18.8487 4.2474 18.8487H7.08073C7.66753 18.8487 8.14323 19.3244 8.14323 19.9112C8.14323 20.498 7.66753 20.9737 7.08073 20.9737H4.2474C3.66059 20.9737 3.1849 20.498 3.1849 19.9112Z" fill="url(#paint0_linear_2340_8166)"/>
<path fill-rule="evenodd" clip-rule="evenodd" d="M9.91146 8.93164C9.4418 8.93164 8.99139 9.11821 8.65929 9.45031C8.32719 9.7824 8.14062 10.2328 8.14062 10.7025V11.4108C8.14062 11.9976 7.66493 12.4733 7.07812 12.4733C6.49132 12.4733 6.01562 11.9976 6.01562 11.4108V10.7025C6.01562 9.66923 6.42608 8.67831 7.15669 7.9477C7.8873 7.21709 8.87822 6.80664 9.91146 6.80664H28.3281C29.3614 6.80664 30.3523 7.21709 31.0829 7.9477C31.8135 8.67831 32.224 9.66923 32.224 10.7025V24.8691C32.224 25.9024 31.8135 26.8933 31.0829 27.6239C30.3523 28.3545 29.3614 28.765 28.3281 28.765H9.91146C8.87822 28.765 7.8873 28.3545 7.15669 27.6239C6.42608 26.8933 6.01562 25.9024 6.01562 24.8691V24.1608C6.01562 23.574 6.49132 23.0983 7.07812 23.0983C7.66493 23.0983 8.14062 23.574 8.14062 24.1608V24.8691C8.14062 25.3388 8.32719 25.7892 8.65929 26.1213C8.99139 26.4534 9.4418 26.64 9.91146 26.64H28.3281C28.7978 26.64 29.2482 26.4534 29.5803 26.1213C29.9124 25.7892 30.099 25.3388 30.099 24.8691V10.7025C30.099 10.2328 29.9124 9.7824 29.5803 9.45031C29.2482 9.11821 28.7978 8.93164 28.3281 8.93164H9.91146Z" fill="url(#paint1_linear_2340_8166)"/>
<defs>
<linearGradient id="paint0_linear_2340_8166" x1="1.41406" y1="16.7237" x2="25.4974" y2="16.7237" gradientUnits="userSpaceOnUse">
<stop stop-color="#6AC33B"/>
<stop offset="1" stop-color="#79CC24"/>
</linearGradient>
<linearGradient id="paint1_linear_2340_8166" x1="33.9948" y1="13.3726" x2="4.24479" y2="28.2476" gradientUnits="userSpaceOnUse">
<stop stop-color="#7CCE20"/>
<stop offset="1" stop-color="#62BF47"/>
</linearGradient>
</defs>
</svg>
