<svg width="60" height="60" viewBox="0 0 60 60" fill="none" xmlns="http://www.w3.org/2000/svg">
<g clip-path="url(#clip0_2264_500)">
<path fill-rule="evenodd" clip-rule="evenodd" d="M54.375 30C54.375 36.4647 51.8069 42.6645 47.2357 47.2357C42.6645 51.8069 36.4647 54.375 30 54.375C23.5353 54.375 17.3355 51.8069 12.7643 47.2357C8.19307 42.6645 5.625 36.4647 5.625 30C5.625 23.5353 8.19307 17.3355 12.7643 12.7643C17.3355 8.19307 23.5353 5.625 30 5.625C36.4647 5.625 42.6645 8.19307 47.2357 12.7643C51.8069 17.3355 54.375 23.5353 54.375 30ZM60 30C60 37.9565 56.8393 45.5871 51.2132 51.2132C45.5871 56.8393 37.9565 60 30 60C22.0435 60 14.4129 56.8393 8.7868 51.2132C3.16071 45.5871 0 37.9565 0 30C0 22.0435 3.16071 14.4129 8.7868 8.7868C14.4129 3.16071 22.0435 0 30 0C37.9565 0 45.5871 3.16071 51.2132 8.7868C56.8393 14.4129 60 22.0435 60 30ZM19.695 17.625C20.9867 16.8818 22.5206 16.6816 23.9598 17.0683C25.399 17.455 26.626 18.397 27.3713 19.6875C27.616 20.1179 27.6805 20.6277 27.5508 21.1055C27.4211 21.5833 27.1076 21.9904 26.6788 22.238C26.25 22.4856 25.7407 22.5535 25.262 22.4269C24.7833 22.3004 24.3742 21.9896 24.1238 21.5625C23.9593 21.2782 23.723 21.042 23.4385 20.8778C23.1541 20.7135 22.8314 20.6268 22.503 20.6264C22.1745 20.6261 21.8517 20.712 21.5668 20.8756C21.282 21.0392 21.0452 21.2748 20.88 21.5588C20.6304 21.9889 20.2201 22.3023 19.7394 22.4299C19.2587 22.5575 18.747 22.489 18.3169 22.2394C17.8867 21.9897 17.5734 21.5795 17.4457 21.0988C17.3181 20.6181 17.3866 20.1064 17.6362 19.6763C18.132 18.8235 18.8395 18.1161 19.695 17.625ZM30 45C33.9782 45 37.7936 43.4196 40.6066 40.6066C43.4196 37.7936 45 33.9782 45 30H15C15 33.9782 16.5804 37.7936 19.3934 40.6066C22.2064 43.4196 26.0218 45 30 45ZM34.695 17.625C35.9867 16.8818 37.5206 16.6816 38.9598 17.0683C40.399 17.455 41.626 18.397 42.3713 19.6875C42.4963 19.9008 42.5779 20.1368 42.6114 20.3818C42.6449 20.6268 42.6296 20.876 42.5664 21.115C42.5032 21.3541 42.3934 21.5783 42.2432 21.7747C42.093 21.9711 41.9054 22.1359 41.6912 22.2596C41.4771 22.3832 41.2406 22.4633 40.9954 22.4951C40.7502 22.527 40.5011 22.5101 40.2625 22.4453C40.0238 22.3805 39.8004 22.2691 39.6049 22.1176C39.4095 21.9661 39.246 21.7775 39.1237 21.5625C38.9593 21.2782 38.723 21.042 38.4385 20.8778C38.1541 20.7135 37.8314 20.6268 37.503 20.6264C37.1745 20.6261 36.8517 20.712 36.5668 20.8756C36.282 21.0392 36.0452 21.2748 35.88 21.5588C35.6304 21.9889 35.2201 22.3023 34.7394 22.4299C34.2587 22.5575 33.747 22.489 33.3169 22.2394C32.8867 21.9897 32.5734 21.5795 32.4457 21.0988C32.3181 20.6181 32.3866 20.1064 32.6362 19.6763C33.132 18.8235 33.8433 18.1161 34.6987 17.625H34.695Z" fill="url(#paint0_linear_2264_500)"/>
</g>
<defs>
<linearGradient id="paint0_linear_2264_500" x1="0" y1="30" x2="60" y2="30" gradientUnits="userSpaceOnUse">
<stop stop-color="#5EBC4D"/>
<stop offset="1" stop-color="#7FD01B"/>
</linearGradient>
<clipPath id="clip0_2264_500">
<rect width="60" height="60" fill="white"/>
</clipPath>
</defs>
</svg>
