<svg width="45" height="38" viewBox="0 0 45 38" fill="none" xmlns="http://www.w3.org/2000/svg">
<path fill-rule="evenodd" clip-rule="evenodd" d="M39.0512 0.918532C39.5405 0.624182 40.1248 0.530826 40.6815 0.658056C41.2382 0.785287 41.7239 1.12321 42.0368 1.60091L44.2231 4.93549C44.5081 5.37111 44.63 5.89341 44.5674 6.41019C44.5048 6.92697 44.2616 7.40502 43.8808 7.75995L43.8742 7.76878L43.8432 7.79749L43.7174 7.91453L43.2205 8.38932C40.4712 11.0562 37.8052 13.8077 35.2263 16.6397C30.3746 21.975 24.6131 28.9577 20.7352 35.7329C19.6532 37.6232 17.0098 38.0296 15.4419 36.3976L1.12083 21.5179C0.9156 21.3045 0.755351 21.0521 0.649609 20.7757C0.543867 20.4992 0.494791 20.2043 0.505298 19.9084C0.515804 19.6126 0.585679 19.3219 0.710768 19.0536C0.835858 18.7853 1.01361 18.5449 1.23346 18.3467L5.56179 14.4424C5.94216 14.0994 6.42989 13.8994 6.9415 13.8764C7.45312 13.8534 7.95682 14.009 8.36637 14.3165L15.6737 19.7954C27.0886 8.53949 33.5612 4.21999 39.0512 0.918532ZM39.5149 5.8122C34.4578 8.97453 28.1464 13.5612 17.436 24.2694C17.0602 24.6453 16.5614 24.873 16.0312 24.9107C15.501 24.9484 14.975 24.7937 14.5497 24.4748L7.16946 18.9407L5.88642 20.0979L17.6281 32.3012C21.7047 25.5216 27.3161 18.7729 31.9602 13.6672C34.4058 10.9808 36.9281 8.36503 39.5237 5.82324L39.5149 5.8122Z" fill="white"/>
</svg>
