<svg width="26" height="22" viewBox="0 0 26 22" fill="none" xmlns="http://www.w3.org/2000/svg">
<path fill-rule="evenodd" clip-rule="evenodd" d="M22.37 0.916169C22.647 0.749556 22.9777 0.696712 23.2928 0.76873C23.6079 0.840747 23.8829 1.03203 24.06 1.30242L25.2975 3.18992C25.4588 3.4365 25.5278 3.73213 25.4924 4.02465C25.4569 4.31717 25.3193 4.58776 25.1037 4.78867L25.1 4.79367L25.0825 4.80992L25.0112 4.87617L24.73 5.14492C23.1738 6.6545 21.6647 8.21191 20.205 9.81492C17.4587 12.8349 14.1975 16.7874 12.0025 20.6224C11.39 21.6924 9.89373 21.9224 9.00623 20.9987L0.899984 12.5762C0.783816 12.4554 0.693109 12.3126 0.633255 12.1561C0.573401 11.9996 0.545622 11.8326 0.551569 11.6652C0.557516 11.4977 0.597068 11.3332 0.667873 11.1813C0.738679 11.0294 0.839292 10.8934 0.963734 10.7812L3.41373 8.57117C3.62904 8.37706 3.90511 8.26381 4.19471 8.25081C4.4843 8.23782 4.76941 8.32587 5.00123 8.49992L9.13748 11.6012C15.5987 5.22992 19.2625 2.78492 22.37 0.916169ZM22.6325 3.68617C19.77 5.47617 16.1975 8.07242 10.135 14.1337C9.92224 14.3464 9.63991 14.4753 9.3398 14.4967C9.03969 14.518 8.74195 14.4304 8.50123 14.2499L4.32373 11.1174L3.59748 11.7724L10.2437 18.6799C12.5512 14.8424 15.7275 11.0224 18.3562 8.13242C19.7406 6.61178 21.1682 5.13117 22.6375 3.69242L22.6325 3.68617Z" fill="white"/>
</svg>
